<?xml version="1.0" encoding="UTF-8" standalone="no"?>
<!-- Created with Inkscape (http://www.inkscape.org/) -->

<svg
   xmlns:dc="http://purl.org/dc/elements/1.1/"
   xmlns:cc="http://creativecommons.org/ns#"
   xmlns:rdf="http://www.w3.org/1999/02/22-rdf-syntax-ns#"
   xmlns:svg="http://www.w3.org/2000/svg"
   xmlns="http://www.w3.org/2000/svg"
   xmlns:sodipodi="http://sodipodi.sourceforge.net/DTD/sodipodi-0.dtd"
   xmlns:inkscape="http://www.inkscape.org/namespaces/inkscape"
   width="86.590057"
   height="107.28783"
   id="svg3030"
   version="1.1"
   inkscape:version="0.47pre4 r22446"
   sodipodi:docname="handwriting.svg">
  <defs
     id="defs3032">
    <inkscape:perspective
       sodipodi:type="inkscape:persp3d"
       inkscape:vp_x="0 : 526.18109 : 1"
       inkscape:vp_y="0 : 1000 : 0"
       inkscape:vp_z="744.09448 : 526.18109 : 1"
       inkscape:persp3d-origin="372.04724 : 350.78739 : 1"
       id="perspective3038" />
    <inkscape:perspective
       id="perspective3073"
       inkscape:persp3d-origin="0.5 : 0.33333333 : 1"
       inkscape:vp_z="1 : 0.5 : 1"
       inkscape:vp_y="0 : 1000 : 0"
       inkscape:vp_x="0 : 0.5 : 1"
       sodipodi:type="inkscape:persp3d" />
    <inkscape:perspective
       id="perspective3185"
       inkscape:persp3d-origin="0.5 : 0.33333333 : 1"
       inkscape:vp_z="1 : 0.5 : 1"
       inkscape:vp_y="0 : 1000 : 0"
       inkscape:vp_x="0 : 0.5 : 1"
       sodipodi:type="inkscape:persp3d" />
    <inkscape:perspective
       id="perspective3261"
       inkscape:persp3d-origin="0.5 : 0.33333333 : 1"
       inkscape:vp_z="1 : 0.5 : 1"
       inkscape:vp_y="0 : 1000 : 0"
       inkscape:vp_x="0 : 0.5 : 1"
       sodipodi:type="inkscape:persp3d" />
    <inkscape:perspective
       id="perspective3328"
       inkscape:persp3d-origin="0.5 : 0.33333333 : 1"
       inkscape:vp_z="1 : 0.5 : 1"
       inkscape:vp_y="0 : 1000 : 0"
       inkscape:vp_x="0 : 0.5 : 1"
       sodipodi:type="inkscape:persp3d" />
  </defs>
  <sodipodi:namedview
     id="base"
     pagecolor="#ffffff"
     bordercolor="#666666"
     borderopacity="1.0"
     inkscape:pageopacity="0.0"
     inkscape:pageshadow="2"
     inkscape:zoom="0.5653947"
     inkscape:cx="43.295028"
     inkscape:cy="53.643911"
     inkscape:document-units="px"
     inkscape:current-layer="layer1"
     showgrid="false"
     inkscape:window-width="1280"
     inkscape:window-height="779"
     inkscape:window-x="0"
     inkscape:window-y="1024"
     inkscape:window-maximized="1" />
  <metadata
     id="metadata3035">
    <rdf:RDF>
      <cc:Work
         rdf:about="">
        <dc:format>image/svg+xml</dc:format>
        <dc:type
           rdf:resource="http://purl.org/dc/dcmitype/StillImage" />
        <dc:title></dc:title>
      </cc:Work>
    </rdf:RDF>
  </metadata>
  <g
     inkscape:label="Layer 1"
     inkscape:groupmode="layer"
     id="layer1"
     transform="translate(-328.75221,-472.53715)">
    <g
       id="g4077"
       transform="translate(-170.89651,121.29476)"
       inkscape:export-filename="/home/mark/Desktop/Current Projects/Cooking Spaces/CAR Lan Files/Book/strategy.png"
       inkscape:export-xdpi="297.51999"
       inkscape:export-ydpi="297.51999">
      <g
         id="g4079"
         transform="matrix(1.2757069,0.3743236,-0.3987237,1.1976393,-1207.6041,-494.64877)">
        <g
           transform="matrix(0.3635061,0,0,0.311499,1730.1368,253.11046)"
           id="g4081">
          <path
             id="path4083"
             d="m -717.91696,-3.4364066 c -18.64486,-1.2778279 -36.95111,5.8736261 -52.89058,16.2572706 -12.66352,8.466105 -24.55892,18.372008 -35.55895,29.370431 -11.8887,13.122563 -18.45136,31.669107 -18.90569,50.265716 -0.48799,13.522269 2.62169,27.848759 11.01199,37.961009 6.02379,6.9683 14.57686,9.72588 22.31312,13.45143 14.82783,6.43759 30.13277,12.03228 45.99814,14.02654 12.48567,1.46113 25.70915,0.42887 36.97447,-6.26998 9.27776,-5.82848 16.25407,-15.09263 23.11377,-23.99068 11.99581,-16.26975 22.52108,-34.780792 26.28704,-55.74935 0.92809,-5.604619 1.77809,-11.496263 0.60462,-17.124041 -3.38021,-12.526373 -12.37278,-21.807997 -21.65752,-29.094729 -12.32615,-9.867756 -26.20931,-17.3466083 -37.29041,-29.1036166 z"
             style="fill:#ecf3f9;fill-opacity:1;fill-rule:nonzero;stroke:none;stroke-width:20;marker:none;visibility:visible;display:inline;overflow:visible;enable-background:accumulate" />
          <g
             id="g4085"
             transform="matrix(0.2032844,0,0,0.2538595,725.59329,358.97942)" />
          <g
             id="g4087"
             transform="translate(-1656.0544,92.364291)">
            <path
               id="path4089"
               d="m 902.36093,59.49727 c 0.0857,36.502952 0.17145,73.00598 0.25728,109.50896 -32.50303,9.66922 -36.58554,-5.87635 -31.92,-14.74383 0.84698,-30.14545 -0.0206,-60.067368 0.1763,-90.12843 10.49549,-1.545552 20.991,-3.091114 31.48642,-4.6367 z"
               style="fill:#d7a26b;fill-opacity:0.5767635;fill-rule:nonzero;stroke:none;stroke-width:20;marker:none;visibility:visible;display:inline;overflow:visible;enable-background:accumulate" />
          </g>
        </g>
        <g
           transform="matrix(0.235315,0,0,0.2515439,1525.637,61.772053)"
           id="g4091">
          <path
             id="path4093"
             d="m -222.37752,759.18127 c 15.03498,0.63629 30.68481,6.76494 39.58892,19.38866 10.04745,13.26837 16.17963,28.98022 21.42261,44.63675 4.93521,16.05527 6.76812,33.31524 3.27864,49.86182 -2.83975,18.45635 -11.94246,35.82878 -25.51972,48.65357 -14.56288,14.6045 -32.05942,26.63408 -51.62208,33.41634 -4.89795,1.51903 -9.93572,2.56627 -15.01733,3.23941 3.15277,-0.89659 7.25495,-6.97527 10.05738,-3.74592 2.49578,9.29899 9.70947,17.1854 9.63619,27.16551 0.16203,4.57848 -4.11504,6.53729 -7.4732,8.4345 -3.35917,2.08103 -6.72377,4.30404 -10.56382,5.39416 2.88648,-1.38978 7.66366,-5.22852 9.40635,-5.00002 -2.78266,5.26401 0.0763,11.23405 -1.02382,16.77815 -5.7e-4,9.1011 -2.70864,17.9808 -2.47138,27.0966 -0.72687,7.3075 -2.20484,14.6103 -1.45302,21.9825 0.19735,5.3023 -0.77473,10.7591 0.5216,15.9533 1.54059,4.1981 4.96483,8.4998 3.11219,13.1783 -1.99251,5.513 -8.4917,6.5144 -12.58785,9.887 -1.21376,0.89 -4.82482,2.2031 -1.61605,0.4804 1.65327,-0.9535 6.69192,-3.7673 6.25686,-3.6894 -6.12375,3.5558 -12.52667,8.7919 -20.09299,7.3571 -5.84489,-1.1281 -11.66327,-2.6252 -17.64024,-2.8338 4.32869,-2.574 8.46939,-5.4557 12.86262,-7.9225 -6.45435,4.4058 -12.42596,9.6259 -19.55634,12.9556 -5.73312,0.8324 -10.95525,-2.3376 -16.15277,-4.1827 -4.07419,-2.5522 -7.06052,-7.5868 -12.35387,-7.6187 -5.7748,1.4195 -12.16661,3.8803 -17.89171,0.9089 -4.43921,-2.3722 -6.67766,-7.1562 -9.89609,-10.8185 -1.91839,-2.9324 -5.06134,-4.9061 -6.75199,-7.9312 -1.42751,-4.5627 2.56813,-8.0678 5.01286,-11.3552 3.52989,-4.5779 -0.78297,-10.4173 1.49465,-15.3689 1.03567,-7.0654 -0.0402,-14.2173 0.45346,-21.317 0.12802,-11.2384 0.19378,-22.5485 -1.58587,-33.67889 -0.25406,-4.3203 4.4857,-9.77545 0.19718,-13.2747 -3.03232,-1.91038 -8.35365,-3.37604 -7.50223,-7.99335 1.87951,-6.03155 8.48313,-9.85123 8.9156,-16.46278 -1.94384,-4.9974 -8.43365,-3.33186 -12.44123,-5.2999 -7.80051,-1.8588 -15.51458,-5.59245 -20.36713,-12.18918 -6.02429,-6.10696 -14.50366,-9.51045 -19.33467,-16.85016 -9.76037,-13.00852 -11.71935,-30.25047 -9.21002,-45.94254 3.50889,-24.12445 13.99495,-46.93879 28.49426,-66.40992 10.0321,-13.25855 22.79341,-24.42329 37.3299,-32.50531 18.27506,-10.82566 38.36042,-19.86561 59.80687,-21.3619 4.40398,-0.20671 8.8406,0.0206 13.17339,0.86203 m -12.36396,5.65288 c -18.7587,-0.39626 -36.86747,5.9613 -53.70967,13.65651 -20.27951,11.01914 -35.05281,29.82292 -45.90784,49.79861 -10.26108,19.50097 -17.19958,41.51732 -15.55926,63.76053 1.35624,13.88054 8.13711,28.03855 20.52164,35.2328 5.4768,3.55513 9.56026,8.77356 14.54517,12.88518 6.68534,4.52697 14.82327,6.05004 22.63307,7.32486 4.29718,1.43279 6.10574,7.51542 3.20492,11.02534 -1.77266,4.45462 -7.28511,7.27745 -7.12564,12.43641 1.81812,3.54025 7.48224,3.36643 8.45472,7.81006 1.87307,4.38239 -1.92351,8.33896 -1.32263,12.77709 0.21712,5.44208 1.54116,10.81012 1.12538,16.28193 0.17883,12.475 0.36565,24.9564 -0.0495,37.4288 -2.3459,5.6854 1.95395,12.5423 -2.28319,17.6949 -2.53108,2.8092 -6.67183,7.2181 -2.95607,10.8152 3.87684,3.9864 7.16739,8.4602 10.5904,12.8292 3.51725,4.8104 10.2408,4.3794 15.30423,2.7642 4.45779,-2.0291 10.26268,-1.4135 13.5285,2.4711 2.51392,4.4968 7.97356,5.192 12.35293,6.863 1.69131,1.2066 4.05711,1.3877 5.67741,1.8691 -3.72548,1.889 -7.32743,4.0587 -10.93319,6.1839 7.14138,-3.6812 12.55305,-11.4448 21.19182,-11.645 5.52884,0.025 10.88504,1.5368 16.20501,2.801 2.1657,0.3866 6.86038,-0.7905 7.48662,-0.4347 -1.86246,1.0924 -6.02994,3.2622 -6.42113,3.7014 4.37614,-2.369 8.68579,-4.8616 13.1157,-7.1306 -3.01695,1.3651 -7.40681,5.0282 -9.58575,4.9161 3.22676,-4.2736 0.24405,-9.5848 -1.87802,-13.6098 -1.50633,-5.4626 -0.40175,-11.2255 -0.73571,-16.8151 -0.21451,-6.8957 0.18171,-13.7941 1.37556,-20.5909 0.65559,-7.1241 0.67184,-14.3197 2.14679,-21.3495 1.07957,-7.2654 0.0713,-14.6211 0.47365,-21.90221 0.14781,-3.59425 3.41465,-5.28715 6.20815,-6.7154 3.38427,-1.82263 6.73394,-3.85124 10.29412,-5.25404 -2.88256,1.13193 -5.25651,3.93494 -8.27556,4.3211 1.28264,-2.49028 1.59841,-5.54961 0.83338,-8.33509 -1.58124,-6.24048 -5.27397,-11.64468 -7.58396,-17.61315 -1.45415,-2.7455 -2.68177,-6.08294 -1.00592,-9.03753 1.28849,-2.97542 4.44899,-4.3598 7.49396,-4.68439 9.85737,-2.05994 20.14413,-3.14935 29.14858,-8.01006 5.02468,-2.55127 -5.48551,3.08944 -0.76426,0.0508 16.14986,-10.93125 30.92466,-25.00875 39.30744,-42.87071 6.55188,-14.63132 9.15984,-30.93294 8.28388,-46.89467 -2.17427,-23.42026 -11.17712,-45.85307 -23.86793,-65.51089 -7.45998,-10.68679 -19.23996,-18.58639 -32.33923,-20.01681 -6.62098,-0.89385 -13.30932,-1.73011 -19.59362,-4.11574 -1.60906,-0.46816 -3.22046,-0.92881 -4.84024,-1.35866"
             style="fill:#000000;fill-opacity:1;fill-rule:nonzero;stroke:none" />
          <path
             style="fill:#000000;fill-opacity:1;fill-rule:nonzero;stroke:none"
             id="path4095"
             d="m -322.91792,833.3049 c -3.27499,-2.66379 -6.11688,-5.84858 -8.88399,-9.0529 -0.0619,-0.0797 -0.83916,-1.01453 -0.65826,-1.11317 14.99061,-8.17271 12.97913,-10.73338 18.13909,-0.89756 6.01821,12.33446 10.196,25.45288 14.17593,38.5939 4.97723,16.77358 9.02817,33.82679 12.23369,51.04827 1.60694,9.15355 2.50197,18.41037 3.01347,27.68998 -0.21317,0.24743 0.46787,4.22017 0.14314,3.83213 -0.31509,-0.3765 -0.0747,-1.59026 -0.51754,-1.39219 -11.81183,5.28291 -16.16123,11.88666 -11.92625,5.90049 0.4717,-0.79291 0.9434,-1.58584 1.4151,-2.37877 l 14.41603,-6.59241 c -0.43895,0.80571 -0.87792,1.61142 -1.31687,2.41714 -4.16584,7.39382 -17.96463,17.40631 -16.25941,5.65194 -0.22774,-9.27875 -1.03545,-18.53604 -2.52434,-27.69483 -3.01917,-17.20883 -6.99445,-34.23523 -12.04521,-50.93759 -3.99956,-13.00106 -8.202,-25.98463 -14.4417,-38.0681 -1.55474,-2.78488 -1.24697,-2.41262 -2.83508,-4.69963 -0.29113,-0.41924 -1.30686,-0.93075 -0.90297,-1.23538 5.19608,-3.9192 16.96917,-4.04631 13.30869,-8.92265 -0.0805,-0.1073 0.13916,0.23027 0.20874,0.3454 2.62213,3.206 5.38834,6.34172 8.68931,8.82519 l -13.43157,8.68074 z" />
          <path
             style="fill:#000000;fill-opacity:1;fill-rule:nonzero;stroke:none"
             id="path4097"
             d="m -250.04283,846.93901 c 0.91833,-2.30075 2.11565,-4.42788 2.99794,-6.74843 0.0835,-0.21956 0.0767,-0.8742 0.20001,-0.68131 0.29648,0.46387 -0.0389,1.87175 0.42491,1.65906 4.29837,-1.97132 8.18046,-4.98769 12.27069,-7.48152 -7.98552,11.63316 -13.95002,24.98386 -19.72515,38.19074 -7.1174,17.00333 -13.69893,34.31867 -19.85244,51.81693 -2.67939,7.1012 -5.0741,14.32348 -7.37543,21.59462 -0.0437,0.21584 0.0469,0.56469 -0.13095,0.64751 -18.18109,8.46461 -14.23238,9.30457 -12.87648,-4.32067 0.0821,-1.11139 0.16414,-2.22277 0.24621,-3.33414 l 13.83274,-7.98677 c -0.0732,1.12221 -0.14637,2.24442 -0.21955,3.36662 -1.18539,14.56272 0.42199,8.82947 -15.4944,19.16708 -0.13262,0.0861 0.30422,0.004 0.45632,0.007 2.94264,-7.06807 4.68645,-14.82121 7.82148,-21.8089 6.23068,-17.55497 12.97923,-34.87738 19.98852,-52.03372 5.63974,-13.18729 11.56313,-26.34197 18.97534,-38.33541 4.86271,-3.48096 9.45496,-7.52661 14.58812,-10.44286 0.52285,-0.29703 0.94182,0.86973 1.19128,1.47831 0.5459,1.33181 -2.88991,6.36005 -3.14071,7.83083 l -14.17845,7.41547 z" />
          <path
             style="fill:#000000;fill-opacity:1;fill-rule:nonzero;stroke:none"
             id="path4099"
             d="m -314.28101,816.56119 c 7.59198,-4.72983 16.08622,-7.13515 24.77703,-8.84386 9.95093,-1.65024 17.70439,1.57291 26.24752,6.19495 7.69223,4.60302 14.54259,10.40289 21.66583,15.79963 4.12481,3.12029 8.23878,6.26006 12.1665,9.62673 1.83858,1.72392 2.23422,3.70189 2.01505,6.1004 l -12.28917,6.05432 c 0.37507,-2.01316 0.33845,-3.46923 -1.31454,-4.94214 -3.83999,-3.39222 -7.87382,-6.55661 -11.94246,-9.66849 -6.99904,-5.43487 -13.83854,-11.1365 -21.49637,-15.64819 -8.42887,-4.45202 -15.99105,-7.28179 -25.69829,-5.45035 -8.71607,1.84225 -17.14739,4.51317 -24.72214,9.34565 l 10.59104,-8.56865 z" />
          <path
             id="path4101"
             d="m -310.16843,988.22522 c 7.70732,4.16732 16.54344,5.46567 25.16617,6.15531 8.29002,0.51407 16.38337,-1.74658 24.56985,-2.59029 0.4909,0.098 2.65753,-0.96431 1.92479,0.13742 -3.38829,2.43381 -6.63814,5.05206 -9.97837,7.55012 -9.62487,1.17952 -19.25669,3.52822 -29.01057,2.56202 -6.90266,-0.792 -13.83246,-2.0144 -20.32215,-4.5688 -0.94627,-0.56 -2.71747,-0.79365 -3.07492,-1.69524 0.71245,-1.66797 2.74483,-1.98936 4.02838,-3.08518 2.23846,-1.47918 4.42899,-3.03071 6.69682,-4.46536 z"
             style="fill:#000000;fill-opacity:1;fill-rule:nonzero;stroke:none" />
          <path
             style="fill:#000000;fill-opacity:1;fill-rule:nonzero;stroke:none"
             id="path4103"
             d="m -331.72136,943.06092 c 9.6169,5.18148 21.94245,7.15647 33.54743,8.93974 12.96249,1.44584 26.17491,2.56482 39.31123,2.02891 13.9538,-0.39133 28.07197,-7.7312 -1.37397,4.32421 -2.70653,0.54984 -7.2383,0.15228 -10.44696,0.14542 -7.85736,-0.3217 -15.58172,0.43531 -23.35899,1.07083 -9.5463,0.54096 -19.33361,0.1865 -28.80805,-0.82476 -6.71933,-0.63108 -13.21867,-1.63986 -19.6527,-3.12294 -1.12269,0.0342 -2.01215,-0.70557 -3.10444,-0.76133 -0.1671,-0.009 -0.51033,0.30333 -0.36423,0.24526 19.04479,-7.56957 12.18356,-9.8028 19.9834,-6.79115 l -17.2835,7.92355 c -9.91628,-4.49268 10.94551,-12.2985 17.77151,-8.79444 6.29243,1.46427 12.73581,2.31682 19.28943,2.98921 9.41636,0.86055 19.05576,1.27133 28.50926,0.5218 7.84686,-0.66527 15.6741,-1.2164 23.59377,-0.97579 4.14168,0.0144 10.19749,-0.77554 12.60511,2.17202 -15.21005,7.12659 -17.70524,9.90535 -33.73147,10.373 -13.21512,0.22925 -26.45181,-0.81019 -39.45928,-2.41008 -11.95712,-1.92321 -24.41971,-4.06695 -34.44144,-9.30873 l 17.41389,-7.74473 z" />
          <path
             style="fill:#000000;fill-opacity:1;fill-rule:nonzero;stroke:none"
             d="m -314.6864,1006.9425 c 7.70732,4.1673 16.54344,5.4657 25.16617,6.1553 8.29002,0.5141 16.38337,-1.7466 24.56985,-2.5903 0.4909,0.098 2.65753,-0.9643 1.92479,0.1375 -3.38829,2.4338 -6.63814,5.052 -9.97837,7.5501 -9.62487,1.1795 -19.25669,3.5282 -29.01057,2.562 -6.90266,-0.792 -13.83246,-2.0144 -20.32215,-4.5688 -0.94627,-0.56 -2.71747,-0.7937 -3.07492,-1.6952 0.71245,-1.668 2.74483,-1.9894 4.02838,-3.0852 2.23846,-1.4792 4.42899,-3.0307 6.69682,-4.4654 z"
             id="path4105" />
          <path
             style="fill:#000000;fill-opacity:1;fill-rule:nonzero;stroke:none"
             d="m -311.45928,970.7155 c 7.70732,4.16732 16.54344,5.46567 25.16617,6.15531 8.29002,0.51407 16.38337,-1.74658 24.56985,-2.59029 0.4909,0.098 2.65753,-0.96431 1.92479,0.13742 -3.38829,2.43381 -6.63814,5.05206 -9.97837,7.55012 -9.62487,1.17952 -19.25669,3.52822 -29.01057,2.56202 -6.90266,-0.792 -13.83246,-2.0144 -20.32215,-4.5688 -0.94627,-0.56 -2.71747,-0.79365 -3.07492,-1.69524 0.71245,-1.66797 2.74483,-1.98936 4.02838,-3.08518 2.23846,-1.47918 4.42899,-3.03071 6.69682,-4.46536 z"
             id="path4107" />
          <path
             id="path4109"
             d="m -315.33183,1027.4712 c 7.70732,4.1673 16.54344,5.4656 25.16617,6.1553 8.29002,0.514 16.38337,-1.7466 24.56985,-2.5903 0.4909,0.098 2.65753,-0.9643 1.92479,0.1374 -3.38829,2.4338 -6.63814,5.0521 -9.97837,7.5501 -9.62487,1.1795 -19.25669,3.5282 -29.01057,2.562 -6.90266,-0.792 -13.83246,-2.0144 -20.32215,-4.5688 -0.94627,-0.56 -2.71747,-0.7936 -3.07492,-1.6952 0.71245,-1.668 2.74483,-1.9894 4.02838,-3.0852 2.23846,-1.4792 4.42899,-3.0307 6.69682,-4.4653 z"
             style="fill:#000000;fill-opacity:1;fill-rule:nonzero;stroke:none" />
          <path
             style="fill:#000000;fill-opacity:1;fill-rule:nonzero;stroke:none"
             d="m -315.97725,1050.415 c 7.70732,4.1673 16.54344,5.4656 25.16617,6.1553 8.29002,0.514 16.38337,-1.7466 24.56985,-2.5903 0.4909,0.098 2.65753,-0.9643 1.92479,0.1374 -3.38829,2.4338 -6.63814,5.0521 -9.97837,7.5501 -9.62487,1.1795 -19.25669,3.5282 -29.01057,2.562 -6.90266,-0.792 -13.83246,-2.0144 -20.32215,-4.5688 -0.94627,-0.56 -2.71747,-0.7936 -3.07492,-1.6952 0.71245,-1.668 2.74483,-1.9894 4.02838,-3.0852 2.23846,-1.4792 4.42899,-3.0307 6.69682,-4.4653 z"
             id="path4111" />
        </g>
      </g>
      <path
         inkscape:transform-center-y="18.311937"
         inkscape:transform-center-x="-13.635405"
         sodipodi:nodetypes="ccccccc"
         id="path4113"
         d="m 565.9153,399.85639 c 4.19671,-4.85428 9.86303,-10.15827 8.13377,-16.79927 -3.72544,-1.70614 -2.97353,5.08908 -6.03808,6.10532 -4.81642,5.62967 -12.81311,12.91138 -20.95508,15.10908 -4.91463,-3.46169 -11.23132,-0.13226 -7.05811,3.84196 4.44591,3.38436 11.03292,1.69612 15.32568,-0.43635 4.09383,-2.06552 7.3523,-4.97851 10.59182,-7.82074 z"
         style="fill:#9bd1d3;fill-opacity:1;fill-rule:nonzero;stroke:none;stroke-width:0.90040958;marker:none;visibility:visible;display:inline;overflow:visible;enable-background:accumulate" />
    </g>
  </g>
</svg>
