<?xml version="1.0" encoding="UTF-8" standalone="no"?>
<!-- Created with Inkscape (http://www.inkscape.org/) -->
<svg
   xmlns:dc="http://purl.org/dc/elements/1.1/"
   xmlns:cc="http://web.resource.org/cc/"
   xmlns:rdf="http://www.w3.org/1999/02/22-rdf-syntax-ns#"
   xmlns:svg="http://www.w3.org/2000/svg"
   xmlns="http://www.w3.org/2000/svg"
   xmlns:sodipodi="http://sodipodi.sourceforge.net/DTD/sodipodi-0.dtd"
   xmlns:inkscape="http://www.inkscape.org/namespaces/inkscape"
   width="610"
   height="400"
   id="svg2"
   sodipodi:version="0.32"
   inkscape:version="0.45"
   sodipodi:docbase="/home/evans/Desktop"
   sodipodi:docname="cmy_light_bulb.svg"
   inkscape:output_extension="org.inkscape.output.svg.inkscape"
   sodipodi:modified="true"
   version="1.0">
  <defs
     id="defs4" />
  <sodipodi:namedview
     id="base"
     pagecolor="#ffffff"
     bordercolor="#666666"
     borderopacity="1.0"
     gridtolerance="10000"
     guidetolerance="10"
     objecttolerance="10"
     inkscape:pageopacity="0.0"
     inkscape:pageshadow="2"
     inkscape:zoom="1.1775"
     inkscape:cx="305"
     inkscape:cy="200"
     inkscape:document-units="px"
     inkscape:current-layer="layer1"
     inkscape:window-width="1012"
     inkscape:window-height="684"
     inkscape:window-x="0"
     inkscape:window-y="25"
     showguides="true"
     inkscape:guide-bbox="true"
     inkscape:showpageshadow="false"
     width="610px"
     height="400px" />
  <metadata
     id="metadata7">
    <rdf:RDF>
      <cc:Work
         rdf:about="">
        <dc:format>image/svg+xml</dc:format>
        <dc:type
           rdf:resource="http://purl.org/dc/dcmitype/StillImage" />
      </cc:Work>
    </rdf:RDF>
  </metadata>
  <g
     inkscape:label="Layer 1"
     inkscape:groupmode="layer"
     id="layer1"
     transform="translate(-70.964747,-81.126463)">
    <g
       id="g2197"
       transform="translate(0.9095575,1.984515)">
      <path
         sodipodi:nodetypes="cccszzz"
         id="path3191"
         d="M 76.741406,369.0251 C 77.587818,363.38235 113.98356,361.12525 113.98356,361.12525 L 125.83334,361.68953 C 125.83334,361.68953 124.70479,368.46083 128.09044,368.46083 C 131.47609,368.46083 157.29167,371.98755 156.30419,377.48923 C 155.21845,383.53837 130.48861,385.81228 110.59791,383.69625 C 90.707214,381.58022 75.894993,374.66785 76.741406,369.0251 z "
         style="fill:#ffe6d5;fill-rule:evenodd;stroke:none;stroke-width:1px;stroke-linecap:butt;stroke-linejoin:miter;stroke-opacity:1" />
      <path
         sodipodi:nodetypes="czcczcc"
         id="path2217"
         d="M 76.177131,375.23213 C 76.177131,375.23213 95.426764,384.12437 115.74067,385.67613 C 136.05457,387.22788 157.43274,381.43915 157.43274,381.43915 L 152.91854,440.12376 C 152.91854,440.12376 128.54417,447.12615 110.06416,445.43333 C 91.584151,443.7405 78.998506,433.35246 78.998506,433.35246 L 76.177131,375.23213 z "
         style="fill:#ffaaaa;fill-rule:evenodd;stroke:none;stroke-width:1px;stroke-linecap:butt;stroke-linejoin:miter;stroke-opacity:1" />
      <g
         transform="matrix(0.4392023,0,0,0.4392023,63.244393,33.479335)"
         id="g3859">
        <path
           style="opacity:1;color:#000000;fill:#ffeeaa;fill-opacity:1;fill-rule:evenodd;stroke:none;stroke-width:1.0629921;stroke-linecap:butt;stroke-linejoin:miter;marker:none;marker-start:none;marker-mid:none;marker-end:none;stroke-miterlimit:4;stroke-dasharray:none;stroke-dashoffset:0;stroke-opacity:1;visibility:visible;display:inline;overflow:visible"
           id="path3789"
           d="M 556.49481,609.90589 C 560.49283,603.86369 563.53586,599.75243 562.39568,591.71533 C 562.87806,581.84746 563.33077,571.91916 565.54137,562.25139 C 568.73127,550.23006 571.19068,537.94622 575.76879,526.36727 C 583.78226,512.51126 592.13417,499.60853 604.60462,489.16199 C 618.40303,473.89645 630.72281,457.62137 637.37069,437.8505 C 646.44154,406.14463 647.47633,373.61779 645.75397,340.78181 C 644.59875,307.70915 642.73822,274.33724 632.04238,242.7139 C 619.88443,209.82135 602.66049,179.72616 576.29451,155.9785 C 550.11196,137.47368 519.64786,129.35051 488.07852,125.10827 C 457.56202,120.28291 426.7676,118.3267 396.40864,125.79553 C 389.37323,128.3493 378.60519,133.38616 361.43362,161.23762 C 341.39576,192.34442 327.17527,226.1426 323.37201,263.3247 C 318.57291,303.02365 318.32584,342.85697 326.8552,382.17629 C 336.89068,422.29234 352.48662,460.78864 372.73714,496.87802 C 387.14305,520.40812 412.55928,572.95201 425.26858,597.22978 L 556.49481,609.90589 z "
           sodipodi:nodetypes="ccccccccccccccccc" />
        <path
           style="opacity:1;color:#000000;fill:#7f7f7f;fill-opacity:1;fill-rule:evenodd;stroke:none;stroke-width:1.0629921;stroke-linecap:butt;stroke-linejoin:miter;marker:none;marker-start:none;marker-mid:none;marker-end:none;stroke-miterlimit:4;stroke-dasharray:none;stroke-dashoffset:0;stroke-opacity:1;visibility:visible;display:inline;overflow:visible"
           id="path2166"
           d="M 149.24892,754.68025 C 166.89797,757.88012 183.93597,762.52849 200.75432,768.25532 C 235.29007,779.80285 241.76228,791.6797 197.50847,803.22155 C 162.18948,808.55584 126.20375,805.20999 90.703177,802.61336 C 67.083827,799.83837 42.082917,797.39372 23.08455,784.42549 L 42.506697,774.8344 C 60.610377,787.63944 85.048497,789.90285 107.83315,792.63581 C 143.36584,795.42344 201.10166,794.4308 205.89852,789.7228 C 209.81542,785.87847 196.44667,780.42335 183.5812,776.36324 C 179.39594,775.04246 166.68479,770.78795 149.88878,767.93195 M 95.59988,747.45543 C 92.996588,751.39057 92.284516,754.53072 91.484481,758.6824 C 58.765443,752.46041 40.151787,767.8591 41.562747,773.59404 L 25.350417,784.30953 C 23.642518,778.23844 14.871872,766.16073 21.596932,762.01059 C 45.269172,747.40211 73.009959,745.68622 95.59988,747.45543 z "
           sodipodi:nodetypes="cccccccssccccccc" />
        <path
           style="opacity:1;color:#000000;fill:#7f7f7f;fill-opacity:1;fill-rule:evenodd;stroke:none;stroke-width:1.0629921;stroke-linecap:butt;stroke-linejoin:miter;marker:none;marker-start:none;marker-mid:none;marker-end:none;stroke-miterlimit:4;stroke-dasharray:none;stroke-dashoffset:0;stroke-opacity:1;visibility:visible;display:inline;overflow:visible"
           id="path2168"
           d="M 37.719612,756.45761 C 36.588226,787.84034 37.593924,819.17669 39.411471,850.48323 C 40.065641,868.11121 42.461461,885.44759 45.253151,902.71167 L 26.243962,915.12175 C 23.633178,897.64518 21.333257,880.10704 20.784577,862.30818 C 18.887846,831.24862 17.723611,800.16746 17.578127,769.01731 L 37.719612,756.45761 z " />
        <path
           style="opacity:1;color:#000000;fill:#7f7f7f;fill-opacity:1;fill-rule:evenodd;stroke:none;stroke-width:1.0629921;stroke-linecap:butt;stroke-linejoin:miter;marker:none;marker-start:none;marker-mid:none;marker-end:none;stroke-miterlimit:4;stroke-dasharray:none;stroke-dashoffset:0;stroke-opacity:1;visibility:visible;display:inline;overflow:visible"
           id="path2170"
           d="M 224.79785,794.99692 C 224.97175,816.42012 221.19733,837.73064 218.76992,858.98542 C 216.47102,879.77326 214.62271,900.60924 213.01776,921.46295 L 192.85394,930.56072 C 194.76543,909.62739 196.76086,888.70313 199.05807,867.80927 C 201.33814,846.8913 204.97722,825.81545 204.10313,804.74634 L 224.79785,794.99692 z " />
        <path
           style="opacity:1;color:#000000;fill:#7f7f7f;fill-opacity:1;fill-rule:evenodd;stroke:none;stroke-width:1.0629921;stroke-linecap:butt;stroke-linejoin:miter;marker:none;marker-start:none;marker-mid:none;marker-end:none;stroke-miterlimit:4;stroke-dasharray:none;stroke-dashoffset:0;stroke-opacity:1;visibility:visible;display:inline;overflow:visible"
           id="path2214"
           d="M 402.41303,591.11528 C 391.10255,566.6909 367.95049,530.66746 353.99155,507.44632 C 334.05419,470.99468 317.89902,432.6025 307.50274,392.37829 C 298.96356,352.79733 299.28264,312.67221 303.94871,272.70232 C 307.64084,235.47307 321.4429,201.38936 341.13927,169.98767 C 357.81702,141.41093 380.53229,123.26126 412.51581,112.76561 C 443.1161,105.97828 473.81143,108.12289 504.38339,113.24035 C 536.33355,117.53155 567.00955,125.88056 593.41049,144.73154 C 619.61412,169.11056 637.15069,199.54185 649.45522,232.76374 C 660.46453,264.50707 662.49708,298.08286 663.59904,331.36401 C 665.01775,364.24289 664.35466,396.93042 655.85369,428.83748 C 649.69943,448.8732 637.5026,465.37206 623.8716,480.88654 C 611.82641,491.42601 603.09031,503.89689 595.05147,517.52366 C 590.11744,528.78479 587.85793,540.97931 584.71746,552.83053 C 582.31396,562.32645 582.06994,572.10871 581.51453,581.82288 C 582.68481,589.73392 579.09962,600.44543 575.73879,606.91923 L 555.59055,610.1218 C 559.58857,604.0796 562.6316,599.96834 561.49142,591.93124 C 561.9738,582.06337 562.42651,572.13507 564.63711,562.4673 C 567.82701,550.44597 570.28642,538.16213 574.86453,526.58318 C 582.878,512.72717 591.22991,499.82444 603.70036,489.3779 C 617.49877,474.11236 629.81855,457.83728 636.46643,438.06641 C 645.53728,406.36054 646.57207,373.8337 644.84971,340.99772 C 643.69449,307.92506 641.83396,274.55315 631.13812,242.92981 C 618.98017,210.03726 601.75623,179.94207 575.39025,156.19441 C 549.2077,137.68959 518.7436,129.56642 487.17426,125.32418 C 456.65776,120.49882 425.86334,118.54261 395.50438,126.01144 C 388.46897,128.56521 377.70093,133.60207 360.52936,161.45353 C 340.4915,192.56033 326.27101,226.35851 322.46775,263.54061 C 317.66865,303.23956 317.42158,343.07288 325.95094,382.3922 C 335.98642,422.50825 351.58236,461.00455 371.83288,497.09393 C 386.23879,520.62403 411.65502,573.16792 424.36432,597.44569 L 402.41303,591.11528 z "
           sodipodi:nodetypes="ccccccccccccccccccccccccccccccccc" />
        <path
           style="opacity:1;color:#000000;fill:#7f7f7f;fill-opacity:1;fill-rule:evenodd;stroke:none;stroke-width:1.0629921;stroke-linecap:butt;stroke-linejoin:miter;marker:none;marker-start:none;marker-mid:none;marker-end:none;stroke-miterlimit:4;stroke-dasharray:none;stroke-dashoffset:0;stroke-opacity:1;visibility:visible;display:inline;overflow:visible"
           id="path2216"
           d="M 392.37731,582.55258 C 406.33726,593.81201 427.22042,597.15541 447.81686,600.57005 C 484.09235,605.46624 521.24541,605.3403 558.06569,606.41315 C 575.03286,606.93916 592.00457,607.39451 608.97766,607.82663 L 582.11387,620.63246 C 565.36539,619.94714 548.60522,619.4511 531.84305,618.93345 C 494.73342,617.93649 457.28464,618.03286 420.76863,612.93217 C 399.40328,609.30083 377.91399,605.63748 363.08455,594.16084 L 392.37731,582.55258 z " />
        <path
           style="opacity:1;color:#000000;fill:#7f7f7f;fill-opacity:1;fill-rule:evenodd;stroke:none;stroke-width:1.0629921;stroke-linecap:butt;stroke-linejoin:miter;marker:none;marker-start:none;marker-mid:none;marker-end:none;stroke-miterlimit:4;stroke-dasharray:none;stroke-dashoffset:0;stroke-opacity:1;visibility:visible;display:inline;overflow:visible"
           id="path2218"
           d="M 411.44715,635.96108 C 407.4841,654.32696 407.75133,664.58034 407.09719,683.23613 C 405.82341,703.43442 405.73685,723.36247 411.48796,742.61766 C 428.47176,753.59226 450.32559,752.79982 470.38962,754.96445 C 487.74579,756.83118 504.97383,759.27549 522.42159,760.35139 C 534.57831,764.7605 583.7934,742.54743 557.50348,752.77262 C 572.02482,738.58807 571.69421,721.01401 569.35973,703.01679 C 568.51369,689.79841 558.62812,667.00318 554.25329,654.5309 L 579.57124,655.25172 C 584.80558,667.68223 587.47722,680.48991 588.78974,693.74642 C 591.11702,712.15233 591.75398,730.27897 577.76775,745.33599 C 554.50132,759.18762 533.49718,773.18253 504.60255,771.96767 C 487.16063,770.89546 469.97133,768.29972 452.6244,766.41973 C 432.23839,764.17465 408.66471,765.13807 392.26423,752.48331 C 386.63221,732.84815 386.67166,712.63654 387.90288,692.06984 C 388.50537,673.43988 388.91883,654.72284 391.7147,636.2366 L 411.44715,635.96108 z "
           sodipodi:nodetypes="ccccccccccccccccc" />
        <path
           style="opacity:1;color:#000000;fill:#7f7f7f;fill-opacity:1;fill-rule:evenodd;stroke:none;stroke-width:1.0629921;stroke-linecap:butt;stroke-linejoin:miter;marker:none;marker-start:none;marker-mid:none;marker-end:none;stroke-miterlimit:4;stroke-dasharray:none;stroke-dashoffset:0;stroke-opacity:1;visibility:visible;display:inline;overflow:visible"
           id="path2220"
           d="M 380.52448,628.07361 C 409.06278,635.50432 438.99956,637.44466 468.49062,639.86743 C 512.27876,643.10645 556.23689,643.16811 600.13039,644.15371 C 604.94952,644.30319 609.76868,644.45268 614.58782,644.60216 L 594.91042,657.17476 C 590.25377,656.93473 585.59712,656.6947 580.94048,656.45467 C 537.04036,655.02905 493.04984,655.35483 449.23722,652.05342 C 419.14599,649.64901 388.64025,647.70878 359.41902,640.52772 L 380.52448,628.07361 z " />
        <path
           style="opacity:1;color:#000000;fill:#7f7f7f;fill-opacity:1;fill-rule:evenodd;stroke:none;stroke-width:1.0629921;stroke-linecap:butt;stroke-linejoin:miter;marker:none;marker-start:none;marker-mid:none;marker-end:none;stroke-miterlimit:4;stroke-dasharray:none;stroke-dashoffset:0;stroke-opacity:1;visibility:visible;display:inline;overflow:visible"
           id="path2222"
           d="M 433.59679,664.32049 C 455.1898,668.51232 477.18959,669.92356 499.11234,671.15971 C 512.07137,671.71617 505.80094,671.48819 517.92306,671.85922 L 500.12819,684.68935 C 488.1211,684.18254 494.34086,684.47031 481.46945,683.81469 C 459.34399,682.36507 437.20013,680.71376 415.28906,677.1995 L 433.59679,664.32049 z " />
        <path
           style="opacity:1;color:#000000;fill:#7f7f7f;fill-opacity:1;fill-rule:evenodd;stroke:none;stroke-width:1.0629921;stroke-linecap:butt;stroke-linejoin:miter;marker:none;marker-start:none;marker-mid:none;marker-end:none;stroke-miterlimit:4;stroke-dasharray:none;stroke-dashoffset:0;stroke-opacity:1;visibility:visible;display:inline;overflow:visible"
           id="path2224"
           d="M 420.51589,698.18567 C 449.66462,700.44228 478.943,700.52415 508.16316,700.82836 C 514.49252,700.85497 520.82188,700.88158 527.15124,700.90819 L 510.2613,713.16082 C 503.98148,713.09635 497.70165,713.03187 491.42182,712.9674 C 461.64565,712.71213 431.83736,712.82321 402.09518,711.22222 L 420.51589,698.18567 z " />
        <path
           style="opacity:1;color:#000000;fill:#808080;fill-opacity:1;fill-rule:evenodd;stroke:none;stroke-width:1.0629921;stroke-linecap:butt;stroke-linejoin:miter;marker:none;marker-start:none;marker-mid:none;marker-end:none;stroke-miterlimit:4;stroke-dasharray:none;stroke-dashoffset:0;stroke-opacity:1;visibility:visible;display:inline;overflow:visible"
           id="path2226"
           d="M 437.12795,720.97866 C 457.07851,727.98825 477.90869,731.20185 498.85849,733.8314 C 515.1492,735.48442 507.30664,734.76926 522.38295,736.01203 L 504.69853,748.62032 C 489.79664,747.17349 497.55964,747.98047 481.41248,746.17122 C 460.10447,743.40422 438.95618,740.02892 418.40178,733.68418 L 437.12795,720.97866 z " />
        <path
           style="opacity:1;color:#000000;fill:#ff7f2a;fill-opacity:1;fill-rule:evenodd;stroke:none;stroke-width:1.0629921;stroke-linecap:butt;stroke-linejoin:miter;marker:none;marker-start:none;marker-mid:none;marker-end:none;stroke-miterlimit:4;stroke-dasharray:none;stroke-dashoffset:0;stroke-opacity:1;visibility:visible;display:inline;overflow:visible"
           id="path2234"
           d="M 433.1319,598.54289 C 434.23195,572.73525 433.0999,540.24499 431.52392,514.50197 C 431.40008,487.12096 425.25077,460.44434 420.89869,433.57565 C 418.82398,419.14161 416.33262,404.78167 418.8611,390.51737 C 438.23117,376.28524 445.08,378.00576 454.77331,397.84428 C 461.09391,414.46679 471.50099,426.77972 474.96534,417.22622 C 499.81232,397.39347 508.90592,414.41287 515.335,435.95561 C 532.51823,452.5669 541.4685,416.53102 552.57646,418.97597 C 560.6814,421.8916 570.58277,433.30778 572.95912,441.10136 C 574.15931,451.93895 568.69568,460.65055 564.25608,470.05892 C 559.08328,483.90737 551.83982,496.72299 544.91966,509.73731 C 535.61519,529.57638 531.61924,551.4695 527.55783,572.87905 C 525.77038,581.86653 525.46219,595.88405 524.4963,604.98138 L 511.39455,606.28262 C 512.44416,597.09472 513.45504,587.89921 515.31839,578.82612 C 519.4777,557.34993 523.41075,535.38243 532.4479,515.3481 C 539.22778,502.35544 546.52896,489.65416 551.65395,475.8797 C 555.82849,466.69934 561.45577,458.24155 560.6473,447.74298 C 557.96175,440.74729 553.64399,448.46996 545.57729,446.51079 C 538.08528,444.165 503.15446,472.66905 499.6881,448.01774 C 495.29192,433.09753 485.58735,437.55298 465.09686,445.29954 C 455.26395,430.40218 449.23163,421.47106 442.84928,404.62844 C 436.82469,394.73125 424.43575,379.82738 431.57254,384.61119 C 428.30266,398.57659 430.96753,412.90356 432.88421,427.22747 C 437.13542,454.18518 443.03867,480.98321 443.30063,508.40976 C 444.89515,534.06489 447.23872,575.04185 446.8681,600.76492 L 433.1319,598.54289 z "
           sodipodi:nodetypes="ccccccccccccccccccccccccccc" />
        <path
           style="opacity:1;color:#000000;fill:#0000ff;fill-opacity:1;fill-rule:evenodd;stroke:none;stroke-width:1.0629921;stroke-linecap:butt;stroke-linejoin:miter;marker:none;marker-start:none;marker-mid:none;marker-end:none;stroke-miterlimit:4;stroke-dasharray:none;stroke-dashoffset:0;stroke-opacity:1;visibility:visible;display:inline;overflow:visible"
           id="path2242"
           d="M 105.59006,937.01299 C 115.91814,956.09582 134.26489,965.15728 155.34095,972.48928 C 206.2073,984.65726 259.49213,984.45955 311.74582,985.50894 C 359.52362,987.26569 405.24013,980.46345 448.71352,962.65158 C 473.77564,948.49401 485.7616,927.28543 493.22352,902.29724 C 498.20382,881.54917 498.14711,860.30183 498.16729,839.19379 C 497.97282,829.48103 497.69116,819.76986 497.45476,810.05801 C 496.81249,802.23499 499.33695,794.81884 501.33371,787.33779 C 501.85939,783.40867 504.36505,780.08137 505.86093,776.50053 L 520.01313,770.75031 C 518.46974,774.23084 515.609,777.38651 515.31575,781.34347 C 513.23969,788.68207 510.68806,795.9609 511.24731,803.66371 C 511.41389,813.42482 511.6135,823.18578 511.67705,832.94801 C 511.51934,854.21197 511.47889,875.60218 506.58715,896.51743 C 496.23514,932.17198 475.32506,955.25916 437.37751,970.799 C 393.86443,988.22756 348.23511,994.74202 300.60132,992.81396 C 248.00694,991.691 194.36651,992.11483 143.14597,979.91883 C 121.64258,972.45374 93.950955,950.28026 82.895229,931.15703 L 105.59006,937.01299 z "
           sodipodi:nodetypes="ccccccccccccccccccc" />
        <path
           style="opacity:1;color:#000000;fill:#7f7f7f;fill-opacity:1;fill-rule:evenodd;stroke:none;stroke-width:1.0629921;stroke-linecap:butt;stroke-linejoin:miter;marker:none;marker-start:none;marker-mid:none;marker-end:none;stroke-miterlimit:4;stroke-dasharray:none;stroke-dashoffset:0;stroke-opacity:1;visibility:visible;display:inline;overflow:visible"
           id="path2246"
           d="M 376.78734,591.0235 C 376.93737,600.21949 373.12474,607.75681 369.5852,615.83776 C 367.18652,620.05439 371.3918,624.83251 368.82977,628.94016 L 352.33226,637.81635 C 354.89136,633.69299 354.2124,625.6982 356.78666,621.55513 C 360.47769,613.64807 364.51871,606.42661 364.1106,597.25765 L 376.78734,591.0235 z "
           sodipodi:nodetypes="ccccccc" />
        <path
           style="opacity:1;color:#000000;fill:#7f7f7f;fill-opacity:1;fill-rule:evenodd;stroke:none;stroke-width:1.0629921;stroke-linecap:butt;stroke-linejoin:miter;marker:none;marker-start:none;marker-mid:none;marker-end:none;stroke-miterlimit:4;stroke-dasharray:none;stroke-dashoffset:0;stroke-opacity:1;visibility:visible;display:inline;overflow:visible"
           id="path2248"
           d="M 601.56501,613.85837 C 604.90748,622.31067 604.64463,630.9066 606.45768,640.07025 L 592.82628,643.67642 C 591.0773,634.56431 593.88974,628.47008 590.40405,620.17632 L 601.56501,613.85837 z "
           sodipodi:nodetypes="ccccc" />
        <path
           style="opacity:1;color:#000000;fill:#ff0000;fill-opacity:1;fill-rule:evenodd;stroke:none;stroke-width:1.0629921;stroke-linecap:butt;stroke-linejoin:miter;marker:none;marker-start:none;marker-mid:none;marker-end:none;stroke-miterlimit:4;stroke-dasharray:none;stroke-dashoffset:0;stroke-opacity:1;visibility:visible;display:inline;overflow:visible"
           id="path2252"
           d="M 116.94152,746.31401 C 119.21891,728.45581 139.63038,718.78 155.54236,711.17001 C 172.12005,707.25013 189.15098,706.40342 206.07128,707.86541 C 226.19332,713.96584 243.37567,727.04196 261.03204,738.0735 C 276.6434,746.32777 288.76486,757.59216 299.27034,771.49198 C 307.36497,782.51718 314.30738,794.3002 322.98373,804.8931 C 331.37646,817.27494 344.16908,821.43008 357.79081,825.84313 C 372.09992,830.36769 386.0635,832.96054 400.7385,829.27831 C 422.81993,819.58241 402.91898,831.73989 412.59259,821.64563 C 416.58972,815.7812 419.55658,809.28933 422.79981,802.99133 C 425.36429,797.20683 428.88168,792.00148 432.32202,786.72855 C 434.67048,783.03488 437.08499,779.38933 439.6033,775.81754 C 440.52555,774.26562 440.87354,772.48075 441.50809,770.81384 L 453.91175,764.99557 C 453.30932,766.74821 452.87223,768.54957 452.10804,770.24303 C 449.60459,773.85517 447.25215,777.582 444.76727,781.23145 C 441.3911,786.54806 437.61394,791.58959 435.12671,797.4314 C 431.85366,803.7865 428.80824,810.28839 425.00154,816.34384 C 415.89379,826.68762 403.42193,833.42167 390.23071,837.28998 C 375.42301,840.54406 361.40127,837.73798 347.08339,833.12064 C 333.18635,828.60702 320.08945,824.46624 311.6787,811.66329 C 303.05377,801.01245 295.99261,789.30063 287.97752,778.20059 C 277.59073,764.50416 265.76726,753.17493 250.40421,744.92203 C 232.85642,733.93499 215.60941,720.95805 195.38165,715.4936 C 178.56306,714.07468 161.60866,714.92369 145.21184,719.20757 C 153.86586,710.9212 132.5165,733.0684 134.6568,742.05255 L 116.94152,746.31401 z "
           sodipodi:nodetypes="ccccccccccccccccccccccccccc" />
        <path
           style="opacity:1;color:#000000;fill:#7f7f7f;fill-opacity:1;fill-rule:evenodd;stroke:none;stroke-width:1.0629921;stroke-linecap:butt;stroke-linejoin:miter;marker:none;marker-start:none;marker-mid:none;marker-end:none;stroke-miterlimit:4;stroke-dasharray:none;stroke-dashoffset:0;stroke-opacity:1;visibility:visible;display:inline;overflow:visible"
           id="path2276"
           d="M 88.193372,773.95607 C 90.242594,769.54717 91.267222,764.75557 92.518826,760.07982 C 94.276046,749.18092 96.381585,744.46901 106.73306,743.52912 C 116.74881,742.26513 126.90313,742.80891 136.91916,743.79179 C 143.3861,744.34226 147.35297,745.44826 148.52962,752.09732 C 148.86023,757.02628 149.04595,761.96425 149.32577,766.89757 C 149.44381,769.64176 148.0868,771.06487 146.53886,773.0404 C 146.2072,773.31444 145.87554,773.58847 145.54389,773.86251 L 137.74242,776.99392 C 138.0765,776.73462 138.41058,776.47532 138.74466,776.21603 C 140.35956,774.48547 141.7983,773.32175 141.89924,770.72314 C 141.72935,765.80097 141.64561,760.87006 141.26875,755.96011 C 139.60759,749.99167 138.07942,748.37168 131.63824,747.75426 C 121.64967,746.7968 120.55333,746.01492 110.5515,747.16107 C 102.39785,748.09543 103.51085,749.67518 99.921956,756.54913 C 98.668206,761.20611 97.616696,765.93518 95.923326,770.45879 L 88.193372,773.95607 z "
           sodipodi:nodetypes="ccccccccccccssccc" />
        <path
           style="opacity:1;color:#000000;fill:#7f7f7f;fill-opacity:1;fill-rule:evenodd;stroke:none;stroke-width:1.0629921;stroke-linecap:butt;stroke-linejoin:miter;marker:none;marker-start:none;marker-mid:none;marker-end:none;stroke-miterlimit:4;stroke-dasharray:none;stroke-dashoffset:0;stroke-opacity:1;visibility:visible;display:inline;overflow:visible"
           id="path2172"
           d="M 46.70924,907.0604 C 68.5984,917.60903 92.17803,923.01046 115.91775,927.4414 C 139.74193,932.65233 162.56988,932.84376 185.8498,926.79477 C 187.54432,925.96796 189.23883,925.14114 190.93334,924.31433 C 185.81624,927.06157 180.69913,929.80881 175.58202,932.55605 L 196.36228,924.29244 C 188.7415,928.9168 181.12071,933.54116 173.49993,938.16552 C 171.79306,938.90162 170.08618,939.63771 168.37931,940.3738 C 145.04163,945.40654 122.16564,944.64424 98.58749,939.54764 C 74.35644,934.97158 50.25533,929.45805 27.67832,919.24569 L 46.70924,907.0604 z " />
      </g>
      <g
         transform="matrix(0.4392023,0,0,0.4392023,387.43499,40.967793)"
         id="g2177">
        <path
           style="opacity:1;color:#000000;fill:#7f7f7f;fill-opacity:1;fill-rule:evenodd;stroke:none;stroke-width:1.0629921;stroke-linecap:butt;stroke-linejoin:miter;marker:none;marker-start:none;marker-mid:none;marker-end:none;stroke-miterlimit:4;stroke-dasharray:none;stroke-dashoffset:0;stroke-opacity:1;visibility:visible;display:inline;overflow:visible"
           id="path2187"
           d="M 402.41303,591.11528 C 391.10255,566.6909 367.95049,530.66746 353.99155,507.44632 C 334.05419,470.99468 317.89902,432.6025 307.50274,392.37829 C 298.96356,352.79733 299.28264,312.67221 303.94871,272.70232 C 307.64084,235.47307 321.4429,201.38936 341.13927,169.98767 C 357.81702,141.41093 380.53229,123.26126 412.51581,112.76561 C 443.1161,105.97828 473.81143,108.12289 504.38339,113.24035 C 536.33355,117.53155 567.00955,125.88056 593.41049,144.73154 C 619.61412,169.11056 637.15069,199.54185 649.45522,232.76374 C 660.46453,264.50707 662.49708,298.08286 663.59904,331.36401 C 665.01775,364.24289 664.35466,396.93042 655.85369,428.83748 C 649.69943,448.8732 637.5026,465.37206 623.8716,480.88654 C 611.82641,491.42601 603.09031,503.89689 595.05147,517.52366 C 590.11744,528.78479 587.85793,540.97931 584.71746,552.83053 C 582.31396,562.32645 582.06994,572.10871 581.51453,581.82288 C 582.68481,589.73392 579.09962,600.44543 575.73879,606.91923 L 555.59055,610.1218 C 559.58857,604.0796 562.6316,599.96834 561.49142,591.93124 C 561.9738,582.06337 562.42651,572.13507 564.63711,562.4673 C 567.82701,550.44597 570.28642,538.16213 574.86453,526.58318 C 582.878,512.72717 591.22991,499.82444 603.70036,489.3779 C 617.49877,474.11236 629.81855,457.83728 636.46643,438.06641 C 645.53728,406.36054 646.57207,373.8337 644.84971,340.99772 C 643.69449,307.92506 641.83396,274.55315 631.13812,242.92981 C 618.98017,210.03726 601.75623,179.94207 575.39025,156.19441 C 549.2077,137.68959 518.7436,129.56642 487.17426,125.32418 C 456.65776,120.49882 425.86334,118.54261 395.50438,126.01144 C 388.46897,128.56521 377.70093,133.60207 360.52936,161.45353 C 340.4915,192.56033 326.27101,226.35851 322.46775,263.54061 C 317.66865,303.23956 317.42158,343.07288 325.95094,382.3922 C 335.98642,422.50825 351.58236,461.00455 371.83288,497.09393 C 386.23879,520.62403 411.65502,573.16792 424.36432,597.44569 L 402.41303,591.11528 z "
           sodipodi:nodetypes="ccccccccccccccccccccccccccccccccc" />
        <path
           style="opacity:1;color:#000000;fill:#7f7f7f;fill-opacity:1;fill-rule:evenodd;stroke:none;stroke-width:1.0629921;stroke-linecap:butt;stroke-linejoin:miter;marker:none;marker-start:none;marker-mid:none;marker-end:none;stroke-miterlimit:4;stroke-dasharray:none;stroke-dashoffset:0;stroke-opacity:1;visibility:visible;display:inline;overflow:visible"
           id="path2189"
           d="M 392.37731,582.55258 C 406.33726,593.81201 427.22042,597.15541 447.81686,600.57005 C 484.09235,605.46624 521.24541,605.3403 558.06569,606.41315 C 575.03286,606.93916 592.00457,607.39451 608.97766,607.82663 L 582.11387,620.63246 C 565.36539,619.94714 548.60522,619.4511 531.84305,618.93345 C 494.73342,617.93649 457.28464,618.03286 420.76863,612.93217 C 399.40328,609.30083 377.91399,605.63748 363.08455,594.16084 L 392.37731,582.55258 z " />
        <path
           style="opacity:1;color:#000000;fill:#7f7f7f;fill-opacity:1;fill-rule:evenodd;stroke:none;stroke-width:1.0629921;stroke-linecap:butt;stroke-linejoin:miter;marker:none;marker-start:none;marker-mid:none;marker-end:none;stroke-miterlimit:4;stroke-dasharray:none;stroke-dashoffset:0;stroke-opacity:1;visibility:visible;display:inline;overflow:visible"
           id="path2191"
           d="M 411.44715,635.96108 C 407.4841,654.32696 407.75133,664.58034 407.09719,683.23613 C 405.82341,703.43442 405.73685,723.36247 411.48796,742.61766 C 428.47176,753.59226 450.32559,752.79982 470.38962,754.96445 C 487.74579,756.83118 504.97383,759.27549 522.42159,760.35139 C 534.57831,764.7605 583.7934,742.54743 557.50348,752.77262 C 572.02482,738.58807 571.69421,721.01401 569.35973,703.01679 C 568.51369,689.79841 558.62812,667.00318 554.25329,654.5309 L 579.57124,655.25172 C 584.80558,667.68223 587.47722,680.48991 588.78974,693.74642 C 591.11702,712.15233 591.75398,730.27897 577.76775,745.33599 C 554.50132,759.18762 533.49718,773.18253 504.60255,771.96767 C 487.16063,770.89546 469.97133,768.29972 452.6244,766.41973 C 432.23839,764.17465 408.66471,765.13807 392.26423,752.48331 C 386.63221,732.84815 386.67166,712.63654 387.90288,692.06984 C 388.50537,673.43988 388.91883,654.72284 391.7147,636.2366 L 411.44715,635.96108 z "
           sodipodi:nodetypes="ccccccccccccccccc" />
        <path
           style="opacity:1;color:#000000;fill:#7f7f7f;fill-opacity:1;fill-rule:evenodd;stroke:none;stroke-width:1.0629921;stroke-linecap:butt;stroke-linejoin:miter;marker:none;marker-start:none;marker-mid:none;marker-end:none;stroke-miterlimit:4;stroke-dasharray:none;stroke-dashoffset:0;stroke-opacity:1;visibility:visible;display:inline;overflow:visible"
           id="path2193"
           d="M 380.52448,628.07361 C 409.06278,635.50432 438.99956,637.44466 468.49062,639.86743 C 512.27876,643.10645 556.23689,643.16811 600.13039,644.15371 C 604.94952,644.30319 609.76868,644.45268 614.58782,644.60216 L 594.91042,657.17476 C 590.25377,656.93473 585.59712,656.6947 580.94048,656.45467 C 537.04036,655.02905 493.04984,655.35483 449.23722,652.05342 C 419.14599,649.64901 388.64025,647.70878 359.41902,640.52772 L 380.52448,628.07361 z " />
        <path
           style="opacity:1;color:#000000;fill:#7f7f7f;fill-opacity:1;fill-rule:evenodd;stroke:none;stroke-width:1.0629921;stroke-linecap:butt;stroke-linejoin:miter;marker:none;marker-start:none;marker-mid:none;marker-end:none;stroke-miterlimit:4;stroke-dasharray:none;stroke-dashoffset:0;stroke-opacity:1;visibility:visible;display:inline;overflow:visible"
           id="path2195"
           d="M 433.59679,664.32049 C 455.1898,668.51232 477.18959,669.92356 499.11234,671.15971 C 512.07137,671.71617 505.80094,671.48819 517.92306,671.85922 L 500.12819,684.68935 C 488.1211,684.18254 494.34086,684.47031 481.46945,683.81469 C 459.34399,682.36507 437.20013,680.71376 415.28906,677.1995 L 433.59679,664.32049 z " />
        <path
           style="opacity:1;color:#000000;fill:#7f7f7f;fill-opacity:1;fill-rule:evenodd;stroke:none;stroke-width:1.0629921;stroke-linecap:butt;stroke-linejoin:miter;marker:none;marker-start:none;marker-mid:none;marker-end:none;stroke-miterlimit:4;stroke-dasharray:none;stroke-dashoffset:0;stroke-opacity:1;visibility:visible;display:inline;overflow:visible"
           id="path2197"
           d="M 420.51589,698.18567 C 449.66462,700.44228 478.943,700.52415 508.16316,700.82836 C 514.49252,700.85497 520.82188,700.88158 527.15124,700.90819 L 510.2613,713.16082 C 503.98148,713.09635 497.70165,713.03187 491.42182,712.9674 C 461.64565,712.71213 431.83736,712.82321 402.09518,711.22222 L 420.51589,698.18567 z " />
        <path
           style="opacity:1;color:#000000;fill:#808080;fill-opacity:1;fill-rule:evenodd;stroke:none;stroke-width:1.0629921;stroke-linecap:butt;stroke-linejoin:miter;marker:none;marker-start:none;marker-mid:none;marker-end:none;stroke-miterlimit:4;stroke-dasharray:none;stroke-dashoffset:0;stroke-opacity:1;visibility:visible;display:inline;overflow:visible"
           id="path2199"
           d="M 437.12795,720.97866 C 457.07851,727.98825 477.90869,731.20185 498.85849,733.8314 C 515.1492,735.48442 507.30664,734.76926 522.38295,736.01203 L 504.69853,748.62032 C 489.79664,747.17349 497.55964,747.98047 481.41248,746.17122 C 460.10447,743.40422 438.95618,740.02892 418.40178,733.68418 L 437.12795,720.97866 z " />
        <path
           style="opacity:1;color:#000000;fill:#000000;fill-opacity:1;fill-rule:evenodd;stroke:none;stroke-width:1.0629921;stroke-linecap:butt;stroke-linejoin:miter;marker:none;marker-start:none;marker-mid:none;marker-end:none;stroke-miterlimit:4;stroke-dasharray:none;stroke-dashoffset:0;stroke-opacity:1;visibility:visible;display:inline;overflow:visible"
           id="path2201"
           d="M 433.1319,598.54289 C 434.23195,572.73525 433.0999,540.24499 431.52392,514.50197 C 431.40008,487.12096 425.25077,460.44434 420.89869,433.57565 C 418.82398,419.14161 416.33262,404.78167 418.8611,390.51737 C 438.23117,376.28524 445.08,378.00576 454.77331,397.84428 C 461.09391,414.46679 471.50099,426.77972 474.96534,417.22622 C 499.81232,397.39347 508.90592,414.41287 515.335,435.95561 C 532.51823,452.5669 541.4685,416.53102 552.57646,418.97597 C 560.6814,421.8916 570.58277,433.30778 572.95912,441.10136 C 574.15931,451.93895 568.69568,460.65055 564.25608,470.05892 C 559.08328,483.90737 551.83982,496.72299 544.91966,509.73731 C 535.61519,529.57638 531.61924,551.4695 527.55783,572.87905 C 525.77038,581.86653 525.46219,595.88405 524.4963,604.98138 L 511.39455,606.28262 C 512.44416,597.09472 513.45504,587.89921 515.31839,578.82612 C 519.4777,557.34993 523.41075,535.38243 532.4479,515.3481 C 539.22778,502.35544 546.52896,489.65416 551.65395,475.8797 C 555.82849,466.69934 561.45577,458.24155 560.6473,447.74298 C 557.96175,440.74729 553.64399,448.46996 545.57729,446.51079 C 538.08528,444.165 503.15446,472.66905 499.6881,448.01774 C 495.29192,433.09753 485.58735,437.55298 465.09686,445.29954 C 455.26395,430.40218 449.23163,421.47106 442.84928,404.62844 C 436.82469,394.73125 424.43575,379.82738 431.57254,384.61119 C 428.30266,398.57659 430.96753,412.90356 432.88421,427.22747 C 437.13542,454.18518 443.03867,480.98321 443.30063,508.40976 C 444.89515,534.06489 447.23872,575.04185 446.8681,600.76492 L 433.1319,598.54289 z "
           sodipodi:nodetypes="ccccccccccccccccccccccccccc" />
        <path
           style="opacity:1;color:#000000;fill:#0000ff;fill-opacity:1;fill-rule:evenodd;stroke:none;stroke-width:1.0629921;stroke-linecap:butt;stroke-linejoin:miter;marker:none;marker-start:none;marker-mid:none;marker-end:none;stroke-miterlimit:4;stroke-dasharray:none;stroke-dashoffset:0;stroke-opacity:1;visibility:visible;display:inline;overflow:visible"
           id="path2203"
           d="M 105.59006,937.01299 C 115.91814,956.09582 134.26489,965.15728 155.34095,972.48928 C 206.2073,984.65726 259.49213,984.45955 311.74582,985.50894 C 359.52362,987.26569 405.24013,980.46345 448.71352,962.65158 C 473.77564,948.49401 485.7616,927.28543 493.22352,902.29724 C 498.20382,881.54917 498.14711,860.30183 498.16729,839.19379 C 497.97282,829.48103 497.69116,819.76986 497.45476,810.05801 C 496.81249,802.23499 499.33695,794.81884 501.33371,787.33779 C 501.85939,783.40867 504.36505,780.08137 505.86093,776.50053 L 520.01313,770.75031 C 518.46974,774.23084 515.609,777.38651 515.31575,781.34347 C 513.23969,788.68207 510.68806,795.9609 511.24731,803.66371 C 511.41389,813.42482 511.6135,823.18578 511.67705,832.94801 C 511.51934,854.21197 511.47889,875.60218 506.58715,896.51743 C 496.23514,932.17198 475.32506,955.25916 437.37751,970.799 C 393.86443,988.22756 348.23511,994.74202 300.60132,992.81396 C 248.00694,991.691 194.36651,992.11483 143.14597,979.91883 C 121.64258,972.45374 93.950955,950.28026 82.895229,931.15703 L 105.59006,937.01299 z "
           sodipodi:nodetypes="ccccccccccccccccccc" />
        <path
           style="opacity:1;color:#000000;fill:#7f7f7f;fill-opacity:1;fill-rule:evenodd;stroke:none;stroke-width:1.0629921;stroke-linecap:butt;stroke-linejoin:miter;marker:none;marker-start:none;marker-mid:none;marker-end:none;stroke-miterlimit:4;stroke-dasharray:none;stroke-dashoffset:0;stroke-opacity:1;visibility:visible;display:inline;overflow:visible"
           id="path2205"
           d="M 376.78734,591.0235 C 376.93737,600.21949 373.12474,607.75681 369.5852,615.83776 C 367.18652,620.05439 371.3918,624.83251 368.82977,628.94016 L 352.33226,637.81635 C 354.89136,633.69299 354.2124,625.6982 356.78666,621.55513 C 360.47769,613.64807 364.51871,606.42661 364.1106,597.25765 L 376.78734,591.0235 z "
           sodipodi:nodetypes="ccccccc" />
        <path
           style="opacity:1;color:#000000;fill:#7f7f7f;fill-opacity:1;fill-rule:evenodd;stroke:none;stroke-width:1.0629921;stroke-linecap:butt;stroke-linejoin:miter;marker:none;marker-start:none;marker-mid:none;marker-end:none;stroke-miterlimit:4;stroke-dasharray:none;stroke-dashoffset:0;stroke-opacity:1;visibility:visible;display:inline;overflow:visible"
           id="path2207"
           d="M 601.56501,613.85837 C 604.90748,622.31067 604.64463,630.9066 606.45768,640.07025 L 592.82628,643.67642 C 591.0773,634.56431 593.88974,628.47008 590.40405,620.17632 L 601.56501,613.85837 z "
           sodipodi:nodetypes="ccccc" />
        <path
           style="opacity:1;color:#000000;fill:#ff0000;fill-opacity:1;fill-rule:evenodd;stroke:none;stroke-width:1.0629921;stroke-linecap:butt;stroke-linejoin:miter;marker:none;marker-start:none;marker-mid:none;marker-end:none;stroke-miterlimit:4;stroke-dasharray:none;stroke-dashoffset:0;stroke-opacity:1;visibility:visible;display:inline;overflow:visible"
           id="path2209"
           d="M 116.94152,746.31401 C 119.21891,728.45581 139.63038,718.78 155.54236,711.17001 C 172.12005,707.25013 189.15098,706.40342 206.07128,707.86541 C 226.19332,713.96584 243.37567,727.04196 261.03204,738.0735 C 276.6434,746.32777 288.76486,757.59216 299.27034,771.49198 C 307.36497,782.51718 314.30738,794.3002 322.98373,804.8931 C 331.37646,817.27494 344.16908,821.43008 357.79081,825.84313 C 372.09992,830.36769 386.0635,832.96054 400.7385,829.27831 C 422.81993,819.58241 402.91898,831.73989 412.59259,821.64563 C 416.58972,815.7812 419.55658,809.28933 422.79981,802.99133 C 425.36429,797.20683 428.88168,792.00148 432.32202,786.72855 C 434.67048,783.03488 437.08499,779.38933 439.6033,775.81754 C 440.52555,774.26562 440.87354,772.48075 441.50809,770.81384 L 453.91175,764.99557 C 453.30932,766.74821 452.87223,768.54957 452.10804,770.24303 C 449.60459,773.85517 447.25215,777.582 444.76727,781.23145 C 441.3911,786.54806 437.61394,791.58959 435.12671,797.4314 C 431.85366,803.7865 428.80824,810.28839 425.00154,816.34384 C 415.89379,826.68762 403.42193,833.42167 390.23071,837.28998 C 375.42301,840.54406 361.40127,837.73798 347.08339,833.12064 C 333.18635,828.60702 320.08945,824.46624 311.6787,811.66329 C 303.05377,801.01245 295.99261,789.30063 287.97752,778.20059 C 277.59073,764.50416 265.76726,753.17493 250.40421,744.92203 C 232.85642,733.93499 215.60941,720.95805 195.38165,715.4936 C 178.56306,714.07468 161.60866,714.92369 145.21184,719.20757 C 153.86586,710.9212 132.5165,733.0684 134.6568,742.05255 L 116.94152,746.31401 z "
           sodipodi:nodetypes="ccccccccccccccccccccccccccc" />
        <g
           id="g3193">
          <path
             sodipodi:nodetypes="cccccccssccccccc"
             d="M 149.24892,754.68025 C 166.89797,757.88012 183.93597,762.52849 200.75432,768.25532 C 235.29007,779.80285 241.76228,791.6797 197.50847,803.22155 C 162.18948,808.55584 126.20375,805.20999 90.703177,802.61336 C 67.083827,799.83837 42.082917,797.39372 23.08455,784.42549 L 42.506697,774.8344 C 60.610377,787.63944 85.048497,789.90285 107.83315,792.63581 C 143.36584,795.42344 201.10166,794.4308 205.89852,789.7228 C 209.81542,785.87847 196.44667,780.42335 183.5812,776.36324 C 179.39594,775.04246 166.68479,770.78795 149.88878,767.93195 M 95.59988,747.45543 C 92.996588,751.39057 92.284516,754.53072 91.484481,758.6824 C 58.765443,752.46041 40.151787,767.8591 41.562747,773.59404 L 25.350417,784.30953 C 23.642518,778.23844 14.871872,766.16073 21.596932,762.01059 C 45.269172,747.40211 73.009959,745.68622 95.59988,747.45543 z "
             id="path2181"
             style="opacity:1;color:#000000;fill:#d9d9d9;fill-opacity:1;fill-rule:evenodd;stroke:none;stroke-width:1.0629921;stroke-linecap:butt;stroke-linejoin:miter;marker:none;marker-start:none;marker-mid:none;marker-end:none;stroke-miterlimit:4;stroke-dasharray:none;stroke-dashoffset:0;stroke-opacity:1;visibility:visible;display:inline;overflow:visible" />
          <path
             d="M 37.719612,756.45761 C 36.588226,787.84034 37.593924,819.17669 39.411471,850.48323 C 40.065641,868.11121 42.461461,885.44759 45.253151,902.71167 L 26.243962,915.12175 C 23.633178,897.64518 21.333257,880.10704 20.784577,862.30818 C 18.887846,831.24862 17.723611,800.16746 17.578127,769.01731 L 37.719612,756.45761 z "
             id="path2183"
             style="opacity:1;color:#000000;fill:#d9d9d9;fill-opacity:1;fill-rule:evenodd;stroke:none;stroke-width:1.0629921;stroke-linecap:butt;stroke-linejoin:miter;marker:none;marker-start:none;marker-mid:none;marker-end:none;stroke-miterlimit:4;stroke-dasharray:none;stroke-dashoffset:0;stroke-opacity:1;visibility:visible;display:inline;overflow:visible" />
          <path
             d="M 224.79785,794.99692 C 224.97175,816.42012 221.19733,837.73064 218.76992,858.98542 C 216.47102,879.77326 214.62271,900.60924 213.01776,921.46295 L 192.85394,930.56072 C 194.76543,909.62739 196.76086,888.70313 199.05807,867.80927 C 201.33814,846.8913 204.97722,825.81545 204.10313,804.74634 L 224.79785,794.99692 z "
             id="path2185"
             style="opacity:1;color:#000000;fill:#d9d9d9;fill-opacity:1;fill-rule:evenodd;stroke:none;stroke-width:1.0629921;stroke-linecap:butt;stroke-linejoin:miter;marker:none;marker-start:none;marker-mid:none;marker-end:none;stroke-miterlimit:4;stroke-dasharray:none;stroke-dashoffset:0;stroke-opacity:1;visibility:visible;display:inline;overflow:visible" />
          <path
             sodipodi:nodetypes="ccccccccccccssccc"
             d="M 88.193372,773.95607 C 90.242594,769.54717 91.267222,764.75557 92.518826,760.07982 C 94.276046,749.18092 96.381585,744.46901 106.73306,743.52912 C 116.74881,742.26513 126.90313,742.80891 136.91916,743.79179 C 143.3861,744.34226 147.35297,745.44826 148.52962,752.09732 C 148.86023,757.02628 149.04595,761.96425 149.32577,766.89757 C 149.44381,769.64176 148.0868,771.06487 146.53886,773.0404 C 146.2072,773.31444 145.87554,773.58847 145.54389,773.86251 L 137.74242,776.99392 C 138.0765,776.73462 138.41058,776.47532 138.74466,776.21603 C 140.35956,774.48547 141.7983,773.32175 141.89924,770.72314 C 141.72935,765.80097 141.64561,760.87006 141.26875,755.96011 C 139.60759,749.99167 138.07942,748.37168 131.63824,747.75426 C 121.64967,746.7968 120.55333,746.01492 110.5515,747.16107 C 102.39785,748.09543 103.51085,749.67518 99.921956,756.54913 C 98.668206,761.20611 97.616696,765.93518 95.923326,770.45879 L 88.193372,773.95607 z "
             id="path2211"
             style="opacity:1;color:#000000;fill:#d9d9d9;fill-opacity:1;fill-rule:evenodd;stroke:none;stroke-width:1.0629921;stroke-linecap:butt;stroke-linejoin:miter;marker:none;marker-start:none;marker-mid:none;marker-end:none;stroke-miterlimit:4;stroke-dasharray:none;stroke-dashoffset:0;stroke-opacity:1;visibility:visible;display:inline;overflow:visible" />
          <path
             d="M 46.70924,907.0604 C 68.5984,917.60903 92.17803,923.01046 115.91775,927.4414 C 139.74193,932.65233 162.56988,932.84376 185.8498,926.79477 C 187.54432,925.96796 189.23883,925.14114 190.93334,924.31433 C 185.81624,927.06157 180.69913,929.80881 175.58202,932.55605 L 196.36228,924.29244 C 188.7415,928.9168 181.12071,933.54116 173.49993,938.16552 C 171.79306,938.90162 170.08618,939.63771 168.37931,940.3738 C 145.04163,945.40654 122.16564,944.64424 98.58749,939.54764 C 74.35644,934.97158 50.25533,929.45805 27.67832,919.24569 L 46.70924,907.0604 z "
             id="path2213"
             style="opacity:1;color:#000000;fill:#d9d9d9;fill-opacity:1;fill-rule:evenodd;stroke:none;stroke-width:1.0629921;stroke-linecap:butt;stroke-linejoin:miter;marker:none;marker-start:none;marker-mid:none;marker-end:none;stroke-miterlimit:4;stroke-dasharray:none;stroke-dashoffset:0;stroke-opacity:1;visibility:visible;display:inline;overflow:visible" />
        </g>
      </g>
    </g>
  </g>
</svg>
