<?xml version="1.0" encoding="UTF-8" standalone="no"?>
<svg
   xmlns:dc="http://purl.org/dc/elements/1.1/"
   xmlns:cc="http://web.resource.org/cc/"
   xmlns:rdf="http://www.w3.org/1999/02/22-rdf-syntax-ns#"
   xmlns:svg="http://www.w3.org/2000/svg"
   xmlns="http://www.w3.org/2000/svg"
   xmlns:sodipodi="http://inkscape.sourceforge.net/DTD/sodipodi-0.dtd"
   xmlns:inkscape="http://www.inkscape.org/namespaces/inkscape"
   version="1.0"
   viewBox="0 0 21000 29700"
   preserveAspectRatio="xMidYMid"
   fill-rule="evenodd"
   id="svg1427"
   sodipodi:version="0.32"
   inkscape:version="0.43"
   width="200pt"
   height="300pt"
   sodipodi:docname="49.svg"
   sodipodi:docbase="C:\Documents and Settings\staffan\My Documents">
  <metadata
     id="metadata1512">
    <rdf:RDF>
      <cc:Work
         rdf:about="">
        <dc:format>image/svg+xml</dc:format>
        <dc:type
           rdf:resource="http://purl.org/dc/dcmitype/StillImage" />
        <cc:license
           rdf:resource="http://web.resource.org/cc/PublicDomain" />
      </cc:Work>
      <cc:License
         rdf:about="http://web.resource.org/cc/PublicDomain">
        <cc:permits
           rdf:resource="http://web.resource.org/cc/Reproduction" />
        <cc:permits
           rdf:resource="http://web.resource.org/cc/Distribution" />
        <cc:permits
           rdf:resource="http://web.resource.org/cc/DerivativeWorks" />
      </cc:License>
    </rdf:RDF>
  </metadata>
  <defs
     id="defs1510" />
  <sodipodi:namedview
     inkscape:window-height="540"
     inkscape:window-width="812"
     inkscape:pageshadow="2"
     inkscape:pageopacity="0.0"
     borderopacity="1.0"
     bordercolor="#666666"
     pagecolor="#ffffff"
     id="base"
     inkscape:zoom="0.81623762"
     inkscape:cx="195.58212"
     inkscape:cy="214.41182"
     inkscape:window-x="154"
     inkscape:window-y="154"
     inkscape:current-layer="svg1427" />
  <g
     visibility="visible"
     id="Default"
     style="visibility:visible">
    <desc
       id="desc1430">Master slide</desc>
  </g>
  <g
     visibility="visible"
     id="page1"
     transform="matrix(1.659631,0,0,1.659631,-6913.628,-10315.03)"
     style="visibility:visible">
    <desc
       id="desc1433">Slide</desc>
    <g
       id="g1435">
      <desc
         id="desc1437">Graphic</desc>
      <g
         id="g1439">
        <g
           style="fill:#000000;stroke:none"
           id="g1441">
          <path
             d="M 9887,24496 L 9847,24496 L 9807,24496 L 9768,24496 L 9728,24457 L 9689,24457 L 9689,24457 L 9649,24417 L 9610,24417 L 9570,24417 L 9570,24377 L 9530,24377 L 9491,24377 L 9491,24338 L 9451,24338 L 9412,24298 L 9412,24298 L 9372,24298 L 9332,24258 L 9332,24258 L 9293,24219 L 9253,24179 L 9214,24139 L 9174,24139 L 9174,24100 L 9135,24100 L 9135,24060 L 9095,24060 L 9055,24020 L 9055,24020 L 9016,23981 L 9016,23941 L 8976,23941 L 8937,23901 L 8937,23862 L 8897,23782 L 8858,23743 L 8858,23743 L 8858,23703 L 8818,23703 L 8818,23663 L 8739,23624 L 8699,23584 L 8660,23584 L 8660,23544 L 8620,23505 L 8620,23505 L 8581,23465 L 8581,23425 L 8581,23425 L 8541,23386 L 8541,23346 L 8501,23306 L 8501,23306 L 8462,23267 L 8462,23227 L 8422,23188 L 8422,23188 L 8383,23148 L 8383,23108 L 8383,23108 L 8383,23069 L 8383,23069 L 8383,23029 L 8383,22989 L 8422,22989 L 8422,22950 L 8422,22910 L 8422,22910 L 8462,22870 L 8462,22831 L 8501,22831 L 8501,22791 L 8541,22791 L 8581,22632 L 8541,22593 L 8541,22553 L 8501,22513 L 8462,22474 L 8462,22434 L 8422,22394 L 8422,22355 L 8383,22355 L 8383,22315 L 8343,22275 L 8343,22236 L 8304,22196 L 8304,22156 L 8304,22156 L 8304,22117 L 8304,22077 L 8264,22077 L 8264,22037 L 8264,21998 L 8264,21998 L 8264,21958 L 8264,21918 L 8264,21918 L 8304,21879 L 8304,21839 L 8343,21799 L 8343,21799 L 8383,21760 L 8383,21720 L 8383,21720 L 8422,21680 L 8422,21680 L 8422,21641 L 8422,21601 L 8422,21561 L 8422,21522 L 8422,21482 L 8422,21442 L 8422,21442 L 8383,21403 L 8383,21363 L 8383,21363 L 8343,21323 L 8343,21284 L 8343,21244 L 8304,21244 L 8304,21204 L 8304,21165 L 8304,21125 L 8264,21125 L 8264,21085 L 8264,21046 L 8264,21006 L 8304,20966 L 8304,20927 L 8304,20887 L 8304,20848 L 8343,20848 L 8343,20808 L 8343,20768 L 8383,20729 L 8383,20689 L 8383,20649 L 8422,20610 L 8422,20570 L 8422,20570 L 8422,20491 L 8383,20451 L 8383,20451 L 8343,20411 L 8343,20332 L 8304,20292 L 8304,20292 L 8304,20253 L 8264,20173 L 8264,20134 L 8224,20094 L 8224,20054 L 8224,20015 L 8185,19975 L 8185,19935 L 8185,19896 L 8185,19856 L 8145,19816 L 8145,19777 L 8145,19737 L 8145,19697 L 8145,19658 L 8106,19618 L 8106,19578 L 8106,19539 L 8106,19499 L 8106,19459 L 8066,19420 L 8066,19380 L 8066,19340 L 8066,19261 L 8066,19261 L 8066,19182 L 8066,19142 L 8026,19102 L 8026,19063 L 8026,19023 L 8026,18983 L 8026,18944 L 8026,18904 L 8026,18864 L 8026,18825 L 7987,18745 L 7987,18706 L 7987,18666 L 7987,18626 L 7987,18587 L 7987,18547 L 7987,18507 L 7947,18468 L 7947,18428 L 7947,18389 L 7947,18349 L 7947,18309 L 7947,18230 L 7908,18190 L 7908,18151 L 7908,18111 L 7908,18071 L 7868,18032 L 7868,17992 L 7868,17952 L 7868,17913 L 7829,17873 L 7829,17833 L 7829,17833 L 7829,17794 L 7789,17794 L 7789,17754 L 7749,17714 L 7749,17714 L 7710,17675 L 7710,17635 L 7670,17635 L 7631,17595 L 7631,17556 L 7591,17516 L 7552,17516 L 7552,17476 L 7512,17437 L 7512,17357 L 7472,17357 L 7393,17318 L 7354,17278 L 7275,17238 L 7235,17238 L 7195,17199 L 7116,17159 L 7077,17119 L 6997,17080 L 6958,17040 L 6918,17000 L 6839,17000 L 6800,16961 L 6760,16921 L 6720,16881 L 6641,16842 L 6602,16802 L 6562,16762 L 6483,16723 L 6443,16683 L 6404,16643 L 6364,16604 L 6285,16524 L 6246,16524 L 6206,16445 L 6166,16405 L 6087,16366 L 6048,16326 L 6008,16286 L 5969,16247 L 5929,16167 L 5889,16128 L 5850,16088 L 5810,16049 L 5771,16009 L 5731,15930 L 5652,15890 L 5612,15850 L 5573,15811 L 5533,15731 L 5494,15692 L 5454,15652 L 5414,15573 L 5414,15533 L 5375,15493 L 5335,15414 L 5296,15374 L 5256,15335 L 5217,15255 L 5177,15216 L 5137,15176 L 5137,15097 L 5098,15057 L 5058,14978 L 5019,14938 L 5019,14898 L 4979,14819 L 4940,14779 L 4900,14700 L 4900,14660 L 4860,14581 L 4860,14541 L 4821,14462 L 4781,14422 L 4742,14343 L 4742,14264 L 4702,14184 L 4662,14105 L 4623,14026 L 4623,13946 L 4583,13867 L 4544,13788 L 4544,13709 L 4504,13629 L 4465,13510 L 4465,13431 L 4425,13352 L 4425,13272 L 4385,13193 L 4385,13114 L 4385,13034 L 4346,12915 L 4346,12836 L 4346,12757 L 4306,12677 L 4306,12598 L 4306,12519 L 4306,12400 L 4306,12320 L 4306,12241 L 4306,12162 L 4306,12082 L 4306,12003 L 4306,11884 L 4306,11805 L 4306,11725 L 4306,11646 L 4306,11567 L 4306,11448 L 4346,11369 L 4346,11289 L 4346,11210 L 4346,11131 L 4385,11051 L 4385,10932 L 4385,10853 L 4425,10774 L 4425,10694 L 4425,10615 L 4465,10536 L 4504,10456 L 4504,10377 L 4544,10258 L 4544,10179 L 4583,10099 L 4583,10020 L 4623,9941 L 4662,9861 L 4702,9782 L 4702,9703 L 4742,9623 L 4781,9544 L 4821,9465 L 4860,9385 L 4860,9306 L 4900,9227 L 4940,9147 L 4979,9068 L 5019,8989 L 5098,8910 L 5137,8830 L 5177,8751 L 5217,8672 L 5296,8592 L 5335,8513 L 5414,8434 L 5454,8354 L 5494,8275 L 5573,8235 L 5612,8156 L 5691,8077 L 5731,7997 L 5810,7918 L 5889,7878 L 5929,7799 L 6008,7720 L 6048,7640 L 6127,7601 L 6206,7521 L 6285,7442 L 6325,7402 L 6404,7323 L 6483,7283 L 6562,7204 L 6641,7164 L 6720,7085 L 6760,7045 L 6839,6966 L 6918,6926 L 7037,6887 L 7077,6807 L 7156,6768 L 7235,6688 L 7354,6649 L 7433,6609 L 7512,6570 L 7591,6530 L 7670,6490 L 7749,6411 L 7829,6371 L 7947,6332 L 8026,6292 L 8106,6252 L 8224,6213 L 8304,6173 L 8383,6173 L 8501,6133 L 8581,6094 L 8660,6054 L 8778,6014 L 8858,6014 L 8976,5975 L 9055,5935 L 9174,5935 L 9253,5895 L 9372,5895 L 9451,5856 L 9570,5856 L 9649,5856 L 9768,5816 L 9887,5816 L 9966,5816 L 10084,5816 L 10164,5816 L 10243,5816 L 10322,5816 L 10441,5816 L 10520,5816 L 10599,5816 L 10718,5816 L 10797,5816 L 10876,5816 L 10995,5816 L 11074,5856 L 11153,5856 L 11272,5856 L 11351,5856 L 11430,5895 L 11509,5895 L 11628,5935 L 11707,5935 L 11786,5975 L 11865,5975 L 11984,6014 L 12063,6014 L 12142,6054 L 12222,6054 L 12301,6094 L 12380,6133 L 12499,6173 L 12578,6173 L 12657,6213 L 12736,6252 L 12815,6292 L 12894,6332 L 12973,6332 L 13053,6371 L 13132,6411 L 13211,6451 L 13290,6490 L 13369,6530 L 13448,6570 L 13528,6609 L 13607,6649 L 13686,6688 L 13765,6728 L 13844,6807 L 13923,6847 L 13963,6887 L 14042,6926 L 14121,6966 L 14200,7045 L 14240,7085 L 14319,7125 L 14398,7204 L 14438,7244 L 14517,7283 L 14596,7363 L 14636,7402 L 14715,7482 L 14754,7521 L 14834,7601 L 14873,7640 L 14952,7720 L 14992,7759 L 15071,7839 L 15071,7878 L 15111,7918 L 15150,7958 L 15190,7997 L 15190,8037 L 15229,8077 L 15269,8116 L 15308,8156 L 15308,8196 L 15348,8235 L 15388,8275 L 15388,8275 L 15427,8315 L 15427,8354 L 15467,8394 L 15506,8434 L 15546,8434 L 15546,8473 L 15586,8513 L 15625,8513 L 15625,8553 L 15625,8592 L 15665,8592 L 15665,8632 L 15665,8632 L 15704,8672 L 15704,8711 L 15744,8711 L 15744,8751 L 15744,8791 L 15783,8791 L 15783,8830 L 15783,8870 L 15823,8870 L 15823,8910 L 15863,8949 L 15863,8949 L 15863,8989 L 15902,8989 L 15902,9028 L 15902,9068 L 15942,9108 L 15942,9108 L 15942,9147 L 15981,9187 L 15981,9187 L 15981,9227 L 16021,9266 L 16021,9266 L 16060,9306 L 16060,9346 L 16060,9385 L 16100,9385 L 16100,9425 L 16100,9465 L 16140,9504 L 16140,9504 L 16140,9544 L 16179,9584 L 16179,9623 L 16179,9623 L 16219,9663 L 16219,9703 L 16219,9742 L 16258,9742 L 16258,9782 L 16258,9822 L 16258,9861 L 16298,9901 L 16298,9901 L 16298,9941 L 16337,9980 L 16337,10020 L 16337,10060 L 16337,10060 L 16377,10099 L 16377,10139 L 16377,10179 L 16417,10218 L 16417,10258 L 16417,10298 L 16417,10337 L 16456,10337 L 16456,10377 L 16496,10496 L 16496,10575 L 16535,10655 L 16535,10734 L 16535,10853 L 16575,10932 L 16575,11012 L 16575,11131 L 16615,11210 L 16615,11289 L 16615,11369 L 16615,11487 L 16654,11567 L 16654,11646 L 16654,11765 L 16654,11844 L 16654,11924 L 16654,12043 L 16654,12122 L 16654,12201 L 16615,12281 L 16615,12400 L 16615,12479 L 16615,12558 L 16615,12638 L 16615,12757 L 16575,12836 L 16575,12915 L 16575,12995 L 16535,13114 L 16535,13193 L 16535,13272 L 16496,13352 L 16496,13471 L 16456,13550 L 16456,13629 L 16417,13709 L 16377,13788 L 16377,13867 L 16337,13946 L 16298,14026 L 16298,14105 L 16258,14184 L 16219,14264 L 16219,14343 L 16179,14422 L 16140,14502 L 16100,14581 L 16060,14660 L 16060,14740 L 16021,14819 L 15981,14898 L 15942,14978 L 15902,15017 L 15863,15097 L 15823,15176 L 15783,15255 L 15744,15295 L 15704,15374 L 15665,15454 L 15625,15493 L 15546,15573 L 15506,15652 L 15467,15692 L 15467,15731 L 15427,15771 L 15388,15811 L 15348,15811 L 15348,15850 L 15308,15890 L 15269,15930 L 15269,15969 L 15229,16009 L 15190,16009 L 15190,16049 L 15150,16088 L 15111,16128 L 15071,16167 L 15071,16167 L 15031,16207 L 14992,16247 L 14992,16286 L 14952,16286 L 14913,16326 L 14873,16366 L 14873,16405 L 14834,16405 L 14794,16445 L 14754,16485 L 14715,16524 L 14715,16524 L 14675,16564 L 14636,16604 L 14596,16604 L 14557,16643 L 14557,16683 L 14517,16683 L 14477,16723 L 14438,16762 L 14438,16762 L 14398,16802 L 14359,16842 L 14319,16842 L 14280,16881 L 14240,16921 L 14240,16921 L 14200,16961 L 14161,16961 L 14121,17000 L 14082,17040 L 14042,17040 L 14042,17080 L 14002,17080 L 13963,17119 L 13923,17119 L 13884,17159 L 13844,17199 L 13805,17199 L 13805,17238 L 13765,17238 L 13725,17278 L 13686,17278 L 13646,17318 L 13607,17318 L 13567,17357 L 13567,17357 L 13528,17397 L 13488,17397 L 13448,17437 L 13409,17476 L 13409,17476 L 13369,17516 L 13369,17556 L 13330,17595 L 13290,17635 L 13290,17675 L 13251,17675 L 13251,17714 L 13211,17754 L 13211,17794 L 13171,17833 L 13171,17873 L 13132,17913 L 13132,17952 L 13092,17992 L 13092,18032 L 13092,18071 L 13053,18111 L 13053,18111 L 13013,18151 L 13013,18190 L 13013,18270 L 12973,18270 L 12973,18309 L 12934,18389 L 12934,18428 L 12934,18468 L 12894,18507 L 12894,18547 L 12894,18587 L 12855,18626 L 12855,18666 L 12855,18706 L 12815,18745 L 12815,18785 L 12815,18825 L 12776,18864 L 12776,18904 L 12776,18944 L 12736,19023 L 12736,19063 L 12736,19102 L 12696,19142 L 12696,19182 L 12696,19221 L 12696,19261 L 12657,19301 L 12657,19340 L 12657,19380 L 12617,19459 L 12617,19499 L 12617,19539 L 12578,19578 L 12578,19618 L 12578,19658 L 12538,19697 L 12538,19737 L 12538,19777 L 12499,19816 L 12499,19856 L 12499,19896 L 12459,19975 L 12578,20213 L 12538,20411 L 12499,20451 L 12459,20491 L 12419,20491 L 12380,20530 L 12380,20530 L 12340,20570 L 12340,20570 L 12301,20610 L 12301,20649 L 12301,20649 L 12261,20689 L 12261,20729 L 12301,20768 L 12301,20808 L 12301,20848 L 12340,20887 L 12340,20887 L 12340,20927 L 12340,20966 L 12340,21006 L 12340,21046 L 12340,21085 L 12340,21125 L 12340,21165 L 12340,21204 L 12340,21284 L 12301,21284 L 12301,21323 L 12301,21323 L 12301,21363 L 12142,21442 L 12063,21522 L 12103,21561 L 12103,21601 L 12103,21641 L 12142,21720 L 12142,21720 L 12142,21799 L 12182,21799 L 12182,21839 L 12182,21879 L 12222,21879 L 12182,22156 L 12142,22156 L 12142,22196 L 12103,22236 L 12103,22275 L 12063,22275 L 12063,22315 L 12024,22355 L 12024,22355 L 12024,22394 L 12024,22434 L 11984,22434 L 11984,22474 L 11984,22513 L 11984,22513 L 12024,22553 L 12024,22593 L 12024,22593 L 12024,22632 L 12063,22632 L 12063,22672 L 12063,22712 L 12063,22712 L 12103,22751 L 12103,22791 L 12103,22791 L 12142,22831 L 12142,23188 L 12103,23227 L 12103,23267 L 12063,23306 L 12024,23346 L 12024,23346 L 11984,23386 L 11945,23425 L 11945,23465 L 11905,23465 L 11905,23505 L 11865,23544 L 11826,23584 L 11826,23584 L 11786,23624 L 11747,23663 L 11747,23703 L 11707,23703 L 11667,23743 L 11667,23782 L 11628,23822 L 11588,23822 L 11588,23862 L 11549,23901 L 11509,23901 L 11470,23941 L 11470,23981 L 11430,23981 L 11390,24020 L 11351,24020 L 11351,24060 L 11311,24100 L 11272,24100 L 11232,24139 L 11193,24139 L 11153,24179 L 11153,24219 L 11113,24219 L 11074,24219 L 11034,24258 L 10995,24258 L 10955,24298 L 10916,24298 L 10876,24338 L 10876,24338 L 10836,24338 L 10797,24377 L 10757,24377 L 10718,24417 L 10678,24417 L 10639,24417 L 10599,24417 L 10559,24457 L 10520,24457 L 10480,24457 L 10441,24457 L 10401,24496 L 10322,24496 L 10322,24496 L 10243,24496 L 10203,24496 L 10164,24496 L 10124,24496 L 10084,24496 L 10045,24496 L 9887,24496 z "
             id="path1443" />
        </g>
        <g
           style="fill:#669999;stroke:none"
           id="g1445">
          <path
             d="M 10916,23822 L 10916,23822 L 10876,23822 L 10836,23822 L 10797,23822 L 10797,23782 L 10757,23782 L 10718,23782 L 10718,23782 L 10678,23782 L 10639,23782 L 10599,23782 L 10599,23782 L 10559,23782 L 10520,23782 L 10480,23782 L 10480,23782 L 10441,23782 L 10401,23782 L 10361,23743 L 10361,23743 L 10322,23743 L 10282,23743 L 10243,23743 L 10243,23743 L 10203,23743 L 10164,23743 L 10164,23743 L 10124,23743 L 10084,23743 L 10045,23743 L 10045,23743 L 10005,23743 L 9966,23743 L 9926,23743 L 9926,23743 L 9887,23743 L 9847,23743 L 9807,23743 L 9807,23703 L 9768,23703 L 9728,23703 L 9689,23703 L 9689,23703 L 9649,23703 L 9610,23703 L 9570,23703 L 9570,23703 L 9530,23703 L 9491,23703 L 9451,23703 L 9451,23663 L 9412,23663 L 9372,23663 L 9332,23663 L 9332,23663 L 9293,23663 L 9253,23663 L 9214,23663 L 9214,23663 L 9174,23663 L 9135,23624 L 9095,23624 L 9095,23624 L 9055,23624 L 9016,23584 L 8976,23544 L 8937,23505 L 8897,23505 L 8858,23465 L 8858,23465 L 8818,23425 L 8778,23425 L 8778,23386 L 8739,23386 L 8739,23346 L 8699,23346 L 8699,23306 L 8660,23267 L 8660,23227 L 8660,23188 L 8620,23148 L 8620,23108 L 8581,23069 L 8581,23029 L 8620,22870 L 8660,22870 L 8699,22870 L 8739,22870 L 8818,22870 L 8858,22870 L 8897,22910 L 8976,22910 L 9016,22910 L 9055,22910 L 9095,22910 L 9174,22910 L 9214,22910 L 9253,22910 L 9332,22910 L 9372,22910 L 9412,22910 L 9491,22910 L 9530,22910 L 9570,22950 L 9649,22950 L 9689,22950 L 9728,22950 L 9768,22950 L 9847,22950 L 9887,22950 L 9926,22950 L 10005,22950 L 10045,22950 L 10084,22950 L 10164,22950 L 10203,22989 L 10243,22989 L 10322,22989 L 10361,22989 L 10401,22989 L 10441,22989 L 10520,22989 L 10559,22989 L 10599,22989 L 10678,23029 L 10718,23029 L 10757,23029 L 10797,23029 L 10876,23029 L 10916,23029 L 10955,23029 L 11034,23029 L 11074,23029 L 11113,23029 L 11193,23069 L 11232,23069 L 11272,23069 L 11351,23069 L 11390,23069 L 11430,23069 L 11470,23069 L 11549,23108 L 11588,23108 L 11628,23108 L 11707,23108 L 11747,23108 L 11786,23108 L 11865,23148 L 11905,23148 L 11865,23306 L 11826,23346 L 11826,23386 L 11786,23425 L 11747,23465 L 11707,23465 L 11667,23505 L 11628,23544 L 11588,23584 L 11549,23584 L 11509,23624 L 11430,23663 L 11390,23663 L 11351,23703 L 11311,23743 L 11272,23743 L 11272,23782 L 10916,23822 z "
             id="path1447" />
        </g>
        <g
           style="fill:#99cccc;stroke:none"
           id="g1449">
          <path
             d="M 11707,22870 L 11667,22870 L 11667,22870 L 11628,22870 L 11588,22870 L 11588,22870 L 11549,22870 L 11509,22870 L 11509,22870 L 11470,22870 L 11430,22870 L 11430,22870 L 11390,22870 L 11390,22870 L 11351,22870 L 11311,22870 L 11311,22870 L 11272,22870 L 11232,22870 L 11232,22870 L 11193,22870 L 11153,22870 L 11153,22870 L 11113,22870 L 11113,22870 L 11074,22831 L 11034,22831 L 11034,22831 L 10995,22831 L 10955,22831 L 10955,22831 L 10916,22831 L 10876,22831 L 10876,22831 L 10836,22831 L 10797,22831 L 10797,22831 L 10757,22831 L 10757,22831 L 10718,22831 L 10678,22831 L 10678,22831 L 10639,22831 L 10599,22831 L 10599,22831 L 10559,22831 L 10520,22831 L 10520,22831 L 10480,22831 L 10480,22791 L 10441,22791 L 10401,22791 L 10401,22791 L 10361,22791 L 10322,22791 L 10322,22791 L 10282,22791 L 10243,22791 L 10243,22751 L 10203,22751 L 10164,22751 L 10164,22751 L 10124,22751 L 10084,22751 L 10084,22751 L 10084,22751 L 10124,22751 L 10164,22751 L 10164,22751 L 10203,22712 L 10243,22712 L 10282,22712 L 10282,22712 L 10322,22712 L 10361,22712 L 10361,22712 L 10401,22712 L 10441,22712 L 10441,22712 L 10480,22712 L 10520,22712 L 10520,22672 L 10559,22672 L 10599,22672 L 10639,22672 L 10639,22672 L 10678,22672 L 10718,22672 L 10718,22672 L 10757,22632 L 10797,22632 L 10797,22632 L 10836,22632 L 10876,22632 L 10876,22632 L 10916,22632 L 10955,22632 L 10995,22593 L 10995,22593 L 11034,22593 L 11074,22593 L 11074,22593 L 11113,22593 L 11153,22553 L 11153,22553 L 11193,22553 L 11232,22553 L 11232,22553 L 11272,22553 L 11311,22513 L 11311,22513 L 11351,22513 L 11390,22513 L 11430,22513 L 11430,22513 L 11470,22513 L 11470,22474 L 11509,22474 L 11549,22474 L 11588,22474 L 11588,22474 L 11628,22474 L 11667,22474 L 11667,22434 L 11707,22434 L 11747,22434 L 11747,22434 L 11786,22434 L 11826,22434 L 11826,22474 L 11826,22513 L 11826,22513 L 11826,22553 L 11826,22593 L 11865,22593 L 11865,22632 L 11865,22632 L 11865,22672 L 11865,22712 L 11905,22751 L 11905,22791 L 11707,22870 z "
             id="path1451" />
          <path
             d="M 9174,22632 L 9095,22593 L 9055,22593 L 9055,22593 L 9016,22593 L 8976,22593 L 8976,22593 L 8937,22593 L 8937,22593 L 8897,22593 L 8858,22593 L 8818,22593 L 8818,22593 L 8778,22593 L 8778,22593 L 8739,22513 L 8699,22474 L 8699,22474 L 8660,22434 L 8660,22394 L 8620,22394 L 8620,22355 L 8581,22315 L 8581,22315 L 8581,22275 L 8581,22236 L 8620,22236 L 8660,22236 L 8699,22236 L 8739,22196 L 8818,22196 L 8858,22196 L 8897,22196 L 8937,22196 L 9016,22156 L 9055,22156 L 9095,22156 L 9135,22156 L 9214,22117 L 9253,22117 L 9293,22117 L 9372,22117 L 9412,22117 L 9451,22077 L 9530,22077 L 9570,22077 L 9610,22077 L 9649,22037 L 9728,22037 L 9768,22037 L 9807,22037 L 9887,22037 L 9926,21998 L 9966,21998 L 10045,21998 L 10084,21998 L 10124,21998 L 10203,21958 L 10243,21958 L 10282,21958 L 10361,21958 L 10401,21918 L 10441,21918 L 10520,21918 L 10559,21918 L 10639,21879 L 10678,21879 L 10718,21879 L 10757,21879 L 10836,21839 L 10876,21839 L 10955,21839 L 10995,21799 L 11034,21799 L 11113,21799 L 11153,21799 L 11193,21760 L 11272,21760 L 11311,21760 L 11351,21720 L 11390,21720 L 11470,21720 L 11509,21680 L 11549,21680 L 11628,21680 L 11667,21641 L 11707,21641 L 11786,21641 L 11826,21601 L 11865,21601 L 11945,21680 L 11945,21680 L 11945,21720 L 11945,21760 L 11945,21799 L 11984,21799 L 11984,21839 L 11984,21879 L 12024,21918 L 11984,22117 L 11945,22117 L 11905,22156 L 11865,22156 L 11826,22156 L 11786,22156 L 11747,22156 L 11707,22196 L 11667,22196 L 11628,22196 L 11588,22196 L 11588,22196 L 11549,22236 L 11509,22236 L 11470,22236 L 11430,22275 L 11430,22275 L 11390,22315 L 11390,22315 L 11351,22315 L 11311,22315 L 11311,22315 L 11272,22355 L 11232,22355 L 11232,22355 L 11193,22355 L 11153,22355 L 11113,22355 L 11113,22394 L 11074,22394 L 11034,22394 L 10995,22394 L 10995,22394 L 10955,22394 L 10916,22394 L 10916,22394 L 10876,22434 L 10836,22434 L 10797,22434 L 10797,22434 L 10757,22434 L 10718,22434 L 10678,22474 L 10678,22474 L 10639,22474 L 10599,22474 L 10559,22474 L 10559,22474 L 10520,22474 L 10480,22474 L 10480,22513 L 10441,22513 L 10401,22513 L 10361,22513 L 10361,22513 L 10322,22513 L 10282,22513 L 10243,22513 L 10243,22513 L 10203,22513 L 10164,22553 L 10164,22553 L 10124,22553 L 10084,22553 L 10045,22553 L 10045,22553 L 10005,22553 L 9966,22553 L 9926,22553 L 9926,22553 L 9887,22553 L 9847,22553 L 9847,22553 L 9807,22553 L 9768,22553 L 9728,22553 L 9728,22553 L 9689,22553 L 9649,22593 L 9610,22593 L 9610,22593 L 9570,22593 L 9530,22593 L 9530,22593 L 9491,22593 L 9451,22593 L 9412,22593 L 9412,22593 L 9372,22593 L 9332,22593 L 9332,22593 L 9293,22593 L 9253,22593 L 9214,22593 L 9214,22593 L 9174,22593 L 9174,22632 z "
             id="path1453" />
          <path
             d="M 8422,22037 L 8422,21998 L 8462,21958 L 8462,21918 L 8501,21918 L 8541,21879 L 8541,21839 L 8581,21839 L 8620,21799 L 8620,21760 L 8660,21720 L 8699,21720 L 8699,21720 L 8739,21680 L 8778,21680 L 8778,21680 L 8818,21680 L 8858,21680 L 8858,21680 L 8897,21680 L 8897,21680 L 8937,21680 L 8976,21680 L 8976,21680 L 9016,21680 L 9016,21680 L 9055,21680 L 9095,21680 L 9095,21680 L 9135,21680 L 9174,21680 L 9174,21680 L 9214,21680 L 9253,21680 L 9253,21680 L 9293,21641 L 9332,21641 L 9372,21641 L 9372,21641 L 9412,21522 L 9372,21522 L 9332,21482 L 9293,21482 L 9253,21442 L 9214,21442 L 9214,21442 L 9174,21442 L 9135,21442 L 9135,21442 L 9095,21442 L 9055,21442 L 9055,21442 L 9016,21442 L 9016,21442 L 8976,21442 L 8937,21442 L 8937,21442 L 8897,21442 L 8858,21442 L 8858,21482 L 8818,21442 L 8778,21442 L 8778,21442 L 8739,21442 L 8699,21442 L 8660,21442 L 8620,21363 L 8660,21323 L 8699,21284 L 8778,21284 L 8818,21284 L 8858,21284 L 8937,21284 L 8976,21284 L 9016,21284 L 9095,21284 L 9135,21244 L 9174,21244 L 9253,21244 L 9293,21244 L 9332,21244 L 9412,21204 L 9451,21204 L 9491,21204 L 9570,21204 L 9610,21204 L 9649,21165 L 9728,21165 L 9768,21165 L 9847,21165 L 9887,21165 L 9926,21165 L 10005,21125 L 10045,21125 L 10084,21125 L 10164,21125 L 10203,21085 L 10282,21085 L 10322,21085 L 10361,21085 L 10441,21046 L 10480,21046 L 10520,21046 L 10599,21046 L 10639,21006 L 10718,21006 L 10757,21006 L 10797,21006 L 10876,21006 L 10916,21006 L 10955,20966 L 11034,20966 L 11074,20966 L 11153,20966 L 11193,20966 L 11272,20927 L 11311,20927 L 11351,20927 L 11430,20927 L 11470,20927 L 11509,20927 L 11588,20887 L 11628,20887 L 11707,20887 L 11747,20887 L 11786,20887 L 11865,20887 L 11905,20887 L 11984,20887 L 12024,20887 L 12063,20887 L 12142,20887 L 12142,20887 L 12142,20927 L 12142,20966 L 12142,20966 L 12182,21006 L 12182,21046 L 12182,21046 L 12182,21085 L 12182,21125 L 12182,21125 L 12182,21165 L 12182,21165 L 12182,21204 L 12182,21244 L 12103,21244 L 12063,21284 L 12024,21284 L 11945,21323 L 11905,21323 L 11865,21363 L 11786,21363 L 11747,21403 L 11707,21403 L 11628,21442 L 11588,21442 L 11549,21442 L 11470,21482 L 11430,21482 L 11351,21522 L 11311,21522 L 11272,21522 L 11193,21561 L 11153,21561 L 11074,21601 L 11034,21601 L 10955,21601 L 10916,21601 L 10876,21641 L 10797,21641 L 10757,21641 L 10678,21680 L 10639,21680 L 10559,21680 L 10520,21720 L 10441,21720 L 10401,21720 L 10322,21760 L 10282,21760 L 10203,21760 L 10164,21760 L 10084,21799 L 10045,21799 L 10005,21799 L 9926,21799 L 9847,21799 L 9807,21839 L 9728,21839 L 9689,21839 L 9649,21839 L 9570,21879 L 9530,21879 L 9451,21879 L 9412,21879 L 9332,21879 L 9293,21879 L 9214,21918 L 9174,21918 L 9095,21918 L 9055,21918 L 8976,21918 L 8937,21958 L 8858,21958 L 8818,21958 L 8778,21958 L 8699,21958 L 8660,21958 L 8581,21998 L 8541,21998 L 8422,22037 z "
             id="path1455" />
        </g>
        <g
           style="fill:#000000;stroke:none"
           id="g1457">
          <path
             d="M 9491,21522 L 9570,21482 L 9491,21522 z "
             id="path1459" />
        </g>
        <g
           style="fill:#99cccc;stroke:none"
           id="g1461">
          <path
             d="M 9768,21482 L 9847,21323 L 9768,21482 z "
             id="path1463" />
          <path
             d="M 8620,21125 L 8462,20927 L 8462,20887 L 8462,20848 L 8501,20808 L 8541,20808 L 8541,20768 L 8581,20729 L 8620,20729 L 8620,20689 L 8660,20689 L 8699,20689 L 8739,20649 L 8739,20649 L 8778,20649 L 8818,20649 L 8858,20649 L 8897,20649 L 8897,20649 L 8937,20649 L 8976,20689 L 9016,20689 L 9016,20689 L 9055,20689 L 9095,20689 L 9135,20689 L 9135,20689 L 9174,20689 L 9214,20689 L 9253,20729 L 9253,20729 L 9293,20729 L 9332,20729 L 9372,20729 L 9372,20729 L 9412,20729 L 9451,20729 L 9491,20729 L 9530,20729 L 9530,20729 L 9570,20729 L 9610,20729 L 9689,20649 L 9530,20570 L 9530,20530 L 9491,20530 L 9491,20530 L 9451,20530 L 9412,20530 L 9412,20530 L 9372,20530 L 9372,20530 L 9332,20530 L 9293,20530 L 9293,20530 L 9253,20530 L 9214,20530 L 9214,20530 L 9174,20530 L 9174,20530 L 9135,20491 L 9095,20491 L 9095,20491 L 9055,20491 L 9016,20491 L 9016,20491 L 8976,20491 L 8937,20491 L 8937,20491 L 8897,20491 L 8858,20491 L 8818,20491 L 8818,20451 L 8778,20451 L 8739,20451 L 8739,20451 L 8699,20451 L 8660,20411 L 8620,20372 L 8620,20332 L 8581,20292 L 8581,20253 L 8581,20213 L 8581,20213 L 8620,20213 L 8620,20173 L 8699,20213 L 8739,20213 L 8778,20213 L 8858,20253 L 8897,20253 L 8976,20253 L 9016,20253 L 9095,20292 L 9135,20292 L 9214,20292 L 9253,20292 L 9332,20292 L 9372,20332 L 9412,20332 L 9491,20332 L 9530,20332 L 9610,20332 L 9649,20332 L 9728,20332 L 9768,20372 L 9847,20372 L 9887,20372 L 9926,20372 L 10005,20372 L 10045,20372 L 10124,20372 L 10164,20372 L 10243,20372 L 10282,20372 L 10361,20372 L 10401,20372 L 10480,20372 L 10520,20372 L 10559,20372 L 10639,20372 L 10678,20372 L 10757,20372 L 10797,20372 L 10876,20372 L 10916,20372 L 10995,20332 L 11034,20332 L 11113,20332 L 11153,20332 L 11193,20332 L 11272,20332 L 11311,20332 L 11390,20332 L 11430,20332 L 11509,20292 L 11549,20292 L 11628,20292 L 11667,20292 L 11747,20292 L 11786,20292 L 11826,20292 L 11905,20253 L 11945,20253 L 12024,20253 L 12063,20253 L 12142,20253 L 12182,20253 L 12222,20213 L 12301,20213 L 12380,20372 L 12301,20411 L 12261,20451 L 12182,20451 L 12142,20491 L 12103,20491 L 12024,20530 L 11984,20530 L 11905,20570 L 11865,20570 L 11826,20570 L 11747,20610 L 11707,20610 L 11628,20649 L 11588,20649 L 11549,20649 L 11470,20689 L 11430,20689 L 11351,20689 L 11311,20729 L 11232,20729 L 11193,20729 L 11113,20768 L 11074,20768 L 11034,20768 L 10955,20768 L 10916,20808 L 10836,20808 L 10797,20808 L 10718,20808 L 10678,20848 L 10599,20848 L 10559,20848 L 10480,20848 L 10441,20848 L 10361,20887 L 10322,20887 L 10243,20887 L 10203,20887 L 10124,20887 L 10084,20887 L 10005,20927 L 9966,20927 L 9887,20927 L 9847,20927 L 9768,20927 L 9728,20927 L 9649,20966 L 9610,20966 L 9530,20966 L 9491,20966 L 9412,20966 L 9372,21006 L 9293,21006 L 9253,21006 L 9174,21006 L 9135,21006 L 9055,21046 L 9016,21046 L 8937,21046 L 8897,21046 L 8818,21046 L 8778,21085 L 8699,21085 L 8660,21085 L 8620,21125 z "
             id="path1465" />
        </g>
        <g
           style="fill:#b0e3e3;stroke:none"
           id="g1467">
          <path
             d="M 10203,20173 L 10203,20134 L 10203,20094 L 10203,20054 L 10203,19975 L 10203,19935 L 10203,19896 L 10203,19856 L 10203,19777 L 10203,19737 L 10203,19697 L 10203,19618 L 10203,19578 L 10203,19539 L 10203,19499 L 10203,19420 L 10203,19380 L 10164,19340 L 10164,19261 L 10164,19221 L 10164,19182 L 10164,19102 L 10164,19063 L 10164,19023 L 10164,18983 L 10164,18904 L 10164,18864 L 10164,18825 L 10164,18745 L 10164,18706 L 10164,18666 L 10164,18587 L 10164,18547 L 10164,18507 L 10164,18428 L 10164,18389 L 10164,18309 L 10164,18270 L 10164,18230 L 10164,18151 L 10164,18111 L 10164,18071 L 10164,17992 L 10164,17952 L 10164,17913 L 10164,17833 L 10164,17794 L 10164,17754 L 10164,17675 L 10164,17635 L 10164,17595 L 10164,17516 L 10164,17476 L 10164,17437 L 10164,17357 L 10164,17318 L 10164,17278 L 10164,17199 L 10164,17159 L 10164,17119 L 10164,17040 L 10124,17000 L 10124,16961 L 10124,16881 L 10124,16842 L 10124,16802 L 10084,16762 L 10084,16723 L 10084,16683 L 10045,16683 L 10045,16643 L 10045,16643 L 10045,16604 L 10005,16564 L 9966,16524 L 10203,16405 L 10322,16207 L 10322,16167 L 10322,16128 L 10322,16088 L 10322,16049 L 10322,16009 L 10322,15969 L 10322,15930 L 10322,15890 L 10322,15850 L 10322,15811 L 10322,15771 L 10322,15731 L 10322,15692 L 10361,15652 L 10361,15612 L 10361,15573 L 10361,15533 L 10361,15493 L 10361,15454 L 10361,15414 L 10361,15374 L 10361,15374 L 10361,15335 L 10361,15295 L 10361,15255 L 10361,15216 L 10361,15176 L 10361,15136 L 10361,15097 L 10361,15057 L 10401,15017 L 10401,14978 L 10401,14938 L 10401,14898 L 10401,14859 L 10401,14819 L 10401,14779 L 10401,14740 L 10401,14700 L 10401,14660 L 10401,14621 L 10401,14581 L 10401,14541 L 10401,14502 L 10401,14462 L 10401,14422 L 10401,14383 L 10401,14343 L 10401,14303 L 10401,14264 L 10401,14224 L 10401,14184 L 10401,14145 L 10401,14105 L 10401,14065 L 10401,14026 L 10401,13986 L 10361,13946 L 10361,13907 L 10361,13867 L 10361,13827 L 10361,13788 L 10361,13748 L 10361,13709 L 10361,13669 L 10322,13669 L 10282,13629 L 10243,13629 L 10203,13629 L 10164,13629 L 10164,13590 L 10124,13590 L 10084,13590 L 10084,13590 L 10084,13550 L 10124,13550 L 10164,13510 L 10203,13510 L 10243,13510 L 10282,13510 L 10282,13471 L 10322,13471 L 10361,13471 L 10401,13471 L 10441,13471 L 10480,13471 L 10480,13431 L 10520,13431 L 10559,13431 L 10599,13431 L 10639,13431 L 10678,13431 L 10678,13431 L 10718,13431 L 10757,13431 L 10797,13471 L 10836,13471 L 10876,13471 L 10876,13471 L 10916,13471 L 10955,13471 L 10995,13510 L 11034,13510 L 11074,13510 L 11074,13510 L 11113,13550 L 10955,13669 L 10955,13709 L 10955,13748 L 10955,13788 L 10955,13827 L 10955,13867 L 10916,13907 L 10916,13946 L 10916,13986 L 10916,14026 L 10916,14065 L 10916,14105 L 10916,14184 L 10916,14224 L 10916,14264 L 10916,14303 L 10916,14343 L 10876,14383 L 10876,14422 L 10876,14462 L 10876,14502 L 10876,14541 L 10876,14581 L 10876,14621 L 10876,14660 L 10876,14700 L 10876,14779 L 10836,14819 L 10836,14859 L 10836,14898 L 10836,14938 L 10836,14978 L 10836,15017 L 10836,15057 L 10836,15097 L 10836,15136 L 10836,15176 L 10836,15216 L 10836,15255 L 10836,15335 L 10836,15374 L 10836,15414 L 10836,15454 L 10836,15493 L 10836,15533 L 10836,15573 L 10836,15612 L 10836,15652 L 10836,15692 L 10836,15731 L 10836,15771 L 10836,15811 L 10836,15850 L 10836,15890 L 10836,15930 L 10836,15969 L 10836,16009 L 10836,16049 L 10836,16088 L 10836,16128 L 10836,16207 L 10836,16247 L 10836,16286 L 10836,16326 L 10876,16366 L 10876,16366 L 10916,16366 L 10916,16366 L 10955,16366 L 10995,16366 L 10995,16366 L 11034,16366 L 11074,16405 L 11074,16405 L 11113,16405 L 11113,16405 L 11153,16405 L 11193,16405 L 11193,16445 L 11232,16445 L 11272,16445 L 11232,16485 L 11232,16524 L 11232,16524 L 11232,16564 L 11193,16604 L 11193,16604 L 11193,16643 L 11193,16683 L 11153,16683 L 11153,16723 L 11153,16762 L 11113,16762 L 11113,16802 L 11113,16842 L 11113,16842 L 11074,16881 L 11074,16921 L 11074,16921 L 11034,16961 L 11034,17000 L 11034,17000 L 10995,17040 L 10995,17080 L 10995,17119 L 10995,17119 L 10955,17159 L 10955,17199 L 10955,17199 L 10955,17238 L 10955,17278 L 10916,17318 L 10916,17357 L 10916,17397 L 10916,17397 L 10916,17476 L 10916,17516 L 10916,17556 L 10916,17595 L 10876,17635 L 10876,17675 L 10876,17714 L 10876,17754 L 10876,17794 L 10876,17833 L 10876,17873 L 10876,17913 L 10876,17952 L 10876,17992 L 10836,18032 L 10836,18111 L 10836,18151 L 10836,18190 L 10836,18230 L 10836,18270 L 10836,18309 L 10836,18349 L 10797,18389 L 10797,18428 L 10797,18468 L 10797,18507 L 10797,18547 L 10797,18626 L 10797,18666 L 10797,18706 L 10797,18745 L 10757,18785 L 10757,18825 L 10757,18864 L 10757,18904 L 10757,18944 L 10757,18983 L 10757,19063 L 10757,19102 L 10718,19142 L 10718,19182 L 10718,19221 L 10718,19261 L 10718,19301 L 10718,19340 L 10718,19380 L 10718,19420 L 10718,19499 L 10718,19539 L 10718,19578 L 10718,19618 L 10718,19658 L 10718,19697 L 10718,19737 L 10678,19777 L 10678,19816 L 10678,19856 L 10678,19935 L 10678,19975 L 10678,20015 L 10678,20054 L 10678,20094 L 10678,20094 L 10639,20134 L 10599,20134 L 10599,20134 L 10559,20134 L 10520,20134 L 10480,20134 L 10480,20134 L 10441,20134 L 10401,20134 L 10361,20134 L 10322,20173 L 10282,20173 L 10282,20173 L 10243,20173 L 10203,20173 z "
             id="path1469" />
          <path
             d="M 10995,20173 L 10995,20134 L 10995,20094 L 10955,20054 L 10955,20015 L 10955,19975 L 10955,19896 L 10955,19856 L 10955,19816 L 10955,19777 L 10955,19737 L 10955,19697 L 10955,19658 L 10955,19578 L 10955,19539 L 10955,19499 L 10955,19459 L 10955,19420 L 10955,19380 L 10955,19340 L 10955,19261 L 10955,19221 L 10955,19182 L 10955,19142 L 10995,19102 L 10995,19063 L 10995,19023 L 10995,18983 L 10995,18904 L 10995,18864 L 10995,18825 L 10995,18785 L 10995,18745 L 10995,18706 L 10995,18666 L 11034,18626 L 11034,18547 L 11034,18507 L 11034,18468 L 11034,18428 L 11034,18389 L 11034,18349 L 11034,18309 L 11074,18270 L 11074,18190 L 11074,18151 L 11074,18111 L 11074,18071 L 11074,18032 L 11074,17992 L 11113,17952 L 11113,17873 L 11113,17833 L 11113,17794 L 11113,17754 L 11113,17714 L 11113,17675 L 11113,17635 L 11113,17595 L 11113,17516 L 11153,17476 L 11153,17437 L 11153,17397 L 11153,17357 L 11153,17318 L 11153,17278 L 11153,17238 L 11153,17199 L 11193,17159 L 11193,17159 L 11193,17119 L 11232,17080 L 11232,17040 L 11232,17000 L 11272,16961 L 11272,16921 L 11311,16921 L 11311,16881 L 11351,16842 L 11351,16802 L 11390,16802 L 11390,16762 L 11390,16723 L 11430,16683 L 11430,16643 L 11470,16643 L 11470,16604 L 11509,16564 L 11549,16564 L 11667,16604 L 11707,16604 L 11707,16643 L 11707,16683 L 11707,16723 L 11707,16762 L 11707,16802 L 11707,16802 L 11707,16842 L 11707,16881 L 11707,16921 L 11667,16961 L 11667,17000 L 11628,17040 L 11588,17080 L 11549,17119 L 11549,17159 L 11509,17199 L 11509,17238 L 11470,17238 L 11430,17278 L 11430,17318 L 11390,17357 L 11390,17397 L 11351,17437 L 11351,17476 L 11311,17556 L 11311,17556 L 11311,17595 L 11311,17635 L 11272,17675 L 11272,17714 L 11272,17754 L 11272,17794 L 11272,17833 L 11272,17873 L 11272,17913 L 11272,17952 L 11272,17992 L 11232,18032 L 11232,18071 L 11232,18111 L 11232,18151 L 11232,18190 L 11232,18230 L 11232,18270 L 11232,18309 L 11232,18349 L 11232,18389 L 11232,18428 L 11232,18468 L 11232,18507 L 11232,18547 L 11232,18587 L 11232,18626 L 11232,18666 L 11232,18706 L 11232,18745 L 11232,18785 L 11232,18825 L 11232,18864 L 11232,18904 L 11232,18944 L 11232,18983 L 11232,19023 L 11232,19063 L 11232,19102 L 11232,19142 L 11232,19182 L 11232,19221 L 11232,19261 L 11232,19301 L 11232,19340 L 11232,19380 L 11232,19420 L 11232,19459 L 11232,19499 L 11193,19539 L 11193,19578 L 11193,19618 L 11193,19658 L 11193,19697 L 11193,19737 L 11193,19777 L 11193,19816 L 11193,19856 L 11193,19896 L 11153,19935 L 11153,19975 L 11153,20015 L 11153,20054 L 10995,20173 z "
             id="path1471" />
          <path
             d="M 9728,20134 L 9728,20094 L 9728,20054 L 9728,20015 L 9728,19975 L 9728,19935 L 9728,19896 L 9728,19856 L 9728,19816 L 9728,19777 L 9728,19737 L 9728,19697 L 9728,19697 L 9728,19658 L 9728,19618 L 9728,19578 L 9728,19539 L 9728,19499 L 9728,19459 L 9728,19420 L 9728,19380 L 9728,19340 L 9728,19301 L 9728,19261 L 9728,19221 L 9728,19182 L 9728,19142 L 9728,19102 L 9768,19063 L 9768,19023 L 9768,18983 L 9768,18944 L 9768,18904 L 9768,18864 L 9768,18825 L 9768,18785 L 9768,18745 L 9768,18706 L 9768,18666 L 9768,18626 L 9768,18587 L 9768,18547 L 9768,18507 L 9768,18468 L 9768,18428 L 9768,18389 L 9768,18349 L 9768,18309 L 9807,18270 L 9807,18230 L 9807,18190 L 9807,18151 L 9807,18111 L 9807,18071 L 9807,18032 L 9807,17992 L 9807,17992 L 9768,17952 L 9768,17913 L 9768,17873 L 9768,17833 L 9768,17794 L 9768,17754 L 9768,17714 L 9768,17675 L 9768,17635 L 9768,17595 L 9768,17556 L 9728,17516 L 9728,17476 L 9728,17437 L 9689,17397 L 9689,17357 L 9689,17318 L 9649,17318 L 9610,17278 L 9610,17238 L 9570,17199 L 9530,17199 L 9530,17159 L 9491,17159 L 9491,17119 L 9451,17080 L 9451,17040 L 9451,17040 L 9451,17000 L 9412,16961 L 9412,16921 L 9412,16881 L 9412,16842 L 9412,16802 L 9412,16802 L 9412,16762 L 9412,16723 L 9412,16683 L 9412,16643 L 9451,16604 L 9610,16485 L 9728,16604 L 9768,16643 L 9768,16683 L 9768,16723 L 9807,16802 L 9807,16842 L 9807,16881 L 9807,16961 L 9847,17000 L 9847,17040 L 9847,17080 L 9847,17159 L 9847,17199 L 9887,17238 L 9887,17318 L 9887,17357 L 9887,17397 L 9887,17476 L 9887,17516 L 9926,17556 L 9926,17635 L 9926,17675 L 9926,17714 L 9926,17794 L 9926,17833 L 9926,17913 L 9926,17952 L 9926,17992 L 9926,18071 L 9926,18111 L 9926,18151 L 9926,18230 L 9966,18270 L 9926,18349 L 9926,18389 L 9926,18428 L 9926,18507 L 9926,18547 L 9926,18626 L 9926,18666 L 9926,18706 L 9926,18785 L 9926,18825 L 9926,18864 L 9926,18944 L 9926,18983 L 9926,19063 L 9926,19102 L 9926,19182 L 9926,19221 L 9926,19261 L 9926,19340 L 9926,19380 L 9926,19459 L 9926,19499 L 9926,19539 L 9926,19618 L 9926,19658 L 9926,19737 L 9926,19777 L 9926,19816 L 9926,19896 L 9926,19935 L 9926,20015 L 9926,20054 L 9728,20134 z "
             id="path1473" />
        </g>
        <g
           style="fill:#000000;stroke:none"
           id="g1475">
          <path
             d="M 10480,17199 L 10401,17159 L 10322,17080 L 10282,16802 L 10322,16683 L 10322,16683 L 10322,16643 L 10361,16643 L 10361,16604 L 10401,16604 L 10441,16564 L 10480,16524 L 10480,16524 L 10678,16524 L 10836,16643 L 10876,16842 L 10836,16881 L 10836,16921 L 10836,16961 L 10836,16961 L 10797,17000 L 10797,17040 L 10797,17080 L 10757,17119 L 10480,17199 z "
             id="path1477" />
        </g>
        <g
           style="fill:#ffffff;stroke:none"
           id="g1479">
          <path
             d="M 10480,17000 L 10480,16961 L 10480,16921 L 10480,16881 L 10480,16842 L 10520,16842 L 10520,16802 L 10559,16802 L 10599,16802 L 10639,16802 L 10639,16842 L 10639,16842 L 10639,16881 L 10599,16921 L 10559,16961 L 10520,17000 L 10480,17000 z "
             id="path1481" />
        </g>
        <g
           style="fill:#ffffcc;stroke:none"
           id="g1483">
          <path
             d="M 11113,13272 L 11113,13272 L 11074,13272 L 11034,13233 L 10995,13233 L 10995,13233 L 10955,13233 L 10916,13233 L 10876,13193 L 10876,13193 L 10836,13193 L 10797,13193 L 10757,13193 L 10757,13193 L 10718,13193 L 10678,13193 L 10678,13193 L 10639,13153 L 10639,13114 L 10639,13114 L 10639,13074 L 10639,13074 L 10639,13034 L 10639,12995 L 10639,12995 L 10639,12955 L 10639,12915 L 10639,12915 L 10639,12876 L 10639,12876 L 10639,12836 L 10639,12796 L 10639,12796 L 10599,12757 L 10599,12757 L 10599,12717 L 10599,12677 L 10599,12677 L 10599,12638 L 10599,12598 L 10599,12598 L 10599,12558 L 10599,12519 L 10599,12519 L 10599,12479 L 10599,12479 L 10599,12439 L 10599,12400 L 10599,12400 L 10599,12360 L 10599,12320 L 10599,12320 L 10599,12281 L 10599,12241 L 10599,12241 L 10599,12201 L 10599,12162 L 10599,12162 L 10599,12122 L 10599,12082 L 10599,12082 L 10599,12043 L 10599,12043 L 10599,12003 L 10599,11963 L 10599,11963 L 10599,11924 L 10599,11884 L 10599,11884 L 10599,11844 L 10599,11805 L 10599,11805 L 10639,11765 L 10639,11765 L 10639,11725 L 10639,11686 L 10639,11686 L 10639,11646 L 10639,11606 L 10639,11606 L 10639,11567 L 10757,11408 L 10757,11369 L 10797,11369 L 10797,11369 L 10836,11329 L 10876,11329 L 10916,11329 L 10955,11329 L 10995,11329 L 11034,11329 L 11074,11329 L 11074,11329 L 11113,11329 L 11153,11329 L 11193,11329 L 11232,11329 L 11272,11329 L 11311,11329 L 11311,11329 L 11351,11329 L 11390,11329 L 11430,11329 L 11470,11329 L 11509,11329 L 11549,11329 L 11588,11329 L 11588,11329 L 11628,11329 L 11667,11329 L 11707,11329 L 11747,11329 L 11786,11329 L 11826,11329 L 11826,11329 L 11865,11329 L 11905,11329 L 11945,11329 L 11984,11329 L 12024,11329 L 12024,11329 L 12063,11329 L 12063,11369 L 12063,11448 L 12063,11448 L 12103,11527 L 12103,11567 L 12103,11606 L 12103,11646 L 12103,11686 L 12103,11725 L 12103,11765 L 12103,11805 L 12103,11884 L 12103,11924 L 12063,11963 L 12063,12003 L 12063,12043 L 12063,12082 L 12063,12122 L 12063,12162 L 12063,12241 L 12063,12281 L 12024,12320 L 12024,12360 L 12024,12400 L 12024,12439 L 11984,12479 L 11984,12519 L 11984,12598 L 11984,12638 L 11945,12677 L 11945,12717 L 11945,12757 L 11905,12796 L 11865,12836 L 11826,12876 L 11786,12915 L 11747,12915 L 11747,12915 L 11707,12955 L 11667,12955 L 11667,12955 L 11628,12995 L 11588,12995 L 11588,13034 L 11549,13034 L 11509,13074 L 11509,13074 L 11470,13074 L 11430,13114 L 11430,13114 L 11390,13153 L 11390,13153 L 11351,13153 L 11311,13193 L 11272,13193 L 11272,13193 L 11232,13233 L 11193,13233 L 11193,13272 L 11153,13272 L 11113,13272 z "
             id="path1485" />
          <path
             d="M 9174,20094 L 9095,20094 L 9055,20094 L 9055,20054 L 9016,20054 L 8937,20054 L 8937,20054 L 8858,20015 L 8818,20015 L 8818,20015 L 8778,20015 L 8778,20015 L 8739,20015 L 8699,19975 L 8699,19975 L 8660,19975 L 8660,19975 L 8620,19975 L 8581,19975 L 8581,19935 L 8541,19935 L 8501,19935 L 8501,19935 L 8462,19935 L 8422,19935 L 8383,19816 L 8383,19816 L 8343,19777 L 8343,19737 L 8343,19737 L 8304,19697 L 8304,19658 L 8304,19618 L 8264,19578 L 8264,19539 L 8264,19499 L 8264,19459 L 8264,19459 L 8224,19420 L 8224,19380 L 8224,19380 L 8224,19340 L 8224,19301 L 8224,19261 L 8224,19261 L 8224,19221 L 8224,19182 L 8224,19142 L 8224,19142 L 8224,19102 L 8224,19063 L 8185,19063 L 8185,19023 L 8185,18983 L 8185,18944 L 8185,18944 L 8185,18904 L 8185,18864 L 8185,18825 L 8185,18825 L 8185,18785 L 8185,18745 L 8185,18706 L 8185,18706 L 8185,18666 L 8185,18626 L 8185,18587 L 8185,18547 L 8185,18547 L 8185,18507 L 8185,18468 L 8145,18428 L 8145,18428 L 8145,18389 L 8145,18349 L 8145,18309 L 8145,18309 L 8145,18270 L 8145,18230 L 8145,18230 L 8145,18190 L 8145,18151 L 8106,18111 L 8106,18111 L 8106,18071 L 8106,18032 L 8106,17992 L 8066,17992 L 8066,17952 L 8066,17913 L 8066,17873 L 8026,17873 L 8026,17833 L 8026,17794 L 8026,17794 L 7987,17754 L 7987,17714 L 7987,17714 L 7987,17675 L 8026,17675 L 8066,17675 L 8106,17675 L 8106,17675 L 8145,17714 L 8185,17714 L 8224,17714 L 8224,17714 L 8264,17714 L 8264,17595 L 8224,17595 L 8145,17556 L 8106,17556 L 8066,17516 L 8026,17516 L 7947,17476 L 7908,17437 L 7868,17437 L 7829,17397 L 7749,17397 L 7710,17357 L 7670,17357 L 7591,17318 L 7552,17278 L 7512,17278 L 7472,17238 L 7433,17238 L 7354,17199 L 7314,17159 L 7275,17159 L 7235,17119 L 7195,17080 L 7156,17040 L 7116,17040 L 7037,17000 L 6997,16961 L 6958,16921 L 6918,16921 L 6879,16881 L 6839,16842 L 6800,16802 L 6760,16802 L 6720,16762 L 6641,16723 L 6602,16683 L 6562,16643 L 6523,16604 L 6483,16564 L 6443,16524 L 6404,16524 L 6364,16485 L 6325,16445 L 6285,16405 L 6246,16366 L 6206,16326 L 6166,16286 L 6127,16247 L 6087,16207 L 6087,16167 L 6048,16128 L 6008,16088 L 5969,16049 L 5929,16009 L 5889,15969 L 5850,15890 L 5810,15850 L 5771,15811 L 5731,15771 L 5691,15731 L 5691,15692 L 5652,15652 L 5612,15612 L 5573,15533 L 5533,15493 L 5494,15454 L 5454,15374 L 5414,15295 L 5375,15216 L 5296,15176 L 5256,15097 L 5217,15017 L 5177,14938 L 5137,14859 L 5098,14779 L 5058,14700 L 5019,14660 L 4979,14581 L 4940,14502 L 4900,14422 L 4900,14343 L 4860,14264 L 4821,14184 L 4781,14065 L 4742,13986 L 4742,13907 L 4702,13827 L 4662,13748 L 4662,13669 L 4623,13590 L 4583,13471 L 4583,13391 L 4544,13312 L 4544,13233 L 4544,13153 L 4504,13034 L 4504,12955 L 4465,12876 L 4465,12757 L 4465,12677 L 4425,12598 L 4425,12519 L 4425,12400 L 4425,12320 L 4425,12241 L 4425,12122 L 4385,12043 L 4385,11963 L 4385,11884 L 4385,11765 L 4425,11686 L 4425,11606 L 4425,11527 L 4425,11408 L 4425,11329 L 4425,11250 L 4465,11131 L 4465,11051 L 4465,10972 L 4504,10893 L 4504,10774 L 4544,10694 L 4544,10615 L 4583,10536 L 4583,10456 L 4623,10337 L 4623,10258 L 4662,10179 L 4702,10099 L 4742,10020 L 4742,9941 L 4781,9861 L 4821,9782 L 4860,9703 L 4860,9623 L 4900,9544 L 4940,9465 L 4979,9425 L 5019,9346 L 5058,9266 L 5098,9187 L 5137,9108 L 5177,9028 L 5217,8989 L 5256,8910 L 5296,8830 L 5335,8751 L 5375,8672 L 5454,8632 L 5494,8553 L 5533,8473 L 5573,8434 L 5652,8354 L 5691,8275 L 5731,8235 L 5771,8156 L 5850,8077 L 5889,8037 L 5969,7958 L 6008,7918 L 6087,7839 L 6127,7799 L 6166,7720 L 6246,7680 L 6285,7601 L 6364,7561 L 6404,7482 L 6483,7442 L 6562,7402 L 6602,7323 L 6681,7283 L 6720,7244 L 6800,7164 L 6879,7125 L 6918,7085 L 6997,7045 L 7077,6966 L 7156,6926 L 7195,6887 L 7275,6847 L 7354,6807 L 7433,6768 L 7512,6728 L 7591,6688 L 7670,6649 L 7710,6609 L 7789,6570 L 7868,6530 L 7947,6490 L 8026,6451 L 8106,6411 L 8185,6411 L 8264,6371 L 8343,6332 L 8422,6292 L 8501,6252 L 8581,6252 L 8660,6213 L 8739,6173 L 8818,6173 L 8937,6133 L 9016,6133 L 9095,6094 L 9174,6094 L 9253,6054 L 9332,6054 L 9412,6054 L 9491,6014 L 9610,6014 L 9689,6014 L 9768,5975 L 9847,5975 L 9926,5975 L 10005,5975 L 10084,5975 L 10164,5975 L 10282,5975 L 10361,5975 L 10441,5975 L 10520,5975 L 10599,5975 L 10678,5975 L 10797,5975 L 10876,5975 L 10955,5975 L 11034,5975 L 11113,6014 L 11193,6014 L 11272,6014 L 11351,6054 L 11470,6054 L 11549,6054 L 11628,6094 L 11707,6094 L 11786,6133 L 11865,6133 L 11945,6173 L 12024,6173 L 12103,6213 L 12182,6213 L 12301,6252 L 12340,6292 L 12459,6292 L 12499,6332 L 12617,6371 L 12657,6371 L 12776,6411 L 12815,6451 L 12934,6490 L 12973,6530 L 13053,6570 L 13132,6609 L 13211,6649 L 13290,6688 L 13369,6688 L 13448,6768 L 13528,6807 L 13528,6807 L 13567,6847 L 13607,6847 L 13646,6887 L 13646,6887 L 13686,6926 L 13725,6926 L 13725,6926 L 13765,6966 L 13765,6966 L 13805,6966 L 13844,7006 L 13884,7006 L 13923,7045 L 13963,7085 L 13963,7085 L 14002,7125 L 14042,7164 L 14082,7164 L 14121,7204 L 14161,7244 L 14200,7244 L 14200,7283 L 14240,7323 L 14280,7363 L 14319,7363 L 14359,7402 L 14398,7442 L 14398,7442 L 14438,7482 L 14477,7521 L 14517,7561 L 14557,7561 L 14596,7601 L 14596,7640 L 14636,7680 L 14675,7680 L 14715,7720 L 14754,7759 L 14754,7799 L 14794,7839 L 14834,7839 L 14873,7878 L 14873,7918 L 14913,7958 L 14952,7997 L 14992,7997 L 15031,8037 L 15031,8077 L 15071,8116 L 15111,8156 L 15150,8196 L 15150,8235 L 15190,8275 L 15229,8275 L 15229,8315 L 15269,8354 L 15308,8394 L 15348,8434 L 15348,8473 L 15388,8513 L 15388,8553 L 15427,8553 L 15467,8592 L 15467,8632 L 15506,8672 L 15546,8711 L 15546,8751 L 15586,8791 L 15625,8830 L 15625,8870 L 15665,8910 L 15665,8949 L 15704,8989 L 15744,9068 L 15783,9147 L 15823,9227 L 15863,9306 L 15902,9385 L 15942,9465 L 15981,9544 L 16021,9623 L 16060,9703 L 16100,9782 L 16100,9861 L 16140,9941 L 16179,10020 L 16219,10139 L 16258,10218 L 16258,10298 L 16298,10377 L 16298,10456 L 16337,10536 L 16337,10655 L 16377,10734 L 16377,10813 L 16417,10893 L 16417,11012 L 16417,11091 L 16456,11170 L 16456,11250 L 16456,11369 L 16496,11448 L 16496,11527 L 16496,11646 L 16496,11725 L 16496,11805 L 16496,11884 L 16496,12003 L 16496,12082 L 16496,12162 L 16496,12281 L 16496,12360 L 16496,12439 L 16496,12558 L 16496,12638 L 16456,12717 L 16456,12796 L 16456,12915 L 16417,12995 L 16417,13074 L 16417,13193 L 16377,13272 L 16377,13352 L 16337,13431 L 16337,13550 L 16298,13629 L 16258,13709 L 16258,13788 L 16219,13907 L 16179,13986 L 16140,14065 L 16100,14145 L 16100,14224 L 16060,14343 L 16021,14422 L 15981,14502 L 15942,14581 L 15902,14660 L 15863,14700 L 15863,14779 L 15823,14819 L 15783,14859 L 15744,14938 L 15744,14978 L 15704,15057 L 15665,15097 L 15625,15176 L 15586,15216 L 15546,15295 L 15506,15335 L 15506,15374 L 15467,15454 L 15427,15493 L 15388,15533 L 15348,15612 L 15308,15652 L 15269,15692 L 15190,15771 L 15150,15811 L 15111,15850 L 15071,15930 L 15031,15969 L 14992,16009 L 14952,16049 L 14913,16128 L 14873,16167 L 14834,16207 L 14754,16247 L 14715,16326 L 14675,16366 L 14636,16405 L 14596,16445 L 14557,16485 L 14477,16524 L 14438,16564 L 14398,16604 L 14359,16643 L 14280,16683 L 14240,16723 L 14200,16762 L 14121,16802 L 14082,16842 L 14042,16881 L 13963,16921 L 13923,16961 L 13884,17000 L 13844,17040 L 13765,17080 L 13725,17080 L 13686,17119 L 13607,17159 L 13567,17199 L 13528,17238 L 13448,17238 L 13409,17278 L 13369,17318 L 13290,17318 L 13251,17357 L 13171,17397 L 13132,17397 L 13092,17437 L 13053,17437 L 13013,17437 L 12973,17476 L 12934,17476 L 12934,17476 L 12894,17516 L 12855,17516 L 12815,17556 L 12776,17556 L 12776,17556 L 12736,17595 L 12696,17595 L 12657,17635 L 12617,17635 L 12617,17635 L 12578,17675 L 12538,17754 L 12617,17833 L 12657,17833 L 12696,17833 L 12696,17794 L 12736,17794 L 12776,17794 L 12815,17754 L 12815,17754 L 12855,17754 L 12894,17754 L 12894,17714 L 12934,17714 L 12973,17714 L 12973,17675 L 13013,17675 L 13053,17675 L 13092,17675 L 13053,17754 L 13013,17794 L 13013,17833 L 12973,17833 L 12973,17873 L 12934,17873 L 12934,17913 L 12934,17952 L 12894,17992 L 12894,17992 L 12855,18032 L 12855,18071 L 12855,18111 L 12815,18111 L 12815,18151 L 12815,18190 L 12776,18230 L 12776,18270 L 12776,18309 L 12736,18309 L 12736,18349 L 12736,18389 L 12696,18428 L 12696,18468 L 12696,18507 L 12696,18547 L 12657,18587 L 12657,18587 L 12657,18626 L 12657,18666 L 12657,18706 L 12617,18745 L 12617,18785 L 12617,18825 L 12617,18864 L 12578,18904 L 12578,18944 L 12578,18983 L 12578,19023 L 12538,19023 L 12538,19063 L 12538,19102 L 12538,19142 L 12538,19182 L 12499,19221 L 12499,19261 L 12499,19301 L 12499,19340 L 12499,19380 L 12459,19420 L 12459,19420 L 12459,19459 L 12419,19499 L 12419,19539 L 12419,19578 L 12380,19618 L 12380,19658 L 12380,19658 L 12340,19697 L 12340,19737 L 12340,19777 L 12301,19816 L 12301,19816 L 12301,19856 L 12261,19896 L 12261,19896 L 12222,19896 L 12222,19896 L 12182,19896 L 12142,19935 L 12142,19935 L 12103,19975 L 12063,20015 L 12063,20015 L 12024,20015 L 11984,20054 L 11984,20054 L 11945,20054 L 11905,20054 L 11865,20054 L 11865,20054 L 11826,20054 L 11786,20054 L 11747,20054 L 11707,20094 L 11667,20094 L 11628,20094 L 11588,20094 L 11588,20094 L 11549,20094 L 11509,20054 L 11470,20054 L 11430,20054 L 11430,20015 L 11430,19975 L 11430,19896 L 11430,19856 L 11430,19816 L 11430,19777 L 11430,19697 L 11430,19658 L 11430,19618 L 11430,19578 L 11430,19499 L 11430,19459 L 11430,19420 L 11430,19340 L 11430,19301 L 11430,19261 L 11430,19182 L 11430,19142 L 11430,19102 L 11430,19063 L 11430,18983 L 11430,18944 L 11430,18904 L 11430,18825 L 11430,18785 L 11430,18745 L 11430,18666 L 11430,18626 L 11430,18587 L 11430,18547 L 11430,18468 L 11430,18428 L 11430,18389 L 11430,18309 L 11430,18270 L 11430,18230 L 11430,18151 L 11470,18111 L 11470,18071 L 11470,18032 L 11470,17952 L 11509,17913 L 11509,17873 L 11509,17833 L 11509,17754 L 11549,17714 L 11549,17675 L 11588,17635 L 11588,17556 L 11588,17516 L 11628,17476 L 11628,17437 L 11667,17397 L 11667,17357 L 11707,17278 L 11707,17238 L 11747,17199 L 11747,17159 L 11786,17119 L 11826,17080 L 11826,17040 L 11865,17000 L 11905,16961 L 11945,16921 L 11945,16643 L 11945,16643 L 11905,16604 L 11905,16564 L 11905,16564 L 11865,16524 L 11865,16485 L 11865,16485 L 11826,16445 L 11826,16445 L 11786,16405 L 11747,16366 L 11747,16366 L 11707,16326 L 11707,16286 L 11667,16286 L 11628,16247 L 11628,16207 L 11667,16167 L 11667,16088 L 11667,16049 L 11667,16009 L 11667,15930 L 11667,15890 L 11707,15850 L 11707,15771 L 11707,15731 L 11707,15692 L 11707,15612 L 11707,15573 L 11747,15533 L 11747,15493 L 11747,15414 L 11747,15374 L 11747,15335 L 11747,15255 L 11786,15216 L 11786,15176 L 11786,15097 L 11786,15057 L 11786,15017 L 11786,14938 L 11826,14898 L 11826,14859 L 11826,14779 L 11826,14740 L 11865,14700 L 11865,14660 L 11865,14581 L 11865,14541 L 11865,14502 L 11905,14422 L 11905,14383 L 11905,14343 L 11905,14264 L 11905,14224 L 11945,14184 L 11945,14105 L 11945,14065 L 11945,14026 L 11945,13986 L 11945,13907 L 11984,13867 L 11984,13827 L 11984,13748 L 11984,13709 L 12024,13669 L 12024,13629 L 12024,13550 L 12024,13510 L 12024,13471 L 12063,13391 L 12063,13352 L 12063,13312 L 12063,13233 L 12103,13193 L 12103,13153 L 12103,13114 L 12103,13034 L 12142,12995 L 12142,12955 L 12182,12915 L 12182,12876 L 12222,12836 L 12261,12836 L 12301,12796 L 12340,12757 L 12380,12717 L 12419,12717 L 12419,12677 L 12459,12638 L 12499,12638 L 12538,12598 L 12578,12558 L 12617,12519 L 12657,12519 L 12696,12479 L 12736,12439 L 12776,12400 L 12815,12400 L 12855,12360 L 12894,12320 L 12934,12320 L 12973,12281 L 13013,12241 L 13053,12201 L 13092,12201 L 13132,12162 L 13171,12122 L 13211,12122 L 13251,12082 L 13290,12043 L 13369,12043 L 13369,12003 L 13409,12003 L 13448,11963 L 13488,11924 L 13528,11884 L 13567,11844 L 13567,11805 L 13607,11765 L 13884,11725 L 14042,11646 L 14042,11606 L 14082,11567 L 14082,11527 L 14121,11487 L 14121,11448 L 14121,11448 L 14121,11408 L 14121,11369 L 14121,11369 L 14121,11329 L 14121,11289 L 14121,11289 L 14082,11250 L 14042,11210 L 14042,11210 L 14002,11170 L 14002,11131 L 13963,11131 L 13923,11091 L 13923,11091 L 13884,11051 L 13884,11051 L 13844,11012 L 13805,11012 L 13805,10972 L 13765,10972 L 13725,10932 L 13725,10932 L 13686,10932 L 13646,10893 L 13646,10893 L 13607,10853 L 13567,10853 L 13567,10853 L 13528,10813 L 13488,10813 L 13488,10774 L 13448,10774 L 13409,10734 L 13409,10734 L 13369,10694 L 13330,10655 L 13290,10655 L 13290,10615 L 13251,10615 L 13211,10575 L 13211,10575 L 13171,10536 L 13132,10536 L 13092,10536 L 13053,10496 L 13013,10496 L 12973,10496 L 12973,10456 L 12934,10456 L 12894,10456 L 12855,10417 L 12815,10417 L 12776,10417 L 12736,10377 L 12696,10377 L 12657,10377 L 12617,10377 L 12578,10377 L 12578,10377 L 12538,10377 L 12499,10417 L 12459,10417 L 12419,10456 L 12380,10456 L 12380,10496 L 12340,10536 L 12340,10575 L 12340,10615 L 12301,10615 L 12301,10655 L 12301,10734 L 12301,10774 L 12261,10813 L 12261,10853 L 12261,10893 L 12222,10932 L 12222,10972 L 12222,11012 L 12182,11051 L 12182,11131 L 11984,11170 L 11945,11170 L 11905,11170 L 11905,11170 L 11865,11170 L 11826,11170 L 11826,11170 L 11786,11170 L 11747,11170 L 11747,11170 L 11707,11170 L 11667,11170 L 11628,11170 L 11588,11170 L 11588,11170 L 11549,11170 L 11509,11170 L 11470,11170 L 11430,11170 L 11430,11170 L 11390,11170 L 11351,11131 L 11311,11131 L 11272,11131 L 11272,11131 L 11232,11131 L 11193,11131 L 11153,11131 L 11113,11131 L 11074,11131 L 11074,11131 L 11034,11131 L 10995,11131 L 10955,11091 L 10955,11091 L 10916,11051 L 10916,11051 L 10836,11012 L 10797,10972 L 10797,10972 L 10757,10932 L 10757,10932 L 10718,10893 L 10678,10893 L 10678,10893 L 10639,10853 L 10599,10853 L 10559,10853 L 10520,10893 L 10480,10893 L 10441,10932 L 10441,10932 L 10401,10932 L 10361,10972 L 10322,10972 L 10282,11012 L 10243,11012 L 10203,11012 L 10164,11012 L 10124,11051 L 10084,11051 L 10045,11051 L 10005,11091 L 9966,11091 L 9926,11091 L 9887,11091 L 9847,11091 L 9807,11091 L 9768,11131 L 9728,11131 L 9689,11131 L 9649,11131 L 9610,11131 L 9570,11131 L 9530,11131 L 9491,11131 L 9451,11131 L 9412,11131 L 9372,11131 L 9332,11131 L 9332,11131 L 9293,11091 L 9293,11051 L 9293,11012 L 9293,10972 L 9293,10972 L 9253,10932 L 9253,10893 L 9214,10853 L 9214,10813 L 9174,10774 L 9135,10774 L 9135,10734 L 9095,10734 L 9055,10734 L 9016,10694 L 8976,10694 L 8937,10694 L 8897,10694 L 8858,10734 L 8818,10734 L 8778,10734 L 8778,10774 L 8739,10774 L 8699,10813 L 8660,10813 L 8620,10853 L 8581,10853 L 8541,10893 L 8541,10893 L 8501,10932 L 8462,10932 L 8422,10972 L 8383,10972 L 8343,11012 L 8304,11012 L 8304,11051 L 8264,11051 L 8224,11091 L 8185,11091 L 8145,11131 L 8106,11131 L 8066,11170 L 8026,11170 L 7987,11170 L 7947,11210 L 7908,11210 L 7868,11210 L 7829,11250 L 7829,11250 L 7789,11210 L 7749,11210 L 7749,11210 L 7710,11170 L 7670,11170 L 7631,11131 L 7591,11131 L 7552,11131 L 7512,11170 L 7472,11170 L 7472,11170 L 7433,11210 L 7393,11210 L 7393,11250 L 7354,11250 L 7354,11289 L 7314,11329 L 7314,11329 L 7275,11408 L 7275,11408 L 7275,11448 L 7275,11448 L 7314,11487 L 7314,11527 L 7314,11527 L 7314,11567 L 7314,11606 L 7354,11646 L 7354,11686 L 7393,11686 L 7433,11725 L 7433,11725 L 7472,11765 L 7512,11765 L 7552,11805 L 7591,11844 L 7631,11884 L 7908,11884 L 7947,11924 L 7987,11963 L 7987,11963 L 8026,12003 L 8066,12043 L 8106,12043 L 8145,12082 L 8185,12122 L 8185,12122 L 8224,12162 L 8264,12201 L 8304,12201 L 8304,12241 L 8343,12281 L 8383,12281 L 8422,12320 L 8462,12320 L 8462,12360 L 8501,12400 L 8541,12400 L 8581,12439 L 8620,12479 L 8620,12479 L 8660,12519 L 8699,12519 L 8739,12558 L 8778,12558 L 8818,12598 L 8858,12638 L 8897,12638 L 8937,12677 L 8976,12677 L 8976,12717 L 9016,12757 L 9055,12757 L 9095,12796 L 9095,12836 L 9135,12836 L 9174,12836 L 9174,12876 L 9214,12915 L 9214,12915 L 9253,12955 L 9293,12995 L 9293,13034 L 9293,13074 L 9293,13074 L 9293,13114 L 9293,13153 L 9293,13193 L 9293,13233 L 9293,13272 L 9293,13312 L 9293,13352 L 9293,13391 L 9293,13431 L 9293,13471 L 9293,13510 L 9293,13550 L 9332,13590 L 9332,13629 L 9332,13669 L 9332,13709 L 9332,13748 L 9332,13788 L 9332,13827 L 9332,13867 L 9332,13907 L 9332,13946 L 9332,13986 L 9332,14026 L 9332,14065 L 9332,14065 L 9372,14105 L 9372,14145 L 9372,14184 L 9372,14224 L 9372,14264 L 9372,14303 L 9372,14343 L 9372,14383 L 9372,14422 L 9372,14462 L 9372,14502 L 9372,14541 L 9412,14581 L 9412,14621 L 9412,14660 L 9412,14700 L 9412,14740 L 9412,14779 L 9412,14819 L 9412,14859 L 9451,14898 L 9451,14938 L 9451,14978 L 9451,15017 L 9451,15057 L 9451,15097 L 9451,15136 L 9451,15176 L 9491,15216 L 9491,15255 L 9491,15295 L 9491,15335 L 9491,15374 L 9491,15414 L 9530,15493 L 9530,15493 L 9530,15533 L 9530,15573 L 9530,15573 L 9530,15612 L 9530,15652 L 9530,15652 L 9530,15692 L 9530,15731 L 9530,15771 L 9530,15811 L 9530,15850 L 9530,15890 L 9570,15930 L 9570,15969 L 9570,16009 L 9570,16049 L 9570,16088 L 9610,16128 L 9610,16167 L 9570,16247 L 9570,16247 L 9530,16286 L 9530,16286 L 9491,16286 L 9451,16286 L 9412,16326 L 9372,16326 L 9372,16366 L 9332,16366 L 9332,16405 L 9293,16445 L 9293,16485 L 9253,16524 L 9214,16564 L 9214,16564 L 9174,16604 L 9174,16643 L 9174,16683 L 9174,16723 L 9174,16762 L 9174,16802 L 9174,16842 L 9174,16842 L 9174,16881 L 9214,16921 L 9214,16961 L 9214,16961 L 9214,17000 L 9253,17040 L 9253,17080 L 9253,17119 L 9293,17119 L 9293,17159 L 9332,17199 L 9332,17238 L 9332,17238 L 9372,17278 L 9372,17318 L 9412,17318 L 9412,17357 L 9412,17397 L 9451,17437 L 9451,17437 L 9491,17476 L 9491,17516 L 9530,17556 L 9530,17556 L 9530,17595 L 9530,17635 L 9530,17675 L 9530,17714 L 9530,17754 L 9530,17794 L 9530,17833 L 9530,17873 L 9530,17913 L 9530,17952 L 9530,17992 L 9530,18032 L 9530,18071 L 9530,18111 L 9530,18151 L 9530,18190 L 9530,18230 L 9530,18270 L 9530,18309 L 9530,18349 L 9530,18389 L 9530,18428 L 9530,18468 L 9530,18507 L 9530,18547 L 9530,18587 L 9530,18626 L 9530,18666 L 9530,18706 L 9530,18745 L 9530,18785 L 9530,18825 L 9530,18864 L 9530,18904 L 9530,18944 L 9530,18983 L 9530,19023 L 9530,19063 L 9530,19102 L 9530,19142 L 9530,19182 L 9530,19221 L 9530,19261 L 9530,19301 L 9530,19340 L 9530,19380 L 9530,19420 L 9491,19459 L 9491,19499 L 9491,19539 L 9491,19578 L 9491,19578 L 9491,19618 L 9491,19658 L 9491,19697 L 9451,19737 L 9451,19777 L 9451,19816 L 9451,19856 L 9451,19896 L 9451,19935 L 9451,19975 L 9412,20015 L 9412,20054 L 9412,20094 L 9174,20094 z "
             id="path1487" />
          <path
             d="M 9926,16247 L 9847,16207 L 9847,16128 L 9847,16088 L 9807,16049 L 9807,16009 L 9807,15969 L 9807,15930 L 9807,15890 L 9807,15850 L 9768,15811 L 9768,15771 L 9768,15692 L 9768,15652 L 9768,15612 L 9768,15573 L 9728,15533 L 9728,15493 L 9728,15454 L 9728,15374 L 9728,15335 L 9728,15295 L 9689,15255 L 9689,15216 L 9689,15176 L 9689,15136 L 9689,15097 L 9689,15017 L 9689,14978 L 9689,14938 L 9649,14898 L 9649,14859 L 9649,14819 L 9649,14779 L 9649,14700 L 9649,14660 L 9649,14621 L 9610,14581 L 9610,14541 L 9610,14502 L 9610,14422 L 9610,14383 L 9610,14343 L 9570,14303 L 9570,14264 L 9570,14224 L 9570,14145 L 9570,14105 L 9570,14065 L 9570,14026 L 9570,13986 L 9530,13946 L 9530,13907 L 9530,13827 L 9530,13788 L 9530,13748 L 9530,13709 L 9530,13669 L 9530,13629 L 9491,13590 L 9491,13510 L 9491,13471 L 9491,13431 L 9491,13391 L 9491,13352 L 9491,13312 L 9570,13272 L 9610,13272 L 9649,13312 L 9649,13312 L 9689,13352 L 9728,13352 L 9768,13391 L 9807,13431 L 9847,13431 L 9847,13471 L 9847,13510 L 9847,13510 L 9847,13550 L 9887,13590 L 9887,13629 L 9887,13629 L 9887,13669 L 9887,13669 L 9926,13709 L 9926,13748 L 9966,13748 L 10005,13788 L 10045,13788 L 10045,13827 L 10084,13867 L 10124,13867 L 10124,13907 L 10164,13907 L 10164,13946 L 10164,13986 L 10164,13986 L 10164,14026 L 10164,14065 L 10164,14105 L 10203,14145 L 10203,14184 L 10203,14224 L 10203,14264 L 10203,14303 L 10203,14303 L 10203,14343 L 10203,14383 L 10203,14422 L 10203,14462 L 10203,14502 L 10203,14541 L 10203,14581 L 10203,14621 L 10203,14660 L 10203,14660 L 10203,14700 L 10203,14740 L 10203,14779 L 10203,14819 L 10203,14859 L 10203,14898 L 10203,14938 L 10203,14938 L 10203,14978 L 10203,15017 L 10203,15057 L 10203,15097 L 10203,15136 L 10164,15176 L 10164,15216 L 10164,15255 L 10164,15255 L 10164,15295 L 10164,15335 L 10164,15374 L 10164,15414 L 10164,15454 L 10164,15493 L 10164,15533 L 10164,15573 L 10164,15573 L 10164,15612 L 10124,15652 L 10124,15692 L 10124,15731 L 10124,15771 L 10124,15811 L 10124,15850 L 10124,15890 L 10124,15930 L 10084,15930 L 10084,15969 L 10084,16009 L 10084,16049 L 10084,16088 L 10084,16128 L 10084,16167 L 10084,16207 L 9926,16247 z "
             id="path1489" />
          <path
             d="M 11153,16207 L 11074,16207 L 11074,16167 L 11074,16128 L 11074,16088 L 11074,16049 L 11074,16009 L 11074,15969 L 11074,15969 L 11074,15930 L 11074,15890 L 11034,15850 L 11034,15811 L 11034,15771 L 11034,15731 L 11034,15731 L 11034,15692 L 11034,15652 L 11034,15612 L 11034,15573 L 11034,15533 L 11034,15493 L 11034,15454 L 11034,15454 L 11034,15414 L 11034,15374 L 11034,15335 L 11034,15295 L 11034,15255 L 11074,15216 L 11074,15176 L 11074,15136 L 11074,15097 L 11074,15097 L 11074,15057 L 11074,15017 L 11074,14978 L 11074,14938 L 11074,14898 L 11074,14859 L 11074,14819 L 11074,14779 L 11074,14740 L 11074,14700 L 11074,14660 L 11074,14621 L 11074,14581 L 11113,14581 L 11113,14541 L 11113,14502 L 11113,14462 L 11113,14422 L 11113,14383 L 11113,14343 L 11113,14303 L 11113,14264 L 11113,14224 L 11113,14184 L 11113,14145 L 11113,14105 L 11113,14065 L 11113,14065 L 11113,14026 L 11113,13986 L 11113,13946 L 11113,13907 L 11153,13867 L 11193,13827 L 11232,13788 L 11272,13748 L 11272,13709 L 11311,13709 L 11351,13629 L 11390,13590 L 11390,13431 L 11390,13431 L 11390,13391 L 11430,13352 L 11430,13352 L 11470,13352 L 11470,13312 L 11509,13312 L 11549,13272 L 11549,13272 L 11588,13233 L 11588,13233 L 11628,13193 L 11667,13193 L 11707,13193 L 11747,13153 L 11786,13153 L 11786,13193 L 11786,13233 L 11786,13272 L 11786,13312 L 11786,13352 L 11786,13391 L 11786,13431 L 11786,13471 L 11786,13510 L 11747,13550 L 11747,13590 L 11747,13629 L 11747,13709 L 11747,13748 L 11747,13788 L 11747,13827 L 11747,13867 L 11747,13907 L 11747,13946 L 11747,14026 L 11707,14065 L 11707,14105 L 11707,14145 L 11707,14184 L 11707,14264 L 11707,14303 L 11707,14343 L 11667,14383 L 11667,14422 L 11667,14502 L 11667,14541 L 11667,14581 L 11628,14621 L 11628,14660 L 11628,14740 L 11628,14779 L 11628,14819 L 11588,14859 L 11588,14938 L 11588,14978 L 11588,15017 L 11588,15057 L 11549,15097 L 11549,15176 L 11549,15216 L 11549,15255 L 11549,15295 L 11549,15374 L 11509,15414 L 11509,15454 L 11509,15493 L 11509,15573 L 11470,15612 L 11470,15652 L 11470,15692 L 11470,15731 L 11470,15811 L 11470,15850 L 11430,15890 L 11430,15930 L 11430,15969 L 11430,16049 L 11430,16088 L 11430,16128 L 11153,16207 z "
             id="path1491" />
          <path
             d="M 10005,13391 L 9847,13193 L 9847,13153 L 9807,13153 L 9768,13153 L 9728,13153 L 9728,13114 L 9689,13114 L 9649,13114 L 9649,13114 L 9610,13114 L 9570,13074 L 9451,12876 L 9451,12836 L 9451,12796 L 9451,12757 L 9451,12717 L 9451,12638 L 9412,12598 L 9412,12558 L 9412,12519 L 9412,12519 L 9412,12479 L 9412,12439 L 9412,12439 L 9412,12400 L 9412,12360 L 9412,12320 L 9412,12281 L 9412,12281 L 9412,12241 L 9412,12201 L 9412,12162 L 9412,12122 L 9412,12122 L 9412,12082 L 9412,12043 L 9412,12043 L 9412,12003 L 9412,12003 L 9412,11963 L 9412,11924 L 9412,11924 L 9412,11884 L 9412,11884 L 9412,11844 L 9412,11805 L 9412,11805 L 9412,11765 L 9412,11765 L 9412,11725 L 9412,11725 L 9412,11686 L 9372,11646 L 9372,11646 L 9372,11606 L 9372,11606 L 9372,11527 L 9372,11487 L 9372,11448 L 9372,11408 L 9412,11408 L 9451,11369 L 9491,11369 L 9530,11369 L 9530,11369 L 9570,11369 L 9610,11329 L 9649,11329 L 9689,11329 L 9689,11329 L 9728,11329 L 9768,11329 L 9768,11329 L 9807,11329 L 9807,11329 L 9847,11329 L 9887,11329 L 9887,11329 L 9926,11329 L 9966,11329 L 9966,11329 L 10005,11329 L 10045,11329 L 10045,11329 L 10084,11329 L 10124,11329 L 10164,11329 L 10164,11329 L 10361,11487 L 10361,11487 L 10361,11527 L 10361,11567 L 10361,11567 L 10361,11606 L 10361,11646 L 10361,11646 L 10361,11686 L 10361,11725 L 10361,11725 L 10361,11765 L 10361,11805 L 10361,11805 L 10361,11844 L 10361,11884 L 10361,11884 L 10361,11924 L 10361,11963 L 10361,11963 L 10361,12003 L 10361,12043 L 10401,12043 L 10401,12082 L 10401,12122 L 10401,12122 L 10401,12162 L 10401,12201 L 10401,12201 L 10401,12241 L 10401,12281 L 10401,12320 L 10401,12320 L 10401,12360 L 10401,12400 L 10401,12400 L 10401,12439 L 10401,12479 L 10401,12479 L 10401,12519 L 10401,12558 L 10401,12598 L 10401,12598 L 10401,12638 L 10401,12677 L 10401,12677 L 10401,12717 L 10401,12757 L 10401,12796 L 10401,12796 L 10401,12836 L 10401,12876 L 10401,12915 L 10401,12915 L 10401,12955 L 10401,12995 L 10401,12995 L 10401,13034 L 10401,13074 L 10361,13114 L 10361,13114 L 10361,13153 L 10361,13193 L 10361,13193 L 10361,13233 L 10322,13233 L 10282,13272 L 10243,13272 L 10203,13272 L 10164,13272 L 10164,13312 L 10124,13312 L 10084,13312 L 10084,13312 L 10045,13352 L 10045,13352 L 10005,13391 z "
             id="path1493" />
          <path
             d="M 9174,12638 L 9174,12598 L 9135,12558 L 9095,12558 L 9055,12519 L 9016,12479 L 8976,12479 L 8937,12439 L 8937,12439 L 8897,12400 L 8858,12360 L 8818,12360 L 8778,12320 L 8739,12320 L 8699,12281 L 8660,12241 L 8620,12241 L 8581,12201 L 8541,12162 L 8501,12162 L 8462,12122 L 8422,12082 L 8383,12043 L 8343,12043 L 8304,12003 L 8264,11963 L 8224,11924 L 8185,11884 L 8145,11884 L 8106,11844 L 8066,11805 L 8026,11765 L 8026,11725 L 8026,11606 L 8066,11606 L 8106,11567 L 8145,11567 L 8185,11567 L 8185,11567 L 8224,11567 L 8264,11527 L 8304,11527 L 8343,11527 L 8343,11527 L 8383,11527 L 8422,11527 L 8462,11527 L 8501,11527 L 8501,11527 L 8541,11527 L 8581,11527 L 8620,11527 L 8620,11487 L 8660,11487 L 8699,11487 L 8739,11487 L 8778,11487 L 8778,11487 L 8818,11487 L 8858,11487 L 8897,11448 L 8937,11448 L 8937,11448 L 8976,11448 L 9016,11408 L 9055,11408 L 9055,11448 L 9055,11487 L 9095,11487 L 9095,11527 L 9095,11567 L 9095,11606 L 9135,11646 L 9135,11686 L 9135,11725 L 9135,11765 L 9135,11805 L 9135,11844 L 9135,11884 L 9135,11924 L 9174,11963 L 9174,12003 L 9174,12043 L 9174,12082 L 9174,12122 L 9174,12162 L 9174,12201 L 9174,12241 L 9174,12281 L 9174,12320 L 9174,12360 L 9174,12400 L 9174,12439 L 9174,12479 L 9174,12519 L 9174,12558 L 9174,12598 L 9174,12638 z "
             id="path1495" />
          <path
             d="M 12222,12598 L 12222,12558 L 12222,12519 L 12222,12479 L 12222,12439 L 12222,12400 L 12222,12360 L 12222,12320 L 12222,12281 L 12222,12241 L 12222,12201 L 12222,12162 L 12222,12122 L 12222,12082 L 12222,12043 L 12222,12043 L 12222,12003 L 12222,11924 L 12261,11884 L 12261,11884 L 12261,11844 L 12261,11805 L 12261,11765 L 12301,11725 L 12301,11686 L 12301,11646 L 12340,11606 L 12340,11567 L 12340,11527 L 12380,11487 L 12380,11487 L 12419,11448 L 12419,11408 L 12459,11408 L 12499,11408 L 12499,11408 L 12538,11408 L 12578,11408 L 12617,11408 L 12657,11408 L 12657,11408 L 12696,11408 L 12736,11408 L 12776,11408 L 12815,11408 L 12815,11408 L 12855,11408 L 12894,11408 L 12934,11408 L 12973,11408 L 13013,11408 L 13053,11408 L 13092,11408 L 13092,11408 L 13132,11408 L 13171,11408 L 13211,11408 L 13251,11408 L 13251,11448 L 13290,11448 L 13330,11448 L 13369,11448 L 13409,11487 L 13409,11487 L 13448,11527 L 13409,11725 L 13369,11725 L 13330,11765 L 13290,11765 L 13290,11805 L 13251,11844 L 13211,11844 L 13171,11884 L 13132,11924 L 13092,11924 L 13053,11963 L 13013,12003 L 13013,12043 L 12973,12043 L 12934,12082 L 12894,12122 L 12855,12162 L 12815,12162 L 12776,12201 L 12776,12201 L 12736,12241 L 12696,12281 L 12657,12320 L 12617,12320 L 12578,12360 L 12538,12400 L 12499,12400 L 12459,12439 L 12419,12479 L 12380,12479 L 12340,12519 L 12301,12519 L 12261,12558 L 12222,12598 z "
             id="path1497" />
          <path
             d="M 7631,11686 L 7512,11487 L 7512,11448 L 7552,11408 L 7552,11408 L 7591,11369 L 7631,11329 L 7670,11329 L 7710,11329 L 7710,11329 L 7749,11329 L 7789,11329 L 7789,11369 L 7789,11369 L 7789,11408 L 7789,11448 L 7789,11448 L 7789,11487 L 7789,11527 L 7789,11527 L 7789,11567 L 7789,11606 L 7789,11606 L 7749,11646 L 7749,11646 L 7710,11646 L 7710,11686 L 7670,11686 L 7631,11686 z "
             id="path1499" />
          <path
             d="M 13725,11567 L 13686,11329 L 13686,11329 L 13725,11329 L 13765,11329 L 13765,11329 L 13805,11329 L 13844,11329 L 13884,11329 L 13923,11369 L 13923,11408 L 13923,11448 L 13725,11567 z "
             id="path1501" />
          <path
             d="M 8106,11329 L 8224,11329 L 8224,11289 L 8264,11250 L 8304,11210 L 8343,11210 L 8383,11170 L 8462,11170 L 8462,11170 L 8501,11131 L 8541,11131 L 8541,11131 L 8581,11131 L 8581,11091 L 8620,11091 L 8660,11091 L 8660,11051 L 8699,11051 L 8699,11051 L 8739,11051 L 8778,11012 L 8818,10972 L 8858,10932 L 8897,10932 L 8937,10932 L 8937,10932 L 8976,10932 L 8976,10932 L 9016,10972 L 9016,11012 L 9055,11012 L 9055,11051 L 9055,11091 L 9095,11131 L 9055,11170 L 9055,11170 L 9016,11170 L 8976,11210 L 8976,11210 L 8937,11210 L 8897,11250 L 8897,11250 L 8858,11250 L 8818,11250 L 8778,11250 L 8778,11250 L 8739,11250 L 8699,11289 L 8660,11289 L 8620,11289 L 8581,11289 L 8581,11289 L 8541,11289 L 8501,11289 L 8462,11289 L 8422,11289 L 8383,11289 L 8383,11289 L 8343,11289 L 8304,11289 L 8264,11289 L 8224,11329 L 8185,11329 L 8185,11329 L 8145,11329 L 8106,11329 z "
             id="path1503" />
          <path
             d="M 10480,11250 L 10441,11210 L 10441,11170 L 10441,11131 L 10480,11131 L 10480,11091 L 10559,11091 L 10559,11051 L 10599,11091 L 10599,11091 L 10639,11091 L 10639,11091 L 10678,11131 L 10678,11131 L 10678,11170 L 10480,11250 z "
             id="path1505" />
          <path
             d="M 13330,11250 L 13290,11250 L 13251,11210 L 13211,11210 L 13211,11210 L 13171,11210 L 13132,11210 L 13092,11210 L 13092,11210 L 13053,11210 L 13013,11210 L 12973,11210 L 12973,11210 L 12934,11210 L 12894,11210 L 12855,11210 L 12815,11210 L 12815,11210 L 12776,11210 L 12736,11210 L 12696,11210 L 12657,11210 L 12657,11210 L 12617,11170 L 12578,11170 L 12578,11170 L 12538,11170 L 12499,11170 L 12499,11170 L 12459,11131 L 12419,11131 L 12419,11131 L 12380,11131 L 12419,11091 L 12419,11051 L 12419,11012 L 12419,11012 L 12419,10972 L 12419,10932 L 12419,10932 L 12419,10893 L 12419,10853 L 12459,10853 L 12459,10813 L 12459,10774 L 12459,10734 L 12459,10734 L 12499,10694 L 12499,10655 L 12538,10655 L 12578,10615 L 12617,10615 L 12657,10615 L 12657,10615 L 12696,10615 L 12736,10615 L 12776,10615 L 12815,10655 L 12855,10655 L 12894,10655 L 12934,10655 L 12973,10694 L 13013,10694 L 13053,10734 L 13092,10734 L 13092,10774 L 13132,10774 L 13171,10813 L 13211,10813 L 13251,10853 L 13290,10893 L 13290,10893 L 13330,10932 L 13369,10932 L 13409,10972 L 13409,11012 L 13448,11051 L 13488,11051 L 13528,11091 L 13528,11131 L 13567,11131 L 13330,11250 z "
             id="path1507" />
        </g>
      </g>
    </g>
  </g>
</svg>
