<?xml version="1.0" encoding="iso-8859-1"?>
<!DOCTYPE svg PUBLIC "-//W3C//DTD SVG 20000303 Stylable//EN"
"http://www.w3.org/TR/2000/03/WD-SVG-20000303/DTD/svg-20000303-stylable.dtd">

<svg width="1.1789in" height="2.3160in" viewBox="0 0 113 222" xmlns="http://www.w3.org/2000/svg">

<path style="fill:#000" d="M43,222 l-1,0 1,-1 1,0 -1,1z" />
<path style="fill:#000" d="M73,186 l-6,3 -10,7 -2,0 -3,0 0,-1 -5,-3 -1,0 -1,-2 -1,0 -9,-6 -1,-1 -2,-3 1,-1 -1,-1 1,-1 1,-1 0,-1 0,-1 -1,-2 -1,-1 3,-6 -3,-5 1,0 0,-1 3,-2 0,-1 -3,-4 0,-1 2,-2 1,-1 1,-1 0,-1 -4,-6 1,0 2,-3 3,-2 0,-1 -4,-6 -3,-6 -4,-6 -4,-6 -2,-1 -3,-4 -4,-5 -1,0 -10,-19 0,-1 -2,-3 0,-1 -2,-11 0,-1 0,-4 1,-7 2,-6 1,-7 1,-1 2,-4 0,-1 1,-2 0,-1 2,-3 1,0 2,-2 0,-1 1,-2 1,-1 1,-1 0,-1 1,-1 2,-2 0,-1 6,-4 0,-1 12,-7 1,0 12,-4 2,0 4,0 2,0 20,3 4,1 0,1 8,4 1,0 1,1 1,0 1,2 1,1 1,0 1,1 1,0 1,3 1,0 7,11 5,14 1,15 -1,16 -1,1 0,1 -1,5 0,2 -1,1 -1,3 -3,7 0,1 -1,2 -1,1 0,1 -1,0 -1,2 0,1 -2,2 0,1 -2,2 0,1 -2,1 0,1 -3,4 0,1 -2,1 -1,1 0,1 -2,2 -2,2 0,1 -2,1 1,1 -1,1 0,1 -3,5 1,2 -1,3 -2,3 1,1 1,0 0,1 0,1 1,4 -1,0 0,1 -1,0 -1,2 0,1 1,3 1,0 1,0 0,2 -3,2 0,1 -2,1 0,1 2,3 0,4 -1,1 0,1 0,1 1,2 1,1 -1,3 -1,0 0,1 2,3 -1,1 -1,2 0,1 -1,0 -2,2 -1,0z" />
<ellipse style="fill:#d1d1d1" cx="55" cy="179" rx="18" ry="4" />
<path style="fill:#d1d1d1" d="M59,191 l-2,2 -2,0 -2,0 -1,-1 -3,0 -1,-2 1,-1 12,0 1,1 -2,1 -1,0z" />
<path style="fill:#d1d1d1" d="M73,179 l-8,0 -1,1 1,-1 2,-1 2,0 3,-2 2,1 0,2 -1,0z" />
<path style="fill:#d1d1d1" d="M60,187 l-4,1 -3,-1 -5,0 -4,-1 -1,-1 -5,-2 0,-1 -1,-3 0,1 18,5 5,2z" />
<path style="fill:#d1d1d1" d="M74,173 l-3,-1 3,-2 0,1 1,2 -1,0z" />
<ellipse style="fill:#d1d1d1" cx="51" cy="174" rx="16" ry="5" />
<ellipse style="fill:#d1d1d1" cx="54" cy="167" rx="17" ry="5" />
<path style="fill:#d1d1d1" d="M70,169 l-9,0 -1,-1 6,1 1,0 1,-1 0,1 1,1 1,-1 1,1 1,-1 -2,0z" />
<path style="fill:#d1d1d1" d="M75,166 l-1,1 0,-2 1,1z" />
<path style="fill:#d1d1d1" d="M76,165 l-2,2 1,-2 1,0z" />
<ellipse style="fill:#d1d1d1" cx="54" cy="161" rx="17" ry="5" />
<ellipse style="fill:#d1d1d1" cx="67" cy="158" rx="8" ry="2" />
<path style="fill:#d1d1d1" d="M71,154 l-1,0 -1,0 -1,-1 -6,0 0,-1 11,0 0,1 -1,1 -1,0z" />
<path style="fill:#d1d1d1" d="M74,152 l-5,0 -1,1 -5,-2 1,0 5,-2 5,0 1,1 0,1 0,2 0,-1 -1,0z" />
<ellipse style="fill:#d1d1d1" cx="49" cy="154" rx="13" ry="5" />
<path style="fill:#d1d1d1" d="M74,147 l-4,-1 1,0 5,0 -1,1 -1,0z" />
<path style="fill:#d1d1d1" d="M77,145 l-3,-1 1,-1 2,-1 1,1 1,1 -2,1z" />
<ellipse style="fill:#d1d1d1" cx="57" cy="142" rx="19" ry="4" />
<ellipse style="fill:#d1d1d1" cx="51" cy="148" rx="13" ry="5" />
<ellipse style="fill:#d1d1d1" cx="58" cy="132" rx="19" ry="8" />
<path style="fill:#fdf000" d="M76,133 l-2,0 -1,-1 -8,-1 -1,-1 -2,-3 1,0 0,-9 1,0 0,-4 0,-1 0,-2 -1,0 -1,-2 1,-6 -1,-1 0,2 0,3 0,1 -1,5 -1,1 0,3 -1,0 0,2 0,1 0,-1 -1,-1 -3,-13 0,1 1,3 -2,0 -2,-10 0,-3 0,-1 -2,-9 -2,-9 -2,-9 -1,-11 1,-1 2,-1 1,-1 1,0 0,1 1,1 0,2 1,9 0,8 0,9 1,8 1,2 1,11 1,-1 -3,-25 -1,-1 0,-3 0,-6 0,-5 0,-6 0,-2 -2,-2 -1,0 -1,-1 0,1 -2,1 -1,1 -1,2 1,1 -1,3 4,16 3,15 1,16 1,15 0,2 0,4 -1,1 -9,1 -1,1 -1,-1 -1,-2 -3,-3 -2,-5 -3,-4 -2,-5 -1,0 -4,-6 -1,0 -3,-4 -1,0 -3,-4 -1,0 -10,-20 -1,-3 -1,-1 -2,-13 0,-6 1,-1 1,-3 1,-5 1,-3 1,-5 1,-1 3,-7 1,-1 1,-2 3,-4 0,-1 2,-1 0,-1 2,-1 0,-1 1,0 0,-1 3,-2 0,-1 19,-11 1,0 2,-1 1,1 7,-2 1,0 5,2 7,0 6,2 6,0 1,0 3,2 3,2 3,2 3,1 1,1 1,1 1,0 0,1 1,0 2,2 1,1 9,14 0,2 3,25 1,1 -2,6 -1,5 -1,7 -1,5 -1,1 -5,11 0,1 -4,5 0,1 -2,1 0,1 -2,2 0,1 -1,1 -2,2 0,1 -1,1 0,1 -1,1 -2,1 0,1 -2,1 0,1 -2,2 0,1 -4,10 -2,0 0,1z" />
<path style="fill:#d1d1d1" d="M71,135 l-8,1 -1,-1 1,0 0,-1 2,-1 6,1 1,1 -1,0z" />
<path style="fill:#d1d1d1" d="M52,135 l-5,0 0,-1 1,0 1,-1 4,1 1,1 -2,1 0,-1z" />
<path style="fill:#000" d="M38,109 l-3,-6 -1,-1 -2,-3 -3,-4 1,-1 1,-4 -2,-1 -1,0 0,-1 -2,-2 0,-1 0,-3 1,0 1,-1 -1,-1 -6,3 -1,-1 -1,-2 1,-1 3,-6 -1,0 -1,1 -1,0 -3,0 0,-1 -1,-1 1,-1 3,-5 0,-1 3,-2 0,-1 -8,5 0,-1 -1,-1 0,-2 0,-2 0,-1 1,0 1,-2 1,-1 2,-3 0,-1 -2,1 -1,-1 -1,-1 1,-4 0,-1 2,-2 1,-2 -1,0 -3,1 -1,-1 0,-4 1,0 2,-3 0,-1 1,-1 1,-1 2,-3 0,-1 2,-1 0,-1 2,-1 0,-1 2,-2 6,-4 1,-1 2,3 -1,0 -1,2 -1,-1 -5,3 0,1 0,1 -2,1 0,1 -2,2 -2,1 0,1 -1,1 0,1 -2,1 0,1 -2,4 3,0 2,-2 4,-1 3,-2 1,0 1,0 0,1 0,1 -6,4 -3,3 -1,1 -1,1 -1,1 0,1 -1,2 1,-1 7,-4 2,-1 1,1 0,2 -1,0 -2,2 -1,1 -1,1 0,1 -4,3 0,1 -4,6 1,0 11,-6 1,0 1,0 1,1 -1,1 0,1 -1,0 -2,2 0,1 -3,2 -3,2 0,1 -1,4 5,-4 2,0 3,0 -1,1 -1,2 -2,2 0,1 -2,2 0,1 -1,3 3,-2 1,0 3,-1 0,1 1,3 -1,0 0,1 0,1 -1,0 0,1 0,2 2,2 1,0 1,0 1,4 -1,0 0,1 1,1 -1,0 0,1 0,1 1,1 2,3 1,1 1,3 0,1 1,4 -1,0z" />
<path style="fill:#000" d="M94,53 l-1,0 0,-2 -1,-5 -3,-7 -2,-4 -4,-7 -1,0 0,-1 -1,0 0,-3 0,-1 4,0 4,0 1,1 3,2 0,1 2,3 0,1 1,1 0,1 1,5 -1,0 -2,-2 0,-2 -4,-7 -1,0 -1,-2 -4,1 1,0 1,1 0,1 5,7 0,1 4,17 -1,0z" />

</svg>
