<?xml version="1.0" encoding="iso-8859-1"?>
<!DOCTYPE svg PUBLIC "-//W3C//DTD SVG 20000303 Stylable//EN"
"http://www.w3.org/TR/2000/03/WD-SVG-20000303/DTD/svg-20000303-stylable.dtd">

<svg width="3.7000in" height="3.4603in" viewBox="0 0 355 332" xmlns="http://www.w3.org/2000/svg">

<path style="fill:#000" d="M70,332 l0,-1 1,-1 1,-2 1,-2 1,-1 1,-2 1,-2 1,-2 1,-2 1,-2 1,-2 0,-2 1,-1 1,-2 1,-2 1,-2 1,-2 2,-1 1,-2 1,-2 1,-1 1,-2 1,-2 1,-2 2,-1 1,-2 1,-2 1,-1 1,-2 2,-2 1,-1 1,-2 2,-1 1,-2 2,-2 1,-2 2,-2 2,-1 2,-2 1,-2 2,-1 2,-1 2,-2 2,-1 2,-2 2,-1 2,-1 2,-1 1,-2 -1,0 -1,0 -1,0 -2,1 -1,0 -1,0 -2,1 -1,0 -1,1 -1,1 -2,0 -1,1 -1,1 -1,0 -1,1 -1,1 -2,2 -2,1 -2,2 -2,2 -1,2 -2,1 -1,2 -2,2 -1,2 -2,1 -1,2 -2,2 -1,2 -2,2 -1,2 -2,2 0,1 -1,1 -1,1 0,-2 0,-2 0,-2 0,-2 1,-2 0,-2 0,-2 0,-2 0,-2 0,-2 0,-3 0,-2 0,-2 -1,-2 0,-2 0,-2 0,-2 -1,-2 0,-2 0,-2 -1,-2 0,-2 -1,-2 -1,-2 0,-2 -1,-2 -1,-2 -1,-2 -1,-1 -1,-2 -1,-2 -1,-1 -3,-2 -2,-2 -2,-2 -2,-2 -3,-1 -2,-2 -2,-2 -3,-1 -2,-1 -3,-1 -2,-1 -3,-1 -3,-1 -3,0 -3,0 -3,0 -1,0 -1,0 -1,0 -1,0 -1,0 -1,0 -1,0 0,-1 1,0 1,-1 1,-1 1,-1 2,-2 1,-1 2,-1 2,-1 1,-1 2,-1 1,-2 1,0 0,-1 1,0 1,-1 1,-1 1,0 4,-4 0,-1 1,-1 0,-1 1,-1 0,-1 1,0 0,-1 1,-1 1,-2 0,-2 1,-2 0,-2 0,-2 1,-2 0,-1 -1,-2 0,-1 0,-1 0,-1 0,-2 0,-1 0,-1 -1,-1 0,-1 0,-1 -1,-1 0,-1 -1,-1 0,-1 -1,-1 0,-1 -1,-1 -1,0 0,-2 -1,-2 0,-1 -1,-2 -1,-2 -1,-2 0,-1 -1,-2 -1,-1 0,-2 -1,-1 0,-1 -1,-1 0,-1 -1,-1 0,-1 -1,-1 0,-1 -1,-1 -1,-1 0,-1 -1,-1 0,-1 -1,-1 -1,-1 -1,-1 0,-1 -1,-1 -1,-1 0,-1 3,0 2,0 2,0 3,0 2,0 2,0 3,0 2,0 2,-1 3,0 2,0 2,-1 2,0 3,-1 2,0 2,-1 2,-1 3,0 2,-1 2,-1 2,-1 2,-1 2,-1 2,-1 2,-1 2,-1 2,-1 2,-1 2,-1 2,-2 1,-1 2,-1 2,-2 1,-1 2,-1 1,-1 2,-1 1,-1 1,-1 2,-1 1,-2 2,-1 1,-2 1,-1 1,-2 1,-2 1,-1 1,-2 1,-2 1,-1 0,-2 1,-2 1,-2 0,-2 1,-2 1,-2 0,-1 1,-1 0,-2 1,-1 0,-1 1,-1 0,-1 0,-1 0,-2 1,-1 0,-1 0,-1 1,-1 0,-1 1,-1 0,-1 1,0 0,1 1,0 0,1 0,1 0,1 1,3 2,2 0,2 1,2 1,3 2,2 1,2 1,2 1,2 2,1 1,2 2,2 2,1 2,1 2,1 2,1 2,0 2,1 2,0 2,0 2,0 1,0 2,0 2,0 2,-1 1,0 2,-1 2,0 2,-1 1,-1 2,0 1,-1 2,-1 1,0 1,-1 2,0 1,-1 1,-1 1,0 1,-1 1,-1 1,-1 1,0 2,-1 1,-1 1,-1 1,0 1,-1 1,-1 1,-1 1,-1 1,-1 1,-1 -1,3 0,3 -1,2 0,3 -1,3 0,3 0,2 0,3 0,3 0,3 1,2 0,3 1,3 1,2 1,2 2,3 1,1 2,2 1,1 2,1 2,1 2,1 2,1 2,0 2,1 2,0 2,1 2,0 2,0 3,0 2,0 2,0 3,0 2,0 2,0 3,0 2,-1 2,0 3,-1 2,0 2,-1 3,0 2,-1 2,0 3,-1 2,-1 2,0 2,-1 3,-1 2,-1 2,0 2,-1 2,-1 3,-1 2,-1 2,-1 2,-1 2,-1 2,-1 2,0 2,-2 2,-1 2,0 2,-1 1,0 -1,1 -1,1 -2,1 -1,1 -1,1 -1,1 -2,1 -1,1 -1,1 -1,1 -2,1 -1,1 -1,1 -1,2 -1,1 -2,1 -1,2 -2,1 -2,2 -2,2 -2,2 -1,1 -2,2 -2,2 -2,1 -1,2 -2,2 -2,2 -2,1 -2,2 -1,2 -2,1 -3,3 -2,3 -2,3 -2,3 -2,4 -2,3 -2,4 -2,3 -1,4 -1,4 -1,4 -1,4 0,4 0,4 0,4 1,4 0,2 1,2 1,2 1,2 0,2 1,2 1,2 1,1 1,2 1,1 1,2 1,2 1,1 1,2 1,1 1,2 0,1 -2,-1 -3,0 -2,1 -2,0 -3,0 -2,1 -2,1 -2,1 -3,0 -2,1 -2,2 -2,1 -2,1 -2,1 -1,2 -2,1 -1,1 -1,2 -1,1 -1,2 -1,2 -1,1 -1,2 0,2 -1,2 0,2 -1,2 0,2 0,2 -1,2 0,2 0,2 0,1 0,2 0,2 0,2 1,2 0,2 0,2 1,2 0,1 1,2 0,2 1,2 1,2 0,1 1,2 1,1 0,1 -1,0 -1,-1 -2,-1 -2,-2 -1,-1 -2,-2 -2,-1 -1,-2 -2,-1 -2,-2 -1,-1 -2,-2 -2,-1 -2,-1 -1,-2 -2,-1 -2,-1 -5,-2 -9,-3 -1,0 0,-1 -1,0 1,-1 0,-1 0,-1 0,-1 0,-1 -1,0 -1,-2 1,-1 0,-2 1,-1 0,-1 1,-2 1,-1 1,-1 2,-2 2,-3 2,-2 1,-3 2,-2 2,-3 2,-2 2,-3 1,-3 2,-3 2,-3 1,-3 1,-3 2,-3 1,-3 1,-3 1,-3 1,-3 1,-4 1,-3 1,-3 0,-3 1,-4 0,-3 1,-4 0,-3 0,-3 0,-4 -1,-3 0,-4 0,-3 -1,-3 0,-2 -1,-1 -1,-2 0,-1 -1,-2 0,-1 -1,-1 0,-2 -1,-2 -1,-3 -1,-2 -1,-2 -2,-3 -1,-2 -2,-2 -1,-2 -2,-2 -2,-2 -1,-1 -2,-2 -2,-2 -2,-1 -2,-2 -3,-1 -1,-1 -1,0 0,-1 -1,0 -1,-1 -2,-1 -1,0 -2,-1 -2,-1 -2,0 -2,-1 -2,-1 -1,0 -2,0 -2,-1 -3,0 -2,0 -2,0 -2,0 -2,1 -1,0 -2,1 -1,0 -1,0 -1,1 -1,0 -1,1 -1,0 -1,0 -4,2 -4,2 -4,3 -4,2 -3,3 -4,3 -3,3 -3,3 -3,4 -2,4 -3,3 -2,4 -2,4 -2,5 -1,4 -1,5 0,1 -1,1 0,1 0,1 0,1 0,2 0,1 0,1 -1,1 0,1 0,1 0,1 0,1 -1,1 0,1 0,1 0,3 0,2 -1,3 0,2 0,2 0,3 1,2 0,2 0,3 1,2 0,2 1,3 1,2 0,2 1,2 1,3 2,2 1,3 2,3 2,3 2,2 2,3 2,2 2,2 2,3 3,2 2,3 2,2 2,3 1,3 2,2 1,3 1,1 0,1 1,1 0,1 1,1 0,1 0,1 0,1 0,1 1,1 -1,1 -1,0 -1,1 0,1 -1,1 0,1 -1,1 0,1 0,1 0,1 1,1 0,1 1,1 0,1 -1,1 0,1 -1,0 0,1 0,1 0,1 0,1 1,0 1,0 0,1 0,1 0,1 -1,1 0,1 -1,1 0,1 0,1 1,1 0,1 1,1 0,1 1,0 0,1 -1,1 0,1 0,1 0,1 0,1 1,2 2,2 1,1 2,1 1,1 2,1 2,1 2,1 1,0 1,0 1,0 1,0 1,0 0,1 1,0 0,1 0,1 3,2 1,-1 1,0 2,0 1,0 1,0 1,0 1,0 1,-2 0,-1 1,-1 12,-4 3,-3 0,-7 0,-1 1,0 1,-1 0,-1 1,-1 0,-1 0,-1 0,-1 0,-1 -1,-1 0,-1 -1,-1 1,-1 0,-1 1,-1 1,-1 0,-1 0,-1 0,-2 -1,-5 0,-1 1,0 0,-1 4,1 5,2 4,2 4,2 3,2 4,3 4,3 3,3 3,3 4,3 3,4 3,3 3,4 2,3 3,4 3,3 1,2 1,2 0,2 1,1 2,2 1,1 1,2 2,1 1,0 -1,-2 -1,-2 -1,-3 -1,-2 -1,-2 -1,-2 -1,-2 -1,-2 -1,-2 -2,-2 -1,-2 -1,-2 -1,-2 -1,-2 -1,-2 -1,-3 -1,-1 -1,-2 -1,-2 -1,-2 -1,-2 0,-2 -1,-1 -1,-3 0,-2 0,-2 -1,-2 0,-2 0,-2 -1,-2 0,-2 0,-2 1,-3 0,-2 1,-3 0,-3 1,-2 1,-2 1,-3 1,-2 2,-2 1,-2 2,-1 1,-2 2,-1 2,-2 2,-1 2,-1 2,-1 2,-1 2,0 2,-1 3,0 2,0 2,0 2,0 2,0 2,1 2,0 2,1 2,0 2,1 2,1 2,1 0,-1 1,0 1,0 0,-1 0,-1 0,-1 -1,0 0,-1 0,-1 -1,0 0,-1 -1,0 -1,-1 -1,0 -1,-1 0,-1 -1,-1 -1,-1 -1,-1 -1,-1 -1,-2 -1,-2 -2,-2 -1,-2 -2,-2 -1,-2 -1,-2 -1,-2 -1,-3 -1,-2 -1,-2 -1,-3 -1,-2 0,-3 -1,-2 0,-3 0,-3 0,-2 0,-3 1,-2 0,-3 1,-2 1,-2 0,-2 1,-3 1,-2 1,-2 1,-2 2,-2 1,-2 1,-2 2,-2 1,-2 2,-1 1,-2 2,-2 1,-2 2,-2 2,-2 1,-1 2,-2 2,-2 1,-2 2,-1 2,-2 2,-2 1,-2 2,-2 3,-2 2,-2 3,-2 3,-2 2,-3 3,-2 2,-2 3,-2 3,-2 2,-2 3,-2 2,-2 3,-2 3,-2 2,-1 3,-2 1,-1 2,-1 1,-1 2,-1 1,-1 2,-1 1,-1 2,-1 1,0 1,-1 2,-1 1,-1 2,-1 1,-1 1,-1 1,-2 -1,0 -1,0 -1,0 -1,1 -1,0 -1,0 -1,1 -2,0 -1,1 -1,0 -1,1 -1,0 -1,1 -1,1 -1,0 -2,1 -2,1 -2,1 -2,1 -2,1 -2,1 -2,1 -2,1 -2,1 -2,1 -2,1 -2,0 -3,1 -2,1 -2,1 -2,1 -2,1 -2,1 -2,1 -2,1 -2,0 -2,1 -2,1 -2,1 -3,0 -2,1 -2,1 -2,0 -2,1 -2,1 -3,0 -2,1 -1,0 -1,0 -1,0 -1,0 -1,0 -1,0 -1,1 -2,0 -2,0 -2,0 -2,1 -2,0 -3,0 -2,0 -2,1 -2,0 -2,0 -2,0 -3,0 -2,0 -2,-1 -2,0 -2,-1 -2,0 -2,-1 -2,-1 -2,-1 -2,-1 -2,-1 -1,-2 -1,-1 -2,-3 -1,-3 -1,-3 0,-3 -1,-3 0,-3 0,-2 0,-4 1,-3 0,-2 1,-3 1,-3 1,-3 1,-3 1,-2 1,-3 -1,0 -1,-1 -1,1 -2,1 -1,1 -1,1 -1,1 -2,2 -1,1 -1,1 -1,1 -2,2 -1,1 -1,1 -2,1 -1,1 -2,0 -2,0 -2,2 -2,1 -3,1 -3,1 -2,1 -3,1 -3,1 -2,1 -3,0 -3,0 -3,0 -2,0 -3,0 -3,-1 -2,-1 -2,-2 -2,-1 -1,-2 -2,-1 -1,-2 -1,-1 -1,-2 -1,-1 -1,-2 -1,-2 -1,-1 -1,-2 0,-2 -1,-2 -1,-2 0,-2 -1,-2 0,-2 0,-2 0,-2 0,-2 0,-3 0,-2 0,-2 1,-2 0,-2 0,-2 0,-2 0,-2 0,-2 0,-3 1,-2 0,-2 -1,0 0,1 -1,0 -1,-1 0,-1 0,2 0,3 0,2 0,2 0,3 0,2 0,2 -1,3 0,2 -1,3 0,2 -1,3 -1,2 0,3 -1,2 -1,2 -1,4 -2,5 -1,4 -2,4 -2,4 -1,3 -2,4 -2,4 -2,3 -3,3 -2,3 -3,4 -3,2 -3,3 -3,3 -4,2 -1,1 -1,0 -1,1 -1,1 -2,1 -1,0 -1,1 -1,1 -2,0 -1,1 -1,0 -2,1 -1,0 -2,1 -1,1 -1,0 -2,0 -2,1 -2,0 -2,0 -2,1 -2,0 -2,1 -2,0 -2,0 -2,1 -2,0 -2,0 -2,1 -2,0 -2,0 -2,0 -1,0 -2,0 -1,0 -1,0 -2,-1 -1,0 -1,0 -2,-1 -1,0 -1,-1 -1,0 -1,-1 -2,0 0,-1 -2,-1 0,-1 -1,0 -1,-1 -1,-1 -1,-1 -1,-1 -1,-1 -1,0 -1,-1 -1,-1 -1,-1 -2,-1 -1,-1 -2,-1 -1,-1 -1,-2 0,-1 -6,-1 0,1 -1,0 0,1 0,1 0,1 1,2 2,2 2,2 2,1 2,2 2,1 2,2 2,3 3,3 2,3 3,3 2,3 3,3 2,3 2,3 2,4 2,3 2,4 2,3 2,4 2,4 1,3 2,4 2,4 0,1 1,2 0,1 0,2 0,1 1,2 0,1 0,2 0,1 0,1 -1,2 0,1 0,2 0,1 -1,1 0,2 -1,1 -1,2 -2,1 -1,1 -1,1 -1,1 -2,1 -1,1 -1,1 -2,1 -1,1 -1,1 -2,1 -1,1 -1,1 -2,0 0,1 -1,0 -1,0 0,1 -1,0 -2,2 -1,1 -1,1 -2,1 -1,1 -2,1 -2,1 -1,1 -2,1 -1,1 -2,1 -1,1 -2,1 -1,2 -1,1 -1,2 1,0 1,1 1,-1 1,0 1,0 1,-1 1,1 2,-1 3,-1 2,0 2,-1 2,0 3,0 2,0 2,0 2,0 3,0 2,0 2,0 2,0 3,0 2,0 2,0 3,2 2,1 3,2 3,1 2,2 2,2 3,2 2,1 2,2 2,2 2,3 2,2 1,3 2,2 1,3 1,3 1,3 0,2 1,3 0,2 1,3 0,2 0,3 0,2 0,2 0,3 0,2 0,3 0,2 0,3 0,2 -1,3 0,2 0,2 -1,3 0,2 -1,3 -1,2 0,2 -1,3 -1,2 0,3 -1,2 -1,2 -1,2 -1,3 0,2 -1,2 -1,1 0,1 0,1 0,1 0,1 0,1 0,1 1,0z" />
<path style="fill:#fff" d="M156,305 l4,-1 0,-1 -1,0 -1,0 -1,0 -1,0 -1,0 0,1 1,0 0,1z" />
<ellipse style="fill:#fff" cx="156" cy="293" rx="20" ry="5" />
<ellipse style="fill:#fff" cx="157" cy="283" rx="23" ry="5" />
<ellipse style="fill:#fff" cx="158" cy="271" rx="23" ry="5" />
<ellipse style="fill:#fff" cx="157" cy="261" rx="22" ry="5" />
<path style="fill:#ffe836" d="M146,255 l2,0 2,0 2,0 2,0 2,0 2,-1 2,0 2,0 2,-1 2,0 2,-1 3,0 2,0 2,-1 2,0 2,-1 1,-3 2,-3 2,-3 1,-3 2,-2 2,-3 2,-3 2,-2 2,-3 2,-3 2,-2 2,-3 2,-3 2,-3 2,-3 1,-3 1,-2 1,-2 1,-2 0,-2 1,-2 1,-3 0,-2 1,-2 0,-2 1,-2 0,-2 0,-2 1,-2 0,-3 0,-2 0,-2 1,-2 0,-2 0,-3 0,-2 0,-2 -1,-2 0,-2 0,-2 0,-2 0,-3 -1,-2 0,-2 0,-2 -1,-2 -1,-2 0,-2 0,-1 -1,-1 0,-1 -1,-1 0,-1 -1,-1 0,-1 -1,-2 -1,-2 -1,-2 -1,-2 -1,-2 -2,-2 -1,-2 -2,-2 -1,-2 -2,-1 -2,-2 -2,-1 -1,-2 -2,-1 -2,-2 -3,-1 -2,-1 -3,-2 -2,-1 -3,-1 -3,-1 -3,0 -3,-1 -3,0 -3,0 -3,0 -3,1 -3,0 -2,1 -3,1 -3,1 -3,1 -3,1 -3,2 -3,2 -3,2 -2,3 -3,2 -3,3 -2,2 -2,3 -2,3 -2,3 -2,3 -2,3 -1,4 -1,3 -1,4 -1,2 -1,3 -1,2 0,3 -1,3 0,2 -1,3 0,3 0,2 0,3 0,3 0,2 0,3 0,3 0,2 1,3 0,3 1,2 1,3 0,2 1,3 1,2 1,2 1,3 1,2 1,2 2,2 1,2 1,2 2,2 1,2 2,2 1,1 1,1 1,1 1,1 1,1 1,1 1,1 1,1 1,1 1,1 0,1 1,2 1,1 1,1 1,1 1,1 0,1 1,1 0,1 1,1 0,2 0,1 1,1 0,1 1,1 0,2 1,1 0,1 1,0 1,1 1,1 1,0 0,1 1,0 1,0 1,0 1,0z" />
<path style="fill:#000" d="M150,252 l1,-1 1,-2 0,-2 1,-2 0,-2 1,-1 0,-2 0,-2 1,-2 0,-2 0,-2 0,-2 0,-2 -1,-2 0,-2 0,-2 0,-2 -1,-2 0,-1 -1,-2 0,-2 -1,-2 0,-1 -1,-2 0,-1 -1,-2 -1,-1 0,-2 -1,-1 -1,-2 0,-1 -1,-1 -1,-2 0,-1 -1,-1 -1,-2 0,-1 -1,-1 -1,-2 0,-1 0,-1 0,-1 1,0 0,-1 1,0 1,-1 1,0 1,0 4,9 1,0 0,-1 1,0 0,-1 1,0 0,-1 0,-5 -3,-4 0,-1 1,0 0,-1 1,0 3,-2 2,1 -1,9 1,1 1,0 1,0 0,-1 1,0 0,-1 0,-1 0,-1 0,-1 0,-1 0,-1 -1,0 0,-1 0,-1 1,-1 0,-1 1,0 1,0 0,-1 1,0 0,1 1,0 1,1 0,1 0,1 -3,6 1,5 1,0 3,-5 0,-1 1,0 0,-5 0,-1 1,0 0,-1 1,0 2,1 1,1 1,2 0,2 0,2 0,1 -1,2 0,2 -1,2 -1,1 0,2 -1,2 -1,2 0,1 -1,2 0,2 -1,2 0,3 -1,3 -1,3 -1,3 -1,3 0,3 -1,2 0,3 0,3 -1,3 0,3 0,3 1,3 0,3 1,3 1,3 0,-3 0,-2 0,-2 0,-2 1,-2 0,-3 0,-2 0,-2 1,-2 0,-3 0,-2 1,-2 0,-2 0,-3 1,-2 0,-2 1,-3 0,-2 1,-2 0,-2 1,-3 0,-2 1,-2 0,-2 1,-3 1,-2 0,-2 1,-3 0,-2 1,-2 0,-2 1,-3 -1,-1 0,-1 0,-1 -1,-1 -1,0 0,-1 -1,0 -1,0 -5,3 -4,-4 -5,2 -1,0 -1,0 0,-1 -1,0 -1,0 -1,0 0,1 -1,0 -1,1 -1,0 0,1 -1,1 -1,0 0,1 -1,0 -1,0 -1,0 -1,1 -1,0 0,1 -1,1 -1,0 -1,1 0,1 -1,1 0,1 0,1 0,1 0,1 0,1 1,1 1,2 1,1 1,2 1,2 1,1 0,2 1,2 1,2 0,2 1,2 0,2 1,2 0,1 0,2 1,2 0,2 1,2 0,3 0,2 0,2 0,2 0,2 0,2 0,3 0,2 0,2 -1,2 0,2 0,2 0,2 1,2z" />
<path style="fill:#fff" d="M149,185 l-1,-1 1,1z" />
<path style="fill:#fff" d="M164,185 l1,0 0,-1 0,-1 -1,0 0,1 0,1z" />
<path style="fill:#fff" d="M157,184 l0,-1 1,0 0,-1 0,-1 -1,-1 0,1 0,1 0,1 0,1z" />
<path style="fill:#fff" d="M57,171 l1,-1 -1,-1 0,-1 0,3z" />

</svg>
