<?xml version="1.0" encoding="UTF-8" standalone="no"?>
<!-- Created with Inkscape (http://www.inkscape.org/) -->
<svg
   xmlns:dc="http://purl.org/dc/elements/1.1/"
   xmlns:cc="http://web.resource.org/cc/"
   xmlns:rdf="http://www.w3.org/1999/02/22-rdf-syntax-ns#"
   xmlns:svg="http://www.w3.org/2000/svg"
   xmlns="http://www.w3.org/2000/svg"
   xmlns:xlink="http://www.w3.org/1999/xlink"
   xmlns:sodipodi="http://sodipodi.sourceforge.net/DTD/sodipodi-0.dtd"
   xmlns:inkscape="http://www.inkscape.org/namespaces/inkscape"
   version="1.0"
   width="226"
   height="263"
   id="svg2226"
   sodipodi:version="0.32"
   inkscape:version="0.45.1"
   sodipodi:docname="cheap-lightning-bolt.svg"
   sodipodi:docbase="/home/whucks/Documents/ClipArt"
   inkscape:output_extension="org.inkscape.output.svg.inkscape">
  <metadata
     id="metadata6">
    <rdf:RDF>
      <cc:Work
         rdf:about="">
        <dc:format>image/svg+xml</dc:format>
        <dc:type
           rdf:resource="http://purl.org/dc/dcmitype/StillImage" />
      </cc:Work>
    </rdf:RDF>
  </metadata>
  <sodipodi:namedview
     inkscape:window-height="627"
     inkscape:window-width="808"
     inkscape:pageshadow="2"
     inkscape:pageopacity="0.0"
     guidetolerance="10.0"
     gridtolerance="10.0"
     objecttolerance="10.0"
     borderopacity="1.0"
     bordercolor="#666666"
     pagecolor="#ffffff"
     id="base"
     inkscape:zoom="1.5475285"
     inkscape:cx="113"
     inkscape:cy="131.5"
     inkscape:window-x="0"
     inkscape:window-y="0"
     inkscape:current-layer="svg2226" />
  <defs
     id="defs2229" />
  <image
     xlink:href="cheap-lightning-bolt.png"
     x="0"
     y="0"
     width="226"
     height="263"
     id="image2233" />
  <g
     id="g2158">
    <path
       style="fill:#fdfdfd"
       d="M 0,131.5 L 0,0 L 113,0 L 226,0 L 226,131.5 L 226,263 L 113,263 L 0,263 L 0,131.5 z "
       id="path2174" />
    <path
       style="fill:#f9eb0b"
       d="M 217.1749,260.49371 C 215.53669,259.11525 213.58631,258.22152 212.84072,258.50763 C 212.09512,258.79374 207.66345,256.10726 202.99255,252.53767 C 190.49057,242.98342 173.35906,231.57526 164.7227,227.05313 C 153.87989,221.37566 144.49667,214.96484 132.44458,205 C 125.06593,198.89923 117.80916,193.30413 107,185.38178 C 101.225,181.14912 94.078067,175.4855 91.117927,172.79596 C 88.157788,170.10642 83.882788,166.9695 81.617927,165.82502 C 79.353067,164.68054 74.83099,161.74896 71.568867,159.3104 C 65.998985,155.14669 59.504365,151.02421 46.153119,143.17765 C 35.832012,137.11191 34.347423,134.60617 37.706063,128.92045 C 39.782962,125.40454 43.325442,123.65236 52.5,121.60309 C 63.589682,119.12605 79.42543,114.81228 80.289463,114.03305 C 80.723668,113.64146 77.573668,109.48632 73.289463,104.7994 C 65.412082,96.181547 53.39315,80.350779 46.624935,69.678149 C 41.692502,61.900318 36.490593,55.406744 28.663701,47.257034 C 21.730486,40.037861 18.559882,36.042844 9.9483396,23.675349 C 0.76895681,10.492349 -0.64107526,7.5663772 0.84619298,4.787391 C 3.1086864,0.55988335 5.4965164,-0.24862208 9.3414482,1.9109468 C 12.951978,3.93886 13.975975,4.4753095 21,8.0186045 C 23.475,9.2671273 26.932475,11.348701 28.683278,12.644323 C 30.434081,13.939945 32.291481,15 32.810833,15 C 33.330186,15 34.307562,15.665663 34.98278,16.479251 C 35.657998,17.292839 37.441197,18.57248 38.945444,19.322898 C 44.316689,22.002427 71.788893,46.840342 91.476736,66.817003 C 105.9089,81.460888 115.16239,89.889068 124.61602,97.000646 C 131.82982,102.4273 137.95976,107.7381 138.23808,108.80244 C 138.51641,109.86677 141.93875,112.80417 145.84328,115.33 C 153.18339,120.07829 154.46534,122.05292 153.82808,127.62917 C 153.28169,132.4103 148.3424,134.07729 133.26222,134.57008 C 117.38826,135.08881 110,135.8761 110,137.0489 C 110,137.54665 111.12473,138.69085 112.4994,139.59157 C 113.87407,140.49229 117.00868,144.21516 119.46519,147.86462 C 128.99461,162.02181 144.19854,178.82648 154.46178,186.54582 C 163.33296,193.21815 165.66102,195.13405 173.89602,202.5394 C 176.97821,205.31106 181.975,209.46115 185,211.76181 C 191.60993,216.78898 198.18815,223.35622 204.89429,231.62288 C 207.62617,234.99047 210.90504,238.60169 212.18067,239.64781 C 215.34178,242.24017 220.12498,248.5164 223.33624,254.28548 C 226.47663,259.92724 226.40411,259.45303 224.42857,261.42857 C 222.24732,263.60982 220.63055,263.40145 217.1749,260.49371 z "
       id="path2172" />
    <path
       style="fill:#9e9e9e"
       d="M 217.1749,260.49371 C 215.53669,259.11525 213.58631,258.22152 212.84072,258.50763 C 212.09512,258.79374 207.66345,256.10726 202.99255,252.53767 C 190.49057,242.98342 173.35906,231.57526 164.7227,227.05313 C 153.87989,221.37566 144.49667,214.96484 132.44458,205 C 125.06593,198.89923 117.80916,193.30413 107,185.38178 C 101.225,181.14912 94.078067,175.4855 91.117927,172.79596 C 88.157788,170.10642 83.882788,166.9695 81.617927,165.82502 C 79.353067,164.68054 74.83099,161.74896 71.568867,159.3104 C 65.998985,155.14669 59.504365,151.02421 46.153119,143.17765 C 35.832012,137.11191 34.347423,134.60617 37.706063,128.92045 C 39.782962,125.40454 43.325442,123.65236 52.5,121.60309 C 63.589682,119.12605 79.42543,114.81228 80.289463,114.03305 C 80.723668,113.64146 77.573668,109.48632 73.289463,104.7994 C 65.412082,96.181547 53.39315,80.350779 46.624935,69.678149 C 41.692502,61.900318 36.490593,55.406744 28.663701,47.257034 C 21.730486,40.037861 18.559882,36.042844 9.9483396,23.675349 C 0.76895681,10.492349 -0.64107526,7.5663772 0.84619298,4.787391 C 3.1086864,0.55988335 5.4965164,-0.24862208 9.3414482,1.9109468 C 12.951978,3.93886 13.975975,4.4753095 21,8.0186045 C 23.475,9.2671273 26.932475,11.348701 28.683278,12.644323 C 30.434081,13.939945 32.291481,15 32.810833,15 C 33.330186,15 34.307562,15.665663 34.98278,16.479251 C 35.657998,17.292839 37.441197,18.57248 38.945444,19.322898 C 44.316689,22.002427 71.788893,46.840342 91.476736,66.817003 C 105.9089,81.460888 115.16239,89.889068 124.61602,97.000646 C 131.82982,102.4273 137.95976,107.7381 138.23808,108.80244 C 138.51641,109.86677 141.93875,112.80417 145.84328,115.33 C 153.18339,120.07829 154.46534,122.05292 153.82808,127.62917 C 153.28169,132.4103 148.3424,134.07729 133.26222,134.57008 C 117.38826,135.08881 110,135.8761 110,137.0489 C 110,137.54665 111.12473,138.69085 112.4994,139.59157 C 113.87407,140.49229 117.00868,144.21516 119.46519,147.86462 C 128.99461,162.02181 144.19854,178.82648 154.46178,186.54582 C 163.33296,193.21815 165.66102,195.13405 173.89602,202.5394 C 176.97821,205.31106 181.975,209.46115 185,211.76181 C 191.60993,216.78898 198.18815,223.35622 204.89429,231.62288 C 207.62617,234.99047 210.90504,238.60169 212.18067,239.64781 C 215.34178,242.24017 220.12498,248.5164 223.33624,254.28548 C 226.47663,259.92724 226.40411,259.45303 224.42857,261.42857 C 222.24732,263.60982 220.63055,263.40145 217.1749,260.49371 z M 195.90674,234.68063 C 194.58303,233.39406 192.75801,231.47709 191.85113,230.4207 C 190.94425,229.36432 189.11433,227.59511 187.78464,226.48913 C 186.45495,225.38315 184.94694,223.77341 184.43351,222.91194 C 183.92008,222.05047 179.79079,218.53378 175.2573,215.09707 C 170.72382,211.66036 166.67382,208.3201 166.2573,207.67426 C 165.84079,207.02842 162.125,203.94015 158,200.81145 C 151.63924,195.98699 142.90602,188.66205 134.5,181.10094 C 130.53476,177.53427 119.97786,165.09084 114.79193,157.87104 C 106.31703,146.07236 103.71119,143.03731 100.135,140.79996 C 96.912582,138.78394 96.796557,138.50093 97.396864,134.12121 C 97.741643,131.60578 98.604183,128.96725 99.31362,128.25781 C 100.23175,127.33968 106.2087,126.78996 120.05175,126.35043 C 130.74829,126.01081 140.06529,125.43608 140.7562,125.07325 C 141.56198,124.65009 140.14043,123.17412 136.7915,120.95678 C 133.60143,118.84462 130.56421,115.74959 128.98334,113 C 127.27093,110.02163 124.10028,106.91559 119.60662,103.81435 C 110.02556,97.202105 101.08958,89.149323 81,69.023488 C 71.375,59.381116 61.866025,50.274148 59.868944,48.785783 C 57.871863,47.297417 52.978474,42.922074 48.994746,39.062799 C 45.011019,35.203523 39.073997,30.123099 35.801366,27.772967 C 32.528734,25.422835 28.270132,22.280291 26.337807,20.789535 C 22.543103,17.861987 19.202601,16.464066 18.258239,17.408428 C 17.027864,18.638803 26.877936,31.413704 41.074787,47 C 43.830122,50.025 49.659091,57.675 54.02805,64 C 58.397009,70.325 64.295509,78.842222 67.135827,82.927161 C 69.976145,87.012099 76.732532,94.968283 82.150021,100.60757 C 87.567509,106.24685 92,111.49635 92,112.27312 C 92,113.04989 90.952788,115.66871 89.672861,118.09272 L 87.345723,122.5 L 73.922861,125.73468 C 56.121609,130.02447 49,132.14093 49,133.14148 C 49,133.59514 51.1375,135.11622 53.75,136.52167 C 56.3625,137.92712 59.936071,140.0722 61.69127,141.28852 C 63.446468,142.50483 66.784496,144.625 69.10911,146 C 71.433723,147.375 75.245365,150.075 77.579426,152 C 79.913487,153.925 84.641514,157.075 88.086152,159 C 91.530791,160.925 95.958077,164.01941 97.924566,165.87647 C 99.891055,167.73352 105.1,171.95243 109.5,175.25181 C 113.9,178.55119 118.175,181.98219 119,182.87626 C 119.825,183.77032 122.525,186.06612 125,187.97803 C 127.475,189.88993 132.49073,193.93952 136.14606,196.97711 C 148.17104,206.96989 150.48715,208.69772 154.82107,210.90872 C 157.17909,212.11169 161.18852,214.68374 163.7309,216.62439 C 166.27328,218.56503 171.46856,221.7216 175.27596,223.63897 C 181.58721,226.81727 188.62169,231.30809 194.90266,236.16868 C 198.15867,238.68838 198.89992,237.58985 195.90674,234.68063 z "
       id="path2170" />
    <path
       style="fill:#a09928"
       d="M 217.44761,259.56038 C 216.39455,257.95321 214.84731,257 213.29162,257 C 211.78563,257 207.2207,254.31117 201.65663,250.14678 C 196.62048,246.37751 190.89062,242.21501 188.9236,240.89678 C 175.97405,232.21844 170.52149,228.7893 163,224.59329 C 150.39142,217.55934 144.99879,214.00818 138.52982,208.47916 C 135.32571,205.74062 130.3241,201.7 127.41513,199.5 C 124.50615,197.3 116.81021,191.48684 110.31304,186.58186 C 103.81587,181.67688 96.025,175.45974 93,172.76599 C 89.975,170.07224 84.755932,166.2104 81.402071,164.18413 C 74.283561,159.8834 57.616455,148.93448 54,146.1832 C 52.625,145.13715 49.488807,143.2585 47.030681,142.00843 C 36.799768,136.80554 35.243754,134.27516 39.016827,128.97637 C 41.161064,125.96506 43.721635,124.86306 54.040373,122.5106 C 70.499656,118.75823 81.503064,115.34187 81.781213,113.89755 C 81.940104,113.0725 79.081747,109.27053 75.429309,105.44873 C 67.158088,96.793975 59.903293,87.284007 47.457084,68.781261 C 43.861467,63.435955 36.54734,54.210955 31.20347,48.281261 C 21.6501,37.680601 15.056908,29.420468 11.423206,23.5 C 10.410514,21.85 7.6510097,17.996994 5.290974,14.937765 C 0.63602098,8.9037171 -0.087551782,5.294196 2.8287407,2.6549876 C 5.0800056,0.61762081 6.8539646,0.55786466 8.9436518,2.4490056 C 9.8242751,3.2459587 13.92107,5.6658859 18.047641,7.8266216 C 22.174211,9.9873574 27.156008,12.822805 29.1183,14.127616 C 31.080591,15.432427 34.634278,17.625 37.015382,19 C 39.396485,20.375 44.079612,23.984457 47.42233,27.021016 C 50.765049,30.057576 57.325,35.871237 62,39.940264 C 66.675,44.009291 79.762506,56.658057 91.083347,68.048633 C 102.40419,79.439208 114.32919,90.734654 117.58335,93.149624 C 130.85522,102.99892 136.26337,107.60863 137.61636,110.22501 C 138.40003,111.74046 140.77185,113.86328 142.88708,114.94239 C 150.17543,118.66063 153,121.76406 153,126.05371 C 153,131.77511 151.39032,132.26447 129.7556,133.12023 C 119.44618,133.52802 110.08053,134.15705 108.94305,134.51808 C 107.04264,135.12124 107.2704,135.5932 111.75142,140.33724 C 114.4335,143.17676 118.21639,147.975 120.15783,151 C 122.09928,154.025 126.51306,159.65 129.96623,163.5 C 133.4194,167.35 138.77716,173.33645 141.87236,176.80322 C 144.96756,180.26999 149.075,184.07251 151,185.25326 C 155.11643,187.77818 169.07096,199.16577 173.44819,203.5721 C 175.12669,205.26175 179.425,208.85762 183,211.56292 C 190.056,216.90238 197.95165,224.51095 202.15398,230.02047 C 203.61367,231.93421 207.47067,236.21317 210.72509,239.52928 C 217.61762,246.55243 225.22715,257.57018 224.78774,259.8904 C 224.61759,260.78881 223.29928,261.63714 221.80406,261.81038 C 219.83109,262.03898 218.68319,261.44612 217.44761,259.56038 z M 208.5,247 C 208.16008,246.45 207.43197,246 206.88197,246 C 206.33197,246 206.16008,246.45 206.5,247 C 206.83992,247.55 207.56803,248 208.11803,248 C 208.66803,248 208.83992,247.55 208.5,247 z M 195.90674,234.68063 C 194.58303,233.39406 192.75801,231.47709 191.85113,230.4207 C 190.94425,229.36432 189.11433,227.59511 187.78464,226.48913 C 186.45495,225.38315 184.94694,223.77341 184.43351,222.91194 C 183.92008,222.05047 179.79079,218.53378 175.2573,215.09707 C 170.72382,211.66036 166.67382,208.3201 166.2573,207.67426 C 165.84079,207.02842 162.125,203.94015 158,200.81145 C 151.63924,195.98699 142.90602,188.66205 134.5,181.10094 C 130.53476,177.53427 119.97786,165.09084 114.79193,157.87104 C 106.31703,146.07236 103.71119,143.03731 100.135,140.79996 C 96.912582,138.78394 96.796557,138.50093 97.396864,134.12121 C 97.741643,131.60578 98.604183,128.96725 99.31362,128.25781 C 100.23175,127.33968 106.2087,126.78996 120.05175,126.35043 C 130.74829,126.01081 140.06529,125.43608 140.7562,125.07325 C 141.56198,124.65009 140.14043,123.17412 136.7915,120.95678 C 133.60143,118.84462 130.56421,115.74959 128.98334,113 C 127.27093,110.02163 124.10028,106.91559 119.60662,103.81435 C 110.02556,97.202105 101.08958,89.149323 81,69.023488 C 71.375,59.381116 61.866025,50.274148 59.868944,48.785783 C 57.871863,47.297417 52.978474,42.922074 48.994746,39.062799 C 45.011019,35.203523 39.073997,30.123099 35.801366,27.772967 C 32.528734,25.422835 28.270132,22.280291 26.337807,20.789535 C 22.543103,17.861987 19.202601,16.464066 18.258239,17.408428 C 17.027864,18.638803 26.877936,31.413704 41.074787,47 C 43.830122,50.025 49.659091,57.675 54.02805,64 C 58.397009,70.325 64.295509,78.842222 67.135827,82.927161 C 69.976145,87.012099 76.732532,94.968283 82.150021,100.60757 C 87.567509,106.24685 92,111.49635 92,112.27312 C 92,113.04989 90.952788,115.66871 89.672861,118.09272 L 87.345723,122.5 L 73.922861,125.73468 C 56.121609,130.02447 49,132.14093 49,133.14148 C 49,133.59514 51.1375,135.11622 53.75,136.52167 C 56.3625,137.92712 59.936071,140.0722 61.69127,141.28852 C 63.446468,142.50483 66.784496,144.625 69.10911,146 C 71.433723,147.375 75.245365,150.075 77.579426,152 C 79.913487,153.925 84.641514,157.075 88.086152,159 C 91.530791,160.925 95.958077,164.01941 97.924566,165.87647 C 99.891055,167.73352 105.1,171.95243 109.5,175.25181 C 113.9,178.55119 118.175,181.98219 119,182.87626 C 119.825,183.77032 122.525,186.06612 125,187.97803 C 127.475,189.88993 132.49073,193.93952 136.14606,196.97711 C 148.17104,206.96989 150.48715,208.69772 154.82107,210.90872 C 157.17909,212.11169 161.18852,214.68374 163.7309,216.62439 C 166.27328,218.56503 171.46856,221.7216 175.27596,223.63897 C 181.58721,226.81727 188.62169,231.30809 194.90266,236.16868 C 198.15867,238.68838 198.89992,237.58985 195.90674,234.68063 z "
       id="path2168" />
    <path
       style="fill:#827d25"
       d="M 217.44761,259.56038 C 216.39455,257.95321 214.84731,257 213.29162,257 C 211.78563,257 207.2207,254.31117 201.65663,250.14678 C 196.62048,246.37751 190.89062,242.21501 188.9236,240.89678 C 175.97405,232.21844 170.52149,228.7893 163,224.59329 C 150.39142,217.55934 144.99879,214.00818 138.52982,208.47916 C 135.32571,205.74062 130.3241,201.7 127.41513,199.5 C 124.50615,197.3 116.81021,191.48684 110.31304,186.58186 C 103.81587,181.67688 96.025,175.45974 93,172.76599 C 89.975,170.07224 84.755932,166.2104 81.402071,164.18413 C 74.283561,159.8834 57.616455,148.93448 54,146.1832 C 52.625,145.13715 49.488807,143.2585 47.030681,142.00843 C 36.799768,136.80554 35.243754,134.27516 39.016827,128.97637 C 41.161064,125.96506 43.721635,124.86306 54.040373,122.5106 C 70.499656,118.75823 81.503064,115.34187 81.781213,113.89755 C 81.940104,113.0725 79.081747,109.27053 75.429309,105.44873 C 67.158088,96.793975 59.903293,87.284007 47.457084,68.781261 C 43.861467,63.435955 36.54734,54.210955 31.20347,48.281261 C 21.6501,37.680601 15.056908,29.420468 11.423206,23.5 C 10.410514,21.85 7.6510097,17.996994 5.290974,14.937765 C 0.63602098,8.9037171 -0.087551782,5.294196 2.8287407,2.6549876 C 5.0800056,0.61762081 6.8539646,0.55786466 8.9436518,2.4490056 C 9.8242751,3.2459587 13.92107,5.6658859 18.047641,7.8266216 C 22.174211,9.9873574 27.156008,12.822805 29.1183,14.127616 C 31.080591,15.432427 34.634278,17.625 37.015382,19 C 39.396485,20.375 44.079612,23.984457 47.42233,27.021016 C 50.765049,30.057576 57.325,35.871237 62,39.940264 C 66.675,44.009291 79.762506,56.658057 91.083347,68.048633 C 102.40419,79.439208 114.32919,90.734654 117.58335,93.149624 C 130.85522,102.99892 136.26337,107.60863 137.61636,110.22501 C 138.40003,111.74046 140.77185,113.86328 142.88708,114.94239 C 150.17543,118.66063 153,121.76406 153,126.05371 C 153,131.77511 151.39032,132.26447 129.7556,133.12023 C 119.44618,133.52802 110.08053,134.15705 108.94305,134.51808 C 107.04264,135.12124 107.2704,135.5932 111.75142,140.33724 C 114.4335,143.17676 118.21639,147.975 120.15783,151 C 122.09928,154.025 126.51306,159.65 129.96623,163.5 C 133.4194,167.35 138.77716,173.33645 141.87236,176.80322 C 144.96756,180.26999 149.075,184.07251 151,185.25326 C 155.11643,187.77818 169.07096,199.16577 173.44819,203.5721 C 175.12669,205.26175 179.425,208.85762 183,211.56292 C 190.056,216.90238 197.95165,224.51095 202.15398,230.02047 C 203.61367,231.93421 207.47067,236.21317 210.72509,239.52928 C 217.61762,246.55243 225.22715,257.57018 224.78774,259.8904 C 224.61759,260.78881 223.29928,261.63714 221.80406,261.81038 C 219.83109,262.03898 218.68319,261.44612 217.44761,259.56038 z M 208.5,247 C 208.16008,246.45 207.43197,246 206.88197,246 C 206.33197,246 206.16008,246.45 206.5,247 C 206.83992,247.55 207.56803,248 208.11803,248 C 208.66803,248 208.83992,247.55 208.5,247 z M 203.12705,242.25 C 202.05483,240.26084 194.5408,231.73748 187.80866,224.87394 C 185.31304,222.32961 179.64408,217.4814 175.21098,214.10014 C 170.77788,210.71888 167.00437,207.53535 166.8254,207.02562 C 166.64643,206.5159 163.125,203.55972 159,200.45634 C 150.11973,193.77539 132,178.07836 132,177.06637 C 132,176.67666 130.0875,174.35015 127.75,171.89636 C 121.89104,165.74591 115.96732,158.43942 112.02444,152.5 C 110.19885,149.75 106.22961,145.1516 103.2039,142.28132 L 97.70262,137.06265 L 98.601553,132.78132 L 99.500486,128.5 L 106.50024,127.87421 C 110.35011,127.53003 118.73125,127.19253 125.125,127.12421 C 138.34679,126.98294 143,126.29885 143,124.49632 C 143,123.8068 141.66131,122.68814 140.02512,122.01041 C 137.17055,120.828 131.47942,115.10275 127.71191,109.62335 C 126.72846,108.19304 123.12846,105.14025 119.71191,102.83936 C 110.73381,96.793036 100.34691,87.419052 83.93416,70.550616 C 75.995372,62.391413 65.07519,51.842168 59.667088,47.107851 C 54.258987,42.373533 46.833987,35.869992 43.167088,32.655538 C 32.383211,23.202242 20.442364,15.564799 17.398967,16.174081 C 14.978881,16.658577 24.007987,29.652628 35.836316,42.707812 C 41.151342,48.574122 48.972956,58.352219 53.21768,64.436915 C 57.462404,70.521612 63.150004,78.66823 65.856792,82.540511 C 68.56358,86.412792 75.322641,94.512792 80.876928,100.54051 C 86.431215,106.56823 90.981115,111.92042 90.987816,112.43428 C 90.994517,112.94813 90.05903,115.31234 88.908955,117.68807 C 87.421474,120.7608 86.050422,122.1686 84.158955,122.56538 C 71.700783,125.17882 47.586368,131.70925 47.312916,132.54366 C 47.124802,133.11768 48.889941,134.59093 51.235446,135.81755 C 53.580951,137.04417 56.936071,139.04952 58.69127,140.27389 C 60.446468,141.49825 63.782326,143.625 66.104287,145 C 68.426248,146.375 72.471212,149.17309 75.093096,151.21798 C 77.71498,153.26288 82.929123,156.79491 86.680079,159.06694 C 90.431036,161.33898 95.3,164.88727 97.5,166.95203 C 99.7,169.01679 105.24668,173.58476 109.82595,177.10307 C 119.96645,184.89415 128.62155,191.7741 137.10464,198.78696 C 148.43634,208.15474 150.43821,209.65967 154,211.48829 C 155.925,212.47658 160.2,215.19296 163.5,217.52469 C 166.8,219.85641 172.36158,223.1985 175.85906,224.95154 C 182.81336,228.43725 189.59505,232.97692 197.84167,239.66674 C 203.74184,244.45307 204.51946,244.83313 203.12705,242.25 z "
       id="path2166" />
    <path
       style="fill:#5c5c5c"
       d="M 217.44761,259.56038 C 216.39455,257.95321 214.84731,257 213.29162,257 C 211.78563,257 207.2207,254.31117 201.65663,250.14678 C 196.62048,246.37751 190.89062,242.21501 188.9236,240.89678 C 175.97405,232.21844 170.52149,228.7893 163,224.59329 C 150.39142,217.55934 144.99879,214.00818 138.52982,208.47916 C 135.32571,205.74062 130.3241,201.7 127.41513,199.5 C 124.50615,197.3 116.81021,191.48684 110.31304,186.58186 C 103.81587,181.67688 96.025,175.45974 93,172.76599 C 89.975,170.07224 84.755932,166.2104 81.402071,164.18413 C 74.283561,159.8834 57.616455,148.93448 54,146.1832 C 52.625,145.13715 49.488807,143.2585 47.030681,142.00843 C 36.799768,136.80554 35.243754,134.27516 39.016827,128.97637 C 41.161064,125.96506 43.721635,124.86306 54.040373,122.5106 C 70.499656,118.75823 81.503064,115.34187 81.781213,113.89755 C 81.940104,113.0725 79.081747,109.27053 75.429309,105.44873 C 67.158088,96.793975 59.903293,87.284007 47.457084,68.781261 C 43.861467,63.435955 36.54734,54.210955 31.20347,48.281261 C 21.6501,37.680601 15.056908,29.420468 11.423206,23.5 C 10.410514,21.85 7.6510097,17.996994 5.290974,14.937765 C 0.63602098,8.9037171 -0.087551782,5.294196 2.8287407,2.6549876 C 5.0800056,0.61762081 6.8539646,0.55786466 8.9436518,2.4490056 C 9.8242751,3.2459587 13.92107,5.6658859 18.047641,7.8266216 C 22.174211,9.9873574 27.156008,12.822805 29.1183,14.127616 C 31.080591,15.432427 34.634278,17.625 37.015382,19 C 39.396485,20.375 44.079612,23.984457 47.42233,27.021016 C 50.765049,30.057576 57.325,35.871237 62,39.940264 C 66.675,44.009291 79.762506,56.658057 91.083347,68.048633 C 102.40419,79.439208 114.32919,90.734654 117.58335,93.149624 C 130.85522,102.99892 136.26337,107.60863 137.61636,110.22501 C 138.40003,111.74046 140.77185,113.86328 142.88708,114.94239 C 150.17543,118.66063 153,121.76406 153,126.05371 C 153,131.77511 151.39032,132.26447 129.7556,133.12023 C 119.44618,133.52802 110.08053,134.15705 108.94305,134.51808 C 107.04264,135.12124 107.2704,135.5932 111.75142,140.33724 C 114.4335,143.17676 118.21639,147.975 120.15783,151 C 122.09928,154.025 126.51306,159.65 129.96623,163.5 C 133.4194,167.35 138.77716,173.33645 141.87236,176.80322 C 144.96756,180.26999 149.075,184.07251 151,185.25326 C 155.11643,187.77818 169.07096,199.16577 173.44819,203.5721 C 175.12669,205.26175 179.425,208.85762 183,211.56292 C 190.056,216.90238 197.95165,224.51095 202.15398,230.02047 C 203.61367,231.93421 207.47067,236.21317 210.72509,239.52928 C 217.61762,246.55243 225.22715,257.57018 224.78774,259.8904 C 224.61759,260.78881 223.29928,261.63714 221.80406,261.81038 C 219.83109,262.03898 218.68319,261.44612 217.44761,259.56038 z M 208.5,247 C 208.16008,246.45 207.43197,246 206.88197,246 C 206.33197,246 206.16008,246.45 206.5,247 C 206.83992,247.55 207.56803,248 208.11803,248 C 208.66803,248 208.83992,247.55 208.5,247 z M 202.62464,241.25 C 200.57357,237.29657 179.32142,215.88165 174.01679,212.42304 C 171.55103,210.81537 168.62603,208.49031 167.51679,207.25624 C 166.40756,206.02217 162.08851,202.42217 157.9189,199.25624 C 147.06378,191.01407 134.9814,180.43794 131.54479,176.17004 C 129.91943,174.15152 126.31943,170.00464 123.54479,166.95475 C 120.77016,163.90486 116.28822,158.13714 113.58493,154.13761 C 110.88164,150.13807 106.2388,144.69896 103.26751,142.05069 C 98.157508,137.49622 97.901531,137.04181 98.537189,133.65346 C 98.906803,131.68325 99.775579,129.60122 100.4678,129.02672 C 101.18732,128.42958 110.32776,127.70462 121.80812,127.33415 C 132.85307,126.97773 142.42229,126.35705 143.07304,125.95486 C 144.77042,124.90582 143.42787,123.25893 139.05794,121.02956 C 135.07005,118.99509 131.65158,115.36627 128.81223,110.15341 C 127.88395,108.44916 124.67011,105.48475 121.67036,103.56583 C 113.02211,98.033609 100.90747,87.19799 81.225287,67.390788 C 71.174195,57.275855 62.594514,49 62.15933,49 C 61.724145,49 57.572765,45.361283 52.934042,40.913962 C 45.532913,33.818218 38.595449,28.046337 31.402504,23 C 23.193207,17.240623 21.191788,16.046726 18.75,15.45246 C 16.678197,14.948239 16,15.151742 16,16.277639 C 16,19.521004 26.777227,33.678527 39.514006,47.166854 C 41.93776,49.733624 46.911925,56.258624 50.567707,61.666854 C 54.223489,67.075084 58.648911,73.3 60.401979,75.5 C 62.155048,77.7 65.686827,82.477695 68.250378,86.117099 C 70.813929,89.756504 76.354628,96.281504 80.563043,100.6171 C 91.677298,112.06723 91.630158,111.97201 88.748677,117.15246 C 87.049633,120.20707 85.514383,121.63672 83.430087,122.10523 C 65.100706,126.22527 47.768118,130.87597 46.643098,131.97596 C 46.171802,132.43678 47.071802,133.59573 48.643098,134.55141 C 50.214394,135.50709 53.75,137.72368 56.5,139.47716 C 59.25,141.23064 64.425,144.53005 68,146.80919 C 71.575,149.08833 75.740528,152.0311 77.256728,153.34867 C 78.772929,154.66625 83.013314,157.4893 86.679806,159.62213 C 90.346298,161.75496 95.63077,165.55393 98.423077,168.06429 C 101.21538,170.57465 107.1,175.42275 111.5,178.83784 C 115.9,182.25293 121.82172,186.949 124.65938,189.27355 C 143.61604,204.80242 150.99511,210.48803 154.97317,212.63046 C 157.46293,213.97134 161.3,216.41349 163.5,218.05746 C 165.7,219.70142 170.58216,222.63917 174.34925,224.5858 C 181.43115,228.24533 188.57115,232.93217 195.5,238.46957 C 198.99212,241.26041 202.92781,243.87607 203.77568,243.96959 C 203.9273,243.98632 203.40934,242.7625 202.62464,241.25 z "
       id="path2164" />
    <path
       style="fill:#5d5a23"
       d="M 217.79651,259.02747 C 216.58294,256.8707 215.34534,256 213.49328,256 C 211.87421,256 208.03322,253.83101 203.31082,250.25 C 190.96606,240.88894 174.58236,230.05474 163,223.59329 C 149.96945,216.32393 144.86797,212.92156 137.29527,206.44982 C 133.46616,203.17742 128.34578,199.04529 125.91663,197.26732 C 107.56275,183.8335 101.54084,179.20871 94.73721,173.32168 C 90.467675,169.62735 84.348607,165.00616 81.139281,163.05236 C 75.216778,159.44681 58.541892,148.51192 54.02789,145.27352 C 52.66823,144.29809 48.61823,141.89475 45.02789,139.93279 C 40.019699,137.19602 38.430766,135.78692 38.202603,133.87995 C 37.798885,130.50571 41.803197,126.37768 46.638773,125.18315 C 54.129146,123.3328 62.588724,121.17918 70.5,119.10861 C 74.9,117.95702 79.5125,116.77791 80.75,116.48835 C 84.487962,115.61374 83.363157,112.73114 76.432684,105.42413 C 67.953265,96.484011 60.710103,86.996807 48.457084,68.781261 C 44.861467,63.435955 37.54734,54.210955 32.20347,48.281261 C 22.143729,37.118719 16.866201,30.423637 10.698487,21 C 8.718642,17.975 5.7265461,14.009727 4.0493846,12.188282 C 0.50037041,8.3339517 0.2098458,5.7901542 3,3 C 5.5113756,0.48862437 6.7451675,0.48338667 8.8397074,2.9752092 C 9.7528683,4.0615743 13.993796,6.7627558 18.263991,8.9778348 C 22.534186,11.192914 28.207399,14.537127 30.87113,16.409419 C 33.534861,18.281712 37.548828,20.749505 39.791057,21.893405 C 42.033286,23.037305 44.460074,24.800501 45.183918,25.811618 C 45.907763,26.822735 51.45,31.865766 57.5,37.018352 C 63.55,42.170939 78.175,56.131133 90,68.041005 C 104.3349,82.478794 115.49913,92.727107 123.5,98.792672 C 130.1,103.79622 136.24831,109.23294 137.1629,110.87429 C 138.0775,112.51564 140.3275,114.61851 142.1629,115.54733 C 149.64538,119.33392 152,121.83682 152,126.00389 C 152,129.66118 151.76473,129.97133 148.25,130.94742 C 146.1875,131.5202 139.325,132.01112 133,132.03834 C 121.24596,132.08892 107.3609,133.30577 106.2873,134.37937 C 105.95817,134.7085 107.94077,137.35883 110.69307,140.26899 C 113.44538,143.17914 116.9513,147.57164 118.48401,150.03009 C 121.17849,154.35201 128.28907,163.28639 132.46664,167.59916 C 133.58499,168.7537 137.64662,173.18607 141.49249,177.44888 C 145.33837,181.71169 149.83813,185.89917 151.49197,186.75441 C 154.72659,188.42709 168.35807,199.52563 173.41199,204.60132 C 175.11039,206.30705 179.38,209.87279 182.9,212.52519 C 189.37951,217.40765 200,227.60926 200,228.95076 C 200,229.35264 203.64677,233.4175 208.10394,237.98379 C 212.5611,242.55007 217.74993,248.69675 219.63467,251.64306 C 221.5194,254.58938 223.52893,257 224.10028,257 C 224.67163,257 224.9953,258.0125 224.81955,259.25 C 224.29969,262.9104 219.90296,262.77108 217.79651,259.02747 z M 210.59993,248.83831 C 211.02825,248.14528 209.80235,246.46082 207.56119,244.6629 C 205.49501,243.00535 201.71098,239.37603 199.15225,236.59775 C 189.46375,226.07795 177.78572,214.88793 173.73659,212.2442 C 171.42494,210.73489 168.62603,208.49031 167.51679,207.25624 C 166.40756,206.02217 162.08851,202.42217 157.9189,199.25624 C 147.06378,191.01407 134.9814,180.43794 131.54479,176.17004 C 129.91943,174.15152 126.31943,170.00464 123.54479,166.95475 C 120.77016,163.90486 116.28822,158.13714 113.58493,154.13761 C 110.88164,150.13807 106.2388,144.69896 103.26751,142.05069 C 98.157508,137.49622 97.901531,137.04181 98.537189,133.65346 C 98.906803,131.68325 99.775579,129.60122 100.4678,129.02672 C 101.18732,128.42958 110.32776,127.70462 121.80812,127.33415 C 132.85307,126.97773 142.42229,126.35705 143.07304,125.95486 C 144.77042,124.90582 143.42787,123.25893 139.05794,121.02956 C 135.07005,118.99509 131.65158,115.36627 128.81223,110.15341 C 127.88395,108.44916 124.67011,105.48475 121.67036,103.56583 C 113.02211,98.033609 100.90747,87.19799 81.225287,67.390788 C 71.174195,57.275855 62.593496,49 62.157066,49 C 61.720636,49 57.344257,45.161564 52.431779,40.470143 C 47.5193,35.778722 40.879003,30.041222 37.675563,27.720143 C 34.472123,25.399064 30.197123,22.20498 28.175563,20.622178 C 24.199923,17.509407 18.993909,15 16.511795,15 C 15.177066,15 15.231124,15.525898 16.897264,18.75 C 20.080959,24.910683 32.803545,40.836545 40.627346,48.454811 C 42.347386,50.129665 46.783167,56 50.484637,61.5 C 54.186107,67 58.648911,73.3 60.401979,75.5 C 62.155048,77.7 65.686827,82.477695 68.250378,86.117099 C 70.813929,89.756504 76.354628,96.281504 80.563043,100.6171 C 91.677298,112.06723 91.630158,111.97201 88.748677,117.15246 C 87.049633,120.20707 85.514383,121.63672 83.430087,122.10523 C 65.100706,126.22527 47.768118,130.87597 46.643098,131.97596 C 46.171802,132.43678 47.071802,133.59573 48.643098,134.55141 C 50.214394,135.50709 53.75,137.72368 56.5,139.47716 C 59.25,141.23064 64.425,144.53005 68,146.80919 C 71.575,149.08833 75.740528,152.0311 77.256728,153.34867 C 78.772929,154.66625 83.013314,157.4893 86.679806,159.62213 C 90.346298,161.75496 95.63077,165.55393 98.423077,168.06429 C 101.21538,170.57465 107.1,175.42275 111.5,178.83784 C 115.9,182.25293 121.82172,186.949 124.65938,189.27355 C 143.61604,204.80242 150.99511,210.48803 154.97317,212.63046 C 157.46293,213.97134 161.3,216.41349 163.5,218.05746 C 165.7,219.70142 170.58216,222.63917 174.34925,224.5858 C 184.42323,229.79147 194.78682,237.23979 204.47547,246.23753 C 208.85453,250.30431 209.5194,250.58665 210.59993,248.83831 z "
       id="path2162" />
    <path
       style="fill:#100f0c"
       d="M 217.79651,259.02747 C 216.60536,256.91054 215.33598,256 213.57594,256 C 212.02302,256 207.94177,253.60597 202.92116,249.75 C 198.44543,246.3125 193.06814,242.375 190.97164,241 C 188.87514,239.625 183.99876,236.3445 180.13525,233.71 C 176.27174,231.07549 169.24381,226.89707 164.51763,224.4246 C 159.79145,221.95214 153.95225,218.48264 151.54163,216.71461 C 143.1219,210.53928 134.45392,203.85956 128.5,198.95825 C 125.2,196.24166 119.8,192.13731 116.5,189.83746 C 106.66718,182.98472 98.863691,176.92661 92.5,171.20543 C 89.2,168.23862 84.298899,164.68889 81.608664,163.31715 C 78.918429,161.9454 74.604287,159.17538 72.021681,157.16153 C 69.439075,155.14769 65.426248,152.375 63.104287,151 C 60.782326,149.625 57.446468,147.5043 55.69127,146.28734 C 53.936071,145.07037 50.025,142.75708 47,141.14668 C 40.25754,137.55725 37.610153,134.80366 38.427054,132.22983 C 39.647992,128.383 43.599848,126.00095 52.068633,124.00715 C 69.285006,119.95392 82.0457,116.3543 83.164596,115.2354 C 84.299932,114.10007 83.478806,113.02115 70.047368,98 C 64.728052,92.051103 54.222936,77.824073 50.110802,71 C 45.214225,62.874146 40.162531,56.393928 32.636562,48.584376 C 25.155188,40.8211 17.254087,30.999289 12.454032,23.495595 C 7.0468223,15.042765 2.3063987,9.0269346 1.6053054,9.7280279 C 1.2723874,10.060946 1,8.8333333 1,7 C 1,5.1666667 1.27295,3.9396166 1.6065555,4.2732222 C 2.3989298,5.0655965 4.9279278,2.7276954 4.3360225,1.75 C 4.0862914,1.3375 4.8835237,1 6.1076497,1 C 7.3317757,1 8.0420576,1.2912758 7.6860539,1.6472794 C 6.9626855,2.3706478 13.89277,7.9286077 15.572418,7.97218 C 17.233236,8.0152639 27.632003,13.851664 29.013252,15.515968 C 29.690653,16.332186 30.61723,17 31.072313,17 C 35.209481,17 64.909818,42.864691 89.989409,68.308256 C 104.26738,82.793435 114.14648,91.850016 122.5,98.112046 C 129.1,103.05959 135.20393,108.32087 136.06429,109.80379 C 136.92466,111.28671 140.49212,114.38632 143.99198,116.69182 C 151.12885,121.39316 152.26537,122.8583 151.81396,126.7755 C 151.37512,130.5837 146.93744,131.87262 134,131.94955 C 117.10675,132.05 106.90305,133.08906 106.2562,134.77475 C 105.90817,135.68168 107.40078,137.81122 110.17761,140.36952 C 112.64343,142.64128 115.95892,146.525 117.54535,149 C 124.67722,160.12643 143.55005,181.20876 151.29952,186.70589 C 157.1265,190.83929 162.17596,195.00214 172.36423,204.07199 C 175.1889,206.58658 180.29244,210.75995 183.70542,213.34613 C 187.11841,215.93232 192.74341,221.24926 196.20542,225.16156 C 199.66744,229.07385 205.875,235.94296 210,240.42624 C 214.125,244.90953 218.8141,250.67691 220.42022,253.24265 C 222.02634,255.80839 223.75168,257.65347 224.25432,257.34282 C 224.75695,257.03218 225.01785,257.84046 224.8341,259.13901 C 224.30096,262.90657 219.94031,262.83746 217.79651,259.02747 z M 211,248.83801 C 211,248.19891 208.78602,245.38641 206.08004,242.58801 C 200.89259,237.22336 186.97883,222.54672 184.66615,220 C 183.91696,219.175 180.89765,216.7 177.95657,214.5 C 175.01548,212.3 171.30921,209.25924 169.72041,207.74276 C 168.13161,206.22628 163.38205,202.40413 159.16584,199.24909 C 154.94963,196.09406 149.7,191.76914 147.5,189.63818 C 145.3,187.50722 141.76928,184.48447 139.65396,182.92097 C 133.97631,178.72443 126.07816,169.41051 109.82096,147.74033 C 107.44443,144.57251 103.99879,141.02439 102.16398,139.85561 C 99.104803,137.9069 98.883053,137.43055 99.491799,134.11528 C 99.856907,132.12688 100.48805,130.15506 100.89435,129.73347 C 101.30064,129.31187 110.37813,128.68424 121.06653,128.33873 C 131.75494,127.99322 141.5125,127.3368 142.75,126.88001 C 146.15253,125.62408 145.46747,123.62421 140.75,121.04153 C 135.75394,118.30633 131,114.11615 131,112.44777 C 131,110.25342 126.82942,105.95234 121.22587,102.36779 C 113.18413,97.223549 101.87275,87.074315 82.472546,67.596004 C 73.107446,58.193202 63.734766,49.212766 61.64437,47.639481 C 59.553973,46.066196 54.621971,41.651716 50.684366,37.829527 C 46.746761,34.007338 40.903788,28.994571 37.699981,26.690046 C 34.496175,24.385521 29.990531,21.096335 27.68744,19.380745 C 22.414059,15.452564 14,12.450201 14,14.496698 C 14,17.790063 28.985336,37.775217 39.161655,48.053474 C 41.175565,50.087558 45.853812,56.195151 49.55776,61.625904 C 53.261707,67.056657 57.722807,73.3 59.471315,75.5 C 61.219823,77.7 64.505675,82.25335 66.77321,85.618557 C 69.040744,88.983763 74.55333,95.508763 79.023401,100.11856 C 90.573008,112.02917 90.522393,111.93618 88.043874,116.69132 C 86.055822,120.50548 85.754655,120.66438 76.251858,122.9127 C 57.857271,127.26478 47.498511,130.28768 46,131.74081 C 44.299629,133.38969 43.851358,132.95402 52.5,138.05809 C 62.068179,143.70483 71.027785,149.51888 74.752092,152.49786 C 76.813442,154.14668 82.303779,157.88601 86.952842,160.80747 C 91.601905,163.72894 97.226905,167.7918 99.452842,169.83606 C 101.67878,171.88033 107.1,176.36409 111.5,179.8 C 115.9,183.2359 121.82172,187.949 124.65938,190.27355 C 143.61604,205.80242 150.99511,211.48803 154.97317,213.63046 C 157.46293,214.97134 161.3,217.40661 163.5,219.04216 C 165.7,220.67771 170.65,223.62647 174.5,225.59496 C 178.35,227.56345 182.175,229.74148 183,230.43502 C 183.825,231.12856 185.175,231.9465 186,232.25267 C 186.825,232.55883 192.17224,236.67723 197.88275,241.40466 C 207.77522,249.59413 211,251.42156 211,248.83801 z "
       id="path2160" />
  </g>
</svg>
