<?xml version="1.0" encoding="UTF-8" standalone="no"?>
<!-- Created with Inkscape (http://www.inkscape.org/) -->
<svg
   xmlns:dc="http://purl.org/dc/elements/1.1/"
   xmlns:cc="http://creativecommons.org/ns#"
   xmlns:rdf="http://www.w3.org/1999/02/22-rdf-syntax-ns#"
   xmlns:svg="http://www.w3.org/2000/svg"
   xmlns="http://www.w3.org/2000/svg"
   xmlns:xlink="http://www.w3.org/1999/xlink"
   xmlns:sodipodi="http://sodipodi.sourceforge.net/DTD/sodipodi-0.dtd"
   xmlns:inkscape="http://www.inkscape.org/namespaces/inkscape"
   width="744.09448819"
   height="1052.3622047"
   id="svg2"
   sodipodi:version="0.32"
   inkscape:version="0.46"
   sodipodi:docbase="C:\Documents and Settings\Roland\My Documents"
   sodipodi:docname="lightbulb-bw.svg"
   inkscape:output_extension="org.inkscape.output.svg.inkscape"
   sodipodi:modified="TRUE">
  <defs
     id="defs4">
    <inkscape:perspective
       sodipodi:type="inkscape:persp3d"
       inkscape:vp_x="0 : 526.18109 : 1"
       inkscape:vp_y="0 : 1000 : 0"
       inkscape:vp_z="744.09448 : 526.18109 : 1"
       inkscape:persp3d-origin="372.04724 : 350.78739 : 1"
       id="perspective2439" />
    <linearGradient
       inkscape:collect="always"
       id="linearGradient12464">
      <stop
         style="stop-color:#917c6f;stop-opacity:1;"
         offset="0"
         id="stop12466" />
      <stop
         style="stop-color:#917c6f;stop-opacity:0;"
         offset="1"
         id="stop12468" />
    </linearGradient>
    <linearGradient
       id="linearGradient12456">
      <stop
         style="stop-color:#ffffff;stop-opacity:1;"
         offset="0"
         id="stop12458" />
      <stop
         style="stop-color:#ffff00;stop-opacity:1;"
         offset="1"
         id="stop12460" />
    </linearGradient>
    <linearGradient
       id="linearGradient8509">
      <stop
         style="stop-color:#666666;stop-opacity:1;"
         offset="0"
         id="stop8511" />
      <stop
         style="stop-color:#666666;stop-opacity:0;"
         offset="1"
         id="stop8513" />
    </linearGradient>
    <linearGradient
       id="linearGradient6327">
      <stop
         style="stop-color:#0954d6;stop-opacity:1;"
         offset="0"
         id="stop6329" />
      <stop
         style="stop-color:#4848cb;stop-opacity:0"
         offset="1"
         id="stop6331" />
    </linearGradient>
    <linearGradient
       id="linearGradient6315">
      <stop
         id="stop6317"
         offset="0"
         style="stop-color:#fffaf7;stop-opacity:1;" />
      <stop
         id="stop6319"
         offset="1"
         style="stop-color:#e7ed15;stop-opacity:0;" />
    </linearGradient>
    <linearGradient
       id="linearGradient5338">
      <stop
         style="stop-color:#fffaf7;stop-opacity:1;"
         offset="0"
         id="stop5340" />
      <stop
         style="stop-color:#e7ed15;stop-opacity:0;"
         offset="1"
         id="stop5342" />
    </linearGradient>
    <linearGradient
       id="linearGradient3376">
      <stop
         style="stop-color:#ffff00;stop-opacity:1;"
         offset="0"
         id="stop3378" />
      <stop
         style="stop-color:#fcffff;stop-opacity:0.24705882;"
         offset="1"
         id="stop3386" />
    </linearGradient>
    <radialGradient
       inkscape:collect="always"
       xlink:href="#linearGradient5338"
       id="radialGradient11478"
       gradientUnits="userSpaceOnUse"
       gradientTransform="matrix(1,0,0,0.6753247,0,154.59161)"
       cx="1262.8374"
       cy="476.14212"
       fx="1262.8374"
       fy="476.14212"
       r="207.33151" />
    <linearGradient
       inkscape:collect="always"
       xlink:href="#linearGradient8509"
       id="linearGradient11484"
       gradientUnits="userSpaceOnUse"
       gradientTransform="matrix(1.0323773,0,0,1.0568404,-69.016603,12.571454)"
       x1="344.65497"
       y1="853.10852"
       x2="526.1405"
       y2="850.41589" />
    <radialGradient
       inkscape:collect="always"
       xlink:href="#linearGradient12456"
       id="radialGradient12462"
       cx="311.28458"
       cy="369.99646"
       fx="311.28458"
       fy="369.99646"
       r="303.10434"
       gradientTransform="matrix(2.7681041,-0.1391871,4.5630016e-2,0.9074736,-560.09642,46.856876)"
       gradientUnits="userSpaceOnUse" />
    <radialGradient
       inkscape:collect="always"
       xlink:href="#linearGradient12464"
       id="radialGradient12470"
       cx="311.28458"
       cy="369.99646"
       fx="311.28458"
       fy="369.99646"
       r="303.10434"
       gradientTransform="matrix(2.7681041,-0.1391871,4.5630016e-2,0.9074736,-560.09642,46.856876)"
       gradientUnits="userSpaceOnUse" />
    <linearGradient
       inkscape:collect="always"
       xlink:href="#linearGradient8509"
       id="linearGradient2445"
       gradientUnits="userSpaceOnUse"
       gradientTransform="matrix(1.0323773,0,0,1.0568404,-69.016603,12.571454)"
       x1="344.65497"
       y1="853.10852"
       x2="526.1405"
       y2="850.41589" />
    <radialGradient
       inkscape:collect="always"
       xlink:href="#linearGradient12456"
       id="radialGradient2448"
       gradientUnits="userSpaceOnUse"
       gradientTransform="matrix(2.7681041,-0.1391871,4.5630016e-2,0.9074736,-560.09642,46.856876)"
       cx="311.28458"
       cy="369.99646"
       fx="311.28458"
       fy="369.99646"
       r="303.10434" />
    <radialGradient
       inkscape:collect="always"
       xlink:href="#linearGradient12464"
       id="radialGradient2450"
       gradientUnits="userSpaceOnUse"
       gradientTransform="matrix(2.7681041,-0.1391871,4.5630016e-2,0.9074736,-560.09642,46.856876)"
       cx="311.28458"
       cy="369.99646"
       fx="311.28458"
       fy="369.99646"
       r="303.10434" />
    <radialGradient
       inkscape:collect="always"
       xlink:href="#linearGradient5338"
       id="radialGradient2452"
       gradientUnits="userSpaceOnUse"
       gradientTransform="matrix(1,0,0,0.6753247,0,154.59161)"
       cx="1262.8374"
       cy="476.14212"
       fx="1262.8374"
       fy="476.14212"
       r="207.33151" />
  </defs>
  <sodipodi:namedview
     id="base"
     pagecolor="#ffffff"
     bordercolor="#666666"
     borderopacity="1.0"
     gridtolerance="10000"
     guidetolerance="10"
     objecttolerance="10"
     inkscape:pageopacity="0.0"
     inkscape:pageshadow="2"
     inkscape:zoom="0.55787782"
     inkscape:cx="436.34417"
     inkscape:cy="519.72645"
     inkscape:document-units="px"
     inkscape:current-layer="layer1"
     inkscape:window-width="1280"
     inkscape:window-height="968"
     inkscape:window-x="0"
     inkscape:window-y="22"
     showgrid="false" />
  <metadata
     id="metadata7">
    <rdf:RDF>
      <cc:Work
         rdf:about="">
        <dc:format>image/svg+xml</dc:format>
        <dc:type
           rdf:resource="http://purl.org/dc/dcmitype/StillImage" />
      </cc:Work>
    </rdf:RDF>
  </metadata>
  <g
     inkscape:label="Layer 1"
     inkscape:groupmode="layer"
     id="layer1">
    <path
       style="fill:#000000"
       d="M 323.35289,994.13933 C 310.04199,991.36893 297.80979,982.24413 296.15109,973.84783 C 295.70199,971.57353 287.90959,963.75203 278.83479,956.46683 C 264.45405,944.92183 260.74235,943.02653 249.93274,941.70813 C 240.6815,940.57983 235.79722,938.60213 230.70935,933.92453 C 224.82088,928.51083 224.25844,927.01772 226.59512,923.00363 C 228.96732,918.92845 228.40457,917.70823 222.04141,913.12978 C 214.16468,907.46237 212.8643,901.065 218.25765,894.51597 C 221.15336,890.99971 221.10649,889.62297 217.89611,883.9154 C 214.94599,878.6703 214.76707,876.53104 217.0032,873.23909 C 219.32368,869.82296 218.97515,868.31516 214.95548,864.3815 C 209.64432,859.18375 208.76184,852.29367 212.56956,845.75257 C 214.33647,842.71722 214.20732,839.44376 212.11035,834.11211 C 209.48192,827.42939 209.71101,826.05032 214.42391,820.18982 C 219.24749,814.19151 219.37416,813.31655 216.05053,808.95392 C 209.74931,800.68308 211.49939,792.46182 221.40526,783.79816 L 230.36433,775.96274 L 231.84146,753.67123 C 232.65394,741.41093 232.28136,721.66123 231.01349,709.78308 C 228.54353,686.6425 215.49655,627.26857 212.14009,623.89451 C 211.02429,622.77288 210.11136,620.32069 210.11136,618.44522 C 210.11136,614.13131 204.83075,604.93225 189.14915,581.9278 C 182.3081,571.89225 170.76581,554.50441 163.49953,543.28822 C 156.23324,532.07204 145.39845,516.99361 139.42212,509.7806 C 128.13483,496.15757 115.60992,475.57813 106.24988,455.276 C 103.25609,448.78241 95.895971,433.38779 89.894141,421.06572 C 76.960931,394.51348 71.133781,374.17634 67.800961,343.95996 C 58.689191,261.34999 74.021131,200.42969 117.38097,146.95726 C 137.16183,122.56292 174.04134,89.472294 196.10211,76.323614 C 232.36013,54.713034 259.05472,45.365394 302.33899,39.122574 C 373.47039,28.86341 413.31619,29.542927 452.93859,41.690824 C 541.79629,68.933814 605.64199,104.94967 638.90779,146.59756 C 653.91419,165.38514 668.30319,205.14026 678.11109,254.91145 C 685.92369,294.55774 685.94959,319.58959 678.21669,357.05047 C 669.26599,400.41066 666.54169,408.23403 650.14159,437.67546 C 633.43959,467.65891 627.97229,474.60851 597.45359,504.64871 C 586.05869,515.8649 574.95149,527.45676 572.77089,530.40839 C 570.59029,533.36002 564.80059,540.01644 559.90489,545.20043 C 555.00909,550.38442 551.00349,555.42075 551.00349,556.39228 C 551.00349,557.3638 545.27119,569.20516 538.26519,582.70648 C 531.25929,596.20772 524.79569,610.00815 523.90189,613.37408 C 523.00809,616.74001 519.36749,626.2558 515.81179,634.5204 C 509.92859,648.19497 495.04559,698.22272 490.06499,721.06612 C 488.95369,726.16273 487.57129,731.03656 486.99309,731.89672 C 485.42229,734.2334 484.66689,785.69138 486.18279,787.08514 C 486.90199,787.7463 491.88619,787.19907 497.25869,785.86904 C 514.99939,781.47712 523.47529,791.9241 514.75289,807.43154 C 511.55969,813.10878 511.55979,814.42106 514.75439,820.10073 C 517.57539,825.11618 517.76309,827.55663 515.65489,831.81052 C 513.63319,835.89003 513.67989,838.7119 515.84899,843.52623 C 518.10799,848.54041 518.10099,850.90784 515.81519,854.83442 C 513.29139,859.17022 511.23409,870.09277 511.01679,880.31062 C 510.97919,882.08157 511.68639,887.58718 512.58849,892.54524 C 514.11949,900.96048 513.62699,902.14879 505.18119,910.41529 C 484.41109,930.74446 483.59429,931.30099 472.24529,932.85782 C 466.12119,933.69793 457.67759,935.70003 453.48169,937.30693 C 446.62809,939.93183 421.11309,960.01793 399.23639,980.01043 C 394.74169,984.11793 387.21449,988.94273 382.50899,990.73243 C 373.19269,994.27563 334.66779,996.49433 323.35289,994.13933 z M 403.51189,965.29043 C 410.74849,961.84993 433.02959,940.71693 431.19689,939.03193 C 430.53649,938.42483 403.11209,938.62803 370.25359,939.48373 C 322.38119,940.73033 310.51109,941.61723 310.51109,943.94803 C 310.51109,945.54763 311.67559,946.85653 313.09909,946.85653 C 314.73339,946.85653 315.11429,948.95473 314.13259,952.55073 C 312.62539,958.07173 312.74189,958.14703 317.96549,955.02543 C 333.82969,945.54523 333.92989,945.51763 337.29939,949.69233 C 340.23159,953.32523 340.95589,953.36323 347.54819,950.22903 C 351.44969,948.37413 356.27009,946.85653 358.26009,946.85653 C 364.08319,946.85653 362.42079,952.89813 355.70789,956.13173 C 351.46329,958.17633 350.42569,959.60893 352.38349,960.72133 C 354.07529,961.68263 358.99319,959.55803 364.50899,955.48273 C 374.90399,947.80253 382.63309,947.86623 378.13409,955.59503 C 374.12009,962.49053 376.47379,962.44333 386.86129,955.42023 C 394.56229,950.21333 396.82309,949.54963 398.92559,951.87873 C 400.90159,954.06783 400.13479,955.93543 395.67999,959.78313 C 391.34159,963.53023 390.60119,965.26143 392.79049,966.53913 C 396.58999,968.75673 396.10139,968.81363 403.51189,965.29043 z M 333.85989,958.53633 C 333.85989,958.01573 332.80919,957.58973 331.52489,957.58973 C 330.24079,957.58973 329.19009,958.61273 329.19009,959.86313 C 329.19009,961.11333 330.24079,961.53933 331.52489,960.80973 C 332.80919,960.07993 333.85989,959.05703 333.85989,958.53633 z M 290.47369,947.70013 C 296.10569,945.71313 294.87549,942.56323 288.46759,942.56323 C 282.10909,942.56323 278.51879,945.89313 283.06169,947.57693 C 284.67489,948.17493 286.17169,948.74043 286.38759,948.83363 C 286.60359,948.92683 288.44239,948.41683 290.47369,947.70013 z M 322.18539,933.01603 C 340.80609,932.34969 375.61849,931.35352 399.54629,930.80248 C 423.47419,930.25134 450.79229,928.72325 460.25319,927.40675 C 479.65929,924.7062 490.10559,920.06181 485.75849,916.06706 C 482.15049,912.75154 386.85739,913.5857 310.51109,917.60096 C 279.04859,919.25565 249.62911,920.47768 245.13445,920.31651 C 238.322,920.07227 236.83837,920.82643 236.21678,924.84993 C 235.31489,930.68792 246.21225,935.68693 252.29162,932.22404 C 254.58122,930.91979 257.40405,930.89221 259.84903,932.15016 C 262.32137,933.42228 265.38453,933.35475 268.20716,931.96585 C 271.55598,930.31813 273.40549,930.5964 275.65319,933.08642 C 277.36539,934.98313 280.71399,935.93513 283.48679,935.31343 C 286.15039,934.71613 303.56489,933.68233 322.18539,933.01603 z M 277.82279,909.29028 C 281.59049,905.1165 287.16229,905.14652 287.16229,909.34048 C 287.16229,912.10179 290.15999,912.42508 306.42509,911.41791 C 317.01949,910.76183 330.28399,909.77527 335.90159,909.2255 C 341.51909,908.67573 380.39479,907.62375 422.29199,906.88787 C 467.31959,906.09693 499.66209,904.67094 501.38729,903.40062 C 504.82429,900.86959 505.30409,889.71766 502.05529,887.87168 C 500.81739,887.16835 493.19989,888.1807 485.12739,890.12127 C 468.72079,894.06554 453.50509,894.31211 328.02269,892.66677 C 283.28369,892.08012 243.87991,892.49683 237.73747,893.62163 C 226.35004,895.70682 222.10924,900.18233 226.70105,905.26911 C 229.77877,908.67848 241.83756,909.23807 243.96704,906.0703 C 246.19243,902.75985 249.80431,903.52955 249.80431,907.3142 C 249.80431,909.94003 251.33409,910.39584 256.58661,909.3352 C 260.47723,908.54954 264.02025,908.93444 264.89653,910.23795 C 267.12481,913.55284 274.46049,913.01501 277.82279,909.29028 z M 485.55199,881.76557 C 498.64359,878.46844 508.71269,870.62362 504.64869,866.88727 C 503.30059,865.64791 497.25729,865.94139 488.79509,867.65717 C 478.44119,869.75638 445.58369,870.33626 353.50779,870.04468 C 225.6219,869.6397 221.08966,869.95263 224.83544,878.9269 C 226.44987,882.79504 234.66243,883.73214 236.96246,880.31062 C 239.05045,877.20456 242.79963,877.67507 242.79963,881.04311 C 242.79963,884.90935 264.10624,884.54115 269.29084,880.58519 C 272.54737,878.10045 273.3261,878.22737 274.67669,881.46331 C 276.12069,884.92278 279.36539,885.14683 312.64609,884.0846 C 332.66089,883.44574 361.64489,883.6868 377.05499,884.6202 C 416.93739,887.03603 470.18879,885.63488 485.55199,881.76557 z M 272.47655,858.84418 C 274.05809,853.28383 277.82279,853.28383 277.82279,858.84418 C 277.82279,863.06193 279.37349,863.13717 365.96439,863.12122 C 414.44229,863.11223 462.72709,862.19352 473.26379,861.07961 C 494.98619,858.7831 507.35869,854.05384 506.11279,848.5235 C 505.17779,844.3735 503.33289,844.41799 485.62689,849.01747 C 470.68749,852.89819 434.73019,853.37736 394.56659,850.23083 C 328.58699,845.06182 306.19859,844.3624 249.05553,845.68483 C 222.78545,846.29283 219.45087,847.06358 219.45087,852.52734 C 219.45087,859.1978 226.64261,861.22514 231.50212,855.92445 L 235.71329,851.331 L 237.19392,856.16086 C 238.88537,861.67884 240.90325,862.09386 247.63064,858.30752 C 251.65371,856.04324 252.76073,856.21085 254.71956,859.38085 C 258.08645,864.82949 270.88411,864.44269 272.47655,858.84418 z M 490.64429,840.61443 C 504.99929,835.99593 510.26719,830.72779 506.68469,824.57338 C 505.03739,821.74359 502.51709,820.40404 500.07769,821.06182 C 467.01649,829.97627 445.08459,831.58172 393.39919,828.87081 C 370.28399,827.65841 337.18699,826.13159 319.85059,825.47783 C 275.47499,823.80453 264.35102,822.99531 250.38265,820.42444 C 235.99637,817.77663 224.79858,819.32226 221.8657,824.36054 C 218.45793,830.21469 222.55967,833.74084 230.83355,832.07008 C 236.60216,830.90523 238.12988,831.30673 238.12988,833.9873 C 238.12988,838.35479 243.6789,838.35691 247.62011,833.99089 C 250.36014,830.95543 251.10304,831.12252 254.77655,835.59982 C 258.76431,840.46034 259.05885,840.49627 265.63767,836.9233 C 270.73029,834.15766 273.06232,833.85984 275.08259,835.71713 C 276.73739,837.23856 289.18149,838.44029 307.56369,838.85383 C 323.95289,839.22246 357.32539,840.91615 381.72479,842.61735 C 434.55729,846.30107 475.29789,845.55198 490.64429,840.61443 z M 471.61759,819.82384 C 490.28219,817.65393 491.98549,817.01592 500.21979,809.11033 C 505.03559,804.48697 508.97559,798.68576 508.97559,796.21867 C 508.97559,792.23534 507.99539,791.87865 500.21979,793.03325 C 495.40419,793.74831 485.71899,795.80746 478.69709,797.60916 C 464.06229,801.36422 444.04249,801.75493 415.58059,798.84091 C 371.17259,794.29438 339.77559,792.29653 296.50179,791.26389 C 271.46028,790.66625 245.53574,789.79361 238.89177,789.32459 C 227.36373,788.51082 226.68153,788.76087 223.96163,794.79786 C 219.81096,804.01076 224.10111,807.38261 233.48779,802.28473 C 241.27532,798.05546 245.13445,799.05618 245.13445,805.30496 C 245.13445,810.22149 247.03661,810.44861 253.06683,806.25211 C 258.53729,802.44505 262.1469,804.15396 260.24887,809.65217 C 258.51117,814.6858 264.18945,815.30141 268.48332,810.54478 C 272.61912,805.96316 277.82279,806.56123 277.82279,811.61811 C 277.82279,818.50744 288.50759,817.32082 292.31989,810.00812 C 294.01249,806.7614 296.95919,804.10492 298.86819,804.10492 C 302.11969,804.10492 302.20839,805.36626 299.55749,813.91356 C 298.64239,816.86416 305.99619,817.6142 358.79779,819.95531 C 391.95459,821.42548 421.70959,822.87726 424.92009,823.18153 C 431.96429,823.84903 445.15139,822.90083 471.61759,819.82384 z M 472.85869,791.87411 C 473.75389,791.05041 475.03229,777.52665 475.69949,761.82116 C 476.74799,737.14404 478.42119,727.72654 488.01859,692.47964 C 494.12679,670.04725 502.91699,642.77898 507.55239,631.88337 C 512.18779,620.98777 515.98029,610.65473 515.98029,608.92108 C 515.98029,602.96833 548.18949,544.35828 557.18339,533.94523 C 562.13159,528.21628 575.45729,514.51799 586.79609,503.50464 C 615.87269,475.26233 629.54899,457.5831 645.04129,428.2116 C 657.51539,404.56219 659.13379,399.69757 666.63889,363.29663 C 676.33449,316.2716 676.60889,303.45863 668.85109,259.9978 C 660.97319,215.86417 648.51459,177.63856 635.82139,158.65607 C 622.38829,138.56713 584.96309,107.99959 555.67329,93.193894 C 548.61019,89.623624 537.78859,84.032264 531.62499,80.768664 C 519.36689,74.277944 486.50399,62.115804 448.26879,49.919634 L 423.75269,42.099504 L 378.20699,42.211964 C 304.66809,42.393534 256.27762,52.766104 210.95802,78.062144 C 189.65026,89.955484 155.65573,116.86752 139.19561,134.87345 C 126.05294,149.25049 124.01131,152.59982 128.39065,152.59982 C 134.14306,152.59982 129.74998,159.26191 119.05115,166.76318 C 106.20859,175.76744 103.58088,180.27442 114.08531,175.28027 C 120.49875,172.23117 123.7209,172.67159 123.7209,176.59729 C 123.7209,177.59582 117.94206,181.81146 110.87906,185.96536 C 103.81605,190.11926 98.037221,193.94706 98.037221,194.47159 C 98.037221,194.99611 101.33009,194.81981 105.35461,194.07979 C 115.74929,192.16846 113.25653,197.19127 100.37215,204.11917 C 90.872521,209.22705 83.872901,217.10105 91.297761,214.32704 C 93.078201,213.66185 96.373651,212.43858 98.620931,211.60867 C 106.6649,208.63814 102.79462,216.37517 93.367471,222.1108 C 82.218831,228.89386 81.584221,230.71344 91.032641,228.80552 C 100.37958,226.91809 99.926991,230.19077 89.865131,237.24654 C 81.039651,243.43539 78.521061,248.76377 86.209381,244.98083 C 99.899841,238.24464 102.02251,246.20335 88.697721,254.31039 C 79.288531,260.03514 75.696891,266.07019 83.444261,263.13788 C 93.859711,259.19573 96.188851,259.24348 95.326611,263.38142 C 94.860911,265.61642 90.564571,269.377 85.779191,271.73831 C 77.287681,275.9284 73.191311,280.73726 75.951681,283.2751 C 76.706861,283.96943 80.573631,282.8233 84.544361,280.72811 C 89.835501,277.93626 92.445971,277.55684 94.316951,279.30777 C 96.850501,281.67875 96.088401,282.4846 79.670921,294.79368 C 76.930581,296.84826 74.688461,299.50473 74.688461,300.69693 C 74.688461,303.97444 80.734371,303.29323 84.027961,299.64463 C 85.626601,297.87365 88.382021,296.42467 90.151101,296.42467 C 96.263081,296.42467 93.332781,302.53501 83.688731,309.90009 C 72.305011,318.59366 73.038101,324.35548 84.696431,317.82016 C 93.633721,312.81014 95.702401,312.58783 95.702401,316.63736 C 95.702401,318.30912 91.499591,322.73725 86.362891,326.47762 C 81.226091,330.21799 77.023391,334.64612 77.023391,336.31789 C 77.023391,340.2133 78.220331,340.14193 85.397411,335.8184 C 90.014201,333.03726 91.871761,332.84013 94.071141,334.89795 C 96.256371,336.94259 94.950721,338.94015 88.114011,344.0118 C 83.298281,347.58422 79.358211,352.34536 79.358211,354.59214 C 79.358211,359.72288 81.335011,359.67881 88.697721,354.38394 C 91.908201,352.07514 95.848271,350.16465 97.453521,350.1384 C 103.21242,350.0442 100.20346,355.93669 91.032641,362.71238 C 81.946381,369.42557 79.855101,374.15996 83.588791,379.56374 C 84.914161,381.48205 87.821541,380.37852 94.222791,375.52746 C 100.71335,370.60871 103.71942,369.48261 105.64171,371.2499 C 107.564,373.01718 105.36978,376.08057 97.306811,382.88631 C 86.353391,392.13193 83.566491,397.31673 89.550251,397.31673 C 91.303441,397.31673 95.409201,395.38475 98.674401,393.02345 C 104.81168,388.58502 109.71165,387.44509 109.71165,390.45571 C 109.71165,391.40475 106.03422,395.45821 101.53956,399.46337 C 97.044901,403.46853 93.367471,408.48797 93.367471,410.61768 C 93.367471,415.74327 94.873401,415.51282 103.13283,409.12325 C 114.93681,399.99159 116.85136,403.87849 106.99681,416.96786 C 102.62139,422.77958 101.17555,431.66296 104.605,431.66296 C 105.64894,431.66296 109.52293,428.765 113.21399,425.22304 C 119.05961,419.61336 126.05572,416.67957 126.05572,419.83788 C 126.05572,420.41799 122.33741,425.37125 117.79268,430.84514 C 108.49768,442.04053 108.65212,445.16256 118.16072,438.28603 C 127.10606,431.81696 131.0643,435.87012 124.17184,444.44113 C 117.19545,453.11644 117.72382,456.54747 125.20319,451.13852 C 132.4513,445.89682 136.72699,445.48312 138.54862,449.84728 C 139.94295,453.18797 135.66313,458.1376 128.20854,461.8055 C 125.74033,463.01996 123.7209,465.4286 123.7209,467.15804 C 123.7209,471.35151 125.34545,471.12775 132.50839,465.94764 C 141.16673,459.68608 144.93976,463.9428 138.1811,472.34745 C 130.0599,482.4464 132.52625,487.73375 141.23249,478.88904 C 149.81795,470.16698 152.94017,477.29938 144.73473,486.88984 C 136.68064,496.30357 140.26691,503.47599 149.91995,497.25983 C 159.449,491.12351 161.85247,493.13882 156.14332,502.47805 C 150.42932,511.82508 151.62801,515.67257 158.9452,511.47131 C 166.04774,507.3933 168.73285,510.4889 164.20536,517.53552 C 160.89081,522.69414 160.75299,524.24086 163.35128,527.11915 C 166.15862,530.22912 166.96388,530.10717 171.92713,525.82037 C 178.99789,519.71323 181.81669,522.33135 176.71664,530.26898 C 172.53345,536.77962 171.39752,545.43486 174.72632,545.43486 C 175.81145,545.43486 178.60104,543.50289 180.92533,541.14159 C 184.80945,537.19576 191.43235,535.23631 191.43235,538.033 C 191.43235,538.68458 189.1093,542.92856 186.27016,547.46406 C 181.84023,554.5407 181.56025,556.21149 184.29646,559.24267 C 187.21478,562.47548 188.00951,562.3129 193.67251,557.32483 C 197.07553,554.3273 200.59047,551.87478 201.48327,551.87478 C 204.96042,551.87478 202.86459,559.99736 198.43693,563.6813 C 193.82706,567.5169 191.9664,575.48783 195.681,575.48783 C 196.73361,575.48783 199.87875,573.07285 202.67019,570.1212 C 212.14535,560.10245 216.06839,565.05017 207.77644,576.56116 C 199.3894,588.20416 204.0575,595.92924 213.6137,586.221 C 222.29558,577.40103 225.15289,584.43071 217.10789,594.81797 C 214.5351,598.13983 213.0715,602.39446 213.85538,604.27257 C 215.65327,608.58015 216.87498,608.5533 222.24076,604.08889 C 228.97486,598.48584 232.39399,603.47889 226.52245,610.34158 C 221.91526,615.7264 220.01393,624.92957 223.53691,624.79229 C 224.50002,624.75467 227.3276,623.30574 229.82037,621.57231 C 239.02154,615.17388 241.38496,620.47711 233.46012,629.73957 C 229.25814,634.65082 226.96792,644.18035 229.98948,644.18035 C 230.64896,644.18035 233.22794,643.00937 235.72051,641.57819 C 243.09778,637.34248 243.90933,641.36408 237.28808,649.34523 C 227.49381,661.15088 230.22517,670.3009 240.53232,660.21388 C 251.88166,649.10702 253.52066,658.00826 242.63249,671.62015 C 235.04059,681.11132 235.21444,688.05751 242.88428,681.67599 C 245.2443,679.71248 248.24614,678.71451 249.5552,679.45831 C 252.47238,681.11597 250.74367,685.6849 243.17417,696.32305 C 239.30668,701.75817 238.16126,705.17367 239.72407,706.61055 C 241.28689,708.04732 243.05586,707.66221 245.05238,705.45046 C 248.1525,702.01615 254.47406,700.90065 254.47406,703.78794 C 254.47406,704.6945 251.84728,708.99013 248.63679,713.33385 C 245.42641,717.67757 242.79963,723.36454 242.79963,725.97144 C 242.79963,730.4274 243.05545,730.49852 247.06954,727.15859 C 249.41799,725.2046 252.04467,723.60592 252.90671,723.60592 C 256.55791,723.60592 254.03406,733.00926 248.63679,739.51496 C 245.42641,743.38469 242.79963,748.31865 242.79963,750.47915 C 242.79963,754.07262 243.25997,754.00963 248.20361,749.73978 C 251.17572,747.17272 254.32788,745.07235 255.20818,745.07235 C 259.04532,745.07235 256.25512,753.56703 249.86925,761.32645 C 242.93549,769.75148 239.74038,778.79655 245.6015,773.40804 C 250.48568,768.91753 254.70253,770.40556 253.97862,776.36413 C 253.35207,781.52172 254.05729,781.95323 264.39727,782.73804 C 275.29249,783.56502 275.48789,783.47001 275.48789,777.34562 C 275.48789,773.91691 276.56539,768.50599 277.88229,765.32142 C 279.19929,762.13694 280.72899,740.58078 281.28169,717.41896 C 281.83439,694.25714 282.98149,652.6059 283.83089,624.86056 C 285.53519,569.18386 283.56789,548.70984 274.44609,527.18843 C 271.44356,520.10451 266.07024,507.06368 262.50544,498.20879 C 258.94054,489.3539 244.69053,461.34026 230.83871,435.95624 C 207.07514,392.40833 201.57164,380.765 187.82327,344.95128 C 184.69857,336.81169 179.47722,325.9714 176.22017,320.86173 C 170.71244,312.22123 170.40851,310.32853 171.87407,293.80151 C 173.40416,276.54625 173.73514,275.76736 183.30125,266.90837 C 193.95868,257.03881 200.88821,255.52206 209.62305,261.14696 C 222.1876,269.23804 231.83196,299.81676 225.41667,311.22257 C 220.90631,319.24128 213.55259,321.62362 207.87988,316.90376 C 201.59404,311.67382 197.58625,296.61475 200.56383,289.4145 C 204.35927,280.23656 207.77644,282.50504 207.77644,294.20251 C 207.77644,304.79673 211.30438,309.30451 219.59581,309.30451 C 227.47357,309.30451 212.12119,270.07546 203.22778,267.48036 C 197.3743,265.77231 188.60158,270.38222 183.15073,278.03058 C 179.99155,282.46348 179.89358,284.49901 182.4548,292.4905 C 184.09422,297.60592 185.57991,307.1042 185.75634,313.59778 C 185.94444,320.52327 188.75013,332.06026 192.54299,341.5041 C 196.09922,350.35898 199.52908,360.28715 200.16482,363.5667 C 200.80066,366.84623 203.21333,370.46066 205.52627,371.59874 C 207.83931,372.73683 210.48002,376.79999 211.3945,380.628 C 212.30898,384.45602 222.56338,404.50829 234.18186,425.18863 C 245.80044,445.86898 257.90331,467.60136 261.07694,473.48283 C 264.25067,479.3643 271.70155,489.99901 277.63429,497.11553 C 305.04679,529.99731 306.37779,537.56984 302.91729,640.96036 C 302.04799,666.93465 300.75149,706.05719 300.03619,727.89923 C 299.32089,749.74126 298.18399,770.75833 297.50989,774.60375 C 296.44909,780.65427 297.10499,781.88232 302.38219,783.72693 C 305.73599,784.89928 317.07999,785.85931 327.59099,785.86026 C 338.10179,785.86132 358.18289,786.8631 372.21549,788.0865 C 402.90639,790.76221 404.42739,790.00001 405.44659,771.43376 C 405.82109,764.60921 407.21949,742.1207 408.55389,721.45937 C 409.88829,700.79793 411.46239,674.23329 412.05209,662.42669 C 412.64169,650.6202 413.74419,628.40246 414.50199,613.05407 C 416.01809,582.34831 419.93639,564.53268 426.71439,557.52682 C 429.15079,555.00854 438.58789,539.42427 447.68589,522.89515 C 456.78379,506.36602 467.82329,487.36028 472.21799,480.66014 C 483.32989,463.71922 522.70499,373.89916 526.65519,356.48127 C 528.44399,348.59359 531.43599,339.4316 533.30399,336.12131 C 535.17199,332.81103 537.42549,323.73257 538.31179,315.94694 C 539.19809,308.16131 541.98229,298.04257 544.49899,293.46082 C 551.15709,281.33949 552.87289,255.96396 547.54029,248.48151 C 544.68209,244.4711 541.44619,242.75868 536.72559,242.75868 C 529.30489,242.75868 528.61009,244.12883 533.20829,249.69562 C 537.44109,254.82008 536.12479,280.09546 531.27039,286.90692 C 526.92569,293.00322 519.37679,293.64951 511.53069,288.59688 C 506.45509,285.32841 505.88119,285.32644 503.90639,288.57057 C 500.98559,293.3691 493.71729,296.67299 489.41829,295.1563 C 484.93709,293.57537 478.05409,274.89301 479.04359,266.99655 C 479.48689,263.45863 481.40119,260.76095 483.76039,260.34983 C 487.10209,259.76745 487.84189,261.80497 488.43019,273.21129 C 489.04429,285.11947 489.69609,286.76479 493.79899,286.76479 C 500.10349,286.76479 501.00039,278.22499 496.26799,263.25822 C 491.72769,248.89953 487.59709,244.90532 477.28799,244.90532 C 471.81429,244.90532 469.28279,243.91095 469.28279,241.76087 C 469.28279,236.62798 477.99049,233.54965 485.60589,235.99037 C 496.33149,239.42789 501.53879,245.94264 504.65769,259.82572 C 507.87249,274.13572 511.90789,277.41353 510.82789,264.83766 C 510.30659,258.76692 511.08069,256.68657 514.07159,256.12159 C 520.28729,254.94744 523.00889,262.09571 520.40419,272.75367 C 518.82469,279.2169 518.90079,282.79526 520.65199,284.40526 C 525.05579,288.45404 527.22939,281.67974 526.01509,267.69043 C 525.10589,257.21558 523.69579,253.57415 519.03189,249.65733 C 515.27929,246.50583 511.59459,245.21444 508.73539,246.04873 C 503.18039,247.6697 500.24759,241.88779 504.33049,237.36476 C 507.96079,233.34328 515.79849,233.37002 521.62559,237.42372 C 525.62659,240.2071 526.44869,240.08553 529.34629,236.28214 C 535.10779,228.71967 548.16679,232.6656 556.01499,244.34037 C 560.18469,250.54336 560.68069,253.59578 559.35519,264.90149 C 558.49919,272.2037 555.77239,284.45715 553.29569,292.13139 C 544.54109,319.25901 534.98209,351.34765 531.27109,366.06642 C 529.20449,374.26279 524.99949,386.33763 521.92659,392.89942 C 518.85359,399.46123 512.48119,413.04086 507.76549,423.07641 C 503.04969,433.11194 496.64989,447.78658 493.54349,455.68672 C 490.43709,463.58684 483.38469,477.11067 477.87139,485.73967 C 461.30449,511.66882 443.61849,548.26669 441.14169,561.74469 C 439.86119,568.71308 438.84629,584.07434 438.88669,595.88094 C 439.06709,648.78289 434.56009,719.70977 428.58789,757.95217 C 423.95449,787.62212 424.00349,791.74084 429.00609,793.06601 C 434.90269,794.62792 470.93009,793.64875 472.85869,791.87411 z M 325.09809,514.84525 C 323.81709,513.36944 321.07329,509.09095 319.00049,505.3375 C 316.92779,501.58406 313.12449,497.89807 310.54859,497.14642 C 306.96769,496.1015 305.99979,494.17075 306.43689,488.94441 C 306.96989,482.57285 306.55059,482.15854 300.25729,482.83911 C 294.47739,483.46415 293.76459,483.00079 295.30409,479.61916 C 299.06079,471.36693 299.11359,466.48058 295.53099,458.59743 C 293.49659,454.12096 291.83209,448.52613 291.83209,446.16444 C 291.83209,442.50231 292.37249,442.28284 295.50509,444.67302 C 297.52509,446.21441 301.26369,451.23428 303.81289,455.82828 C 307.62429,462.69676 309.04609,463.72455 311.81429,461.6123 C 316.05249,458.37847 315.99769,451.48929 311.67849,444.5428 C 309.84329,441.59117 308.30439,437.48572 308.25899,435.41959 C 308.11599,428.92879 315.08449,431.3317 319.15329,439.1762 C 323.48909,447.5353 324.95419,448.162 329.19009,443.46949 C 332.92019,439.33732 335.97689,439.37642 337.73089,443.5787 C 338.53279,445.50021 336.83659,449.1429 333.71929,452.1937 C 329.74569,456.08225 329.00649,458.11244 330.92239,459.87393 C 332.83829,461.63544 335.25339,461.01976 340.05839,457.54482 C 348.50419,451.43695 350.28189,455.5144 343.07849,464.47203 L 337.74669,471.10229 L 346.01639,485.19219 C 350.56479,492.94164 353.80539,500.4896 353.21799,501.96541 C 351.12049,507.23426 346.59599,504.40664 339.69699,493.51542 C 331.58549,480.70984 328.23779,478.94277 324.44219,485.46312 C 322.16099,489.38207 322.74509,492.02664 328.00149,501.57838 C 333.76839,512.05746 334.22689,517.52855 329.33819,517.52855 C 328.28709,517.52855 326.37889,516.32107 325.09809,514.84525 z M 323.74549,469.39561 C 322.96809,467.53308 321.31919,466.0092 320.08119,466.0092 C 317.08099,466.0092 314.46219,473.93672 316.47379,476.92918 C 318.84349,480.45432 325.48799,473.5705 323.74549,469.39561 z M 241.87565,309.55186 C 236.55375,304.14532 237.31853,278.17823 242.79963,278.17823 C 245.49837,278.17823 246.14019,280.39468 245.59727,287.83811 C 245.15778,293.86242 246.17891,299.10573 248.31056,301.76982 C 251.65743,305.95265 251.78802,305.92174 254.58071,300.28669 C 260.75288,287.83235 247.10206,262.07843 234.32856,262.07843 C 231.43408,262.07843 228.41655,263.04443 227.62296,264.22507 C 225.44124,267.47054 219.45087,266.79615 219.45087,263.30508 C 219.45087,258.11484 226.41539,253.49188 234.23451,253.49188 C 243.42432,253.49188 253.32069,261.43684 259.35999,273.66322 C 265.01443,285.11033 264.93504,294.57456 259.09632,305.09675 C 253.86775,314.51923 248.20691,315.98375 241.87565,309.55186 z M 280.25459,307.66164 C 275.85249,304.38445 275.33289,302.12041 275.95169,288.90968 C 276.81339,270.51069 280.89789,269.1713 282.49259,286.76479 C 283.35729,296.3054 284.56799,299.64463 287.16229,299.64463 C 295.67939,299.64463 291.45519,271.12926 281.36399,260.50269 C 275.81279,254.65698 275.61629,254.6213 268.65428,258.19443 C 259.57958,262.85191 256.7806,259.30123 263.97585,252.25963 C 270.53888,245.83694 274.28199,245.73885 283.80829,251.74007 C 292.50489,257.21872 298.83669,272.79255 298.83669,288.70455 C 298.83669,305.71738 289.89549,314.83901 280.25459,307.66164 z M 315.72189,305.36409 C 309.96109,302.00236 306.01799,280.48024 309.59339,271.91388 C 310.37299,270.04633 312.54989,268.51835 314.43119,268.51835 C 317.17599,268.51835 317.57939,270.74469 316.47329,279.78821 C 314.95459,292.20379 318.97009,300.16501 325.57569,297.8346 C 330.68079,296.03351 330.18449,280.39949 324.66759,269.2282 C 319.33569,258.43151 312.78199,254.76904 302.09319,256.61261 C 296.27249,257.61656 294.16689,257.21258 294.16689,255.09179 C 294.16689,246.92941 311.80899,244.04617 321.91869,250.55634 C 330.27649,255.93846 336.08489,269.9135 336.14349,284.78063 C 336.18629,295.67369 335.30429,298.59209 330.79079,302.4904 C 325.11369,307.39374 320.65659,308.24375 315.72189,305.36409 z M 382.95949,301.19967 C 376.90809,296.69458 375.19709,284.43223 378.74819,271.01882 C 380.98609,262.56563 385.82939,257.62328 389.00979,260.54728 C 389.69529,261.17748 388.49569,267.46136 386.34409,274.51145 C 383.30949,284.45466 383.02579,288.34974 385.07919,291.87721 C 388.60869,297.94034 391.85539,297.61418 394.62449,290.91832 C 398.67579,281.1216 397.38249,265.36611 392.01159,259.08868 C 387.80689,254.17421 385.97519,253.57105 378.94029,254.78438 C 371.80839,256.01445 370.86599,255.68353 371.59479,252.20475 C 372.05449,250.00983 375.35049,247.26995 378.91909,246.11614 C 388.09789,243.14834 400.84599,249.66104 403.56239,258.7058 C 405.83989,266.28931 402.34939,293.79735 398.55709,298.15185 C 393.41589,304.05531 388.17179,305.08 382.95949,301.19967 z M 348.19049,298.86679 C 344.52899,295.50043 344.13819,293.21174 345.71639,284.37697 C 346.74729,278.60636 347.65339,272.67746 347.72999,271.20165 C 347.80649,269.72583 349.58979,268.51835 351.69289,268.51835 C 354.94059,268.51835 355.29569,270.24653 354.05049,279.98793 C 352.47269,292.32999 353.78149,295.63711 358.74499,291.84992 C 363.05569,288.56075 362.77709,267.75632 358.31619,259.82519 C 355.20779,254.29888 353.47219,253.49188 344.69599,253.49188 C 339.16419,253.49188 333.94679,252.85625 333.10179,252.07941 C 329.79659,249.04073 337.23149,244.90532 345.99979,244.90532 C 353.09169,244.90532 356.81569,246.36049 362.05799,251.18011 C 368.36409,256.9778 368.88309,258.65527 368.88309,273.24218 C 368.88309,284.54937 367.76189,290.53564 364.93239,294.33704 C 357.82749,303.88194 354.59639,304.7562 348.19049,298.86679 z M 415.58059,296.42467 C 409.96109,291.25826 408.89419,270.58275 414.04419,266.65318 C 418.62179,263.16044 420.50859,266.14257 418.85349,274.254 C 417.02179,283.23092 419.35869,292.13139 423.54729,292.13139 C 431.20019,292.13139 432.11429,266.98488 424.85909,256.04429 C 420.90489,250.08153 418.96939,249.04433 412.84119,249.60437 C 403.49899,250.45811 401.49979,245.82133 409.72449,242.37598 C 414.19569,240.50301 417.69409,240.40424 422.34869,242.01953 C 427.57499,243.8332 429.79139,243.50681 434.11719,240.28639 C 440.51779,235.52139 450.10969,235.16619 456.75879,239.44794 C 463.09419,243.52767 470.95929,260.53146 472.72809,273.97256 C 474.58919,288.11425 470.65139,295.11653 460.32119,296.03447 C 450.70749,296.88875 446.47609,293.75153 444.55699,284.34658 C 443.37069,278.53271 442.40509,277.49023 439.94499,279.36738 C 438.23349,280.6732 435.64469,285.05271 434.19209,289.09962 C 431.92699,295.40922 426.16029,300.71794 421.57129,300.71794 C 420.84479,300.71794 418.14889,298.78597 415.58059,296.42467 z M 465.07769,279.25155 C 464.69119,273.93862 461.53899,264.27874 458.07299,257.78515 C 452.22539,246.82967 451.21199,246.00266 444.01479,246.31195 C 439.74879,246.49527 435.66379,247.19207 434.93679,247.86039 C 433.72839,248.97133 438.20069,267.16163 440.72219,271.39154 C 441.31229,272.38146 442.98909,271.00875 444.44819,268.3411 C 449.72729,258.69043 453.28869,260.76699 451.59459,272.50788 C 449.53959,286.75071 451.21869,290.45134 459.34629,289.59184 C 465.42899,288.94859 465.74199,288.38386 465.07769,279.25155 z M 475.35219,207.96627 C 473.33549,205.1366 471.02029,199.49096 470.20709,195.42039 C 469.39399,191.34983 466.01019,182.95365 462.68769,176.76221 C 458.90919,169.7211 457.48269,164.79048 458.87879,163.59712 C 460.10629,162.54776 469.51619,161.05666 479.78969,160.28357 L 498.46869,158.87796 L 506.19409,177.04701 C 510.44299,187.03999 515.43389,196.37156 517.28479,197.78382 C 519.13569,199.19609 520.65009,201.66387 520.65009,203.26779 C 520.65009,206.31928 517.03889,207.35899 499.63609,209.3181 C 493.85729,209.96865 486.85439,211.08822 484.07399,211.80602 C 480.36399,212.76383 478.04309,211.74206 475.35219,207.96627 z M 496.61029,200.64531 C 500.94239,199.57742 501.54329,198.3085 500.40849,192.62472 C 498.18389,181.48181 490.79519,167.62629 487.07769,167.62629 C 485.16269,167.62629 480.93769,168.55547 477.68879,169.69114 C 471.93229,171.70332 471.86879,171.94802 475.20189,179.28208 C 477.08309,183.42142 478.62229,189.57615 478.62229,192.95925 C 478.62229,196.34234 479.32279,199.75433 480.17879,200.54144 C 482.08909,202.29768 489.71179,202.34586 496.61029,200.64531 z M 528.14959,199.28923 C 526.82299,197.81341 524.95339,192.74197 523.99489,188.01937 C 521.88639,177.63129 516.91779,166.26573 513.68079,164.42643 C 510.30659,162.50916 510.73879,154.77258 514.22919,154.61303 C 515.83429,154.53966 523.94379,154.44757 532.25009,154.40842 C 546.07569,154.34322 547.80679,154.85353 552.72989,160.44509 C 555.68769,163.80443 558.51539,168.48495 559.01349,170.84625 C 559.51179,173.20756 560.97889,179.96626 562.27399,185.8656 C 563.88729,193.21494 563.86389,197.43867 562.19979,199.2821 C 558.95399,202.87772 531.38019,202.88348 528.14959,199.28923 z M 551.42669,189.05933 C 551.01739,187.41025 549.81919,181.81199 548.76389,176.61878 C 546.23429,164.17016 542.32099,160.74356 532.66209,162.51962 C 526.79069,163.59921 525.44179,164.7042 526.72709,167.38149 C 527.64189,169.28711 530.00069,175.39158 531.96879,180.94698 C 534.44269,187.92993 537.03179,191.32495 540.35679,191.9459 C 548.04439,193.3816 552.22869,192.29053 551.42669,189.05933 z M 443.21519,148.02022 C 441.22809,145.22606 438.84809,140.74714 437.92629,138.06706 C 437.00439,135.38697 432.90249,129.10805 428.81099,124.1139 C 424.71959,119.11975 419.40459,112.21613 416.99999,108.77253 C 412.77409,102.72061 412.77019,102.41582 416.88539,99.649314 C 419.22699,98.075144 424.48809,96.787194 428.57679,96.787194 C 432.66549,96.787194 439.18929,96.202724 443.07419,95.488384 C 449.73579,94.263484 450.80589,95.087864 461.88299,109.9782 C 468.34299,118.66194 475.53999,127.64396 477.87649,129.93823 C 483.94999,135.9021 487.78339,142.34446 487.87899,146.74842 C 487.94499,149.78434 486.18569,150.49512 479.20599,150.25239 C 474.39029,150.08492 465.13519,150.65724 458.63899,151.5242 C 447.83959,152.96547 446.51839,152.66532 443.21519,148.02022 z M 470.78809,139.05159 C 472.75029,137.24748 458.35599,113.12658 452.13569,107.79562 C 447.26599,103.62202 444.69849,102.96239 437.89239,104.13627 C 427.53579,105.92255 427.40369,109.07306 437.17819,121.1605 C 441.35179,126.3217 446.50579,133.49387 448.63149,137.09866 C 452.23859,143.21569 453.06849,143.53419 461.07459,141.8741 C 465.79249,140.89582 470.16359,139.62568 470.78809,139.05159 z M 505.43579,144.59471 C 493.82189,143.83018 493.66599,143.72211 486.81489,131.69181 C 483.01509,125.01927 475.34129,113.85898 469.76209,106.89119 C 457.13439,91.120514 457.90329,87.065774 473.15699,88.987974 C 479.08969,89.735594 486.38729,90.347274 489.37399,90.347274 C 493.50309,90.347274 497.27439,93.818994 505.11369,104.83709 C 510.78389,112.80648 517.75749,121.25659 520.61059,123.61511 C 526.57529,128.54601 532.32439,137.97824 532.32439,142.83333 C 532.32439,146.27654 531.65239,146.32056 505.43579,144.59471 z M 515.98029,133.12579 C 515.98029,131.95535 510.07419,123.78333 502.85559,114.96576 C 491.85449,101.52786 488.64329,98.933824 483.00919,98.933824 C 479.31209,98.933824 476.28739,99.288914 476.28739,99.722894 C 476.28739,100.56721 496.49019,128.61693 499.68379,132.20674 C 502.22399,135.06199 515.98029,135.83779 515.98029,133.12579 z M 422.30659,746.08502 C 430.04759,696.13811 436.35089,565.8946 430.94669,567.55648 C 424.86259,569.42747 422.41089,587.42294 420.08359,647.29094 C 418.75029,681.58996 416.83609,724.14258 415.82959,741.85237 C 414.18059,770.86919 414.42019,779.05432 416.85329,776.81741 C 417.29609,776.41031 419.75009,762.58071 422.30659,746.08502 z M 291.04359,759.56216 C 290.39589,758.08639 289.86579,759.29383 289.86579,762.24548 C 289.86579,765.19713 290.39589,766.40457 291.04359,764.9288 C 291.69129,763.45292 291.69129,761.03804 291.04359,759.56216 z M 294.22439,677.45317 C 294.93179,632.0457 294.37319,619.79682 291.93259,627.20242 C 289.84379,633.5405 288.41589,670.29582 289.14629,698.91961 C 289.95959,730.79328 293.63559,715.25424 294.22439,677.45317 z M 297.23259,580.0499 C 297.32749,566.32456 296.23969,551.71379 294.81529,547.58151 C 293.39079,543.44922 291.57829,536.68731 290.78759,532.55502 C 289.31609,524.86454 283.51139,515.87622 281.31859,517.89231 C 280.64639,518.51033 281.71229,522.57165 283.68739,526.91746 C 286.76209,533.68302 288.86369,555.28547 291.85849,610.90742 C 291.92199,612.08801 293.11839,611.24296 294.51699,609.02952 C 295.92259,606.80518 297.13719,593.84293 297.23259,580.0499 z"
       id="path2223" />
    <rect
       style="fill:#ffff00;fill-opacity:1"
       id="rect2383"
       width="1.9656132"
       height="10.060951"
       x="106.62281"
       y="12.126998" />
  </g>
</svg>
