<?xml version="1.0" encoding="UTF-8" standalone="no"?>
<!-- Created with Inkscape (http://www.inkscape.org/) -->
<svg
   xmlns:dc="http://purl.org/dc/elements/1.1/"
   xmlns:cc="http://web.resource.org/cc/"
   xmlns:rdf="http://www.w3.org/1999/02/22-rdf-syntax-ns#"
   xmlns:svg="http://www.w3.org/2000/svg"
   xmlns="http://www.w3.org/2000/svg"
   xmlns:xlink="http://www.w3.org/1999/xlink"
   xmlns:sodipodi="http://sodipodi.sourceforge.net/DTD/sodipodi-0.dtd"
   xmlns:inkscape="http://www.inkscape.org/namespaces/inkscape"
   width="744.09448819"
   height="1052.3622047"
   id="svg2"
   sodipodi:version="0.32"
   inkscape:version="0.45"
   sodipodi:docbase="C:\Documents and Settings\Roland\My Documents"
   sodipodi:docname="lightbulb.svg"
   inkscape:output_extension="org.inkscape.output.svg.inkscape"
   sodipodi:modified="TRUE">
  <defs
     id="defs4">
    <linearGradient
       inkscape:collect="always"
       id="linearGradient12464">
      <stop
         style="stop-color:#917c6f;stop-opacity:1;"
         offset="0"
         id="stop12466" />
      <stop
         style="stop-color:#917c6f;stop-opacity:0;"
         offset="1"
         id="stop12468" />
    </linearGradient>
    <linearGradient
       id="linearGradient12456">
      <stop
         style="stop-color:#ffffff;stop-opacity:1;"
         offset="0"
         id="stop12458" />
      <stop
         style="stop-color:#ffff00;stop-opacity:1;"
         offset="1"
         id="stop12460" />
    </linearGradient>
    <linearGradient
       id="linearGradient8509">
      <stop
         style="stop-color:#666666;stop-opacity:1;"
         offset="0"
         id="stop8511" />
      <stop
         style="stop-color:#666666;stop-opacity:0;"
         offset="1"
         id="stop8513" />
    </linearGradient>
    <linearGradient
       id="linearGradient6327">
      <stop
         style="stop-color:#0954d6;stop-opacity:1;"
         offset="0"
         id="stop6329" />
      <stop
         style="stop-color:#4848cb;stop-opacity:0"
         offset="1"
         id="stop6331" />
    </linearGradient>
    <linearGradient
       id="linearGradient6315">
      <stop
         id="stop6317"
         offset="0"
         style="stop-color:#fffaf7;stop-opacity:1;" />
      <stop
         id="stop6319"
         offset="1"
         style="stop-color:#e7ed15;stop-opacity:0;" />
    </linearGradient>
    <linearGradient
       id="linearGradient5338">
      <stop
         style="stop-color:#fffaf7;stop-opacity:1;"
         offset="0"
         id="stop5340" />
      <stop
         style="stop-color:#e7ed15;stop-opacity:0;"
         offset="1"
         id="stop5342" />
    </linearGradient>
    <linearGradient
       id="linearGradient3376">
      <stop
         style="stop-color:#ffff00;stop-opacity:1;"
         offset="0"
         id="stop3378" />
      <stop
         style="stop-color:#fcffff;stop-opacity:0.24705882;"
         offset="1"
         id="stop3386" />
    </linearGradient>
    <radialGradient
       inkscape:collect="always"
       xlink:href="#linearGradient5338"
       id="radialGradient11478"
       gradientUnits="userSpaceOnUse"
       gradientTransform="matrix(1,0,0,0.6753247,0,154.59161)"
       cx="1262.8374"
       cy="476.14212"
       fx="1262.8374"
       fy="476.14212"
       r="207.33151" />
    <linearGradient
       inkscape:collect="always"
       xlink:href="#linearGradient8509"
       id="linearGradient11484"
       gradientUnits="userSpaceOnUse"
       gradientTransform="matrix(1.0323773,0,0,1.0568404,-69.016603,12.571454)"
       x1="344.65497"
       y1="853.10852"
       x2="526.1405"
       y2="850.41589" />
    <radialGradient
       inkscape:collect="always"
       xlink:href="#linearGradient12456"
       id="radialGradient12462"
       cx="311.28458"
       cy="369.99646"
       fx="311.28458"
       fy="369.99646"
       r="303.10434"
       gradientTransform="matrix(2.7681041,-0.1391871,4.5630016e-2,0.9074736,-560.09642,46.856876)"
       gradientUnits="userSpaceOnUse" />
    <radialGradient
       inkscape:collect="always"
       xlink:href="#linearGradient12464"
       id="radialGradient12470"
       cx="311.28458"
       cy="369.99646"
       fx="311.28458"
       fy="369.99646"
       r="303.10434"
       gradientTransform="matrix(2.7681041,-0.1391871,4.5630016e-2,0.9074736,-560.09642,46.856876)"
       gradientUnits="userSpaceOnUse" />
  </defs>
  <sodipodi:namedview
     id="base"
     pagecolor="#ffffff"
     bordercolor="#666666"
     borderopacity="1.0"
     gridtolerance="10000"
     guidetolerance="10"
     objecttolerance="10"
     inkscape:pageopacity="0.0"
     inkscape:pageshadow="2"
     inkscape:zoom="0.55787782"
     inkscape:cx="436.34417"
     inkscape:cy="519.72645"
     inkscape:document-units="px"
     inkscape:current-layer="layer1"
     inkscape:window-width="1280"
     inkscape:window-height="968"
     inkscape:window-x="-4"
     inkscape:window-y="-4" />
  <metadata
     id="metadata7">
    <rdf:RDF>
      <cc:Work
         rdf:about="">
        <dc:format>image/svg+xml</dc:format>
        <dc:type
           rdf:resource="http://purl.org/dc/dcmitype/StillImage" />
      </cc:Work>
    </rdf:RDF>
  </metadata>
  <g
     inkscape:label="Layer 1"
     inkscape:groupmode="layer"
     id="layer1">
    <g
       id="g12488"
       inkscape:export-filename="C:\Documents and Settings\Roland\My Documents\lightbulb.png"
       inkscape:export-xdpi="90"
       inkscape:export-ydpi="90">
      <path
         sodipodi:nodetypes="csssssssssssssssssssssssssssssssssssssssssssssssssssssssssscccssccssssssssssssssssssssssssssssssssssssssssssssssssssssssssssssc"
         id="path6323"
         d="M 336.56598,81.841439 C 333.52387,81.880753 330.42756,81.981068 327.24113,82.10418 C 320.86827,82.350381 314.17103,82.760911 307.13744,83.352181 C 300.10385,83.943462 292.72907,84.716848 284.91604,85.651147 C 277.1028,86.585437 268.87723,87.692963 260.16572,88.968231 C 254.86446,89.744237 249.80478,90.573963 244.96159,91.464245 C 240.1184,92.354528 235.47549,93.314244 230.99012,94.354376 C 226.50475,95.394508 222.16308,96.511588 217.9354,97.737138 C 213.7076,98.962688 209.58284,100.29736 205.5129,101.74391 C 201.44276,103.19045 197.45055,104.73725 193.43801,106.44037 C 189.42537,108.14348 185.4183,109.99547 181.36322,111.99073 C 177.30805,113.98599 173.20166,116.13768 169.00381,118.46067 C 164.80596,120.78365 160.51602,123.26245 156.07556,125.94874 C 153.37372,127.58317 150.44569,129.53046 147.35135,131.72899 C 144.2568,133.92751 140.98044,136.40146 137.61562,139.05284 C 130.88565,144.35558 123.73737,150.43958 116.65846,156.88623 C 109.57945,163.3329 102.56289,170.1209 96.112194,176.82155 C 92.886834,180.17186 89.798894,183.52583 86.913914,186.77278 C 84.028934,190.01972 81.370874,193.16622 78.948294,196.19853 C 76.293124,199.52195 73.740164,202.86355 71.298794,206.24831 C 68.857324,209.63304 66.510944,213.07498 64.281414,216.52796 C 62.051894,219.98094 59.915494,223.47654 57.896264,227.00467 C 55.877044,230.5328 53.985724,234.06824 52.174934,237.67844 C 50.364254,241.28863 48.658144,244.94861 47.054244,248.64779 C 45.450344,252.34696 43.932744,256.11764 42.534084,259.91273 C 41.135214,263.70779 39.841534,267.5425 38.646044,271.44039 C 37.450654,275.33827 36.352414,279.28887 35.358644,283.29648 C 34.364984,287.3041 33.465574,291.35675 32.671884,295.481 C 31.878094,299.60524 31.212934,303.77897 30.617244,308.02678 C 30.021774,312.27459 29.499084,316.58838 29.099964,320.96667 C 28.701054,325.34496 28.419214,329.81784 28.214904,334.33351 C 28.010804,338.84919 27.910044,343.43449 27.898794,348.09446 C 27.887744,352.75443 27.971574,357.47116 28.151724,362.28237 C 28.332084,367.09356 28.603694,371.99357 28.973494,376.96291 C 29.343504,381.93223 29.806524,386.96886 30.364314,392.10323 C 31.180714,399.61526 32.143414,406.52257 33.335604,413.05667 C 34.528104,419.59074 35.956394,425.7534 37.666214,431.80966 C 39.375934,437.86592 41.366874,443.8272 43.735254,449.9058 C 46.103424,455.98441 48.848924,462.18908 52.016984,468.79015 C 57.897404,481.04361 65.109594,496.35744 68.042884,502.81484 C 70.335694,507.86211 72.795024,512.92017 75.408074,517.88949 C 78.020914,522.85882 80.764874,527.73921 83.563334,532.40581 C 86.361594,537.07243 89.217144,541.53504 92.066204,545.67413 C 94.915144,549.81323 97.772664,553.61796 100.53757,557.00475 C 103.46529,560.59115 107.57798,566.1385 111.85378,572.17792 C 116.12947,578.21735 120.55858,584.76289 124.11832,590.33974 C 131.23769,601.49348 142.54512,618.78567 149.24793,628.76531 C 153.08909,634.48442 156.30629,639.33707 158.95196,643.47868 C 161.59764,647.62032 163.66683,651.04837 165.27383,653.88968 C 166.88083,656.73105 168.02574,658.96832 168.75088,660.78658 C 169.47602,662.60495 169.79399,663.98369 169.79409,665.05609 C 169.79409,665.98871 170.00263,667.06257 170.36304,668.04479 C 170.72334,669.02702 171.2388,669.91738 171.78545,670.47513 C 172.19654,670.89457 172.76011,672.20584 173.42909,674.18627 C 174.09818,676.16679 174.85563,678.81951 175.70497,682.00274 C 177.40364,688.36944 179.40842,696.78517 181.36322,705.81352 C 183.31793,714.84185 185.24135,724.4788 186.83162,733.30252 C 188.42169,742.12634 189.672,750.14524 190.27708,755.89806 C 190.89816,761.80412 191.29944,769.66372 191.44656,777.57407 C 191.59357,785.48452 191.46514,793.44961 191.06726,799.54568 L 189.64485,821.71417 L 180.85746,829.49795 C 179.64421,830.57476 178.56528,831.65232 177.60155,832.71645 C 176.63783,833.78058 175.78735,834.81608 175.07285,835.86932 C 174.97745,836.00999 174.91087,836.15562 174.81991,836.29618 C 324.32972,848.64853 359.14758,845.57577 440.27674,832.78219 C 440.09102,832.60886 439.95309,831.65834 439.83416,830.1218 C 439.71523,828.58547 439.60745,826.46175 439.54974,823.94749 C 439.43432,818.91893 439.45373,812.31548 439.54974,805.68708 C 439.64565,799.05879 439.82435,792.40841 440.08709,787.26255 C 440.34963,782.11679 440.68216,778.45051 441.06703,777.86967 C 441.63359,777.01426 442.98105,772.19845 444.0699,767.13015 C 445.28986,761.4511 447.14205,754.08349 449.28547,746.01257 C 451.42889,737.94165 453.8779,729.14662 456.36603,720.65826 C 458.85416,712.16991 461.38215,703.97581 463.63624,697.04455 C 465.89012,690.11339 467.88478,684.45001 469.32598,681.05037 C 471.06791,676.94113 472.82027,672.51304 474.25703,668.70164 C 475.69379,664.89014 476.79038,661.7048 477.22831,660.03125 C 477.66625,658.35761 479.4822,654.09683 482.033,648.56925 C 484.58369,643.0417 487.86231,636.23375 491.29456,629.52068 C 494.72669,622.80763 497.85139,616.52871 500.11364,611.7858 C 502.37578,607.04292 503.78023,603.82838 503.78033,603.34532 C 503.78033,602.86226 504.75985,601.38864 506.34063,599.3714 C 507.9214,597.35416 510.10612,594.82219 512.50454,592.2446 C 517.30128,587.08948 522.98018,580.46644 525.11668,577.53122 C 526.18499,576.06363 529.42603,572.42 533.8094,567.77704 C 538.19267,563.13409 543.71578,557.49107 549.29805,551.91418 C 556.7735,544.44595 562.73197,538.41019 567.69481,533.0955 C 572.65766,527.78084 576.6193,523.17365 580.18049,518.57918 C 583.74167,513.98473 586.89847,509.40332 590.16915,504.09569 C 593.43972,498.78809 596.8252,492.764 600.9164,485.30987 C 604.93349,477.9905 608.13159,472.01145 610.7785,466.49118 C 612.10201,463.73108 613.28686,461.08819 614.38201,458.44481 C 615.47716,455.80144 616.4735,453.14706 617.41658,450.39843 C 619.30263,444.90118 620.96073,438.99439 622.69543,431.74396 C 624.42993,424.49357 626.2242,415.92133 628.41666,405.14165 C 629.36377,400.48512 630.20433,395.9991 630.91388,391.67628 C 631.62333,387.35346 632.2122,383.1918 632.684,379.09766 C 633.15579,375.00351 633.52476,370.98219 633.7587,367.01166 C 633.99264,363.04114 634.11043,359.10752 634.1064,355.15557 C 634.10238,351.20361 633.9691,347.23939 633.72711,343.20096 C 633.48502,339.16251 633.13246,335.04934 632.6523,330.81938 C 632.17204,326.58941 631.56903,322.24183 630.8506,317.71528 C 630.13216,313.18872 629.2787,308.48841 628.32189,303.56022 C 627.12072,297.37347 625.86246,291.35114 624.52873,285.49692 C 623.1949,279.6427 621.776,273.96373 620.32458,268.48458 C 618.87316,263.00542 617.38974,257.71608 615.83611,252.65456 C 614.28228,247.59302 612.67229,242.73961 611.03143,238.13823 C 609.39047,233.53684 607.71832,229.1985 606.00551,225.09981 C 604.29269,221.00112 602.52805,217.15844 600.75835,213.60499 C 598.98865,210.05152 597.19603,206.78365 595.38472,203.81796 C 593.57331,200.85227 591.75405,198.17263 589.91622,195.83728 C 587.87923,193.24877 585.73777,190.69613 583.46788,188.15215 C 581.1981,185.60817 578.79245,183.09635 576.29255,180.59842 C 573.79275,178.10047 571.18063,175.6264 568.4534,173.17604 C 565.72607,170.72567 562.90252,168.2863 559.95043,165.88503 C 554.04627,161.08249 547.67702,156.39269 540.88996,151.79566 C 534.1028,147.19865 526.88628,142.67678 519.23729,138.29746 C 511.58841,133.91815 503.51367,129.67116 495.02443,125.52178 C 486.53509,121.3724 477.62268,117.34305 468.31446,113.43579 C 459.00603,109.52852 449.30818,105.72526 439.20204,102.07234 C 429.09578,98.419388 418.60157,94.916338 407.71897,91.529938 C 402.86628,90.019904 398.00265,88.677833 393.08378,87.523161 C 388.16481,86.368488 383.17327,85.401564 378.06919,84.600194 C 372.96502,83.798834 367.73572,83.178289 362.32761,82.728181 C 356.9194,82.278062 351.34239,81.975203 345.51142,81.874275 C 342.59588,81.82381 339.60798,81.802124 336.56598,81.841439 z "
         style="opacity:1;fill:url(#radialGradient12462);fill-opacity:1;stroke:url(#radialGradient12470)" />
      <path
         id="path2393"
         d="M 171.846,835.9205 C 171.72356,836.0877 171.57438,836.24812 171.45886,836.41595 C 170.72949,837.47512 170.12761,838.53639 169.6522,839.58647 C 169.17669,840.63655 168.84178,841.68092 168.61982,842.72391 C 168.39776,843.76702 168.29844,844.82364 168.32952,845.86146 C 168.36049,846.89928 168.49749,847.93128 168.78118,848.96593 C 169.06478,850.00047 169.47122,851.03713 170.00713,852.0704 C 170.54304,853.10367 171.21966,854.14096 172.00736,855.17487 C 172.83832,856.26553 173.46601,857.12685 173.84623,857.91599 C 174.22635,858.70524 174.34291,859.40487 174.23337,860.16178 C 174.12374,860.9188 173.77469,861.74419 173.13647,862.73783 C 172.49815,863.73158 171.60009,864.90425 170.39427,866.4038 C 169.21612,867.86889 168.29504,869.04495 167.65197,870.10274 C 167.0088,871.16053 166.61711,872.08579 166.45833,873.04202 C 166.29945,873.99836 166.37729,874.98597 166.65191,876.14649 C 166.92641,877.30711 167.41421,878.63715 168.07142,880.3078 C 168.59567,881.64079 168.98559,882.86969 169.26506,883.97377 C 169.54442,885.07785 169.71218,886.08005 169.74904,887.01218 C 169.78579,887.94432 169.69442,888.80427 169.49094,889.62121 C 169.28736,890.43825 168.96474,891.20731 168.52309,891.96612 C 167.57113,893.60137 166.92476,895.24 166.55507,896.88698 C 166.18527,898.53407 166.09267,900.17999 166.29697,901.77487 C 166.50118,903.36985 166.97855,904.9195 167.74881,906.39855 C 168.51896,907.8777 169.58262,909.29355 170.91046,910.59294 C 171.91538,911.57633 172.7038,912.42106 173.26552,913.16898 C 173.82713,913.91691 174.1481,914.56877 174.2979,915.21661 C 174.44759,915.86446 174.39969,916.48197 174.16885,917.16511 C 173.93801,917.84836 173.55521,918.58994 172.97522,919.44397 C 172.41618,920.26694 172.00076,921.01042 171.74927,921.75581 C 171.49768,922.5012 171.39186,923.26667 171.45886,924.06765 C 171.52586,924.86863 171.77188,925.72013 172.16862,926.70975 C 172.56526,927.69927 173.1086,928.80018 173.84623,930.1114 C 174.6488,931.53835 175.27453,932.72465 175.68521,933.71132 C 176.09578,934.69788 176.30484,935.50583 176.33044,936.25439 C 176.35594,937.00295 176.16681,937.68832 175.81425,938.40105 C 175.46159,939.11368 174.92507,939.83381 174.20116,940.71289 C 173.52702,941.53152 172.95643,942.3772 172.49124,943.18991 C 172.02595,944.00262 171.6833,944.7961 171.42665,945.60077 C 171.1699,946.40535 171.02361,947.21753 170.97499,948.01174 C 170.92636,948.80596 170.97736,949.57492 171.13624,950.35656 C 171.29513,951.13809 171.54444,951.93474 171.91053,952.70147 C 172.2765,953.46821 172.75738,954.19775 173.33004,954.94726 C 174.47536,956.44628 176.0388,957.92279 178.00806,959.3397 C 179.59885,960.48426 180.80755,961.424 181.71811,962.24601 C 182.62856,963.06792 183.23725,963.76532 183.55708,964.45882 C 183.87691,965.15211 183.93194,965.84645 183.75065,966.60548 C 183.56927,967.36439 183.14991,968.1957 182.55692,969.2146 C 181.97269,970.21807 181.57936,971.06756 181.39549,971.85671 C 181.21163,972.64564 181.23217,973.35953 181.52454,974.13546 C 181.8168,974.91129 182.35787,975.74746 183.20215,976.71151 C 184.04643,977.67546 185.18205,978.79275 186.65422,980.14624 C 187.92621,981.31564 189.20759,982.29079 190.52563,983.15169 C 191.84356,984.01248 193.21281,984.75428 194.71966,985.36439 C 196.22642,985.9744 197.84952,986.46636 199.68798,986.8836 C 201.52633,987.30074 203.56941,987.62529 205.88224,987.90747 C 208.5847,988.23699 210.85469,988.61893 212.94752,989.16247 C 215.04026,989.70589 216.97431,990.43332 219.01274,991.47431 C 221.05107,992.51508 223.18396,993.87978 225.72319,995.70167 C 228.26232,997.52345 231.19355,999.78392 234.78881,1002.6702 C 239.32621,1006.3128 243.55472,1010.0882 246.69336,1013.2386 C 248.26267,1014.8137 249.56471,1016.2329 250.50025,1017.3999 C 251.43568,1018.5667 252.00097,1019.5064 252.1133,1020.075 C 252.3206,1021.1245 252.69091,1022.154 253.2102,1023.2125 C 253.72938,1024.2709 254.38411,1025.3432 255.17822,1026.383 C 255.97222,1027.4227 256.88866,1028.4611 257.92042,1029.4545 C 258.95207,1030.4478 260.10782,1031.4084 261.34017,1032.3277 C 263.80476,1034.1662 266.61913,1035.8063 269.66371,1037.1827 C 271.18595,1037.8708 272.76229,1038.501 274.37393,1039.0321 C 275.98547,1039.5632 277.64605,1040.0067 279.31004,1040.3532 C 280.72439,1040.6475 282.57545,1040.8558 284.73002,1041.0137 C 286.88449,1041.1715 289.34691,1041.277 292.02118,1041.3109 C 297.36962,1041.3786 303.53095,1041.2001 309.63612,1040.8485 C 315.74119,1040.4969 321.79752,1039.9657 326.89613,1039.2963 C 329.44538,1038.9615 331.73622,1038.6016 333.70342,1038.2064 C 335.67051,1037.8112 337.31354,1037.3942 338.47816,1036.9514 C 340.83095,1036.0566 343.86655,1034.4032 346.89844,1032.4598 C 349.93022,1030.5164 352.94239,1028.2716 355.18977,1026.2179 C 360.65899,1021.2198 366.35803,1016.2236 371.93359,1011.4882 C 377.50904,1006.7527 382.95039,1002.268 387.93543,998.34377 C 392.92047,994.4194 397.4651,991.06637 401.16277,988.50194 C 404.86043,985.93741 407.70835,984.17112 409.42179,983.51492 C 411.51968,982.71141 414.6993,981.8113 418.10026,981.00493 C 421.50122,980.19845 425.13612,979.47631 428.19815,979.05643 C 431.03543,978.66709 433.20188,978.35701 435.19901,977.76835 C 436.19752,977.47392 437.16765,977.11142 438.13478,976.64546 C 439.10191,976.17939 440.0803,975.61377 441.13518,974.89512 C 443.24474,973.45761 445.63872,971.42319 448.81348,968.48803 C 451.98825,965.55276 455.94494,961.71379 461.13749,956.63155 C 463.24891,954.56489 464.86354,952.95078 466.07349,951.5455 C 467.28344,950.14012 468.09612,948.9387 468.58991,947.74753 C 469.08359,946.55637 469.27231,945.37334 469.23515,943.94946 C 469.19798,942.52547 468.9404,940.86824 468.5577,938.76439 C 467.65561,933.80633 466.93914,928.28254 466.97682,926.51159 C 467.03112,923.95711 467.19785,921.3781 467.4608,918.8495 C 467.72364,916.32091 468.06464,913.85868 468.49318,911.58372 C 468.92172,909.30877 469.42593,907.20122 469.97722,905.40776 C 470.52841,903.61441 471.15279,902.13229 471.78388,901.04829 C 472.3553,900.0667 472.78745,899.19269 473.07435,898.34014 C 473.36115,897.48769 473.49112,896.65194 473.4937,895.79717 C 473.49618,894.9424 473.35557,894.0444 473.07435,893.05594 C 472.79303,892.06758 472.3808,891.00694 471.81609,889.75331 C 471.27378,888.54978 470.86795,887.45606 470.59014,886.45069 C 470.31233,885.44542 470.15355,884.5191 470.13848,883.61043 C 470.1234,882.70186 470.24729,881.81581 470.49341,880.90227 C 470.73942,879.98885 471.11707,879.04889 471.62252,878.02904 C 472.14955,876.96554 472.51687,875.99505 472.75173,875.08965 C 472.9865,874.18436 473.07776,873.33202 473.00983,872.44755 C 472.94179,871.56319 472.71364,870.67396 472.33228,869.67334 C 471.95092,868.67283 471.42441,867.55861 470.71919,866.30467 C 469.92054,864.8848 469.31185,863.74827 468.91253,862.73783 C 468.5131,861.72738 468.29961,860.83752 468.29961,859.96362 C 468.2995,859.08983 468.51341,858.23262 468.91253,857.2225 C 469.31165,856.21237 469.92085,855.075 470.71919,853.65566 C 471.80948,851.7172 472.63497,849.83539 473.2034,848.07417 C 473.77172,846.31305 474.06151,844.66607 474.13894,843.12023 C 474.21626,841.57449 474.06987,840.15199 473.68727,838.85989 C 473.37157,837.79365 472.87923,836.79504 472.26775,835.9205 L 171.846,835.9205 z "
         style="fill:url(#linearGradient11484);fill-opacity:1" />
      <path
         transform="matrix(0.9610231,0.5745405,-0.5288292,1.0440925,-523.45727,-989.41154)"
         d="M 1470.1689 476.14212 A 207.33151 140.01608 0 1 1  1055.5059,476.14212 A 207.33151 140.01608 0 1 1  1470.1689 476.14212 z"
         sodipodi:ry="140.01608"
         sodipodi:rx="207.33151"
         sodipodi:cy="476.14212"
         sodipodi:cx="1262.8374"
         id="path4367"
         style="fill:url(#radialGradient11478);fill-opacity:1"
         sodipodi:type="arc" />
      <path
         id="path2223"
         d="M 274.95524,1044.3295 C 261.64429,1041.5591 249.41206,1032.4343 247.75344,1024.038 C 247.30425,1021.7637 239.51187,1013.9422 230.43707,1006.657 C 216.05636,995.11208 212.34466,993.21674 201.53505,991.89833 C 192.28381,990.77005 187.39953,988.79238 182.31166,984.1147 C 176.42319,978.70104 175.86075,977.20793 178.19743,973.19384 C 180.56963,969.11866 180.00688,967.89844 173.64372,963.31999 C 165.76699,957.65258 164.46661,951.25521 169.85996,944.70618 C 172.75567,941.18992 172.7088,939.81318 169.49842,934.10561 C 166.5483,928.86051 166.36938,926.72125 168.60551,923.4293 C 170.92599,920.01317 170.57746,918.50537 166.55779,914.57171 C 161.24663,909.37396 160.36415,902.48388 164.17187,895.94278 C 165.93878,892.90743 165.80963,889.63397 163.71266,884.30232 C 161.08423,877.6196 161.31332,876.24053 166.02622,870.38003 C 170.8498,864.38172 170.97647,863.50676 167.65284,859.14413 C 161.35162,850.87329 163.1017,842.65203 173.00757,833.98837 L 181.96664,826.15295 L 183.44377,803.86144 C 184.25625,791.60114 183.88367,771.85144 182.6158,759.97329 C 180.14584,736.83271 167.09886,677.45878 163.7424,674.08472 C 162.6266,672.96309 161.71367,670.5109 161.71367,668.63543 C 161.71367,664.32152 156.43306,655.12246 140.75146,632.11801 C 133.91041,622.08246 122.36812,604.69462 115.10184,593.47843 C 107.83555,582.26225 97.000754,567.18382 91.024425,559.97081 C 79.737134,546.34778 67.212229,525.76834 57.852191,505.46621 C 54.8584,498.97262 47.498274,483.578 41.496446,471.25593 C 28.563236,444.70369 22.736085,424.36655 19.403262,394.15017 C 10.2915,311.5402 25.623438,250.6199 68.983273,197.14747 C 88.764138,172.75313 125.64365,139.6625 147.70442,126.51382 C 183.96244,104.90324 210.65703,95.555596 253.94131,89.312776 C 325.07272,79.053611 364.91846,79.733128 404.54089,91.881025 C 493.39864,119.12402 557.24426,155.13988 590.51008,196.78777 C 605.51651,215.57535 619.90547,255.33047 629.71337,305.10166 C 637.52598,344.74795 637.5519,369.7798 629.81898,407.24068 C 620.86827,450.60087 618.14403,458.42424 601.74389,487.86567 C 585.04188,517.84912 579.57458,524.79872 549.05585,554.83892 C 537.66099,566.05511 526.55375,577.64697 524.37316,580.5986 C 522.19257,583.55023 516.4029,590.20665 511.50716,595.39064 C 506.61142,600.57463 502.60579,605.61096 502.60579,606.58249 C 502.60579,607.55401 496.87352,619.39537 489.8675,632.89669 C 482.86158,646.39793 476.39797,660.19836 475.50424,663.56429 C 474.6104,666.93022 470.96983,676.44601 467.41412,684.71061 C 461.53091,698.38518 446.64785,748.41293 441.66725,771.25633 C 440.55599,776.35294 439.17364,781.22677 438.59541,782.08693 C 437.02464,784.42361 436.26915,835.88159 437.78509,837.27535 C 438.50425,837.93651 443.48846,837.38928 448.86095,836.05925 C 466.60174,831.66733 475.07756,842.11431 466.35521,857.62175 C 463.16196,863.29899 463.16206,864.61127 466.35665,870.29094 C 469.17773,875.30639 469.36541,877.74684 467.25719,882.00073 C 465.23549,886.08024 465.28215,888.90211 467.45128,893.71644 C 469.71033,898.73062 469.70331,901.09805 467.41752,905.02463 C 464.89367,909.36043 462.83635,920.28298 462.61914,930.50083 C 462.58145,932.27178 463.28874,937.77739 464.19083,942.73545 C 465.72184,951.15069 465.2293,952.339 456.78352,960.6055 C 436.01343,980.93467 435.19661,981.4912 423.84759,983.04803 C 417.72352,983.88812 409.27992,985.89019 405.08403,987.49712 C 398.23038,990.12199 372.71538,1010.2081 350.83869,1030.2006 C 346.34403,1034.3081 338.81676,1039.1329 334.11129,1040.9226 C 324.79501,1044.4658 286.2701,1046.6845 274.95524,1044.3295 z M 355.11418,1015.4806 C 362.35083,1012.0401 384.63191,990.90712 382.79923,989.22209 C 382.13882,988.61505 354.71444,988.81828 321.85594,989.67389 C 273.98347,990.92054 262.1134,991.80744 262.1134,994.1382 C 262.1134,995.73783 263.27792,997.04673 264.70136,997.04673 C 266.33572,997.04673 266.71656,999.14498 265.73487,1002.7409 C 264.22771,1008.2619 264.34416,1008.3372 269.56778,1005.2156 C 285.43201,995.7354 285.53215,995.70782 288.90173,999.88255 C 291.83389,1003.5154 292.5582,1003.5534 299.15045,1000.4192 C 303.05201,998.56435 307.87239,997.04673 309.8624,997.04673 C 315.68552,997.04673 314.02308,1003.0883 307.31015,1006.3219 C 303.06564,1008.3665 302.02799,1009.7991 303.9858,1010.9115 C 305.67755,1011.8728 310.59549,1009.7482 316.11127,1005.6729 C 326.50628,997.99271 334.23538,998.05643 329.73638,1005.7852 C 325.7224,1012.6807 328.07611,1012.6335 338.46358,1005.6104 C 346.1646,1000.4035 348.42541,999.73988 350.52794,1002.0689 C 352.50391,1004.258 351.73706,1006.1256 347.28225,1009.9733 C 342.94389,1013.7204 342.20347,1015.4516 344.39284,1016.7293 C 348.19229,1018.9469 347.70367,1019.0038 355.11418,1015.4806 z M 285.46216,1008.7265 C 285.46216,1008.2059 284.41151,1007.7799 283.12723,1007.7799 C 281.84306,1007.7799 280.79241,1008.8029 280.79241,1010.0533 C 280.79241,1011.3035 281.84306,1011.7295 283.12723,1010.9999 C 284.41151,1010.2701 285.46216,1009.2472 285.46216,1008.7265 z M 242.07599,997.8903 C 247.70802,995.90333 246.47784,992.75342 240.06987,992.75342 C 233.71136,992.75342 230.12106,996.08331 234.66403,997.76718 C 236.27723,998.36514 237.77397,998.93065 237.98994,999.02387 C 238.20591,999.11708 240.04468,998.60705 242.07599,997.8903 z M 273.78773,983.20624 C 292.40841,982.5399 327.22079,981.54373 351.14861,980.99269 C 375.07653,980.44155 402.39458,978.91346 411.85549,977.59696 C 431.2616,974.89641 441.70792,970.25202 437.36079,966.25727 C 433.75283,962.94175 338.45966,963.77591 262.1134,967.79117 C 230.65087,969.44586 201.23142,970.66789 196.73676,970.50672 C 189.92431,970.26248 188.44068,971.01664 187.81909,975.04014 C 186.9172,980.87813 197.81456,985.87709 203.89393,982.41425 C 206.18353,981.11 209.00636,981.08242 211.45134,982.34037 C 213.92368,983.61249 216.98684,983.54496 219.80947,982.15606 C 223.15829,980.50834 225.0078,980.78661 227.25549,983.27663 C 228.96769,985.17334 232.3163,986.12534 235.08906,985.5036 C 237.7527,984.90638 255.16715,983.87258 273.78773,983.20624 z M 229.42513,959.48049 C 233.19279,955.30671 238.76464,955.33673 238.76464,959.53069 C 238.76464,962.292 241.76225,962.61529 258.02735,961.60812 C 268.62181,960.95204 281.88631,959.96548 287.50389,959.41571 C 293.12137,958.86594 331.99708,957.81396 373.89426,957.07808 C 418.92191,956.28714 451.26443,954.86115 452.98964,953.59083 C 456.42663,951.0598 456.90637,939.90787 453.65758,938.06189 C 452.41966,937.35856 444.80216,938.37091 436.72969,940.31148 C 420.32305,944.25575 405.10736,944.50232 279.62499,942.85698 C 234.88599,942.27033 195.48222,942.68704 189.33978,943.81184 C 177.95235,945.89703 173.71155,950.37254 178.30336,955.45932 C 181.38108,958.86869 193.43987,959.42828 195.56935,956.26051 C 197.79474,952.95006 201.40662,953.71976 201.40662,957.50441 C 201.40662,960.13024 202.9364,960.58605 208.18892,959.52541 C 212.07954,958.73975 215.62256,959.12465 216.49884,960.42816 C 218.72712,963.74305 226.06278,963.20522 229.42513,959.48049 z M 437.15431,931.95578 C 450.24589,928.65865 460.31497,920.81383 456.25102,917.07748 C 454.90294,915.83812 448.85961,916.1316 440.39742,917.84738 C 430.0435,919.94659 397.18603,920.52647 305.11005,920.23489 C 177.22421,919.82991 172.69197,920.14284 176.43775,929.11711 C 178.05218,932.98525 186.26474,933.92235 188.56477,930.50083 C 190.65276,927.39477 194.40194,927.86528 194.40194,931.23332 C 194.40194,935.09956 215.70855,934.73136 220.89315,930.7754 C 224.14968,928.29066 224.92841,928.41758 226.27896,931.65352 C 227.72295,935.11299 230.96771,935.33704 264.24835,934.27481 C 284.26316,933.63595 313.24715,933.87701 328.65734,934.81041 C 368.53973,937.22624 421.79109,935.82509 437.15431,931.95578 z M 224.07886,909.03439 C 225.66036,903.47404 229.42513,903.47404 229.42513,909.03439 C 229.42513,913.25214 230.97576,913.32738 317.56672,913.31143 C 366.04458,913.30244 414.32938,912.38373 424.86613,911.26982 C 446.58848,908.97331 458.96101,904.24405 457.71514,898.71371 C 456.78011,894.56371 454.93515,894.6082 437.22916,899.20768 C 422.28983,903.0884 386.33254,903.56757 346.16894,900.42104 C 280.18929,895.25203 257.80085,894.55261 200.65784,895.87504 C 174.38776,896.48304 171.05318,897.25379 171.05318,902.71755 C 171.05318,909.38801 178.24492,911.41535 183.10443,906.11466 L 187.3156,901.52121 L 188.79623,906.35107 C 190.48768,911.86905 192.50556,912.28407 199.23295,908.49773 C 203.25602,906.23345 204.36304,906.40106 206.32187,909.57106 C 209.68876,915.0197 222.48642,914.6329 224.07886,909.03439 z M 442.24662,890.80464 C 456.60162,886.18614 461.86953,880.918 458.28697,874.76359 C 456.63971,871.9338 454.11937,870.59425 451.67996,871.25203 C 418.6188,880.16648 396.68688,881.77193 345.00153,879.06102 C 321.88629,877.84862 288.7893,876.3218 271.4529,875.66804 C 227.0773,873.99474 215.95333,873.18552 201.98496,870.61465 C 187.59868,867.96684 176.40089,869.51247 173.46801,874.55075 C 170.06024,880.4049 174.16198,883.93105 182.43586,882.26029 C 188.20447,881.09544 189.73219,881.49694 189.73219,884.17751 C 189.73219,888.545 195.28121,888.54712 199.22242,884.1811 C 201.96245,881.14564 202.70535,881.31273 206.37886,885.79003 C 210.36662,890.65055 210.66116,890.68648 217.23998,887.11351 C 222.3326,884.34787 224.66463,884.05005 226.68489,885.90734 C 228.33969,887.42877 240.78376,888.6305 259.16596,889.04404 C 275.55516,889.41267 308.92768,891.10636 333.32709,892.80756 C 386.15962,896.49128 426.90022,895.74219 442.24662,890.80464 z M 423.2199,870.01405 C 441.88446,867.84414 443.58778,867.20613 451.82212,859.30054 C 456.63785,854.67718 460.57792,848.87597 460.57792,846.40888 C 460.57792,842.42555 459.59768,842.06886 451.82212,843.22346 C 447.00649,843.93852 437.32125,845.99767 430.29943,847.79937 C 415.66455,851.55443 395.64479,851.94514 367.18287,849.03112 C 322.77486,844.48459 291.37789,842.48674 248.10414,841.4541 C 223.06259,840.85646 197.13805,839.98382 190.49408,839.5148 C 178.96604,838.70103 178.28384,838.95108 175.56394,844.98807 C 171.41327,854.20097 175.70342,857.57282 185.0901,852.47494 C 192.87763,848.24567 196.73676,849.24639 196.73676,855.49517 C 196.73676,860.4117 198.63892,860.63882 204.66914,856.44232 C 210.1396,852.63526 213.74921,854.34417 211.85118,859.84238 C 210.11348,864.87601 215.79176,865.49162 220.08563,860.73499 C 224.22143,856.15337 229.42513,856.75144 229.42513,861.80832 C 229.42513,868.69765 240.10993,867.51103 243.92219,860.19833 C 245.61477,856.95161 248.56148,854.29513 250.47045,854.29513 C 253.72203,854.29513 253.81071,855.55647 251.15977,864.10377 C 250.24467,867.05437 257.5985,867.80441 310.40006,870.14552 C 343.55692,871.61569 373.31189,873.06747 376.52238,873.37174 C 383.5666,874.03924 396.75367,873.09104 423.2199,870.01405 z M 424.46103,842.06432 C 425.3562,841.24062 426.63459,827.71686 427.30182,812.01137 C 428.3503,787.33425 430.02347,777.91675 439.62087,742.66985 C 445.72913,720.23746 454.51931,692.96919 459.15468,682.07358 C 463.79006,671.17798 467.5826,660.84494 467.5826,659.11129 C 467.5826,653.15854 499.79184,594.54849 508.78571,584.13544 C 513.73389,578.40649 527.05961,564.7082 538.39842,553.69485 C 567.47501,525.45254 581.15133,507.77331 596.64364,478.40181 C 609.11765,454.7524 610.7361,449.88778 618.24118,413.48684 C 627.93675,366.46181 628.21115,353.64884 620.45335,310.18801 C 612.57549,266.05438 600.11686,227.82877 587.42368,208.84628 C 573.99055,188.75734 536.56543,158.1898 507.27555,143.3841 C 500.21254,139.81383 489.39085,134.22247 483.22725,130.95887 C 470.96921,124.46815 438.10627,112.30601 399.87114,100.10984 L 375.35497,92.289705 L 329.80927,92.402164 C 256.27035,92.583739 207.87993,102.95631 162.56033,128.25235 C 141.25257,140.14569 107.25804,167.05773 90.797921,185.06366 C 77.655242,199.4407 75.613612,202.79003 79.992957,202.79003 C 85.745363,202.79003 81.352288,209.45212 70.653452,216.95339 C 57.810896,225.95765 55.183186,230.46463 65.687614,225.47048 C 72.101052,222.42138 75.323205,222.8618 75.323205,226.7875 C 75.323205,227.78603 69.54437,232.00167 62.481371,236.15557 C 55.418361,240.30947 49.639528,244.13727 49.639528,244.6618 C 49.639528,245.18632 52.932399,245.01002 56.956913,244.27 C 67.3516,242.35867 64.858832,247.38148 51.974456,254.30938 C 42.47483,259.41726 35.475208,267.29126 42.900066,264.51725 C 44.680504,263.85206 47.975955,262.62879 50.223234,261.79888 C 58.267206,258.82835 54.396929,266.56538 44.969776,272.30101 C 33.821133,279.08407 33.186531,280.90365 42.634951,278.99573 C 51.981889,277.1083 51.529295,280.38098 41.467436,287.43675 C 32.641952,293.6256 30.123364,298.95398 37.811685,295.17104 C 51.502143,288.43485 53.624814,296.39356 40.300024,304.5006 C 30.890834,310.22535 27.299193,316.2604 35.046565,313.32809 C 45.462013,309.38594 47.79116,309.43369 46.928918,313.57163 C 46.463213,315.80663 42.166872,319.56721 37.381493,321.92852 C 28.889983,326.11861 24.793613,330.92747 27.553984,333.46531 C 28.309168,334.15964 32.175937,333.01351 36.146667,330.91832 C 41.437807,328.12647 44.048276,327.74705 45.919253,329.49798 C 48.45281,331.86896 47.69071,332.67481 31.273226,344.98389 C 28.532884,347.03847 26.290767,349.69494 26.290767,350.88714 C 26.290767,354.16465 32.336678,353.48344 35.630271,349.83484 C 37.228908,348.06386 39.984323,346.61488 41.753404,346.61488 C 47.865388,346.61488 44.935088,352.72522 35.291032,360.0903 C 23.907318,368.78387 24.640409,374.54569 36.298736,368.01037 C 45.236026,363.00035 47.304704,362.77804 47.304704,366.82757 C 47.304704,368.49933 43.101896,372.92746 37.965199,376.66783 C 32.828399,380.4082 28.625695,384.83633 28.625695,386.5081 C 28.625695,390.40351 29.822633,390.33214 36.99972,386.00861 C 41.616511,383.22747 43.474068,383.03034 45.673444,385.08816 C 47.858677,387.1328 46.55303,389.13036 39.716318,394.20201 C 34.900587,397.77443 30.960519,402.53557 30.960519,404.78235 C 30.960519,409.91309 32.937315,409.86902 40.300024,404.57415 C 43.510511,402.26535 47.450579,400.35486 49.055822,400.32861 C 54.81473,400.23441 51.805765,406.1269 42.634951,412.90259 C 33.548689,419.61578 31.457402,424.35017 35.191098,429.75395 C 36.516464,431.67226 39.423845,430.56873 45.825101,425.71767 C 52.315657,420.79892 55.321731,419.67282 57.244017,421.44011 C 59.166304,423.20739 56.972089,426.27078 48.909121,433.07652 C 37.955701,442.32214 35.168799,447.50694 41.152561,447.50694 C 42.905744,447.50694 47.011509,445.57496 50.276711,443.21366 C 56.413986,438.77523 61.313958,437.6353 61.313958,440.64592 C 61.313958,441.59496 57.636527,445.64842 53.141868,449.65358 C 48.647207,453.65874 44.969776,458.67818 44.969776,460.80789 C 44.969776,465.93348 46.475705,465.70303 54.735134,459.31346 C 66.539119,450.1818 68.453663,454.0687 58.599116,467.15807 C 54.223696,472.96979 52.777852,481.85317 56.207304,481.85317 C 57.251244,481.85317 61.12524,478.95521 64.816298,475.41325 C 70.661918,469.80357 77.658029,466.86978 77.658029,470.02809 C 77.658029,470.6082 73.939716,475.56146 69.394985,481.03535 C 60.099986,492.23074 60.25443,495.35277 69.763027,488.47624 C 78.70837,482.00717 82.666608,486.06033 75.774147,494.63134 C 68.797754,503.30665 69.326125,506.73768 76.805492,501.32873 C 84.053607,496.08703 88.3293,495.67333 90.15093,500.03749 C 91.545259,503.37818 87.265436,508.32781 79.810846,511.99571 C 77.342638,513.21017 75.323205,515.61881 75.323205,517.34825 C 75.323205,521.54172 76.947754,521.31796 84.110697,516.13785 C 92.769039,509.87629 96.542068,514.13301 89.783404,522.53766 C 81.662208,532.63661 84.128557,537.92396 92.834801,529.07925 C 101.42026,520.35719 104.54248,527.48959 96.337038,537.08005 C 88.282947,546.49378 91.869219,553.6662 101.52226,547.45004 C 111.05131,541.31372 113.45478,543.32903 107.74563,552.66826 C 102.03163,562.01529 103.23032,565.86278 110.54751,561.66152 C 117.65005,557.58351 120.33516,560.67911 115.80767,567.72573 C 112.49312,572.88435 112.3553,574.43107 114.95359,577.30936 C 117.76093,580.41933 118.56619,580.29738 123.52944,576.01058 C 130.6002,569.90344 133.419,572.52156 128.31895,580.45919 C 124.13576,586.96983 122.99983,595.62507 126.32863,595.62507 C 127.41376,595.62507 130.20335,593.6931 132.52764,591.3318 C 136.41176,587.38597 143.03466,585.42652 143.03466,588.22321 C 143.03466,588.87479 140.71161,593.11877 137.87247,597.65427 C 133.44254,604.73091 133.16256,606.4017 135.89877,609.43288 C 138.81709,612.66569 139.61182,612.50311 145.27482,607.51504 C 148.67784,604.51751 152.19278,602.06499 153.08558,602.06499 C 156.56273,602.06499 154.4669,610.18757 150.03924,613.87151 C 145.42937,617.70711 143.56871,625.67804 147.28331,625.67804 C 148.33592,625.67804 151.48106,623.26306 154.2725,620.31141 C 163.74766,610.29266 167.6707,615.24038 159.37875,626.75137 C 150.99171,638.39437 155.65981,646.11945 165.21601,636.41121 C 173.89789,627.59124 176.7552,634.62092 168.7102,645.00818 C 166.13741,648.33004 164.67381,652.58467 165.45769,654.46278 C 167.25558,658.77036 168.47729,658.74351 173.84307,654.2791 C 180.57717,648.67605 183.9963,653.6691 178.12476,660.53179 C 173.51757,665.91661 171.61624,675.11978 175.13922,674.9825 C 176.10233,674.94488 178.92991,673.49595 181.42268,671.76252 C 190.62385,665.36409 192.98727,670.66732 185.06243,679.92978 C 180.86045,684.84103 178.57023,694.37056 181.59179,694.37056 C 182.25127,694.37056 184.83025,693.19958 187.32282,691.7684 C 194.70009,687.53269 195.51164,691.55429 188.89039,699.53544 C 179.09612,711.34109 181.82748,720.49111 192.13463,710.40409 C 203.48397,699.29723 205.12297,708.19847 194.2348,721.81036 C 186.6429,731.30153 186.81675,738.24772 194.48659,731.8662 C 196.84661,729.90269 199.84845,728.90472 201.15751,729.64852 C 204.07469,731.30618 202.34598,735.87511 194.77648,746.51326 C 190.90899,751.94838 189.76357,755.36388 191.32638,756.80076 C 192.8892,758.23753 194.65817,757.85242 196.65469,755.64067 C 199.75481,752.20636 206.07637,751.09086 206.07637,753.97815 C 206.07637,754.88471 203.44959,759.18034 200.2391,763.52406 C 197.02872,767.86778 194.40194,773.55475 194.40194,776.16165 C 194.40194,780.61761 194.65776,780.68873 198.67185,777.3488 C 201.0203,775.39481 203.64698,773.79613 204.50902,773.79613 C 208.16022,773.79613 205.63637,783.19947 200.2391,789.70517 C 197.02872,793.5749 194.40194,798.50886 194.40194,800.66936 C 194.40194,804.26283 194.86228,804.19984 199.80592,799.92999 C 202.77803,797.36293 205.93019,795.26256 206.81049,795.26256 C 210.64763,795.26256 207.85743,803.75724 201.47156,811.51666 C 194.5378,819.94169 191.34269,828.98676 197.20381,823.59825 C 202.08799,819.10774 206.30484,820.59577 205.58093,826.55434 C 204.95438,831.71193 205.6596,832.14344 215.99958,832.92825 C 226.89478,833.75523 227.0902,833.66022 227.0902,827.53583 C 227.0902,824.10712 228.1677,818.6962 229.4846,815.51163 C 230.8016,812.32715 232.33127,790.77099 232.88401,767.60917 C 233.43674,744.44735 234.58382,702.79611 235.43315,675.05077 C 237.13751,619.37407 235.17021,598.90005 226.04843,577.37864 C 223.04587,570.29472 217.67255,557.25389 214.10775,548.399 C 210.54285,539.54411 196.29284,511.53047 182.44102,486.14645 C 158.67745,442.59854 153.17395,430.95521 139.42558,395.14149 C 136.30088,387.0019 131.07953,376.16161 127.82248,371.05194 C 122.31475,362.41144 122.01082,360.51874 123.47638,343.99172 C 125.00647,326.73646 125.33745,325.95757 134.90356,317.09858 C 145.56099,307.22902 152.49052,305.71227 161.22536,311.33717 C 173.78991,319.42825 183.43427,350.00697 177.01898,361.41278 C 172.50862,369.43149 165.1549,371.81383 159.48219,367.09397 C 153.19635,361.86403 149.18856,346.80496 152.16614,339.60471 C 155.96158,330.42677 159.37875,332.69525 159.37875,344.39272 C 159.37875,354.98694 162.90669,359.49472 171.19812,359.49472 C 179.07588,359.49472 163.7235,320.26567 154.83009,317.67057 C 148.97661,315.96252 140.20389,320.57243 134.75304,328.22079 C 131.59386,332.65369 131.49589,334.68922 134.05711,342.68071 C 135.69653,347.79613 137.18222,357.29441 137.35865,363.78799 C 137.54675,370.71348 140.35244,382.25047 144.1453,391.69431 C 147.70153,400.54919 151.13139,410.47736 151.76713,413.75691 C 152.40297,417.03644 154.81564,420.65087 157.12858,421.78895 C 159.44162,422.92704 162.08233,426.9902 162.99681,430.81821 C 163.91129,434.64623 174.16569,454.6985 185.78417,475.37884 C 197.40275,496.05919 209.50562,517.79157 212.67925,523.67304 C 215.85298,529.55451 223.30386,540.18922 229.23662,547.30574 C 256.64913,580.18752 257.98007,587.76005 254.51964,691.15057 C 253.65028,717.12486 252.35382,756.2474 251.63848,778.08944 C 250.92315,799.93147 249.7863,820.94854 249.11215,824.79396 C 248.05139,830.84448 248.70726,832.07253 253.98446,833.91714 C 257.33834,835.08949 268.68231,836.04952 279.19325,836.05047 C 289.70409,836.05153 309.78517,837.05331 323.81776,838.27671 C 354.50869,840.95242 356.02969,840.19022 357.04885,821.62397 C 357.4234,814.79942 358.82175,792.31091 360.15621,771.64958 C 361.49055,750.98814 363.06472,724.4235 363.65442,712.6169 C 364.24401,700.81041 365.34648,678.59267 366.10425,663.24428 C 367.6204,632.53852 371.53868,614.72289 378.31665,607.71703 C 380.75306,605.19875 390.19023,589.61448 399.28816,573.08536 C 408.38609,556.55623 419.42561,537.55049 423.82033,530.85035 C 434.93222,513.90943 474.3073,424.08937 478.25748,406.67148 C 480.04628,398.7838 483.03832,389.62181 484.9063,386.31152 C 486.77429,383.00124 489.02776,373.92278 489.91406,366.13715 C 490.80035,358.35152 493.58457,348.23278 496.1013,343.65103 C 502.75941,331.5297 504.47522,306.15417 499.14258,298.67172 C 496.28444,294.66131 493.04846,292.94889 488.32791,292.94889 C 480.90718,292.94889 480.21239,294.31904 484.8106,299.88583 C 489.04335,305.01029 487.72707,330.28567 482.87273,337.09713 C 478.52797,343.19343 470.97912,343.83972 463.13295,338.78709 C 458.05737,335.51862 457.48347,335.51665 455.50874,338.76078 C 452.58794,343.55931 445.31959,346.8632 441.02056,345.34651 C 436.53943,343.76558 429.65636,325.08322 430.64589,317.18676 C 431.0892,313.64884 433.00353,310.95116 435.36272,310.54004 C 438.70443,309.95766 439.44423,311.99518 440.03248,323.4015 C 440.64664,335.30968 441.29838,336.955 445.40125,336.955 C 451.70577,336.955 452.6027,328.4152 447.87028,313.44843 C 443.32999,299.08974 439.19935,295.09553 428.89034,295.09553 C 423.41657,295.09553 420.88508,294.10116 420.88508,291.95108 C 420.88508,286.81819 429.59277,283.73986 437.2082,286.18058 C 447.93378,289.6181 453.14109,296.13285 456.26,310.01593 C 459.47482,324.32593 463.51018,327.60374 462.43021,315.02787 C 461.90886,308.95713 462.68304,306.87678 465.67394,306.3118 C 471.88957,305.13765 474.61123,312.28592 472.00654,322.94388 C 470.42701,329.40711 470.50309,332.98547 472.25431,334.59547 C 476.65813,338.64425 478.83169,331.86995 477.61741,317.88064 C 476.7082,307.40579 475.29807,303.76436 470.6342,299.84754 C 466.88162,296.69604 463.19685,295.40465 460.33769,296.23894 C 454.78267,297.85991 451.84989,292.078 455.93284,287.55497 C 459.56309,283.53349 467.4008,283.56023 473.22785,287.61393 C 477.22893,290.39731 478.05101,290.27574 480.94858,286.47235 C 486.71007,278.90988 499.76913,282.85581 507.61726,294.53058 C 511.78703,300.73357 512.28299,303.78599 510.95752,315.0917 C 510.10147,322.39391 507.37465,334.64736 504.89798,342.3216 C 496.14342,369.44922 486.58443,401.53786 482.87335,416.25663 C 480.80684,424.453 476.60176,436.52784 473.52889,443.08963 C 470.45591,449.65144 464.08346,463.23107 459.36777,473.26662 C 454.65197,483.30215 448.25216,497.97679 445.14584,505.87693 C 442.03942,513.77705 434.98704,527.30088 429.47373,535.92988 C 412.90676,561.85903 395.2208,598.4569 392.74402,611.9349 C 391.46346,618.90329 390.44863,634.26455 390.489,646.07115 C 390.66935,698.9731 386.16241,769.89998 380.19021,808.14238 C 375.5568,837.81233 375.60583,841.93105 380.60843,843.25622 C 386.50495,844.81813 422.53244,843.83896 424.46103,842.06432 z M 276.70037,565.03546 C 275.4194,563.55965 272.67555,559.28116 270.60284,555.52771 C 268.53014,551.77427 264.72676,548.08828 262.15087,547.33663 C 258.56997,546.29171 257.60212,544.36096 258.03922,539.13462 C 258.57224,532.76306 258.15289,532.34875 251.85962,533.02932 C 246.07965,533.65436 245.3669,533.191 246.90638,529.80937 C 250.66309,521.55714 250.71585,516.67079 247.13329,508.78764 C 245.09889,504.31117 243.43439,498.71634 243.43439,496.35465 C 243.43439,492.69252 243.97484,492.47305 247.10738,494.86323 C 249.12743,496.40462 252.86598,501.42449 255.41523,506.01849 C 259.22656,512.88697 260.64835,513.91476 263.41657,511.80251 C 267.65479,508.56868 267.59997,501.6795 263.28081,494.73301 C 261.44555,491.78138 259.90669,487.67593 259.86127,485.6098 C 259.71828,479.119 266.68683,481.52191 270.75563,489.36641 C 275.09141,497.72551 276.55646,498.35221 280.79241,493.6597 C 284.52249,489.52753 287.57915,489.56663 289.33316,493.76891 C 290.13511,495.69042 288.43892,499.33311 285.32155,502.38391 C 281.34803,506.27246 280.60875,508.30265 282.52474,510.06414 C 284.44062,511.82565 286.85566,511.20997 291.66066,507.73503 C 300.10653,501.62716 301.88418,505.70461 294.68077,514.66224 L 289.34896,521.2925 L 297.61871,535.3824 C 302.16706,543.13185 305.40769,550.67981 304.82027,552.15562 C 302.72278,557.42447 298.19829,554.59685 291.29932,543.70563 C 283.18783,530.90005 279.84014,529.13298 276.0445,535.65333 C 273.76326,539.57228 274.34738,542.21685 279.60383,551.76859 C 285.37069,562.24767 285.82917,567.71876 280.94045,567.71876 C 279.88939,567.71876 277.98124,566.51128 276.70037,565.03546 z M 275.34775,519.58582 C 274.57037,517.72329 272.92146,516.19941 271.68354,516.19941 C 268.68334,516.19941 266.06451,524.12693 268.0761,527.11939 C 270.44582,530.64453 277.0903,523.76071 275.34775,519.58582 z M 193.47796,359.74207 C 188.15606,354.33553 188.92084,328.36844 194.40194,328.36844 C 197.10068,328.36844 197.7425,330.58489 197.19958,338.02832 C 196.76009,344.05263 197.78122,349.29594 199.91287,351.96003 C 203.25974,356.14286 203.39033,356.11195 206.18302,350.4769 C 212.35519,338.02256 198.70437,312.26864 185.93087,312.26864 C 183.03639,312.26864 180.01886,313.23464 179.22527,314.41528 C 177.04355,317.66075 171.05318,316.98636 171.05318,313.49529 C 171.05318,308.30505 178.0177,303.68209 185.83682,303.68209 C 195.02663,303.68209 204.923,311.62705 210.9623,323.85343 C 216.61674,335.30054 216.53735,344.76477 210.69863,355.28696 C 205.47006,364.70944 199.80922,366.17396 193.47796,359.74207 z M 231.8569,357.85185 C 227.45484,354.57466 226.93524,352.31062 227.55395,339.09989 C 228.41567,320.7009 232.50017,319.36151 234.09488,336.955 C 234.9596,346.49561 236.17027,349.83484 238.76464,349.83484 C 247.28165,349.83484 243.05747,321.31947 232.96629,310.6929 C 227.41509,304.84719 227.21863,304.81151 220.25659,308.38464 C 211.18189,313.04212 208.38291,309.49144 215.57816,302.44984 C 222.14119,296.02715 225.88428,295.92906 235.41055,301.93028 C 244.10719,307.40893 250.43897,322.98276 250.43897,338.89476 C 250.43897,355.90759 241.49775,365.02922 231.8569,357.85185 z M 267.32422,355.5543 C 261.56335,352.19257 257.62029,330.67045 261.19572,322.10409 C 261.97527,320.23654 264.15224,318.70856 266.03354,318.70856 C 268.77832,318.70856 269.18167,320.9349 268.07558,329.97842 C 266.55685,342.394 270.57239,350.35522 277.17795,348.02481 C 282.28306,346.22372 281.78679,330.5897 276.26987,319.41841 C 270.93795,308.62172 264.38432,304.95925 253.6955,306.80282 C 247.87475,307.80677 245.76921,307.40279 245.76921,305.282 C 245.76921,297.11962 263.4113,294.23638 273.52096,300.74655 C 281.87878,306.12867 287.68724,320.10371 287.74578,334.97084 C 287.78862,345.8639 286.90656,348.7823 282.39311,352.68061 C 276.71596,357.58395 272.25888,358.43396 267.32422,355.5543 z M 334.56182,351.38988 C 328.51043,346.88479 326.79937,334.62244 330.35054,321.20903 C 332.58843,312.75584 337.43172,307.81349 340.61206,310.73749 C 341.29756,311.36769 340.09804,317.65157 337.94636,324.70166 C 334.91179,334.64487 334.6281,338.53995 336.68149,342.06742 C 340.21099,348.13055 343.45771,347.80439 346.22675,341.10853 C 350.27811,331.31181 348.98475,315.55632 343.61391,309.27889 C 339.40924,304.36442 337.57749,303.76126 330.54257,304.97459 C 323.4107,306.20466 322.46834,305.87374 323.1971,302.39496 C 323.65682,300.20004 326.95278,297.46016 330.5214,296.30635 C 339.70017,293.33855 352.44827,299.85125 355.16466,308.89601 C 357.44219,316.47952 353.95172,343.98756 350.15939,348.34206 C 345.01815,354.24552 339.77408,355.27021 334.56182,351.38988 z M 299.79279,349.057 C 296.13126,345.69064 295.74051,343.40195 297.3187,334.56718 C 298.34963,328.79657 299.25565,322.86767 299.33225,321.39186 C 299.40875,319.91604 301.19208,318.70856 303.29524,318.70856 C 306.54289,318.70856 306.89803,320.43674 305.65277,330.17814 C 304.07499,342.5202 305.38384,345.82732 310.3473,342.04013 C 314.658,338.75096 314.37936,317.94653 309.91845,310.0154 C 306.81007,304.48909 305.07454,303.68209 296.2983,303.68209 C 290.76651,303.68209 285.54908,303.04646 284.70408,302.26962 C 281.39893,299.23094 288.8338,295.09553 297.60209,295.09553 C 304.69401,295.09553 308.418,296.5507 313.66031,301.37032 C 319.96638,307.16801 320.48535,308.84548 320.48535,323.43239 C 320.48535,334.73958 319.36419,340.72585 316.53465,344.52725 C 309.42983,354.07215 306.1987,354.94641 299.79279,349.057 z M 367.18287,346.61488 C 361.56344,341.44847 360.49648,320.77296 365.64649,316.84339 C 370.22405,313.35065 372.11093,316.33278 370.45582,324.44421 C 368.62407,333.42113 370.96096,342.3216 375.14963,342.3216 C 382.80254,342.3216 383.7166,317.17509 376.46137,306.2345 C 372.50715,300.27174 370.57165,299.23454 364.44346,299.79458 C 355.10127,300.64832 353.10207,296.01154 361.32682,292.56619 C 365.79804,290.69322 369.29636,290.59445 373.95104,292.20974 C 379.17734,294.02341 381.39365,293.69702 385.71952,290.4766 C 392.12005,285.7116 401.71197,285.3564 408.3611,289.63815 C 414.69649,293.71788 422.56155,310.72167 424.33043,324.16277 C 426.1915,338.30446 422.2537,345.30674 411.92353,346.22468 C 402.30982,347.07896 398.07842,343.94174 396.15933,334.53679 C 394.97303,328.72292 394.00744,327.68044 391.54729,329.55759 C 389.83581,330.86341 387.24702,335.24292 385.79437,339.28983 C 383.52933,345.59943 377.76257,350.90815 373.17355,350.90815 C 372.44707,350.90815 369.75122,348.97618 367.18287,346.61488 z M 416.68,329.44176 C 416.29348,324.12883 413.14132,314.46895 409.67532,307.97536 C 403.82773,297.01988 402.81434,296.19287 395.61713,296.50216 C 391.35114,296.68548 387.26612,297.38228 386.53912,298.0506 C 385.33073,299.16154 389.80298,317.35184 392.32446,321.58175 C 392.91457,322.57167 394.59136,321.19896 396.05052,318.53131 C 401.32958,308.88064 404.89097,310.9572 403.19694,322.69809 C 401.14189,336.94092 402.82095,340.64155 410.94855,339.78205 C 417.03132,339.1388 417.34433,338.57407 416.68,329.44176 z M 426.95453,258.15648 C 424.93778,255.32681 422.62257,249.68117 421.80936,245.6106 C 420.99626,241.54004 417.61254,233.14386 414.29004,226.95242 C 410.51154,219.91131 409.085,214.98069 410.48109,213.78733 C 411.70858,212.73797 421.1185,211.24687 431.39199,210.47378 L 450.071,209.06817 L 457.79639,227.23722 C 462.04534,237.2302 467.03616,246.56177 468.88711,247.97403 C 470.73796,249.3863 472.25235,251.85408 472.25235,253.458 C 472.25235,256.50949 468.6412,257.5492 451.23842,259.50831 C 445.45958,260.15886 438.45665,261.27843 435.67626,261.99623 C 431.96631,262.95404 429.64542,261.93227 426.95453,258.15648 z M 448.21262,250.83552 C 452.54468,249.76763 453.14563,248.49871 452.01084,242.81493 C 449.78617,231.67202 442.39745,217.8165 438.67996,217.8165 C 436.765,217.8165 432.54,218.74568 429.29111,219.88135 C 423.53457,221.89353 423.47108,222.13823 426.80421,229.47229 C 428.68541,233.61163 430.22458,239.76636 430.22458,243.14946 C 430.22458,246.53255 430.92505,249.94454 431.7811,250.73165 C 433.69141,252.48789 441.31407,252.53607 448.21262,250.83552 z M 479.75185,249.47944 C 478.42525,248.00362 476.55571,242.93218 475.59715,238.20958 C 473.48873,227.8215 468.5201,216.45594 465.28308,214.61664 C 461.90886,212.69937 462.34112,204.96279 465.83148,204.80324 C 467.43662,204.72987 475.54605,204.63778 483.85235,204.59863 C 497.67795,204.53343 499.40914,205.04374 504.33224,210.6353 C 507.29,213.99464 510.11768,218.67516 510.6158,221.03646 C 511.11413,223.39777 512.58124,230.15647 513.87626,236.05581 C 515.48955,243.40515 515.46622,247.62888 513.80213,249.47231 C 510.55634,253.06793 482.98247,253.07369 479.75185,249.47944 z M 503.02896,239.24954 C 502.61973,237.60046 501.42145,232.0022 500.36615,226.80899 C 497.83662,214.36037 493.92329,210.93377 484.26437,212.70983 C 478.39304,213.78942 477.04413,214.89441 478.32944,217.5717 C 479.24423,219.47732 481.60301,225.58179 483.57113,231.13719 C 486.04502,238.12014 488.63411,241.51516 491.95909,242.13611 C 499.64669,243.57181 503.83102,242.48074 503.02896,239.24954 z M 394.81745,198.21043 C 392.83043,195.41627 390.45039,190.93735 389.52858,188.25727 C 388.60667,185.57718 384.50482,179.29826 380.41331,174.30411 C 376.32189,169.30996 371.0069,162.40634 368.60229,158.96274 C 364.37636,152.91082 364.37254,152.60603 368.4877,149.83952 C 370.82933,148.26535 376.09043,146.9774 380.17906,146.9774 C 384.26779,146.9774 390.79159,146.39293 394.67653,145.67859 C 401.33805,144.45369 402.40821,145.27807 413.48531,160.16841 C 419.9453,168.85215 427.14232,177.83417 429.47879,180.12844 C 435.55227,186.09231 439.38569,192.53467 439.48129,196.93863 C 439.54726,199.97455 437.78798,200.68533 430.80829,200.4426 C 425.99256,200.27513 416.7375,200.84745 410.24127,201.71441 C 399.44188,203.15568 398.12074,202.85553 394.81745,198.21043 z M 422.39039,189.2418 C 424.35263,187.43769 409.95829,163.31679 403.73801,157.98583 C 398.86829,153.81223 396.30077,153.1526 389.49472,154.32648 C 379.13811,156.11276 379.00597,159.26327 388.78052,171.35071 C 392.95411,176.51191 398.10805,183.68408 400.23381,187.28887 C 403.84094,193.4059 404.67077,193.7244 412.67685,192.06431 C 417.39482,191.08603 421.7659,189.81589 422.39039,189.2418 z M 457.0381,194.78492 C 445.42417,194.02039 445.26828,193.91232 438.41722,181.88202 C 434.61735,175.20948 426.94358,164.04919 421.36441,157.0814 C 408.73668,141.31072 409.5056,137.25598 424.75928,139.17818 C 430.69204,139.9258 437.98961,140.53748 440.97627,140.53748 C 445.10537,140.53748 448.87665,144.0092 456.716,155.0273 C 462.38623,162.99669 469.35984,171.4468 472.21291,173.80532 C 478.17758,178.73622 483.92668,188.16845 483.92668,193.02354 C 483.92668,196.46675 483.25471,196.51077 457.0381,194.78492 z M 467.5826,183.316 C 467.5826,182.14556 461.67647,173.97354 454.45788,165.15597 C 443.45677,151.71807 440.24556,149.12403 434.61146,149.12403 C 430.91442,149.12403 427.88965,149.47912 427.88965,149.9131 C 427.88965,150.75742 448.09245,178.80714 451.28611,182.39695 C 453.82628,185.2522 467.5826,186.028 467.5826,183.316 z M 373.90892,796.27523 C 381.64989,746.32832 387.95317,616.08481 382.54898,617.74669 C 376.46488,619.61768 374.01319,637.61315 371.6859,697.48115 C 370.35258,731.78017 368.43835,774.33279 367.43188,792.04258 C 365.78287,821.0594 366.02248,829.24453 368.45559,827.00762 C 368.89838,826.60052 371.35244,812.77092 373.90892,796.27523 z M 242.64586,809.75237 C 241.99815,808.2766 241.46812,809.48404 241.46812,812.43569 C 241.46812,815.38734 241.99815,816.59478 242.64586,815.11901 C 243.29357,813.64313 243.29357,811.22825 242.64586,809.75237 z M 245.82672,727.64338 C 246.5341,682.23591 245.97548,669.98703 243.53494,677.39263 C 241.44613,683.73071 240.01815,720.48603 240.74856,749.10982 C 241.56186,780.98349 245.23785,765.44445 245.82672,727.64338 z M 248.83486,630.24011 C 248.92984,616.51477 247.84202,601.904 246.41755,597.77172 C 244.99307,593.63943 243.18063,586.87752 242.38993,582.74523 C 240.91838,575.05475 235.11374,566.06643 232.92086,568.08252 C 232.24868,568.70054 233.31461,572.76186 235.28965,577.10767 C 238.36438,583.87323 240.46599,605.47568 243.46082,661.09763 C 243.52431,662.27822 244.72073,661.43317 246.11929,659.21973 C 247.52487,656.99539 248.73947,644.03314 248.83486,630.24011 z "
         style="fill:#000000" />
      <rect
         y="12.126998"
         x="106.62281"
         height="10.060951"
         width="1.9656132"
         id="rect2383"
         style="fill:#ffff00;fill-opacity:1" />
    </g>
  </g>
</svg>
