<?xml version="1.0" encoding="UTF-8" standalone="no"?>
<!-- Created with Inkscape (http://www.inkscape.org/) -->
<svg
   xmlns:dc="http://purl.org/dc/elements/1.1/"
   xmlns:cc="http://creativecommons.org/ns#"
   xmlns:rdf="http://www.w3.org/1999/02/22-rdf-syntax-ns#"
   xmlns:svg="http://www.w3.org/2000/svg"
   xmlns="http://www.w3.org/2000/svg"
   xmlns:sodipodi="http://sodipodi.sourceforge.net/DTD/sodipodi-0.dtd"
   xmlns:inkscape="http://www.inkscape.org/namespaces/inkscape"
   id="svg5722"
   sodipodi:version="0.32"
   inkscape:version="0.46dev+devel"
   width="317.65808"
   height="123.4799"
   xml:space="preserve"
   sodipodi:docname="rulerandcalculator.svg"
   version="1.0"
   inkscape:output_extension="org.inkscape.output.svg.inkscape"><metadata
     id="metadata5727"><rdf:RDF><cc:Work
         rdf:about=""><dc:format>image/svg+xml</dc:format><dc:type
           rdf:resource="http://purl.org/dc/dcmitype/StillImage" /></cc:Work></rdf:RDF></metadata><defs
     id="defs5725"><clipPath
       clipPathUnits="userSpaceOnUse"
       id="clipPath5817"><path
         d="M 0,648 L 432,648 L 432,0 L 0,0 L 0,648 z"
         id="path5819" /></clipPath><clipPath
       clipPathUnits="userSpaceOnUse"
       id="clipPath5823"><path
         d="M 0,648.06 L 432,648.06 L 432,0.06 L 0,0.06 L 0,648.06 z"
         id="path5825" /></clipPath><clipPath
       clipPathUnits="userSpaceOnUse"
       id="clipPath5833"><path
         d="M 0,648 L 432,648 L 432,0 L 0,0 L 0,648 z"
         id="path5835" /></clipPath><clipPath
       clipPathUnits="userSpaceOnUse"
       id="clipPath5841"><path
         d="M 0,648.06 L 432,648.06 L 432,0.06 L 0,0.06 L 0,648.06 z"
         id="path5843" /></clipPath><clipPath
       clipPathUnits="userSpaceOnUse"
       id="clipPath5857"><path
         d="M 0,648 L 432,648 L 432,0 L 0,0 L 0,648 z"
         id="path5859" /></clipPath><clipPath
       clipPathUnits="userSpaceOnUse"
       id="clipPath5865"><path
         d="M 0,648.06 L 432,648.06 L 432,0.06 L 0,0.06 L 0,648.06 z"
         id="path5867" /></clipPath><clipPath
       clipPathUnits="userSpaceOnUse"
       id="clipPath6079"><path
         d="M 0,648 L 432,648 L 432,0 L 0,0 L 0,648 z"
         id="path6081" /></clipPath><clipPath
       clipPathUnits="userSpaceOnUse"
       id="clipPath6087"><path
         d="M 0,648.06 L 432,648.06 L 432,0.06 L 0,0.06 L 0,648.06 z"
         id="path6089" /></clipPath><clipPath
       clipPathUnits="userSpaceOnUse"
       id="clipPath6113"><path
         d="M 207.506,258.88 L 429,258.88 L 429,19.575 L 207.506,19.575 L 207.506,258.88 z"
         clip-rule="evenodd"
         id="path6115" /></clipPath><clipPath
       clipPathUnits="userSpaceOnUse"
       id="clipPath6119"><path
         d="M 0,648 L 432,648 L 432,0 L 0,0 L 0,648 z"
         id="path6121" /></clipPath><clipPath
       clipPathUnits="userSpaceOnUse"
       id="clipPath6125"><path
         d="M 0,648.06 L 432,648.06 L 432,0.06 L 0,0.06 L 0,648.06 z"
         id="path6127" /></clipPath><clipPath
       clipPathUnits="userSpaceOnUse"
       id="clipPath6135"><path
         d="M 207.506,258.88 L 429,258.88 L 429,19.575 L 207.506,19.575 L 207.506,258.88 z"
         clip-rule="evenodd"
         id="path6137" /></clipPath><clipPath
       clipPathUnits="userSpaceOnUse"
       id="clipPath6143"><path
         d="M 0,648 L 432,648 L 432,0 L 0,0 L 0,648 z"
         id="path6145" /></clipPath><clipPath
       clipPathUnits="userSpaceOnUse"
       id="clipPath6151"><path
         d="M 0,648.06 L 432,648.06 L 432,0.06 L 0,0.06 L 0,648.06 z"
         id="path6153" /></clipPath></defs><sodipodi:namedview
     inkscape:window-height="646"
     inkscape:window-width="640"
     inkscape:pageshadow="2"
     inkscape:pageopacity="0.0"
     guidetolerance="10.0"
     gridtolerance="10.0"
     objecttolerance="10.0"
     borderopacity="1.0"
     bordercolor="#666666"
     pagecolor="#ffffff"
     id="base"
     showgrid="false"
     inkscape:zoom="0.38148847"
     inkscape:cx="147.29581"
     inkscape:cy="352.57378"
     inkscape:window-x="115"
     inkscape:window-y="115"
     inkscape:current-layer="g5729" /><g
     id="g5729"
     inkscape:groupmode="layer"
     inkscape:label="guide"
     transform="matrix(1.25,0,0,-1.25,-10.687639,796.33631)"><g
       id="g6422"
       transform="matrix(1.3290091,0,0,1.3290091,-281.51277,361.73292)"><path
         id="path5755"
         style="fill:#f9a749;fill-opacity:1;fill-rule:nonzero;stroke:none"
         d="M 160.132,603.66 L 160.219,603.66 L 160.132,603.66" /><text
         style="font-size:114.88420868px"
         y="-357.14398"
         x="57.935528"
         id="text6003"
         transform="scale(1,-1)"><tspan
           id="tspan6005"
           sodipodi:role="line"
           x="57.935528"
           style="font-size:105.31052399px;font-variant:normal;font-weight:normal;writing-mode:lr-tb;fill:#2857af;fill-opacity:1;fill-rule:nonzero;stroke:none;font-family:ZapfDingbats"
           inkscape:font-specification="ZapfDingbats"
           y="-357.14398"> </tspan></text>
<path
         id="path6129"
         style="fill:#1f57af;fill-opacity:1;fill-rule:nonzero;stroke:none"
         d="M 311.818,197.482 L 311.551,195.826 L 244.084,134.529 L 240.466,132.845 C 236.417,137.319 232.412,141.77 228.364,146.245 C 229.263,147.884 229.648,149.94 230.733,151.293 L 256.697,171.367 C 256.829,171.993 257.591,171.897 257.934,172.282 L 282.506,191.476 L 302.944,207.005 L 304.155,207.174 C 306.701,203.929 309.486,200.895 311.818,197.482" /><path
         id="path6155"
         style="fill:#ffffff;fill-opacity:1;fill-rule:nonzero;stroke:none"
         d="M 271.908,163.576 L 242.565,137.232 L 231.512,149.726 L 233.873,151.561 L 237.096,147.277 C 237.547,147.246 237.697,147.801 237.694,148.095 C 236.718,149.428 235.769,150.802 234.698,152.072 C 235.243,152.806 236.234,153.397 237.005,154.115 C 239.602,150.956 241.872,147.639 244.76,144.779 C 245.284,145.175 245.783,145.526 246.201,146.041 C 243.521,148.955 241.886,152.661 239.061,155.427 C 239.4,156.107 240.432,156.671 241.153,157.303 C 242.266,156.007 243.096,154.528 244.519,153.461 C 244.959,153.612 245.483,154.007 244.949,154.496 C 243.958,155.601 243.278,156.936 242.287,158.043 C 243.212,159.022 244.568,160.043 245.704,160.781 C 246.963,159.635 247.749,158.181 249.008,157.034 C 249.197,157.155 249.456,157.297 249.539,157.541 C 248.892,159.032 247.771,160.214 246.838,161.521 C 247.451,162.567 248.898,163.24 249.884,164.126 C 250.979,162.899 252.17,161.734 253.076,160.384 C 253.353,160.457 253.611,160.598 253.765,160.86 L 251.019,164.865 C 251.507,165.398 252.416,166.153 253.216,166.62 C 255.764,164.077 257.401,160.777 259.949,158.234 C 260.436,158.767 261.323,159.184 261.913,159.892 C 260.009,162.936 257.281,165.47 255.345,168.357 L 257.397,169.964 L 260.57,166.293 L 261.106,166.506 C 260.449,167.885 259.381,169.155 258.353,170.399 C 259.01,171.419 260.274,172.082 261.235,172.924 C 262.215,171.999 263.174,170.443 264.115,169.249 C 264.488,169.09 264.605,169.488 264.819,169.655 C 264.197,171.19 262.716,172.057 262.025,173.573 L 265.125,175.971 C 266.321,174.918 267.14,173.62 268.08,172.426 C 268.505,172.354 268.579,172.778 268.836,172.92 L 265.913,176.62 C 266.888,176.985 267.999,179.084 268.836,177.717 L 274.139,170.986 C 274.93,171.635 276.809,172.349 275.237,173.562 C 273.492,175.577 272.22,177.901 270.287,179.793 C 271.185,180.729 272.269,181.382 273.247,182.154 C 274.263,181.092 274.85,179.696 276.037,178.825 C 276.488,178.796 276.535,179.176 276.819,179.361 L 274.037,182.803 L 276.562,184.718 C 277.654,183.786 278.412,182.583 279.264,181.441 L 280.133,181.926 C 279.187,183.006 278.308,184.106 277.431,185.204 C 277.959,186.007 279.078,186.522 279.876,187.283 C 280.87,186.583 281.803,185.278 282.542,184.143 L 283.284,184.411 C 282.76,185.713 281.655,186.825 280.666,187.932 C 281.432,188.243 282.053,189.401 282.758,189.106 C 284.523,186.727 286.391,184.522 288.164,182.256 C 288.787,182.418 289.343,182.97 289.813,183.572 C 288.167,186.056 286.273,188.219 284.507,190.596 C 285.096,191.305 285.981,192.016 286.876,192.545 C 287.477,191.375 288.482,190.493 289.084,189.321 L 289.952,189.807 C 289.558,191.033 288.491,192.008 287.744,193.03 C 288.309,193.694 289.295,194.58 290.234,195.084 C 291.22,194.272 291.752,193.083 292.5,192.06 L 293.11,192.405 C 292.811,193.692 291.693,194.58 290.972,195.645 L 293.074,197.339 C 294.051,196.71 294.81,195.506 295.462,194.421 C 295.737,194.494 295.971,194.592 296.124,194.854 C 295.541,195.955 294.818,197.021 294.021,197.957 C 294.807,198.198 295.437,199.876 296.209,198.897 L 300.523,193.273 C 301.23,193.385 301.926,193.972 302.395,194.574 L 298.007,200.77 C 298.67,201.903 300.117,202.577 301.147,203.435 C 301.881,202.89 302.569,201.668 303.236,200.811 L 303.848,201.154 C 304.133,202.741 299.899,204.401 303.378,205.348 L 309.765,197.573 L 271.908,163.576" /><path
         id="path6157"
         style="fill:#1f57af;fill-opacity:1;fill-rule:nonzero;stroke:none"
         d="M 408.082,199.18 L 408.082,170.455 C 404.497,170.102 401.266,168.84 397.783,168.285 C 397.278,168.486 397.682,169.344 397.631,169.596 L 398.389,170.102 C 397.278,176.16 396.521,182.318 395.814,188.528 C 395.511,187.468 394.503,187.923 393.896,188.175 L 389.756,191.052 C 391.22,193.93 392.937,196.706 394.503,199.533 C 398.843,200.593 403.084,201.957 407.83,202.057 L 408.082,199.18" /><path
         id="path6159"
         style="fill:#1f57af;fill-opacity:1;fill-rule:nonzero;stroke:none"
         d="M 409.47,202.057 L 409.47,173.333 C 405.885,172.979 402.654,171.717 399.171,171.162 C 398.666,171.364 399.071,172.223 399.019,172.475 L 399.777,172.979 C 398.666,179.037 397.909,185.196 397.202,191.406 C 396.9,190.346 395.89,190.8 395.285,191.052 L 391.144,193.93 C 392.609,196.808 394.325,199.584 395.89,202.411 C 400.232,203.471 404.472,204.834 409.217,204.935 L 409.47,202.057" /><path
         id="path6161"
         style="fill:#8495d3;fill-opacity:1;fill-rule:nonzero;stroke:none"
         d="M 406.897,202.916 C 406.34,193.981 406.34,183.783 407.4,174.797 C 405.431,174.594 403.513,174.241 401.695,173.686 C 400.535,180.502 400.635,188.326 399.272,195.293 L 399.171,195.394 L 396.243,192.264 L 392.962,194.435 C 394.578,196.403 395.285,198.776 396.597,200.846 C 400.281,200.997 403.412,202.411 406.897,202.916" /><path
         id="path6163"
         style="fill:#1f57af;fill-opacity:1;fill-rule:nonzero;stroke:none"
         d="M 247.534,194.211 C 249.705,189.011 246.171,184.115 243.295,179.924 L 238.448,174.926 L 238.7,174.725 C 241.678,175.935 244.859,176.642 247.787,177.955 C 246.02,173.916 244.051,169.979 242.486,165.839 C 236.277,164.729 230.319,162.659 224.413,161.245 C 224.059,160.942 223.1,160.387 222.242,160.387 C 221.031,164.225 219.668,167.959 218.255,171.695 C 223.606,174.674 229.461,177.45 233.752,182.801 C 234.106,184.064 235.62,185.478 234.358,186.84 C 232.39,188.254 230.168,186.79 228.301,186.234 C 225.574,184.77 222.899,183.356 220.425,181.388 C 220.122,181.691 219.465,181.741 219.465,182.195 C 220.779,186.285 221.99,190.374 223.1,194.565 C 228.402,197.695 234.712,198.754 241.376,198.199 C 243.748,197.695 246.272,196.633 247.534,194.211" /><path
         id="path6165"
         style="fill:#1f57af;fill-opacity:1;fill-rule:nonzero;stroke:none"
         d="M 249.309,196.525 C 251.48,191.325 247.946,186.428 245.069,182.238 L 240.221,177.24 L 240.474,177.038 C 243.453,178.25 246.633,178.956 249.561,180.269 C 247.794,176.231 245.826,172.293 244.261,168.152 C 238.051,167.042 232.095,164.973 226.188,163.559 C 225.835,163.256 224.875,162.701 224.016,162.701 C 222.806,166.538 221.442,170.273 220.029,174.01 C 225.38,176.987 231.237,179.764 235.527,185.115 C 235.88,186.377 237.394,187.791 236.132,189.154 C 234.164,190.567 231.943,189.104 230.074,188.547 C 227.349,187.084 224.673,185.671 222.199,183.701 C 221.897,184.005 221.24,184.055 221.24,184.509 C 222.553,188.598 223.765,192.688 224.875,196.878 C 230.176,200.008 236.487,201.068 243.15,200.512 C 245.524,200.008 248.047,198.948 249.309,196.525" /><path
         id="path6167"
         style="fill:#8495d3;fill-opacity:1;fill-rule:nonzero;stroke:none"
         d="M 246.532,195.314 C 247.794,192.688 246.382,189.659 245.472,187.185 C 242.948,182.491 239.011,177.947 234.568,174.463 L 234.164,172.192 C 238.051,172.444 241.636,174.01 245.321,174.968 C 245.069,173.707 244.362,171.99 243.756,170.727 C 237.748,169.516 231.893,167.951 226.188,165.983 C 225.684,168.304 225.33,170.677 224.623,172.9 C 230.428,175.624 237.345,179.966 239.414,186.579 C 239.414,188.649 238.708,190.87 236.74,191.678 C 232.549,193.799 228.51,191.122 225.077,189.255 C 225.531,191.122 226.188,192.89 226.44,194.807 C 231.237,197.03 236.588,198.696 242.545,197.988 C 243.958,197.232 245.775,197.079 246.532,195.314" /><path
         id="path6169"
         style="fill:#1f57af;fill-opacity:1;fill-rule:nonzero;stroke:none"
         d="M 362.006,203.608 C 371.355,196.737 380.715,189.817 389.08,182.183 L 362.31,153.424 L 362.183,153.492 L 361.506,152.398 L 348.327,138.395 C 344.277,142.831 340.517,147.72 336.309,152.162 C 332.737,156.054 329.213,159.961 325.868,163.974 C 324.764,165.753 327.132,166.821 327.772,168.222 L 356.979,206.544 C 358.795,205.923 360.396,204.605 362.006,203.608" /><path
         id="path6171"
         style="fill:#8495d3;fill-opacity:1;fill-rule:nonzero;stroke:none"
         d="M 358.962,201.971 C 365.981,196.571 373.877,191.587 380.676,185.858 L 380.909,183.822 C 370.227,171.873 359.531,159.973 349.094,147.729 C 348.431,147.48 347.921,147.961 347.521,148.422 C 341.554,154.186 335.124,159.55 328.943,165.146 C 329.035,167.332 331.124,168.633 332.148,170.515 L 336.201,175.503 L 354.294,197.643 C 355.648,198.937 356.68,200.612 357.943,202.037 L 358.962,201.971" /><path
         id="path6173"
         style="fill:#1f57af;fill-opacity:1;fill-rule:nonzero;stroke:none"
         d="M 351.774,182.103 C 351.127,181.338 349.599,181.566 348.363,182.614 C 347.124,183.663 346.647,185.134 347.294,185.901 C 347.942,186.667 349.47,186.438 350.707,185.39 C 351.944,184.341 352.422,182.871 351.774,182.103" /><path
         id="path6175"
         style="fill:#1f57af;fill-opacity:1;fill-rule:nonzero;stroke:none"
         d="M 358.013,176.819 C 357.364,176.051 355.838,176.281 354.599,177.329 C 353.361,178.377 352.885,179.848 353.532,180.615 C 354.179,181.381 355.707,181.153 356.944,180.104 C 358.18,179.055 358.659,177.584 358.013,176.819" /><path
         id="path6177"
         style="fill:#1f57af;fill-opacity:1;fill-rule:nonzero;stroke:none"
         d="M 364.205,171.569 C 363.558,170.803 362.031,171.033 360.793,172.081 C 359.556,173.129 359.077,174.599 359.726,175.366 C 360.373,176.132 361.899,175.904 363.139,174.857 C 364.374,173.808 364.853,172.337 364.205,171.569" /><path
         id="path6179"
         style="fill:#1f57af;fill-opacity:1;fill-rule:nonzero;stroke:none"
         d="M 348.14,177.627 C 347.493,176.86 345.966,177.088 344.729,178.137 C 343.492,179.186 343.013,180.656 343.661,181.424 C 344.308,182.19 345.837,181.961 347.075,180.912 C 348.312,179.863 348.789,178.393 348.14,177.627" /><path
         id="path6181"
         style="fill:#1f57af;fill-opacity:1;fill-rule:nonzero;stroke:none"
         d="M 354.38,172.341 C 353.731,171.574 352.205,171.803 350.967,172.851 C 349.729,173.9 349.252,175.371 349.899,176.137 C 350.546,176.903 352.074,176.675 353.31,175.626 C 354.547,174.577 355.026,173.107 354.38,172.341" /><path
         id="path6183"
         style="fill:#1f57af;fill-opacity:1;fill-rule:nonzero;stroke:none"
         d="M 360.572,167.091 C 359.925,166.327 358.398,166.555 357.16,167.604 C 355.922,168.652 355.445,170.122 356.091,170.89 C 356.74,171.654 358.267,171.427 359.504,170.379 C 360.742,169.33 361.221,167.859 360.572,167.091" /><path
         id="path6185"
         style="fill:#1f57af;fill-opacity:1;fill-rule:nonzero;stroke:none"
         d="M 344.4,173.362 C 343.753,172.596 342.226,172.825 340.99,173.874 C 339.751,174.921 339.273,176.393 339.921,177.159 C 340.567,177.925 342.095,177.696 343.333,176.648 C 344.57,175.599 345.048,174.129 344.4,173.362" /><path
         id="path6187"
         style="fill:#1f57af;fill-opacity:1;fill-rule:nonzero;stroke:none"
         d="M 350.639,168.077 C 349.99,167.31 348.463,167.54 347.225,168.587 C 345.988,169.636 345.512,171.108 346.158,171.873 C 346.805,172.64 348.334,172.412 349.57,171.362 C 350.808,170.313 351.285,168.843 350.639,168.077" /><path
         id="path6189"
         style="fill:#1f57af;fill-opacity:1;fill-rule:nonzero;stroke:none"
         d="M 356.83,162.829 C 356.184,162.061 354.657,162.291 353.419,163.34 C 352.182,164.388 351.704,165.858 352.352,166.626 C 352.999,167.391 354.526,167.163 355.764,166.115 C 357.001,165.066 357.48,163.595 356.83,162.829" /><path
         id="path6191"
         style="fill:#1f57af;fill-opacity:1;fill-rule:nonzero;stroke:none"
         d="M 340.732,168.857 C 340.084,168.089 338.556,168.319 337.32,169.366 C 336.082,170.416 335.603,171.886 336.252,172.653 C 336.899,173.419 338.427,173.19 339.663,172.143 C 340.901,171.093 341.379,169.622 340.732,168.857" /><path
         id="path6193"
         style="fill:#1f57af;fill-opacity:1;fill-rule:nonzero;stroke:none"
         d="M 346.969,163.571 C 346.322,162.803 344.795,163.034 343.557,164.081 C 342.319,165.129 341.842,166.602 342.489,167.367 C 343.136,168.133 344.663,167.904 345.901,166.856 C 347.138,165.807 347.617,164.336 346.969,163.571" /><path
         id="path6195"
         style="fill:#1f57af;fill-opacity:1;fill-rule:nonzero;stroke:none"
         d="M 353.162,158.321 C 352.516,157.555 350.988,157.785 349.75,158.833 C 348.513,159.881 348.035,161.352 348.683,162.118 C 349.33,162.885 350.856,162.657 352.096,161.609 C 353.332,160.56 353.81,159.089 353.162,158.321" /><path
         id="path6197"
         style="fill:#ffffff;fill-opacity:1;fill-rule:nonzero;stroke:none"
         d="M 354.096,191.662 L 368.159,177.921 L 370.723,178.152 L 375.953,185.094 L 357.863,196.725 L 356.581,196.609 L 353.853,192.723 L 354.096,191.662" /><path
         id="path6199"
         style="fill:#1f57af;fill-opacity:1;fill-rule:nonzero;stroke:none"
         d="M 353.853,192.723 C 359.365,188.141 364.108,182.962 369.999,178.7 C 371.68,180.672 373.786,182.452 374.72,184.993 L 374.479,186.343 C 375.001,186.181 375.458,185.526 375.953,185.094 C 377.461,184.802 376.543,183.637 376.259,182.815 C 374.832,180.34 372.731,178.719 371.016,176.686 C 370.574,177.293 369.846,176.55 369.296,176.809 L 367.822,177.162 C 363.233,181.65 358.166,185.785 353.694,190.412 C 353.784,191.175 352.63,192.941 353.853,192.723" /><path
         id="path6201"
         style="fill:#1f57af;fill-opacity:1;fill-rule:nonzero;stroke:none"
         d="M 298.517,162.567 L 303.657,171.101 L 311.917,166.214 L 306.514,157.563 L 313.516,153.699 L 309.984,147.296 L 303.068,150.764 L 298.687,144.48 L 292.065,148.482 L 295.07,154.481 L 287.595,158.707 L 291.718,165.659 L 293.458,164.37 L 291.027,159.843 L 297.795,156.108 L 294.791,150.109 L 298.525,148.05 L 302.316,153.266 L 309.223,149.576 L 311.478,152.614 L 303.992,157.075 L 309.028,164.877 L 304.04,167.978 L 299.242,159.835 L 290.8,164.518 L 291.666,166.347 L 298.517,162.567" /></g></g></svg>